M48
;DRILL file {KiCad 4.0.2-4+6225~38~ubuntu15.04.1-stable} date 2016年05月17日 13時52分58秒
;FORMAT={-:-/ absolute / inch / decimal}
FMAT,2
INCH,TZ
T1C0.016
T2C0.024
T3C0.024
T4C0.028
T5C0.030
T6C0.031
T7C0.032
T8C0.032
T9C0.039
T10C0.040
%
G90
G05
M72
T1
X3.9431Y-2.9075
X4.1575Y-3.8925
X4.1581Y-4.02
X4.17Y-4.2875
X4.2Y-2.47
X4.204Y-2.092
X4.2075Y-4.06
X4.245Y-2.8825
X4.2486Y-2.7483
X4.2575Y-4.0175
X4.27Y-2.18
X4.28Y-2.37
X4.32Y-2.12
X4.3275Y-2.6
X4.33Y-2.7025
X4.3313Y-2.7602
X4.3335Y-2.8592
X4.345Y-2.98
X4.345Y-3.995
X4.35Y-3.89
X4.35Y-3.94
X4.36Y-2.075
X4.37Y-2.86
X4.37Y-4.208
X4.39Y-3.815
X4.4025Y-2.535
X4.41Y-2.21
X4.4175Y-3.835
X4.42Y-2.9775
X4.43Y-2.86
X4.44Y-4.14
X4.445Y-3.8775
X4.4462Y-2.5323
X4.46Y-2.47
X4.468Y-4.158
X4.47Y-2.745
X4.4775Y-4.2725
X4.49Y-2.87
X4.4925Y-2.1675
X4.4937Y-2.2712
X4.4962Y-2.63
X4.5025Y-4.0225
X4.5425Y-4.265
X4.548Y-2.863
X4.552Y-2.733
X4.5725Y-2.305
X4.586Y-2.468
X4.5925Y-4.185
X4.5969Y-4.025
X4.6072Y-2.8643
X4.608Y-2.16
X4.635Y-4.2225
X4.67Y-2.165
X4.675Y-2.84
X4.685Y-2.345
X4.725Y-2.465
X4.7261Y-2.6954
X4.785Y-2.826
X4.7925Y-2.51
X4.826Y-4.385
X4.8817Y-4.3366
X4.9539Y-4.31
X4.974Y-3.948
X4.988Y-2.168
X4.994Y-2.531
X5.Y-2.496
X5.002Y-2.438
X5.04Y-2.13
X5.045Y-2.33
T2
X4.2337Y-2.2252
X4.777Y-2.2252
T3
X4.7Y-2.95
X4.8Y-2.95
X5.1Y-2.1
X5.1Y-2.2
X5.1Y-2.3
X5.1Y-2.4
X5.1Y-2.5
X5.1Y-2.6
X5.1Y-2.7
X5.1Y-2.8
X5.1Y-2.9
T5
X4.475Y-4.4
X4.525Y-4.4
X4.575Y-4.4
X4.625Y-4.4
T6
X4.2Y-3.75
X4.3Y-3.05
X4.3Y-3.15
X4.3Y-3.25
X4.3Y-3.35
X4.3Y-3.45
X4.3Y-3.55
X4.3Y-3.65
X4.3Y-3.75
X4.3Y-3.75
X4.4Y-3.05
X4.4Y-3.15
X4.4Y-3.25
X4.4Y-3.35
X4.4Y-3.45
X4.4Y-3.55
X4.4Y-3.65
X4.4Y-3.75
X4.5Y-2.055
X4.5Y-2.95
X4.5Y-3.05
X4.5Y-3.15
X4.5Y-3.25
X4.5Y-3.35
X4.5Y-3.45
X4.5Y-3.55
X4.5Y-3.65
X4.5Y-3.75
X4.5Y-3.85
X4.6Y-2.055
X4.6Y-2.95
X4.6Y-3.05
X4.6Y-3.15
X4.6Y-3.25
X4.6Y-3.35
X4.6Y-3.45
X4.6Y-3.55
X4.6Y-3.65
X4.6Y-3.75
X4.6Y-3.85
X4.7Y-3.05
X4.7Y-3.15
X4.7Y-3.25
X4.7Y-3.35
X4.7Y-3.45
X4.7Y-3.55
X4.7Y-3.65
X4.7Y-3.75
X4.8Y-3.05
X4.8Y-3.15
X4.8Y-3.25
X4.8Y-3.35
X4.8Y-3.45
X4.8Y-3.55
X4.8Y-3.65
X4.8Y-3.75
X4.8Y-3.75
X4.9Y-2.1
X4.9Y-3.75
X4.913Y-4.153
X4.9301Y-4.0561
X4.9358Y-3.6798
X4.985Y-3.765
T7
X4.1125Y-2.88
X4.1725Y-2.9275
X4.8125Y-2.075
T8
X5.1Y-4.25
X5.1Y-4.35
X5.1Y-4.45
T9
X3.98Y-2.09
X4.08Y-2.09
X4.41Y-4.0999
X4.51Y-4.0999
X4.59Y-4.0999
X4.69Y-4.0999
T10
X3.975Y-3.65
X3.995Y-3.865
X3.995Y-3.965
X4.Y-4.27
X4.Y-4.37
X4.075Y-3.65
X4.175Y-3.65
X4.45Y-3.945
X4.55Y-3.945
X4.65Y-3.945
X4.75Y-3.945
X4.8Y-2.3
X4.8Y-2.4
X4.8Y-2.5
X4.85Y-3.945
X4.9Y-2.2
X4.9Y-2.3
X4.9Y-2.5
X4.9Y-2.6
X4.9Y-2.7
X4.9Y-2.8
X4.9Y-2.9
X5.1Y-3.65
X5.1Y-3.75
X5.1Y-3.85
X5.1Y-3.95
X5.1Y-3.95
X5.1Y-4.05
X5.1Y-4.15
T4
X4.2958Y-4.115G85X4.2958Y-4.1661
G05
T6
X4.7998Y-4.1169G85X4.7998Y-4.1642
G05
T0
M30
