G04 #@! TF.FileFunction,Soldermask,Top*
%FSLAX46Y46*%
G04 Gerber Fmt 4.6, Leading zero omitted, Abs format (unit mm)*
G04 Created by KiCad (PCBNEW 4.0.2-4+6225~38~ubuntu15.04.1-stable) date 2016年05月17日 13時52分55秒*
%MOMM*%
G01*
G04 APERTURE LIST*
%ADD10C,0.100000*%
%ADD11C,1.700000*%
%ADD12O,1.800000X2.051000*%
%ADD13O,1.800000X2.400000*%
%ADD14O,1.800000X2.000000*%
%ADD15O,1.800000X1.670000*%
%ADD16C,2.432000*%
%ADD17O,2.200000X2.127200*%
%ADD18O,2.432000X2.127200*%
%ADD19O,1.800000X1.800000*%
%ADD20R,1.700000X2.000000*%
%ADD21C,2.000000*%
%ADD22R,2.200000X1.800000*%
%ADD23R,1.700000X1.700000*%
%ADD24R,2.400000X2.400000*%
%ADD25C,2.400000*%
%ADD26O,1.517600X2.305000*%
%ADD27R,1.517600X2.305000*%
%ADD28R,2.127200X2.100000*%
%ADD29O,2.432000X1.924000*%
%ADD30R,2.432000X2.127200*%
%ADD31R,2.432000X2.432000*%
%ADD32O,2.432000X2.432000*%
%ADD33R,1.797000X1.797000*%
%ADD34C,1.797000*%
%ADD35R,1.300000X2.100000*%
%ADD36C,2.100000*%
%ADD37O,2.432000X2.000000*%
%ADD38R,2.000000X1.800000*%
%ADD39C,1.901140*%
%ADD40O,2.000000X3.400000*%
%ADD41O,2.100000X2.400000*%
%ADD42O,2.127200X2.200000*%
%ADD43O,2.127200X2.432000*%
%ADD44O,1.900000X2.432000*%
%ADD45R,1.460000X1.050000*%
%ADD46R,2.127200X2.432000*%
%ADD47R,1.600000X2.100000*%
%ADD48R,1.200000X1.600000*%
%ADD49R,2.800000X1.900000*%
%ADD50C,1.200000*%
%ADD51R,1.299160X2.398980*%
%ADD52R,1.400760X2.398980*%
%ADD53C,1.900000*%
%ADD54R,1.600000X2.000000*%
%ADD55O,2.400000X2.100000*%
G04 APERTURE END LIST*
D10*
D11*
X105981500Y-74358500D03*
D12*
X119380000Y-74930000D03*
D13*
X121920000Y-74930000D03*
D11*
X125224320Y-103024181D03*
D10*
G36*
X125398570Y-106355042D02*
X123921358Y-106094570D01*
X124181830Y-104617358D01*
X125659042Y-104877830D01*
X125398570Y-106355042D01*
X125398570Y-106355042D01*
G37*
D14*
X116840000Y-97790000D03*
X116840000Y-95250000D03*
D13*
X116840000Y-92710000D03*
X116840000Y-90170000D03*
X116840000Y-87630000D03*
X116840000Y-85090000D03*
X116840000Y-82550000D03*
X116840000Y-80010000D03*
X116840000Y-77470000D03*
D15*
X116840000Y-74930000D03*
D16*
X129540000Y-100330000D03*
D17*
X129540000Y-97790000D03*
D18*
X129540000Y-95250000D03*
X129540000Y-92710000D03*
D13*
X106680000Y-95250000D03*
X109220000Y-95250000D03*
D14*
X121920000Y-95250000D03*
D19*
X124460000Y-95250000D03*
D14*
X119380000Y-92710000D03*
X121920000Y-92710000D03*
X119380000Y-95250000D03*
X121920000Y-95250000D03*
X119380000Y-90170000D03*
X121920000Y-90170000D03*
D13*
X119380000Y-87630000D03*
X121920000Y-87630000D03*
X119380000Y-77470000D03*
X121920000Y-77470000D03*
X119380000Y-80010000D03*
X121920000Y-80010000D03*
X119380000Y-85090000D03*
X121920000Y-85090000D03*
X119380000Y-82550000D03*
X121920000Y-82550000D03*
X109220000Y-82550000D03*
X111760000Y-82550000D03*
X109220000Y-85090000D03*
X111760000Y-85090000D03*
X109220000Y-80010000D03*
X111760000Y-80010000D03*
X109220000Y-77470000D03*
X111760000Y-77470000D03*
X109220000Y-87630000D03*
X111760000Y-87630000D03*
X109220000Y-90170000D03*
X111760000Y-90170000D03*
X109220000Y-95250000D03*
X111760000Y-95250000D03*
D20*
X121335000Y-56520000D03*
D21*
X109435000Y-61420000D03*
X119435000Y-61420000D03*
D22*
X107535000Y-56520000D03*
D11*
X125369000Y-93465936D03*
D23*
X126619000Y-95631000D03*
D24*
X101092000Y-53086000D03*
D25*
X103632000Y-53086000D03*
D26*
X117475000Y-111760000D03*
D27*
X116205000Y-111760000D03*
D26*
X114935000Y-111760000D03*
X113665000Y-111760000D03*
D28*
X121920000Y-63500000D03*
D29*
X121920000Y-60960000D03*
X121920000Y-58420000D03*
D30*
X124460000Y-73660000D03*
D18*
X124460000Y-71120000D03*
X124460000Y-68580000D03*
X124460000Y-66040000D03*
X124460000Y-63500000D03*
D31*
X101473000Y-98171000D03*
D32*
X101473000Y-100711000D03*
D31*
X101600000Y-108458000D03*
D32*
X101600000Y-110998000D03*
D16*
X129540000Y-100330000D03*
D18*
X129540000Y-102870000D03*
D17*
X129540000Y-105410000D03*
D33*
X129540000Y-107950000D03*
D34*
X129540000Y-110490000D03*
X129540000Y-113030000D03*
D35*
X106522000Y-54754000D03*
X106522000Y-72754000D03*
X108022000Y-54754000D03*
X108022000Y-72754000D03*
X109522000Y-54754000D03*
X109522000Y-72754000D03*
X111022000Y-54754000D03*
X111022000Y-72754000D03*
X112522000Y-54754000D03*
X112522000Y-72754000D03*
X114022000Y-54754000D03*
X114022000Y-72754000D03*
X115522000Y-54754000D03*
X115522000Y-72754000D03*
X117022000Y-54754000D03*
X117022000Y-72754000D03*
X118522000Y-54754000D03*
X118522000Y-72754000D03*
D13*
X109220000Y-92710000D03*
X111760000Y-92710000D03*
X114300000Y-97790000D03*
X114300000Y-95250000D03*
X114300000Y-92710000D03*
X114300000Y-90170000D03*
X114300000Y-87630000D03*
X114300000Y-85090000D03*
X114300000Y-82550000D03*
X114300000Y-80010000D03*
X114300000Y-77470000D03*
D15*
X114300000Y-74930000D03*
D36*
X124460000Y-53340000D03*
D37*
X124460000Y-55880000D03*
D18*
X124460000Y-58420000D03*
D38*
X120980200Y-113309200D03*
X120980200Y-110109200D03*
D39*
X119126860Y-104137880D03*
X116586860Y-104137880D03*
X114554860Y-104137880D03*
X112014860Y-104137880D03*
D40*
X121914000Y-105170000D03*
X109114000Y-105170000D03*
D41*
X113030000Y-100203000D03*
D42*
X115570000Y-100203000D03*
X118110000Y-100203000D03*
D43*
X120650000Y-100203000D03*
D44*
X123190000Y-100203000D03*
D45*
X123995000Y-110149600D03*
X123995000Y-111099600D03*
X123995000Y-112049600D03*
X126195000Y-112049600D03*
X126195000Y-110149600D03*
D46*
X106045000Y-92710000D03*
D43*
X103505000Y-92710000D03*
X100965000Y-92710000D03*
D47*
X112063000Y-113030000D03*
X108663000Y-113030000D03*
D48*
X107220000Y-52324000D03*
X109220000Y-52324000D03*
X108220000Y-52324000D03*
D49*
X113770000Y-52197000D03*
X117370000Y-52197000D03*
D50*
X116840000Y-52197000D03*
X114300000Y-52197000D03*
D51*
X107012740Y-113019840D03*
D52*
X104363520Y-113019840D03*
X104363520Y-105420160D03*
X106964480Y-105420160D03*
D11*
X104457500Y-73152000D03*
D53*
X122237500Y-52705000D03*
D47*
X112063000Y-109982000D03*
X108663000Y-109982000D03*
D54*
X105234000Y-101219000D03*
X108634000Y-101219000D03*
D47*
X100154000Y-73850500D03*
X103554000Y-73850500D03*
D55*
X129540000Y-73660000D03*
X129540000Y-63500000D03*
X129540000Y-66040000D03*
X129540000Y-71120000D03*
X129540000Y-68580000D03*
X129540000Y-58420000D03*
X129540000Y-60960000D03*
X129540000Y-55880000D03*
X129540000Y-53340000D03*
M02*
