G04 #@! TF.FileFunction,Legend,Top*
%FSLAX46Y46*%
G04 Gerber Fmt 4.6, Leading zero omitted, Abs format (unit mm)*
G04 Created by KiCad (PCBNEW 4.0.2-4+6225~38~ubuntu15.04.1-stable) date 2016年05月17日 13時52分55秒*
%MOMM*%
G01*
G04 APERTURE LIST*
%ADD10C,0.100000*%
%ADD11C,0.300000*%
%ADD12C,0.150000*%
%ADD13C,0.175000*%
%ADD14C,0.250000*%
%ADD15C,0.170000*%
%ADD16C,2.000000*%
%ADD17C,0.200000*%
%ADD18C,0.125000*%
%ADD19C,0.002540*%
G04 APERTURE END LIST*
D10*
D11*
X132981772Y-95357143D02*
X134124629Y-95357143D01*
X133553200Y-95928571D02*
X133553200Y-94785714D01*
D12*
X115812857Y-98526802D02*
X115841429Y-98526802D01*
X115755714Y-98498230D02*
X115841429Y-98498230D01*
X115698571Y-98469659D02*
X115841429Y-98469659D01*
X115641429Y-98441088D02*
X115841429Y-98441088D01*
X115612857Y-98412516D02*
X115841429Y-98412516D01*
X115555714Y-98383945D02*
X115841429Y-98383945D01*
X115498571Y-98355373D02*
X115841429Y-98355373D01*
X115441429Y-98326802D02*
X115841429Y-98326802D01*
X115384286Y-98298230D02*
X115841429Y-98298230D01*
X115441429Y-98269659D02*
X115841429Y-98269659D01*
X115498571Y-98241088D02*
X115841429Y-98241088D01*
X115555714Y-98212516D02*
X115841429Y-98212516D01*
X115612857Y-98183945D02*
X115841429Y-98183945D01*
X115641429Y-98155373D02*
X115841429Y-98155373D01*
X115698571Y-98126802D02*
X115841429Y-98126802D01*
X115755714Y-98098230D02*
X115841429Y-98098230D01*
X115841429Y-98069659D02*
X115412857Y-98298230D01*
X115841429Y-98526802D01*
X115812857Y-98069659D02*
X115841429Y-98069659D01*
X115384286Y-98298230D02*
X115841429Y-98041088D01*
X115841429Y-98555373D01*
X115384286Y-98298230D01*
X115241429Y-97841088D02*
X115241429Y-97469659D01*
X115470000Y-97669659D01*
X115470000Y-97583945D01*
X115498571Y-97526802D01*
X115527143Y-97498231D01*
X115584286Y-97469659D01*
X115727143Y-97469659D01*
X115784286Y-97498231D01*
X115812857Y-97526802D01*
X115841429Y-97583945D01*
X115841429Y-97755373D01*
X115812857Y-97812516D01*
X115784286Y-97841088D01*
X115241429Y-97298230D02*
X115841429Y-97098230D01*
X115241429Y-96898230D01*
X115241429Y-96755373D02*
X115241429Y-96383944D01*
X115470000Y-96583944D01*
X115470000Y-96498230D01*
X115498571Y-96441087D01*
X115527143Y-96412516D01*
X115584286Y-96383944D01*
X115727143Y-96383944D01*
X115784286Y-96412516D01*
X115812857Y-96441087D01*
X115841429Y-96498230D01*
X115841429Y-96669658D01*
X115812857Y-96726801D01*
X115784286Y-96755373D01*
X115812857Y-96126801D02*
X115841429Y-96126801D01*
X115755714Y-96098229D02*
X115841429Y-96098229D01*
X115698571Y-96069658D02*
X115841429Y-96069658D01*
X115641429Y-96041087D02*
X115841429Y-96041087D01*
X115612857Y-96012515D02*
X115841429Y-96012515D01*
X115555714Y-95983944D02*
X115841429Y-95983944D01*
X115498571Y-95955372D02*
X115841429Y-95955372D01*
X115441429Y-95926801D02*
X115841429Y-95926801D01*
X115384286Y-95898229D02*
X115841429Y-95898229D01*
X115441429Y-95869658D02*
X115841429Y-95869658D01*
X115498571Y-95841087D02*
X115841429Y-95841087D01*
X115555714Y-95812515D02*
X115841429Y-95812515D01*
X115612857Y-95783944D02*
X115841429Y-95783944D01*
X115641429Y-95755372D02*
X115841429Y-95755372D01*
X115698571Y-95726801D02*
X115841429Y-95726801D01*
X115755714Y-95698229D02*
X115841429Y-95698229D01*
X115841429Y-95669658D02*
X115412857Y-95898229D01*
X115841429Y-96126801D01*
X115812857Y-95669658D02*
X115841429Y-95669658D01*
X115384286Y-95898229D02*
X115841429Y-95641087D01*
X115841429Y-96155372D01*
X115384286Y-95898229D01*
X115412857Y-94012515D02*
X115384286Y-94012515D01*
X115470000Y-94041086D02*
X115384286Y-94041086D01*
X115527143Y-94069658D02*
X115384286Y-94069658D01*
X115584286Y-94098229D02*
X115384286Y-94098229D01*
X115612857Y-94126801D02*
X115384286Y-94126801D01*
X115670000Y-94155372D02*
X115384286Y-94155372D01*
X115727143Y-94183944D02*
X115384286Y-94183944D01*
X115784286Y-94212515D02*
X115384286Y-94212515D01*
X115841429Y-94241086D02*
X115384286Y-94241086D01*
X115784286Y-94269658D02*
X115384286Y-94269658D01*
X115727143Y-94298229D02*
X115384286Y-94298229D01*
X115670000Y-94326801D02*
X115384286Y-94326801D01*
X115612857Y-94355372D02*
X115384286Y-94355372D01*
X115584286Y-94383944D02*
X115384286Y-94383944D01*
X115527143Y-94412515D02*
X115384286Y-94412515D01*
X115470000Y-94441086D02*
X115384286Y-94441086D01*
X115384286Y-94469658D02*
X115812857Y-94241086D01*
X115384286Y-94012515D01*
X115412857Y-94469658D02*
X115384286Y-94469658D01*
X115841429Y-94241086D02*
X115384286Y-94498229D01*
X115384286Y-93983944D01*
X115841429Y-94241086D01*
X115270000Y-93412515D02*
X115241429Y-93469658D01*
X115241429Y-93555372D01*
X115270000Y-93641087D01*
X115327143Y-93698229D01*
X115384286Y-93726801D01*
X115498571Y-93755372D01*
X115584286Y-93755372D01*
X115698571Y-93726801D01*
X115755714Y-93698229D01*
X115812857Y-93641087D01*
X115841429Y-93555372D01*
X115841429Y-93498229D01*
X115812857Y-93412515D01*
X115784286Y-93383944D01*
X115584286Y-93383944D01*
X115584286Y-93498229D01*
X115841429Y-93126801D02*
X115241429Y-93126801D01*
X115841429Y-92783944D01*
X115241429Y-92783944D01*
X115841429Y-92498230D02*
X115241429Y-92498230D01*
X115241429Y-92355373D01*
X115270000Y-92269658D01*
X115327143Y-92212516D01*
X115384286Y-92183944D01*
X115498571Y-92155373D01*
X115584286Y-92155373D01*
X115698571Y-92183944D01*
X115755714Y-92212516D01*
X115812857Y-92269658D01*
X115841429Y-92355373D01*
X115841429Y-92498230D01*
X115412857Y-91441087D02*
X115384286Y-91441087D01*
X115470000Y-91469658D02*
X115384286Y-91469658D01*
X115527143Y-91498230D02*
X115384286Y-91498230D01*
X115584286Y-91526801D02*
X115384286Y-91526801D01*
X115612857Y-91555373D02*
X115384286Y-91555373D01*
X115670000Y-91583944D02*
X115384286Y-91583944D01*
X115727143Y-91612516D02*
X115384286Y-91612516D01*
X115784286Y-91641087D02*
X115384286Y-91641087D01*
X115841429Y-91669658D02*
X115384286Y-91669658D01*
X115784286Y-91698230D02*
X115384286Y-91698230D01*
X115727143Y-91726801D02*
X115384286Y-91726801D01*
X115670000Y-91755373D02*
X115384286Y-91755373D01*
X115612857Y-91783944D02*
X115384286Y-91783944D01*
X115584286Y-91812516D02*
X115384286Y-91812516D01*
X115527143Y-91841087D02*
X115384286Y-91841087D01*
X115470000Y-91869658D02*
X115384286Y-91869658D01*
X115384286Y-91898230D02*
X115812857Y-91669658D01*
X115384286Y-91441087D01*
X115412857Y-91898230D02*
X115384286Y-91898230D01*
X115841429Y-91669658D02*
X115384286Y-91926801D01*
X115384286Y-91412516D01*
X115841429Y-91669658D01*
X115812857Y-90241087D02*
X115841429Y-90241087D01*
X115755714Y-90212515D02*
X115841429Y-90212515D01*
X115698571Y-90183944D02*
X115841429Y-90183944D01*
X115641429Y-90155373D02*
X115841429Y-90155373D01*
X115612857Y-90126801D02*
X115841429Y-90126801D01*
X115555714Y-90098230D02*
X115841429Y-90098230D01*
X115498571Y-90069658D02*
X115841429Y-90069658D01*
X115441429Y-90041087D02*
X115841429Y-90041087D01*
X115384286Y-90012515D02*
X115841429Y-90012515D01*
X115441429Y-89983944D02*
X115841429Y-89983944D01*
X115498571Y-89955373D02*
X115841429Y-89955373D01*
X115555714Y-89926801D02*
X115841429Y-89926801D01*
X115612857Y-89898230D02*
X115841429Y-89898230D01*
X115641429Y-89869658D02*
X115841429Y-89869658D01*
X115698571Y-89841087D02*
X115841429Y-89841087D01*
X115755714Y-89812515D02*
X115841429Y-89812515D01*
X115841429Y-89783944D02*
X115412857Y-90012515D01*
X115841429Y-90241087D01*
X115812857Y-89783944D02*
X115841429Y-89783944D01*
X115384286Y-90012515D02*
X115841429Y-89755373D01*
X115841429Y-90269658D01*
X115384286Y-90012515D01*
X115241429Y-89555373D02*
X115241429Y-89183944D01*
X115470000Y-89383944D01*
X115470000Y-89298230D01*
X115498571Y-89241087D01*
X115527143Y-89212516D01*
X115584286Y-89183944D01*
X115727143Y-89183944D01*
X115784286Y-89212516D01*
X115812857Y-89241087D01*
X115841429Y-89298230D01*
X115841429Y-89469658D01*
X115812857Y-89526801D01*
X115784286Y-89555373D01*
X115241429Y-89012515D02*
X115841429Y-88812515D01*
X115241429Y-88612515D01*
X115241429Y-88469658D02*
X115241429Y-88098229D01*
X115470000Y-88298229D01*
X115470000Y-88212515D01*
X115498571Y-88155372D01*
X115527143Y-88126801D01*
X115584286Y-88098229D01*
X115727143Y-88098229D01*
X115784286Y-88126801D01*
X115812857Y-88155372D01*
X115841429Y-88212515D01*
X115841429Y-88383943D01*
X115812857Y-88441086D01*
X115784286Y-88469658D01*
X115812857Y-87841086D02*
X115841429Y-87841086D01*
X115755714Y-87812514D02*
X115841429Y-87812514D01*
X115698571Y-87783943D02*
X115841429Y-87783943D01*
X115641429Y-87755372D02*
X115841429Y-87755372D01*
X115612857Y-87726800D02*
X115841429Y-87726800D01*
X115555714Y-87698229D02*
X115841429Y-87698229D01*
X115498571Y-87669657D02*
X115841429Y-87669657D01*
X115441429Y-87641086D02*
X115841429Y-87641086D01*
X115384286Y-87612514D02*
X115841429Y-87612514D01*
X115441429Y-87583943D02*
X115841429Y-87583943D01*
X115498571Y-87555372D02*
X115841429Y-87555372D01*
X115555714Y-87526800D02*
X115841429Y-87526800D01*
X115612857Y-87498229D02*
X115841429Y-87498229D01*
X115641429Y-87469657D02*
X115841429Y-87469657D01*
X115698571Y-87441086D02*
X115841429Y-87441086D01*
X115755714Y-87412514D02*
X115841429Y-87412514D01*
X115841429Y-87383943D02*
X115412857Y-87612514D01*
X115841429Y-87841086D01*
X115812857Y-87383943D02*
X115841429Y-87383943D01*
X115384286Y-87612514D02*
X115841429Y-87355372D01*
X115841429Y-87869657D01*
X115384286Y-87612514D01*
X115412857Y-85726800D02*
X115384286Y-85726800D01*
X115470000Y-85755371D02*
X115384286Y-85755371D01*
X115527143Y-85783943D02*
X115384286Y-85783943D01*
X115584286Y-85812514D02*
X115384286Y-85812514D01*
X115612857Y-85841086D02*
X115384286Y-85841086D01*
X115670000Y-85869657D02*
X115384286Y-85869657D01*
X115727143Y-85898229D02*
X115384286Y-85898229D01*
X115784286Y-85926800D02*
X115384286Y-85926800D01*
X115841429Y-85955371D02*
X115384286Y-85955371D01*
X115784286Y-85983943D02*
X115384286Y-85983943D01*
X115727143Y-86012514D02*
X115384286Y-86012514D01*
X115670000Y-86041086D02*
X115384286Y-86041086D01*
X115612857Y-86069657D02*
X115384286Y-86069657D01*
X115584286Y-86098229D02*
X115384286Y-86098229D01*
X115527143Y-86126800D02*
X115384286Y-86126800D01*
X115470000Y-86155371D02*
X115384286Y-86155371D01*
X115384286Y-86183943D02*
X115812857Y-85955371D01*
X115384286Y-85726800D01*
X115412857Y-86183943D02*
X115384286Y-86183943D01*
X115841429Y-85955371D02*
X115384286Y-86212514D01*
X115384286Y-85698229D01*
X115841429Y-85955371D01*
X115270000Y-85126800D02*
X115241429Y-85183943D01*
X115241429Y-85269657D01*
X115270000Y-85355372D01*
X115327143Y-85412514D01*
X115384286Y-85441086D01*
X115498571Y-85469657D01*
X115584286Y-85469657D01*
X115698571Y-85441086D01*
X115755714Y-85412514D01*
X115812857Y-85355372D01*
X115841429Y-85269657D01*
X115841429Y-85212514D01*
X115812857Y-85126800D01*
X115784286Y-85098229D01*
X115584286Y-85098229D01*
X115584286Y-85212514D01*
X115841429Y-84841086D02*
X115241429Y-84841086D01*
X115841429Y-84498229D01*
X115241429Y-84498229D01*
X115841429Y-84212515D02*
X115241429Y-84212515D01*
X115241429Y-84069658D01*
X115270000Y-83983943D01*
X115327143Y-83926801D01*
X115384286Y-83898229D01*
X115498571Y-83869658D01*
X115584286Y-83869658D01*
X115698571Y-83898229D01*
X115755714Y-83926801D01*
X115812857Y-83983943D01*
X115841429Y-84069658D01*
X115841429Y-84212515D01*
X115412857Y-83155372D02*
X115384286Y-83155372D01*
X115470000Y-83183943D02*
X115384286Y-83183943D01*
X115527143Y-83212515D02*
X115384286Y-83212515D01*
X115584286Y-83241086D02*
X115384286Y-83241086D01*
X115612857Y-83269658D02*
X115384286Y-83269658D01*
X115670000Y-83298229D02*
X115384286Y-83298229D01*
X115727143Y-83326801D02*
X115384286Y-83326801D01*
X115784286Y-83355372D02*
X115384286Y-83355372D01*
X115841429Y-83383943D02*
X115384286Y-83383943D01*
X115784286Y-83412515D02*
X115384286Y-83412515D01*
X115727143Y-83441086D02*
X115384286Y-83441086D01*
X115670000Y-83469658D02*
X115384286Y-83469658D01*
X115612857Y-83498229D02*
X115384286Y-83498229D01*
X115584286Y-83526801D02*
X115384286Y-83526801D01*
X115527143Y-83555372D02*
X115384286Y-83555372D01*
X115470000Y-83583943D02*
X115384286Y-83583943D01*
X115384286Y-83612515D02*
X115812857Y-83383943D01*
X115384286Y-83155372D01*
X115412857Y-83612515D02*
X115384286Y-83612515D01*
X115841429Y-83383943D02*
X115384286Y-83641086D01*
X115384286Y-83126801D01*
X115841429Y-83383943D01*
X115812857Y-81955372D02*
X115841429Y-81955372D01*
X115755714Y-81926800D02*
X115841429Y-81926800D01*
X115698571Y-81898229D02*
X115841429Y-81898229D01*
X115641429Y-81869658D02*
X115841429Y-81869658D01*
X115612857Y-81841086D02*
X115841429Y-81841086D01*
X115555714Y-81812515D02*
X115841429Y-81812515D01*
X115498571Y-81783943D02*
X115841429Y-81783943D01*
X115441429Y-81755372D02*
X115841429Y-81755372D01*
X115384286Y-81726800D02*
X115841429Y-81726800D01*
X115441429Y-81698229D02*
X115841429Y-81698229D01*
X115498571Y-81669658D02*
X115841429Y-81669658D01*
X115555714Y-81641086D02*
X115841429Y-81641086D01*
X115612857Y-81612515D02*
X115841429Y-81612515D01*
X115641429Y-81583943D02*
X115841429Y-81583943D01*
X115698571Y-81555372D02*
X115841429Y-81555372D01*
X115755714Y-81526800D02*
X115841429Y-81526800D01*
X115841429Y-81498229D02*
X115412857Y-81726800D01*
X115841429Y-81955372D01*
X115812857Y-81498229D02*
X115841429Y-81498229D01*
X115384286Y-81726800D02*
X115841429Y-81469658D01*
X115841429Y-81983943D01*
X115384286Y-81726800D01*
X115241429Y-81269658D02*
X115241429Y-80898229D01*
X115470000Y-81098229D01*
X115470000Y-81012515D01*
X115498571Y-80955372D01*
X115527143Y-80926801D01*
X115584286Y-80898229D01*
X115727143Y-80898229D01*
X115784286Y-80926801D01*
X115812857Y-80955372D01*
X115841429Y-81012515D01*
X115841429Y-81183943D01*
X115812857Y-81241086D01*
X115784286Y-81269658D01*
X115241429Y-80726800D02*
X115841429Y-80526800D01*
X115241429Y-80326800D01*
X115241429Y-80183943D02*
X115241429Y-79812514D01*
X115470000Y-80012514D01*
X115470000Y-79926800D01*
X115498571Y-79869657D01*
X115527143Y-79841086D01*
X115584286Y-79812514D01*
X115727143Y-79812514D01*
X115784286Y-79841086D01*
X115812857Y-79869657D01*
X115841429Y-79926800D01*
X115841429Y-80098228D01*
X115812857Y-80155371D01*
X115784286Y-80183943D01*
X115812857Y-79555371D02*
X115841429Y-79555371D01*
X115755714Y-79526799D02*
X115841429Y-79526799D01*
X115698571Y-79498228D02*
X115841429Y-79498228D01*
X115641429Y-79469657D02*
X115841429Y-79469657D01*
X115612857Y-79441085D02*
X115841429Y-79441085D01*
X115555714Y-79412514D02*
X115841429Y-79412514D01*
X115498571Y-79383942D02*
X115841429Y-79383942D01*
X115441429Y-79355371D02*
X115841429Y-79355371D01*
X115384286Y-79326799D02*
X115841429Y-79326799D01*
X115441429Y-79298228D02*
X115841429Y-79298228D01*
X115498571Y-79269657D02*
X115841429Y-79269657D01*
X115555714Y-79241085D02*
X115841429Y-79241085D01*
X115612857Y-79212514D02*
X115841429Y-79212514D01*
X115641429Y-79183942D02*
X115841429Y-79183942D01*
X115698571Y-79155371D02*
X115841429Y-79155371D01*
X115755714Y-79126799D02*
X115841429Y-79126799D01*
X115841429Y-79098228D02*
X115412857Y-79326799D01*
X115841429Y-79555371D01*
X115812857Y-79098228D02*
X115841429Y-79098228D01*
X115384286Y-79326799D02*
X115841429Y-79069657D01*
X115841429Y-79583942D01*
X115384286Y-79326799D01*
X115412857Y-77441085D02*
X115384286Y-77441085D01*
X115470000Y-77469656D02*
X115384286Y-77469656D01*
X115527143Y-77498228D02*
X115384286Y-77498228D01*
X115584286Y-77526799D02*
X115384286Y-77526799D01*
X115612857Y-77555371D02*
X115384286Y-77555371D01*
X115670000Y-77583942D02*
X115384286Y-77583942D01*
X115727143Y-77612514D02*
X115384286Y-77612514D01*
X115784286Y-77641085D02*
X115384286Y-77641085D01*
X115841429Y-77669656D02*
X115384286Y-77669656D01*
X115784286Y-77698228D02*
X115384286Y-77698228D01*
X115727143Y-77726799D02*
X115384286Y-77726799D01*
X115670000Y-77755371D02*
X115384286Y-77755371D01*
X115612857Y-77783942D02*
X115384286Y-77783942D01*
X115584286Y-77812514D02*
X115384286Y-77812514D01*
X115527143Y-77841085D02*
X115384286Y-77841085D01*
X115470000Y-77869656D02*
X115384286Y-77869656D01*
X115384286Y-77898228D02*
X115812857Y-77669656D01*
X115384286Y-77441085D01*
X115412857Y-77898228D02*
X115384286Y-77898228D01*
X115841429Y-77669656D02*
X115384286Y-77926799D01*
X115384286Y-77412514D01*
X115841429Y-77669656D01*
X115270000Y-76841085D02*
X115241429Y-76898228D01*
X115241429Y-76983942D01*
X115270000Y-77069657D01*
X115327143Y-77126799D01*
X115384286Y-77155371D01*
X115498571Y-77183942D01*
X115584286Y-77183942D01*
X115698571Y-77155371D01*
X115755714Y-77126799D01*
X115812857Y-77069657D01*
X115841429Y-76983942D01*
X115841429Y-76926799D01*
X115812857Y-76841085D01*
X115784286Y-76812514D01*
X115584286Y-76812514D01*
X115584286Y-76926799D01*
X115841429Y-76555371D02*
X115241429Y-76555371D01*
X115841429Y-76212514D01*
X115241429Y-76212514D01*
X115841429Y-75926800D02*
X115241429Y-75926800D01*
X115241429Y-75783943D01*
X115270000Y-75698228D01*
X115327143Y-75641086D01*
X115384286Y-75612514D01*
X115498571Y-75583943D01*
X115584286Y-75583943D01*
X115698571Y-75612514D01*
X115755714Y-75641086D01*
X115812857Y-75698228D01*
X115841429Y-75783943D01*
X115841429Y-75926800D01*
X115412857Y-74869657D02*
X115384286Y-74869657D01*
X115470000Y-74898228D02*
X115384286Y-74898228D01*
X115527143Y-74926800D02*
X115384286Y-74926800D01*
X115584286Y-74955371D02*
X115384286Y-74955371D01*
X115612857Y-74983943D02*
X115384286Y-74983943D01*
X115670000Y-75012514D02*
X115384286Y-75012514D01*
X115727143Y-75041086D02*
X115384286Y-75041086D01*
X115784286Y-75069657D02*
X115384286Y-75069657D01*
X115841429Y-75098228D02*
X115384286Y-75098228D01*
X115784286Y-75126800D02*
X115384286Y-75126800D01*
X115727143Y-75155371D02*
X115384286Y-75155371D01*
X115670000Y-75183943D02*
X115384286Y-75183943D01*
X115612857Y-75212514D02*
X115384286Y-75212514D01*
X115584286Y-75241086D02*
X115384286Y-75241086D01*
X115527143Y-75269657D02*
X115384286Y-75269657D01*
X115470000Y-75298228D02*
X115384286Y-75298228D01*
X115384286Y-75326800D02*
X115812857Y-75098228D01*
X115384286Y-74869657D01*
X115412857Y-75326800D02*
X115384286Y-75326800D01*
X115841429Y-75098228D02*
X115384286Y-75355371D01*
X115384286Y-74841086D01*
X115841429Y-75098228D01*
X119180456Y-73179029D02*
X119551885Y-73179029D01*
X119351885Y-73407600D01*
X119437599Y-73407600D01*
X119494742Y-73436171D01*
X119523313Y-73464743D01*
X119551885Y-73521886D01*
X119551885Y-73664743D01*
X119523313Y-73721886D01*
X119494742Y-73750457D01*
X119437599Y-73779029D01*
X119266171Y-73779029D01*
X119209028Y-73750457D01*
X119180456Y-73721886D01*
X119723314Y-73179029D02*
X119923314Y-73779029D01*
X120123314Y-73179029D01*
X120266171Y-73179029D02*
X120637600Y-73179029D01*
X120437600Y-73407600D01*
X120523314Y-73407600D01*
X120580457Y-73436171D01*
X120609028Y-73464743D01*
X120637600Y-73521886D01*
X120637600Y-73664743D01*
X120609028Y-73721886D01*
X120580457Y-73750457D01*
X120523314Y-73779029D01*
X120351886Y-73779029D01*
X120294743Y-73750457D01*
X120266171Y-73721886D01*
X121666172Y-73207600D02*
X121609029Y-73179029D01*
X121523315Y-73179029D01*
X121437600Y-73207600D01*
X121380458Y-73264743D01*
X121351886Y-73321886D01*
X121323315Y-73436171D01*
X121323315Y-73521886D01*
X121351886Y-73636171D01*
X121380458Y-73693314D01*
X121437600Y-73750457D01*
X121523315Y-73779029D01*
X121580458Y-73779029D01*
X121666172Y-73750457D01*
X121694743Y-73721886D01*
X121694743Y-73521886D01*
X121580458Y-73521886D01*
X121951886Y-73779029D02*
X121951886Y-73179029D01*
X122294743Y-73779029D01*
X122294743Y-73179029D01*
X122580457Y-73779029D02*
X122580457Y-73179029D01*
X122723314Y-73179029D01*
X122809029Y-73207600D01*
X122866171Y-73264743D01*
X122894743Y-73321886D01*
X122923314Y-73436171D01*
X122923314Y-73521886D01*
X122894743Y-73636171D01*
X122866171Y-73693314D01*
X122809029Y-73750457D01*
X122723314Y-73779029D01*
X122580457Y-73779029D01*
D11*
X126199828Y-96474743D02*
X125056971Y-96474743D01*
X125628400Y-97046171D02*
X125628400Y-95903314D01*
X124320228Y-104856743D02*
X123177371Y-104856743D01*
X123748800Y-105428171D02*
X123748800Y-104285314D01*
D12*
X105357313Y-95146543D02*
X105271599Y-95117971D01*
X105128742Y-95117971D01*
X105071599Y-95146543D01*
X105043028Y-95175114D01*
X105014456Y-95232257D01*
X105014456Y-95289400D01*
X105043028Y-95346543D01*
X105071599Y-95375114D01*
X105128742Y-95403686D01*
X105243028Y-95432257D01*
X105300170Y-95460829D01*
X105328742Y-95489400D01*
X105357313Y-95546543D01*
X105357313Y-95603686D01*
X105328742Y-95660829D01*
X105300170Y-95689400D01*
X105243028Y-95717971D01*
X105100170Y-95717971D01*
X105014456Y-95689400D01*
X104757313Y-95432257D02*
X104557313Y-95432257D01*
X104471599Y-95117971D02*
X104757313Y-95117971D01*
X104757313Y-95717971D01*
X104471599Y-95717971D01*
X103871599Y-95117971D02*
X104071599Y-95403686D01*
X104214456Y-95117971D02*
X104214456Y-95717971D01*
X103985884Y-95717971D01*
X103928742Y-95689400D01*
X103900170Y-95660829D01*
X103871599Y-95603686D01*
X103871599Y-95517971D01*
X103900170Y-95460829D01*
X103928742Y-95432257D01*
X103985884Y-95403686D01*
X104214456Y-95403686D01*
X103700170Y-95717971D02*
X103500170Y-95117971D01*
X103300170Y-95717971D01*
X102985884Y-95717971D02*
X102871598Y-95717971D01*
X102814456Y-95689400D01*
X102757313Y-95632257D01*
X102728741Y-95517971D01*
X102728741Y-95317971D01*
X102757313Y-95203686D01*
X102814456Y-95146543D01*
X102871598Y-95117971D01*
X102985884Y-95117971D01*
X103043027Y-95146543D01*
X103100170Y-95203686D01*
X103128741Y-95317971D01*
X103128741Y-95517971D01*
X103100170Y-95632257D01*
X103043027Y-95689400D01*
X102985884Y-95717971D01*
X102043027Y-95746543D02*
X102557313Y-94975114D01*
X101843028Y-95117971D02*
X101843028Y-95717971D01*
X101700171Y-95717971D01*
X101614456Y-95689400D01*
X101557314Y-95632257D01*
X101528742Y-95575114D01*
X101500171Y-95460829D01*
X101500171Y-95375114D01*
X101528742Y-95260829D01*
X101557314Y-95203686D01*
X101614456Y-95146543D01*
X101700171Y-95117971D01*
X101843028Y-95117971D01*
X101243028Y-95117971D02*
X101243028Y-95717971D01*
X100957314Y-95117971D02*
X100957314Y-95717971D01*
X100614457Y-95117971D01*
X100614457Y-95717971D01*
X105557315Y-94127971D02*
X105557315Y-94727971D01*
X105414458Y-94727971D01*
X105328743Y-94699400D01*
X105271601Y-94642257D01*
X105243029Y-94585114D01*
X105214458Y-94470829D01*
X105214458Y-94385114D01*
X105243029Y-94270829D01*
X105271601Y-94213686D01*
X105328743Y-94156543D01*
X105414458Y-94127971D01*
X105557315Y-94127971D01*
X104700172Y-94527971D02*
X104700172Y-94127971D01*
X104843029Y-94756543D02*
X104985886Y-94327971D01*
X104614458Y-94327971D01*
X104014457Y-94727971D02*
X103814457Y-94127971D01*
X103614457Y-94727971D01*
X103443028Y-94299400D02*
X103157314Y-94299400D01*
X103500171Y-94127971D02*
X103300171Y-94727971D01*
X103100171Y-94127971D01*
X102928742Y-94299400D02*
X102643028Y-94299400D01*
X102985885Y-94127971D02*
X102785885Y-94727971D01*
X102585885Y-94127971D01*
X101614456Y-94699400D02*
X101671599Y-94727971D01*
X101757313Y-94727971D01*
X101843028Y-94699400D01*
X101900170Y-94642257D01*
X101928742Y-94585114D01*
X101957313Y-94470829D01*
X101957313Y-94385114D01*
X101928742Y-94270829D01*
X101900170Y-94213686D01*
X101843028Y-94156543D01*
X101757313Y-94127971D01*
X101700170Y-94127971D01*
X101614456Y-94156543D01*
X101585885Y-94185114D01*
X101585885Y-94385114D01*
X101700170Y-94385114D01*
X101328742Y-94127971D02*
X101328742Y-94727971D01*
X100985885Y-94127971D01*
X100985885Y-94727971D01*
X100700171Y-94127971D02*
X100700171Y-94727971D01*
X100557314Y-94727971D01*
X100471599Y-94699400D01*
X100414457Y-94642257D01*
X100385885Y-94585114D01*
X100357314Y-94470829D01*
X100357314Y-94385114D01*
X100385885Y-94270829D01*
X100414457Y-94213686D01*
X100471599Y-94156543D01*
X100557314Y-94127971D01*
X100700171Y-94127971D01*
X105771905Y-54428857D02*
X104971905Y-54428857D01*
X104971905Y-54286000D01*
X105010000Y-54200285D01*
X105086190Y-54143143D01*
X105162381Y-54114571D01*
X105314762Y-54086000D01*
X105429048Y-54086000D01*
X105581429Y-54114571D01*
X105657619Y-54143143D01*
X105733810Y-54200285D01*
X105771905Y-54286000D01*
X105771905Y-54428857D01*
X105238571Y-53571714D02*
X105771905Y-53571714D01*
X104933810Y-53714571D02*
X105505238Y-53857428D01*
X105505238Y-53486000D01*
X104971905Y-53257428D02*
X105619524Y-53257428D01*
X105695714Y-53228856D01*
X105733810Y-53200285D01*
X105771905Y-53143142D01*
X105771905Y-53028856D01*
X105733810Y-52971714D01*
X105695714Y-52943142D01*
X105619524Y-52914571D01*
X104971905Y-52914571D01*
X105733810Y-52657428D02*
X105771905Y-52571714D01*
X105771905Y-52428857D01*
X105733810Y-52371714D01*
X105695714Y-52343143D01*
X105619524Y-52314571D01*
X105543333Y-52314571D01*
X105467143Y-52343143D01*
X105429048Y-52371714D01*
X105390952Y-52428857D01*
X105352857Y-52543143D01*
X105314762Y-52600285D01*
X105276667Y-52628857D01*
X105200476Y-52657428D01*
X105124286Y-52657428D01*
X105048095Y-52628857D01*
X105010000Y-52600285D01*
X104971905Y-52543143D01*
X104971905Y-52400285D01*
X105010000Y-52314571D01*
X105352857Y-51857428D02*
X105390952Y-51771714D01*
X105429048Y-51743142D01*
X105505238Y-51714571D01*
X105619524Y-51714571D01*
X105695714Y-51743142D01*
X105733810Y-51771714D01*
X105771905Y-51828856D01*
X105771905Y-52057428D01*
X104971905Y-52057428D01*
X104971905Y-51857428D01*
X105010000Y-51800285D01*
X105048095Y-51771714D01*
X105124286Y-51743142D01*
X105200476Y-51743142D01*
X105276667Y-51771714D01*
X105314762Y-51800285D01*
X105352857Y-51857428D01*
X105352857Y-52057428D01*
D10*
X128889143Y-72384714D02*
X128889143Y-72924714D01*
X128489143Y-72924714D02*
X128374857Y-72924714D01*
X128317715Y-72899000D01*
X128260572Y-72847571D01*
X128232000Y-72744714D01*
X128232000Y-72564714D01*
X128260572Y-72461857D01*
X128317715Y-72410429D01*
X128374857Y-72384714D01*
X128489143Y-72384714D01*
X128546286Y-72410429D01*
X128603429Y-72461857D01*
X128632000Y-72564714D01*
X128632000Y-72744714D01*
X128603429Y-72847571D01*
X128546286Y-72899000D01*
X128489143Y-72924714D01*
X127660572Y-72384714D02*
X128003429Y-72384714D01*
X127832001Y-72384714D02*
X127832001Y-72924714D01*
X127889144Y-72847571D01*
X127946286Y-72796143D01*
X128003429Y-72770429D01*
X127117715Y-72924714D02*
X127403429Y-72924714D01*
X127432000Y-72667571D01*
X127403429Y-72693286D01*
X127346286Y-72719000D01*
X127203429Y-72719000D01*
X127146286Y-72693286D01*
X127117715Y-72667571D01*
X127089143Y-72616143D01*
X127089143Y-72487571D01*
X127117715Y-72436143D01*
X127146286Y-72410429D01*
X127203429Y-72384714D01*
X127346286Y-72384714D01*
X127403429Y-72410429D01*
X127432000Y-72436143D01*
X128889143Y-69816714D02*
X128889143Y-70356714D01*
X128489143Y-70356714D02*
X128374857Y-70356714D01*
X128317715Y-70331000D01*
X128260572Y-70279571D01*
X128232000Y-70176714D01*
X128232000Y-69996714D01*
X128260572Y-69893857D01*
X128317715Y-69842429D01*
X128374857Y-69816714D01*
X128489143Y-69816714D01*
X128546286Y-69842429D01*
X128603429Y-69893857D01*
X128632000Y-69996714D01*
X128632000Y-70176714D01*
X128603429Y-70279571D01*
X128546286Y-70331000D01*
X128489143Y-70356714D01*
X127660572Y-69816714D02*
X128003429Y-69816714D01*
X127832001Y-69816714D02*
X127832001Y-70356714D01*
X127889144Y-70279571D01*
X127946286Y-70228143D01*
X128003429Y-70202429D01*
X127460572Y-70356714D02*
X127089143Y-70356714D01*
X127289143Y-70151000D01*
X127203429Y-70151000D01*
X127146286Y-70125286D01*
X127117715Y-70099571D01*
X127089143Y-70048143D01*
X127089143Y-69919571D01*
X127117715Y-69868143D01*
X127146286Y-69842429D01*
X127203429Y-69816714D01*
X127374857Y-69816714D01*
X127432000Y-69842429D01*
X127460572Y-69868143D01*
X128889143Y-67248714D02*
X128889143Y-67788714D01*
X128489143Y-67788714D02*
X128374857Y-67788714D01*
X128317715Y-67763000D01*
X128260572Y-67711571D01*
X128232000Y-67608714D01*
X128232000Y-67428714D01*
X128260572Y-67325857D01*
X128317715Y-67274429D01*
X128374857Y-67248714D01*
X128489143Y-67248714D01*
X128546286Y-67274429D01*
X128603429Y-67325857D01*
X128632000Y-67428714D01*
X128632000Y-67608714D01*
X128603429Y-67711571D01*
X128546286Y-67763000D01*
X128489143Y-67788714D01*
X127660572Y-67248714D02*
X128003429Y-67248714D01*
X127832001Y-67248714D02*
X127832001Y-67788714D01*
X127889144Y-67711571D01*
X127946286Y-67660143D01*
X128003429Y-67634429D01*
X127432000Y-67737286D02*
X127403429Y-67763000D01*
X127346286Y-67788714D01*
X127203429Y-67788714D01*
X127146286Y-67763000D01*
X127117715Y-67737286D01*
X127089143Y-67685857D01*
X127089143Y-67634429D01*
X127117715Y-67557286D01*
X127460572Y-67248714D01*
X127089143Y-67248714D01*
X128889143Y-64680714D02*
X128889143Y-65220714D01*
X128489143Y-65220714D02*
X128374857Y-65220714D01*
X128317715Y-65195000D01*
X128260572Y-65143571D01*
X128232000Y-65040714D01*
X128232000Y-64860714D01*
X128260572Y-64757857D01*
X128317715Y-64706429D01*
X128374857Y-64680714D01*
X128489143Y-64680714D01*
X128546286Y-64706429D01*
X128603429Y-64757857D01*
X128632000Y-64860714D01*
X128632000Y-65040714D01*
X128603429Y-65143571D01*
X128546286Y-65195000D01*
X128489143Y-65220714D01*
X127660572Y-64680714D02*
X128003429Y-64680714D01*
X127832001Y-64680714D02*
X127832001Y-65220714D01*
X127889144Y-65143571D01*
X127946286Y-65092143D01*
X128003429Y-65066429D01*
X127146286Y-65040714D02*
X127146286Y-64680714D01*
X127289143Y-65246429D02*
X127432000Y-64860714D01*
X127060572Y-64860714D01*
X128889143Y-62112714D02*
X128889143Y-62652714D01*
X128489143Y-62652714D02*
X128374857Y-62652714D01*
X128317715Y-62627000D01*
X128260572Y-62575571D01*
X128232000Y-62472714D01*
X128232000Y-62292714D01*
X128260572Y-62189857D01*
X128317715Y-62138429D01*
X128374857Y-62112714D01*
X128489143Y-62112714D01*
X128546286Y-62138429D01*
X128603429Y-62189857D01*
X128632000Y-62292714D01*
X128632000Y-62472714D01*
X128603429Y-62575571D01*
X128546286Y-62627000D01*
X128489143Y-62652714D01*
X128003429Y-62601286D02*
X127974858Y-62627000D01*
X127917715Y-62652714D01*
X127774858Y-62652714D01*
X127717715Y-62627000D01*
X127689144Y-62601286D01*
X127660572Y-62549857D01*
X127660572Y-62498429D01*
X127689144Y-62421286D01*
X128032001Y-62112714D01*
X127660572Y-62112714D01*
X128889143Y-59544714D02*
X128889143Y-60084714D01*
X128489143Y-60084714D02*
X128374857Y-60084714D01*
X128317715Y-60059000D01*
X128260572Y-60007571D01*
X128232000Y-59904714D01*
X128232000Y-59724714D01*
X128260572Y-59621857D01*
X128317715Y-59570429D01*
X128374857Y-59544714D01*
X128489143Y-59544714D01*
X128546286Y-59570429D01*
X128603429Y-59621857D01*
X128632000Y-59724714D01*
X128632000Y-59904714D01*
X128603429Y-60007571D01*
X128546286Y-60059000D01*
X128489143Y-60084714D01*
X127860572Y-60084714D02*
X127803429Y-60084714D01*
X127746286Y-60059000D01*
X127717715Y-60033286D01*
X127689144Y-59981857D01*
X127660572Y-59879000D01*
X127660572Y-59750429D01*
X127689144Y-59647571D01*
X127717715Y-59596143D01*
X127746286Y-59570429D01*
X127803429Y-59544714D01*
X127860572Y-59544714D01*
X127917715Y-59570429D01*
X127946286Y-59596143D01*
X127974858Y-59647571D01*
X128003429Y-59750429D01*
X128003429Y-59879000D01*
X127974858Y-59981857D01*
X127946286Y-60033286D01*
X127917715Y-60059000D01*
X127860572Y-60084714D01*
X128889143Y-56976714D02*
X128889143Y-57516714D01*
X128489143Y-57516714D02*
X128374857Y-57516714D01*
X128317715Y-57491000D01*
X128260572Y-57439571D01*
X128232000Y-57336714D01*
X128232000Y-57156714D01*
X128260572Y-57053857D01*
X128317715Y-57002429D01*
X128374857Y-56976714D01*
X128489143Y-56976714D01*
X128546286Y-57002429D01*
X128603429Y-57053857D01*
X128632000Y-57156714D01*
X128632000Y-57336714D01*
X128603429Y-57439571D01*
X128546286Y-57491000D01*
X128489143Y-57516714D01*
X127717715Y-57336714D02*
X127717715Y-56976714D01*
X127860572Y-57542429D02*
X128003429Y-57156714D01*
X127632001Y-57156714D01*
X128889143Y-54408714D02*
X128889143Y-54948714D01*
X128489143Y-54948714D02*
X128374857Y-54948714D01*
X128317715Y-54923000D01*
X128260572Y-54871571D01*
X128232000Y-54768714D01*
X128232000Y-54588714D01*
X128260572Y-54485857D01*
X128317715Y-54434429D01*
X128374857Y-54408714D01*
X128489143Y-54408714D01*
X128546286Y-54434429D01*
X128603429Y-54485857D01*
X128632000Y-54588714D01*
X128632000Y-54768714D01*
X128603429Y-54871571D01*
X128546286Y-54923000D01*
X128489143Y-54948714D01*
X127689144Y-54948714D02*
X127974858Y-54948714D01*
X128003429Y-54691571D01*
X127974858Y-54717286D01*
X127917715Y-54743000D01*
X127774858Y-54743000D01*
X127717715Y-54717286D01*
X127689144Y-54691571D01*
X127660572Y-54640143D01*
X127660572Y-54511571D01*
X127689144Y-54460143D01*
X127717715Y-54434429D01*
X127774858Y-54408714D01*
X127917715Y-54408714D01*
X127974858Y-54434429D01*
X128003429Y-54460143D01*
X128889143Y-51840714D02*
X128889143Y-52380714D01*
X128489143Y-52380714D02*
X128374857Y-52380714D01*
X128317715Y-52355000D01*
X128260572Y-52303571D01*
X128232000Y-52200714D01*
X128232000Y-52020714D01*
X128260572Y-51917857D01*
X128317715Y-51866429D01*
X128374857Y-51840714D01*
X128489143Y-51840714D01*
X128546286Y-51866429D01*
X128603429Y-51917857D01*
X128632000Y-52020714D01*
X128632000Y-52200714D01*
X128603429Y-52303571D01*
X128546286Y-52355000D01*
X128489143Y-52380714D01*
X127660572Y-51840714D02*
X128003429Y-51840714D01*
X127832001Y-51840714D02*
X127832001Y-52380714D01*
X127889144Y-52303571D01*
X127946286Y-52252143D01*
X128003429Y-52226429D01*
X127146286Y-52380714D02*
X127260572Y-52380714D01*
X127317715Y-52355000D01*
X127346286Y-52329286D01*
X127403429Y-52252143D01*
X127432000Y-52149286D01*
X127432000Y-51943571D01*
X127403429Y-51892143D01*
X127374857Y-51866429D01*
X127317715Y-51840714D01*
X127203429Y-51840714D01*
X127146286Y-51866429D01*
X127117715Y-51892143D01*
X127089143Y-51943571D01*
X127089143Y-52072143D01*
X127117715Y-52123571D01*
X127146286Y-52149286D01*
X127203429Y-52175000D01*
X127317715Y-52175000D01*
X127374857Y-52149286D01*
X127403429Y-52123571D01*
X127432000Y-52072143D01*
D13*
X121917667Y-68475000D02*
X122617667Y-68260714D01*
X122117667Y-68089285D01*
X122617667Y-67917857D01*
X121917667Y-67703571D01*
X122617667Y-66846429D02*
X122284333Y-67146429D01*
X122617667Y-67360714D02*
X121917667Y-67360714D01*
X121917667Y-67017857D01*
X121951000Y-66932143D01*
X121984333Y-66889286D01*
X122051000Y-66846429D01*
X122151000Y-66846429D01*
X122217667Y-66889286D01*
X122251000Y-66932143D01*
X122284333Y-67017857D01*
X122284333Y-67360714D01*
X122617667Y-66460714D02*
X121917667Y-66460714D01*
X121917667Y-66160715D02*
X121917667Y-65646429D01*
X122617667Y-65903572D02*
X121917667Y-65903572D01*
X122251000Y-65346429D02*
X122251000Y-65046429D01*
X122617667Y-64917858D02*
X122617667Y-65346429D01*
X121917667Y-65346429D01*
X121917667Y-64917858D01*
X122998667Y-56417286D02*
X122665333Y-56717286D01*
X122998667Y-56931571D02*
X122298667Y-56931571D01*
X122298667Y-56588714D01*
X122332000Y-56503000D01*
X122365333Y-56460143D01*
X122432000Y-56417286D01*
X122532000Y-56417286D01*
X122598667Y-56460143D01*
X122632000Y-56503000D01*
X122665333Y-56588714D01*
X122665333Y-56931571D01*
X122298667Y-56031571D02*
X122865333Y-56031571D01*
X122932000Y-55988714D01*
X122965333Y-55945857D01*
X122998667Y-55860143D01*
X122998667Y-55688714D01*
X122965333Y-55603000D01*
X122932000Y-55560143D01*
X122865333Y-55517286D01*
X122298667Y-55517286D01*
X122998667Y-55088714D02*
X122298667Y-55088714D01*
X122998667Y-54574429D01*
X122298667Y-54574429D01*
D12*
X107069086Y-74738667D02*
X107069086Y-74205333D01*
X107040514Y-74705333D02*
X107040514Y-74238667D01*
X107011943Y-74705333D02*
X107011943Y-74238667D01*
X106983371Y-74672000D02*
X106983371Y-74272000D01*
X106954800Y-74672000D02*
X106954800Y-74272000D01*
X106926228Y-74638667D02*
X106926228Y-74305333D01*
X106897657Y-74638667D02*
X106897657Y-74305333D01*
X106869086Y-74605333D02*
X106869086Y-74338667D01*
X106840514Y-74572000D02*
X106840514Y-74372000D01*
X106811943Y-74572000D02*
X106811943Y-74372000D01*
X106783371Y-74538667D02*
X106783371Y-74405333D01*
X106754800Y-74538667D02*
X106754800Y-74405333D01*
X106726228Y-74472000D02*
X106697657Y-74472000D01*
X106726228Y-74505333D02*
X106726228Y-74438667D01*
X107097657Y-74738667D02*
X106669086Y-74472000D01*
X107097657Y-74205333D01*
X106640514Y-74472000D02*
X107097657Y-74172000D01*
X107097657Y-74772000D01*
X106640514Y-74472000D01*
X107583371Y-74372000D02*
X107669085Y-74405333D01*
X107697657Y-74438667D01*
X107726228Y-74505333D01*
X107726228Y-74605333D01*
X107697657Y-74672000D01*
X107669085Y-74705333D01*
X107611943Y-74738667D01*
X107383371Y-74738667D01*
X107383371Y-74038667D01*
X107583371Y-74038667D01*
X107640514Y-74072000D01*
X107669085Y-74105333D01*
X107697657Y-74172000D01*
X107697657Y-74238667D01*
X107669085Y-74305333D01*
X107640514Y-74338667D01*
X107583371Y-74372000D01*
X107383371Y-74372000D01*
X107954800Y-74538667D02*
X108240514Y-74538667D01*
X107897657Y-74738667D02*
X108097657Y-74038667D01*
X108297657Y-74738667D01*
X108411943Y-74038667D02*
X108754800Y-74038667D01*
X108583371Y-74738667D02*
X108583371Y-74038667D01*
X108869086Y-74038667D02*
X109211943Y-74038667D01*
X109040514Y-74738667D02*
X109040514Y-74038667D01*
X109411943Y-74472000D02*
X109869086Y-74472000D01*
X109640515Y-74738667D02*
X109640515Y-74205333D01*
D14*
X102814429Y-113085571D02*
X102957286Y-113133190D01*
X103004905Y-113180810D01*
X103052524Y-113276048D01*
X103052524Y-113418905D01*
X103004905Y-113514143D01*
X102957286Y-113561762D01*
X102862048Y-113609381D01*
X102481095Y-113609381D01*
X102481095Y-112609381D01*
X102814429Y-112609381D01*
X102909667Y-112657000D01*
X102957286Y-112704619D01*
X103004905Y-112799857D01*
X103004905Y-112895095D01*
X102957286Y-112990333D01*
X102909667Y-113037952D01*
X102814429Y-113085571D01*
X102481095Y-113085571D01*
X102174705Y-103189067D02*
X102650896Y-103189067D01*
X102079467Y-103474781D02*
X102412800Y-102474781D01*
X102746134Y-103474781D01*
X120375371Y-72781848D02*
X120375371Y-72448514D01*
X120899181Y-72305657D02*
X120899181Y-72781848D01*
X119899181Y-72781848D01*
X119899181Y-72305657D01*
X120851562Y-71924705D02*
X120899181Y-71781848D01*
X120899181Y-71543752D01*
X120851562Y-71448514D01*
X120803943Y-71400895D01*
X120708705Y-71353276D01*
X120613467Y-71353276D01*
X120518229Y-71400895D01*
X120470610Y-71448514D01*
X120422990Y-71543752D01*
X120375371Y-71734229D01*
X120327752Y-71829467D01*
X120280133Y-71877086D01*
X120184895Y-71924705D01*
X120089657Y-71924705D01*
X119994419Y-71877086D01*
X119946800Y-71829467D01*
X119899181Y-71734229D01*
X119899181Y-71496133D01*
X119946800Y-71353276D01*
X120803943Y-70353276D02*
X120851562Y-70400895D01*
X120899181Y-70543752D01*
X120899181Y-70638990D01*
X120851562Y-70781848D01*
X120756324Y-70877086D01*
X120661086Y-70924705D01*
X120470610Y-70972324D01*
X120327752Y-70972324D01*
X120137276Y-70924705D01*
X120042038Y-70877086D01*
X119946800Y-70781848D01*
X119899181Y-70638990D01*
X119899181Y-70543752D01*
X119946800Y-70400895D01*
X119994419Y-70353276D01*
X120613467Y-69972324D02*
X120613467Y-69496133D01*
X120899181Y-70067562D02*
X119899181Y-69734229D01*
X120899181Y-69400895D01*
X120899181Y-68496133D02*
X120422990Y-68829467D01*
X120899181Y-69067562D02*
X119899181Y-69067562D01*
X119899181Y-68686609D01*
X119946800Y-68591371D01*
X119994419Y-68543752D01*
X120089657Y-68496133D01*
X120232514Y-68496133D01*
X120327752Y-68543752D01*
X120375371Y-68591371D01*
X120422990Y-68686609D01*
X120422990Y-69067562D01*
D12*
X121416819Y-72986630D02*
X121369200Y-72958059D01*
X121321581Y-72900916D01*
X121321581Y-72758059D01*
X121369200Y-72700916D01*
X121416819Y-72672345D01*
X121512057Y-72643773D01*
X121607295Y-72643773D01*
X121750152Y-72672345D01*
X122321581Y-73015202D01*
X122321581Y-72643773D01*
X121321581Y-72272344D02*
X121321581Y-72215201D01*
X121369200Y-72158058D01*
X121416819Y-72129487D01*
X121512057Y-72100916D01*
X121702533Y-72072344D01*
X121940629Y-72072344D01*
X122131105Y-72100916D01*
X122226343Y-72129487D01*
X122273962Y-72158058D01*
X122321581Y-72215201D01*
X122321581Y-72272344D01*
X122273962Y-72329487D01*
X122226343Y-72358058D01*
X122131105Y-72386630D01*
X121940629Y-72415201D01*
X121702533Y-72415201D01*
X121512057Y-72386630D01*
X121416819Y-72358058D01*
X121369200Y-72329487D01*
X121321581Y-72272344D01*
X122321581Y-71500915D02*
X122321581Y-71843772D01*
X122321581Y-71672344D02*
X121321581Y-71672344D01*
X121464438Y-71729487D01*
X121559676Y-71786629D01*
X121607295Y-71843772D01*
X121321581Y-70986629D02*
X121321581Y-71100915D01*
X121369200Y-71158058D01*
X121416819Y-71186629D01*
X121559676Y-71243772D01*
X121750152Y-71272343D01*
X122131105Y-71272343D01*
X122226343Y-71243772D01*
X122273962Y-71215200D01*
X122321581Y-71158058D01*
X122321581Y-71043772D01*
X122273962Y-70986629D01*
X122226343Y-70958058D01*
X122131105Y-70929486D01*
X121893010Y-70929486D01*
X121797771Y-70958058D01*
X121750152Y-70986629D01*
X121702533Y-71043772D01*
X121702533Y-71158058D01*
X121750152Y-71215200D01*
X121797771Y-71243772D01*
X121893010Y-71272343D01*
X121321581Y-70558057D02*
X121321581Y-70500914D01*
X121369200Y-70443771D01*
X121416819Y-70415200D01*
X121512057Y-70386629D01*
X121702533Y-70358057D01*
X121940629Y-70358057D01*
X122131105Y-70386629D01*
X122226343Y-70415200D01*
X122273962Y-70443771D01*
X122321581Y-70500914D01*
X122321581Y-70558057D01*
X122273962Y-70615200D01*
X122226343Y-70643771D01*
X122131105Y-70672343D01*
X121940629Y-70700914D01*
X121702533Y-70700914D01*
X121512057Y-70672343D01*
X121416819Y-70643771D01*
X121369200Y-70615200D01*
X121321581Y-70558057D01*
X121321581Y-69815200D02*
X121321581Y-70100914D01*
X121797771Y-70129485D01*
X121750152Y-70100914D01*
X121702533Y-70043771D01*
X121702533Y-69900914D01*
X121750152Y-69843771D01*
X121797771Y-69815200D01*
X121893010Y-69786628D01*
X122131105Y-69786628D01*
X122226343Y-69815200D01*
X122273962Y-69843771D01*
X122321581Y-69900914D01*
X122321581Y-70043771D01*
X122273962Y-70100914D01*
X122226343Y-70129485D01*
X122321581Y-69215199D02*
X122321581Y-69558056D01*
X122321581Y-69386628D02*
X121321581Y-69386628D01*
X121464438Y-69443771D01*
X121559676Y-69500913D01*
X121607295Y-69558056D01*
X121321581Y-69015199D02*
X121321581Y-68615199D01*
X122321581Y-68872342D01*
D15*
X110108334Y-52956667D02*
X110275001Y-53656667D01*
X110408334Y-53156667D01*
X110541667Y-53656667D01*
X110708334Y-52956667D01*
X110975001Y-52956667D02*
X110975001Y-53523333D01*
X111008334Y-53590000D01*
X111041667Y-53623333D01*
X111108334Y-53656667D01*
X111241667Y-53656667D01*
X111308334Y-53623333D01*
X111341667Y-53590000D01*
X111375001Y-53523333D01*
X111375001Y-52956667D01*
X111708334Y-53656667D02*
X111708334Y-52956667D01*
X111975000Y-52956667D01*
X112041667Y-52990000D01*
X112075000Y-53023333D01*
X112108334Y-53090000D01*
X112108334Y-53190000D01*
X112075000Y-53256667D01*
X112041667Y-53290000D01*
X111975000Y-53323333D01*
X111708334Y-53323333D01*
D16*
X119380000Y-92710000D02*
X121920000Y-92710000D01*
X119380000Y-95250000D02*
X124460000Y-95250000D01*
X106680000Y-95250000D02*
X111760000Y-95250000D01*
X109220000Y-92710000D02*
X111760000Y-92710000D01*
X119380000Y-90170000D02*
X121920000Y-90170000D01*
X109220000Y-90170000D02*
X111760000Y-90170000D01*
X109220000Y-87630000D02*
X111760000Y-87630000D01*
X119380000Y-87630000D02*
X121920000Y-87630000D01*
X119380000Y-85090000D02*
X121920000Y-85090000D01*
X119380000Y-82550000D02*
X121920000Y-82550000D01*
X109220000Y-85090000D02*
X111760000Y-85090000D01*
X109220000Y-82550000D02*
X111760000Y-82550000D01*
X109220000Y-80010000D02*
X111760000Y-80010000D01*
X119380000Y-80010000D02*
X121920000Y-80010000D01*
X109220000Y-77470000D02*
X111760000Y-77470000D01*
X119380000Y-77470000D02*
X121920000Y-77470000D01*
X117067000Y-74930000D02*
X117067000Y-98425000D01*
X114173000Y-74930000D02*
X114173000Y-98425000D01*
D17*
X109995086Y-73933105D02*
X110490324Y-73933105D01*
X110223657Y-74237867D01*
X110337943Y-74237867D01*
X110414133Y-74275962D01*
X110452229Y-74314057D01*
X110490324Y-74390248D01*
X110490324Y-74580724D01*
X110452229Y-74656914D01*
X110414133Y-74695010D01*
X110337943Y-74733105D01*
X110109371Y-74733105D01*
X110033181Y-74695010D01*
X109995086Y-74656914D01*
X110718895Y-73933105D02*
X110985562Y-74733105D01*
X111252229Y-73933105D01*
X111442705Y-73933105D02*
X111937943Y-73933105D01*
X111671276Y-74237867D01*
X111785562Y-74237867D01*
X111861752Y-74275962D01*
X111899848Y-74314057D01*
X111937943Y-74390248D01*
X111937943Y-74580724D01*
X111899848Y-74656914D01*
X111861752Y-74695010D01*
X111785562Y-74733105D01*
X111556990Y-74733105D01*
X111480800Y-74695010D01*
X111442705Y-74656914D01*
X112318895Y-74123581D02*
X112318895Y-74733105D01*
X112356991Y-74161676D02*
X112356991Y-74695010D01*
X112395086Y-74161676D02*
X112395086Y-74695010D01*
X112433181Y-74199771D02*
X112433181Y-74656914D01*
X112471276Y-74199771D02*
X112471276Y-74656914D01*
X112509372Y-74237867D02*
X112509372Y-74618819D01*
X112547467Y-74237867D02*
X112547467Y-74618819D01*
X112585562Y-74275962D02*
X112585562Y-74580724D01*
X112623657Y-74314057D02*
X112623657Y-74542629D01*
X112661753Y-74314057D02*
X112661753Y-74542629D01*
X112699848Y-74352152D02*
X112699848Y-74504533D01*
X112737943Y-74352152D02*
X112737943Y-74504533D01*
X112776038Y-74428343D02*
X112814134Y-74428343D01*
X112776038Y-74390248D02*
X112776038Y-74466438D01*
X112280800Y-74123581D02*
X112852229Y-74428343D01*
X112280800Y-74733105D01*
X112890324Y-74428343D02*
X112280800Y-74771200D01*
X112280800Y-74085486D01*
X112890324Y-74428343D01*
D11*
X107530972Y-98252743D02*
X108673829Y-98252743D01*
X108102400Y-98824171D02*
X108102400Y-97681314D01*
D12*
X127951667Y-74642479D02*
X127251667Y-74642479D01*
X127251667Y-74416288D01*
X127285000Y-74280574D01*
X127351667Y-74190098D01*
X127418333Y-74144859D01*
X127551667Y-74099621D01*
X127651667Y-74099621D01*
X127785000Y-74144859D01*
X127851667Y-74190098D01*
X127918333Y-74280574D01*
X127951667Y-74416288D01*
X127951667Y-74642479D01*
X127551667Y-73556764D02*
X127518333Y-73647240D01*
X127485000Y-73692479D01*
X127418333Y-73737717D01*
X127385000Y-73737717D01*
X127318333Y-73692479D01*
X127285000Y-73647240D01*
X127251667Y-73556764D01*
X127251667Y-73375812D01*
X127285000Y-73285336D01*
X127318333Y-73240098D01*
X127385000Y-73194859D01*
X127418333Y-73194859D01*
X127485000Y-73240098D01*
X127518333Y-73285336D01*
X127551667Y-73375812D01*
X127551667Y-73556764D01*
X127585000Y-73647240D01*
X127618333Y-73692479D01*
X127685000Y-73737717D01*
X127818333Y-73737717D01*
X127885000Y-73692479D01*
X127918333Y-73647240D01*
X127951667Y-73556764D01*
X127951667Y-73375812D01*
X127918333Y-73285336D01*
X127885000Y-73240098D01*
X127818333Y-73194859D01*
X127685000Y-73194859D01*
X127618333Y-73240098D01*
X127585000Y-73285336D01*
X127551667Y-73375812D01*
X127951667Y-72063907D02*
X127251667Y-72063907D01*
X127251667Y-71837716D01*
X127285000Y-71702002D01*
X127351667Y-71611526D01*
X127418333Y-71566287D01*
X127551667Y-71521049D01*
X127651667Y-71521049D01*
X127785000Y-71566287D01*
X127851667Y-71611526D01*
X127918333Y-71702002D01*
X127951667Y-71837716D01*
X127951667Y-72063907D01*
X127251667Y-71204383D02*
X127251667Y-70571049D01*
X127951667Y-70978192D01*
X127951667Y-69485335D02*
X127251667Y-69485335D01*
X127251667Y-69259144D01*
X127285000Y-69123430D01*
X127351667Y-69032954D01*
X127418333Y-68987715D01*
X127551667Y-68942477D01*
X127651667Y-68942477D01*
X127785000Y-68987715D01*
X127851667Y-69032954D01*
X127918333Y-69123430D01*
X127951667Y-69259144D01*
X127951667Y-69485335D01*
X127251667Y-68128192D02*
X127251667Y-68309144D01*
X127285000Y-68399620D01*
X127318333Y-68444858D01*
X127418333Y-68535335D01*
X127551667Y-68580573D01*
X127818333Y-68580573D01*
X127885000Y-68535335D01*
X127918333Y-68490096D01*
X127951667Y-68399620D01*
X127951667Y-68218668D01*
X127918333Y-68128192D01*
X127885000Y-68082954D01*
X127818333Y-68037715D01*
X127651667Y-68037715D01*
X127585000Y-68082954D01*
X127551667Y-68128192D01*
X127518333Y-68218668D01*
X127518333Y-68399620D01*
X127551667Y-68490096D01*
X127585000Y-68535335D01*
X127651667Y-68580573D01*
X127951667Y-66906763D02*
X127251667Y-66906763D01*
X127251667Y-66680572D01*
X127285000Y-66544858D01*
X127351667Y-66454382D01*
X127418333Y-66409143D01*
X127551667Y-66363905D01*
X127651667Y-66363905D01*
X127785000Y-66409143D01*
X127851667Y-66454382D01*
X127918333Y-66544858D01*
X127951667Y-66680572D01*
X127951667Y-66906763D01*
X127251667Y-65504382D02*
X127251667Y-65956763D01*
X127585000Y-66002001D01*
X127551667Y-65956763D01*
X127518333Y-65866286D01*
X127518333Y-65640096D01*
X127551667Y-65549620D01*
X127585000Y-65504382D01*
X127651667Y-65459143D01*
X127818333Y-65459143D01*
X127885000Y-65504382D01*
X127918333Y-65549620D01*
X127951667Y-65640096D01*
X127951667Y-65866286D01*
X127918333Y-65956763D01*
X127885000Y-66002001D01*
X127951667Y-64328191D02*
X127251667Y-64328191D01*
X127251667Y-64102000D01*
X127285000Y-63966286D01*
X127351667Y-63875810D01*
X127418333Y-63830571D01*
X127551667Y-63785333D01*
X127651667Y-63785333D01*
X127785000Y-63830571D01*
X127851667Y-63875810D01*
X127918333Y-63966286D01*
X127951667Y-64102000D01*
X127951667Y-64328191D01*
X127485000Y-62971048D02*
X127951667Y-62971048D01*
X127218333Y-63197238D02*
X127718333Y-63423429D01*
X127718333Y-62835333D01*
X127951667Y-61749619D02*
X127251667Y-61749619D01*
X127251667Y-61523428D01*
X127285000Y-61387714D01*
X127351667Y-61297238D01*
X127418333Y-61251999D01*
X127551667Y-61206761D01*
X127651667Y-61206761D01*
X127785000Y-61251999D01*
X127851667Y-61297238D01*
X127918333Y-61387714D01*
X127951667Y-61523428D01*
X127951667Y-61749619D01*
X127251667Y-60890095D02*
X127251667Y-60301999D01*
X127518333Y-60618666D01*
X127518333Y-60482952D01*
X127551667Y-60392476D01*
X127585000Y-60347238D01*
X127651667Y-60301999D01*
X127818333Y-60301999D01*
X127885000Y-60347238D01*
X127918333Y-60392476D01*
X127951667Y-60482952D01*
X127951667Y-60754380D01*
X127918333Y-60844857D01*
X127885000Y-60890095D01*
X127951667Y-59171047D02*
X127251667Y-59171047D01*
X127251667Y-58944856D01*
X127285000Y-58809142D01*
X127351667Y-58718666D01*
X127418333Y-58673427D01*
X127551667Y-58628189D01*
X127651667Y-58628189D01*
X127785000Y-58673427D01*
X127851667Y-58718666D01*
X127918333Y-58809142D01*
X127951667Y-58944856D01*
X127951667Y-59171047D01*
X127318333Y-58266285D02*
X127285000Y-58221047D01*
X127251667Y-58130570D01*
X127251667Y-57904380D01*
X127285000Y-57813904D01*
X127318333Y-57768666D01*
X127385000Y-57723427D01*
X127451667Y-57723427D01*
X127551667Y-57768666D01*
X127951667Y-58311523D01*
X127951667Y-57723427D01*
X127951667Y-56592475D02*
X127251667Y-56592475D01*
X127251667Y-56366284D01*
X127285000Y-56230570D01*
X127351667Y-56140094D01*
X127418333Y-56094855D01*
X127551667Y-56049617D01*
X127651667Y-56049617D01*
X127785000Y-56094855D01*
X127851667Y-56140094D01*
X127918333Y-56230570D01*
X127951667Y-56366284D01*
X127951667Y-56592475D01*
X127951667Y-55144855D02*
X127951667Y-55687713D01*
X127951667Y-55416284D02*
X127251667Y-55416284D01*
X127351667Y-55506760D01*
X127418333Y-55597236D01*
X127451667Y-55687713D01*
X127951667Y-54013903D02*
X127251667Y-54013903D01*
X127251667Y-53787712D01*
X127285000Y-53651998D01*
X127351667Y-53561522D01*
X127418333Y-53516283D01*
X127551667Y-53471045D01*
X127651667Y-53471045D01*
X127785000Y-53516283D01*
X127851667Y-53561522D01*
X127918333Y-53651998D01*
X127951667Y-53787712D01*
X127951667Y-54013903D01*
X127251667Y-52882950D02*
X127251667Y-52792474D01*
X127285000Y-52701998D01*
X127318333Y-52656760D01*
X127385000Y-52611522D01*
X127518333Y-52566283D01*
X127685000Y-52566283D01*
X127818333Y-52611522D01*
X127885000Y-52656760D01*
X127918333Y-52701998D01*
X127951667Y-52792474D01*
X127951667Y-52882950D01*
X127918333Y-52973426D01*
X127885000Y-53018664D01*
X127818333Y-53063903D01*
X127685000Y-53109141D01*
X127518333Y-53109141D01*
X127385000Y-53063903D01*
X127318333Y-53018664D01*
X127285000Y-52973426D01*
X127251667Y-52882950D01*
D18*
X126269000Y-58993619D02*
X126235667Y-59058381D01*
X126235667Y-59155524D01*
X126269000Y-59252666D01*
X126335667Y-59317428D01*
X126402333Y-59349809D01*
X126535667Y-59382190D01*
X126635667Y-59382190D01*
X126769000Y-59349809D01*
X126835667Y-59317428D01*
X126902333Y-59252666D01*
X126935667Y-59155524D01*
X126935667Y-59090762D01*
X126902333Y-58993619D01*
X126869000Y-58961238D01*
X126635667Y-58961238D01*
X126635667Y-59090762D01*
X126935667Y-58669809D02*
X126235667Y-58669809D01*
X126935667Y-58281238D01*
X126235667Y-58281238D01*
X126935667Y-57957428D02*
X126235667Y-57957428D01*
X126235667Y-57795523D01*
X126269000Y-57698381D01*
X126335667Y-57633619D01*
X126402333Y-57601238D01*
X126535667Y-57568857D01*
X126635667Y-57568857D01*
X126769000Y-57601238D01*
X126835667Y-57633619D01*
X126902333Y-57698381D01*
X126935667Y-57795523D01*
X126935667Y-57957428D01*
X126235667Y-56824095D02*
X126235667Y-56403143D01*
X126502333Y-56629809D01*
X126502333Y-56532667D01*
X126535667Y-56467905D01*
X126569000Y-56435524D01*
X126635667Y-56403143D01*
X126802333Y-56403143D01*
X126869000Y-56435524D01*
X126902333Y-56467905D01*
X126935667Y-56532667D01*
X126935667Y-56726952D01*
X126902333Y-56791714D01*
X126869000Y-56824095D01*
X126869000Y-56111714D02*
X126902333Y-56079333D01*
X126935667Y-56111714D01*
X126902333Y-56144095D01*
X126869000Y-56111714D01*
X126935667Y-56111714D01*
X126235667Y-55852666D02*
X126235667Y-55431714D01*
X126502333Y-55658380D01*
X126502333Y-55561238D01*
X126535667Y-55496476D01*
X126569000Y-55464095D01*
X126635667Y-55431714D01*
X126802333Y-55431714D01*
X126869000Y-55464095D01*
X126902333Y-55496476D01*
X126935667Y-55561238D01*
X126935667Y-55755523D01*
X126902333Y-55820285D01*
X126869000Y-55852666D01*
X126235667Y-55237428D02*
X126935667Y-55010761D01*
X126235667Y-54784095D01*
X126235667Y-54136476D02*
X126235667Y-53747905D01*
X126935667Y-53942190D02*
X126235667Y-53942190D01*
X126235667Y-53391714D02*
X126235667Y-53262191D01*
X126269000Y-53197429D01*
X126335667Y-53132667D01*
X126469000Y-53100286D01*
X126702333Y-53100286D01*
X126835667Y-53132667D01*
X126902333Y-53197429D01*
X126935667Y-53262191D01*
X126935667Y-53391714D01*
X126902333Y-53456476D01*
X126835667Y-53521238D01*
X126702333Y-53553619D01*
X126469000Y-53553619D01*
X126335667Y-53521238D01*
X126269000Y-53456476D01*
X126235667Y-53391714D01*
X126235667Y-52808857D02*
X126802333Y-52808857D01*
X126869000Y-52776476D01*
X126902333Y-52744095D01*
X126935667Y-52679333D01*
X126935667Y-52549810D01*
X126902333Y-52485048D01*
X126869000Y-52452667D01*
X126802333Y-52420286D01*
X126235667Y-52420286D01*
X126235667Y-52193619D02*
X126235667Y-51805048D01*
X126935667Y-51999333D02*
X126235667Y-51999333D01*
D12*
X126099929Y-74393617D02*
X126099929Y-73867903D01*
X126699929Y-74130760D02*
X126099929Y-74130760D01*
X126099929Y-73648855D02*
X126699929Y-73035522D01*
X126099929Y-73035522D02*
X126699929Y-73648855D01*
X126699929Y-71458380D02*
X126414214Y-71765047D01*
X126699929Y-71984094D02*
X126099929Y-71984094D01*
X126099929Y-71633618D01*
X126128500Y-71545999D01*
X126157071Y-71502190D01*
X126214214Y-71458380D01*
X126299929Y-71458380D01*
X126357071Y-71502190D01*
X126385643Y-71545999D01*
X126414214Y-71633618D01*
X126414214Y-71984094D01*
X126099929Y-71151713D02*
X126699929Y-70538380D01*
X126099929Y-70538380D02*
X126699929Y-71151713D01*
X126099929Y-69048857D02*
X126099929Y-69486952D01*
X126385643Y-69530762D01*
X126357071Y-69486952D01*
X126328500Y-69399333D01*
X126328500Y-69180286D01*
X126357071Y-69092667D01*
X126385643Y-69048857D01*
X126442786Y-69005048D01*
X126585643Y-69005048D01*
X126642786Y-69048857D01*
X126671357Y-69092667D01*
X126699929Y-69180286D01*
X126699929Y-69399333D01*
X126671357Y-69486952D01*
X126642786Y-69530762D01*
X126099929Y-68742191D02*
X126699929Y-68435524D01*
X126099929Y-68128858D01*
X126099929Y-67208858D02*
X126099929Y-66639335D01*
X126328500Y-66946001D01*
X126328500Y-66814573D01*
X126357071Y-66726954D01*
X126385643Y-66683144D01*
X126442786Y-66639335D01*
X126585643Y-66639335D01*
X126642786Y-66683144D01*
X126671357Y-66726954D01*
X126699929Y-66814573D01*
X126699929Y-67077430D01*
X126671357Y-67165049D01*
X126642786Y-67208858D01*
X126099929Y-66376478D02*
X126699929Y-66069811D01*
X126099929Y-65763145D01*
X126128500Y-64273622D02*
X126099929Y-64361241D01*
X126099929Y-64492669D01*
X126128500Y-64624098D01*
X126185643Y-64711717D01*
X126242786Y-64755526D01*
X126357071Y-64799336D01*
X126442786Y-64799336D01*
X126557071Y-64755526D01*
X126614214Y-64711717D01*
X126671357Y-64624098D01*
X126699929Y-64492669D01*
X126699929Y-64405050D01*
X126671357Y-64273622D01*
X126642786Y-64229812D01*
X126442786Y-64229812D01*
X126442786Y-64405050D01*
X126699929Y-63835526D02*
X126099929Y-63835526D01*
X126699929Y-63309812D01*
X126099929Y-63309812D01*
X126699929Y-62871716D02*
X126099929Y-62871716D01*
X126099929Y-62652669D01*
X126128500Y-62521240D01*
X126185643Y-62433621D01*
X126242786Y-62389812D01*
X126357071Y-62346002D01*
X126442786Y-62346002D01*
X126557071Y-62389812D01*
X126614214Y-62433621D01*
X126671357Y-62521240D01*
X126699929Y-62652669D01*
X126699929Y-62871716D01*
X121790667Y-62836286D02*
X121790667Y-62464857D01*
X122057333Y-62664857D01*
X122057333Y-62579143D01*
X122090667Y-62522000D01*
X122124000Y-62493429D01*
X122190667Y-62464857D01*
X122357333Y-62464857D01*
X122424000Y-62493429D01*
X122457333Y-62522000D01*
X122490667Y-62579143D01*
X122490667Y-62750571D01*
X122457333Y-62807714D01*
X122424000Y-62836286D01*
X121790667Y-62264857D02*
X121790667Y-61893428D01*
X122057333Y-62093428D01*
X122057333Y-62007714D01*
X122090667Y-61950571D01*
X122124000Y-61922000D01*
X122190667Y-61893428D01*
X122357333Y-61893428D01*
X122424000Y-61922000D01*
X122457333Y-61950571D01*
X122490667Y-62007714D01*
X122490667Y-62179142D01*
X122457333Y-62236285D01*
X122424000Y-62264857D01*
X121790667Y-61521999D02*
X121790667Y-61464856D01*
X121824000Y-61407713D01*
X121857333Y-61379142D01*
X121924000Y-61350571D01*
X122057333Y-61321999D01*
X122224000Y-61321999D01*
X122357333Y-61350571D01*
X122424000Y-61379142D01*
X122457333Y-61407713D01*
X122490667Y-61464856D01*
X122490667Y-61521999D01*
X122457333Y-61579142D01*
X122424000Y-61607713D01*
X122357333Y-61636285D01*
X122224000Y-61664856D01*
X122057333Y-61664856D01*
X121924000Y-61636285D01*
X121857333Y-61607713D01*
X121824000Y-61579142D01*
X121790667Y-61521999D01*
X122490667Y-61093427D02*
X122490667Y-60950570D01*
X122357333Y-60950570D01*
X122324000Y-61007713D01*
X122257333Y-61064856D01*
X122157333Y-61093427D01*
X121990667Y-61093427D01*
X121890667Y-61064856D01*
X121824000Y-61007713D01*
X121790667Y-60921999D01*
X121790667Y-60807713D01*
X121824000Y-60721999D01*
X121890667Y-60664856D01*
X121990667Y-60636284D01*
X122157333Y-60636284D01*
X122257333Y-60664856D01*
X122324000Y-60721999D01*
X122357333Y-60779142D01*
X122490667Y-60779142D01*
X122490667Y-60636284D01*
X100317715Y-114698429D02*
X100317715Y-114098429D01*
X100517715Y-114527000D01*
X100717715Y-114098429D01*
X100717715Y-114698429D01*
X101117715Y-114098429D02*
X101232001Y-114098429D01*
X101289143Y-114127000D01*
X101346286Y-114184143D01*
X101374858Y-114298429D01*
X101374858Y-114498429D01*
X101346286Y-114612714D01*
X101289143Y-114669857D01*
X101232001Y-114698429D01*
X101117715Y-114698429D01*
X101060572Y-114669857D01*
X101003429Y-114612714D01*
X100974858Y-114498429D01*
X100974858Y-114298429D01*
X101003429Y-114184143D01*
X101060572Y-114127000D01*
X101117715Y-114098429D01*
X101546286Y-114098429D02*
X101889143Y-114098429D01*
X101717714Y-114698429D02*
X101717714Y-114098429D01*
X102203429Y-114098429D02*
X102317715Y-114098429D01*
X102374857Y-114127000D01*
X102432000Y-114184143D01*
X102460572Y-114298429D01*
X102460572Y-114498429D01*
X102432000Y-114612714D01*
X102374857Y-114669857D01*
X102317715Y-114698429D01*
X102203429Y-114698429D01*
X102146286Y-114669857D01*
X102089143Y-114612714D01*
X102060572Y-114498429D01*
X102060572Y-114298429D01*
X102089143Y-114184143D01*
X102146286Y-114127000D01*
X102203429Y-114098429D01*
X103060571Y-114698429D02*
X102860571Y-114412714D01*
X102717714Y-114698429D02*
X102717714Y-114098429D01*
X102946286Y-114098429D01*
X103003428Y-114127000D01*
X103032000Y-114155571D01*
X103060571Y-114212714D01*
X103060571Y-114298429D01*
X103032000Y-114355571D01*
X103003428Y-114384143D01*
X102946286Y-114412714D01*
X102717714Y-114412714D01*
X100012858Y-104513029D02*
X100012858Y-103913029D01*
X100212858Y-104341600D01*
X100412858Y-103913029D01*
X100412858Y-104513029D01*
X100812858Y-103913029D02*
X100927144Y-103913029D01*
X100984286Y-103941600D01*
X101041429Y-103998743D01*
X101070001Y-104113029D01*
X101070001Y-104313029D01*
X101041429Y-104427314D01*
X100984286Y-104484457D01*
X100927144Y-104513029D01*
X100812858Y-104513029D01*
X100755715Y-104484457D01*
X100698572Y-104427314D01*
X100670001Y-104313029D01*
X100670001Y-104113029D01*
X100698572Y-103998743D01*
X100755715Y-103941600D01*
X100812858Y-103913029D01*
X101241429Y-103913029D02*
X101584286Y-103913029D01*
X101412857Y-104513029D02*
X101412857Y-103913029D01*
X101898572Y-103913029D02*
X102012858Y-103913029D01*
X102070000Y-103941600D01*
X102127143Y-103998743D01*
X102155715Y-104113029D01*
X102155715Y-104313029D01*
X102127143Y-104427314D01*
X102070000Y-104484457D01*
X102012858Y-104513029D01*
X101898572Y-104513029D01*
X101841429Y-104484457D01*
X101784286Y-104427314D01*
X101755715Y-104313029D01*
X101755715Y-104113029D01*
X101784286Y-103998743D01*
X101841429Y-103941600D01*
X101898572Y-103913029D01*
X102755714Y-104513029D02*
X102555714Y-104227314D01*
X102412857Y-104513029D02*
X102412857Y-103913029D01*
X102641429Y-103913029D01*
X102698571Y-103941600D01*
X102727143Y-103970171D01*
X102755714Y-104027314D01*
X102755714Y-104113029D01*
X102727143Y-104170171D01*
X102698571Y-104198743D01*
X102641429Y-104227314D01*
X102412857Y-104227314D01*
D13*
X127158000Y-98069333D02*
X127124667Y-98135999D01*
X127124667Y-98235999D01*
X127158000Y-98335999D01*
X127224667Y-98402666D01*
X127291333Y-98435999D01*
X127424667Y-98469333D01*
X127524667Y-98469333D01*
X127658000Y-98435999D01*
X127724667Y-98402666D01*
X127791333Y-98335999D01*
X127824667Y-98235999D01*
X127824667Y-98169333D01*
X127791333Y-98069333D01*
X127758000Y-98035999D01*
X127524667Y-98035999D01*
X127524667Y-98169333D01*
X127824667Y-97735999D02*
X127124667Y-97735999D01*
X127824667Y-97335999D01*
X127124667Y-97335999D01*
X127824667Y-97002666D02*
X127124667Y-97002666D01*
X127124667Y-96836000D01*
X127158000Y-96736000D01*
X127224667Y-96669333D01*
X127291333Y-96636000D01*
X127424667Y-96602666D01*
X127524667Y-96602666D01*
X127658000Y-96636000D01*
X127724667Y-96669333D01*
X127791333Y-96736000D01*
X127824667Y-96836000D01*
X127824667Y-97002666D01*
D17*
X127023881Y-113061453D02*
X127023881Y-112870976D01*
X127071500Y-112775738D01*
X127166738Y-112680500D01*
X127357214Y-112632881D01*
X127690548Y-112632881D01*
X127881024Y-112680500D01*
X127976262Y-112775738D01*
X128023881Y-112870976D01*
X128023881Y-113061453D01*
X127976262Y-113156691D01*
X127881024Y-113251929D01*
X127690548Y-113299548D01*
X127357214Y-113299548D01*
X127166738Y-113251929D01*
X127071500Y-113156691D01*
X127023881Y-113061453D01*
X127500071Y-111870976D02*
X127500071Y-112204310D01*
X128023881Y-112204310D02*
X127023881Y-112204310D01*
X127023881Y-111728119D01*
X127500071Y-111013833D02*
X127500071Y-111347167D01*
X128023881Y-111347167D02*
X127023881Y-111347167D01*
X127023881Y-110870976D01*
X127023881Y-109537643D02*
X127023881Y-109347166D01*
X127071500Y-109251928D01*
X127166738Y-109156690D01*
X127357214Y-109109071D01*
X127690548Y-109109071D01*
X127881024Y-109156690D01*
X127976262Y-109251928D01*
X128023881Y-109347166D01*
X128023881Y-109537643D01*
X127976262Y-109632881D01*
X127881024Y-109728119D01*
X127690548Y-109775738D01*
X127357214Y-109775738D01*
X127166738Y-109728119D01*
X127071500Y-109632881D01*
X127023881Y-109537643D01*
X128023881Y-108680500D02*
X127023881Y-108680500D01*
X128023881Y-108109071D01*
X127023881Y-108109071D01*
D13*
X121640840Y-54826431D02*
X121570904Y-54747564D01*
X121558704Y-54702029D01*
X121563168Y-54627628D01*
X121613168Y-54541025D01*
X121675370Y-54499957D01*
X121720904Y-54487756D01*
X121795306Y-54492222D01*
X122026246Y-54625555D01*
X121676246Y-55231773D01*
X121474173Y-55115106D01*
X121433105Y-55052905D01*
X121420904Y-55007372D01*
X121425370Y-54932970D01*
X121458704Y-54875235D01*
X121520904Y-54834167D01*
X121566438Y-54821965D01*
X121640840Y-54826431D01*
X121842912Y-54943098D01*
X121348896Y-54465427D02*
X121060220Y-54298760D01*
X121506630Y-54325555D02*
X120954558Y-54815106D01*
X121102486Y-54092222D01*
X120637015Y-54631773D02*
X120290605Y-54431773D01*
X120813810Y-53925555D02*
X120463810Y-54531773D01*
X120175135Y-54365106D02*
X119828725Y-54165106D01*
X120351930Y-53658888D02*
X120001930Y-54265106D01*
X119843319Y-53673162D02*
X119381439Y-53406496D01*
X121429986Y-53524976D02*
X121413319Y-53553844D01*
X121492186Y-53483908D02*
X121442186Y-53570510D01*
X121554388Y-53442839D02*
X121471054Y-53587177D01*
X121616588Y-53401770D02*
X121499921Y-53603844D01*
X121662122Y-53389570D02*
X121528789Y-53620510D01*
X121724324Y-53348501D02*
X121557657Y-53637177D01*
X121786524Y-53307433D02*
X121586524Y-53653844D01*
X121848725Y-53266365D02*
X121615391Y-53670510D01*
X121910926Y-53225296D02*
X121644259Y-53687177D01*
X121906460Y-53299698D02*
X121673126Y-53703844D01*
X121901994Y-53374100D02*
X121701994Y-53720510D01*
X121897529Y-53448501D02*
X121730862Y-53737177D01*
X121893062Y-53522903D02*
X121759729Y-53753844D01*
X121905263Y-53568437D02*
X121788596Y-53770510D01*
X121900798Y-53642839D02*
X121817464Y-53787177D01*
X121896331Y-53717241D02*
X121846331Y-53803844D01*
X121875199Y-53820510D02*
X121894259Y-53254164D01*
X121413319Y-53553844D01*
X121891866Y-53791642D02*
X121875199Y-53820510D01*
X121910926Y-53225296D02*
X121904067Y-53837177D01*
X121384452Y-53537177D01*
X121910926Y-53225296D01*
X119298334Y-53021667D02*
X119298334Y-52488333D01*
X119265000Y-52988333D02*
X119265000Y-52521667D01*
X119231667Y-52988333D02*
X119231667Y-52521667D01*
X119198334Y-52955000D02*
X119198334Y-52555000D01*
X119165000Y-52955000D02*
X119165000Y-52555000D01*
X119131667Y-52921667D02*
X119131667Y-52588333D01*
X119098334Y-52921667D02*
X119098334Y-52588333D01*
X119065000Y-52888333D02*
X119065000Y-52621667D01*
X119031667Y-52855000D02*
X119031667Y-52655000D01*
X118998334Y-52855000D02*
X118998334Y-52655000D01*
X118965000Y-52821667D02*
X118965000Y-52688333D01*
X118931667Y-52821667D02*
X118931667Y-52688333D01*
X118898334Y-52755000D02*
X118865000Y-52755000D01*
X118898334Y-52788333D02*
X118898334Y-52721667D01*
X119331667Y-53021667D02*
X118831667Y-52755000D01*
X119331667Y-52488333D01*
X118798334Y-52755000D02*
X119331667Y-52455000D01*
X119331667Y-53055000D01*
X118798334Y-52755000D01*
X120065001Y-53021667D02*
X119831667Y-52688333D01*
X119665001Y-53021667D02*
X119665001Y-52321667D01*
X119931667Y-52321667D01*
X119998334Y-52355000D01*
X120031667Y-52388333D01*
X120065001Y-52455000D01*
X120065001Y-52555000D01*
X120031667Y-52621667D01*
X119998334Y-52655000D01*
X119931667Y-52688333D01*
X119665001Y-52688333D01*
X120331667Y-52988333D02*
X120431667Y-53021667D01*
X120598334Y-53021667D01*
X120665001Y-52988333D01*
X120698334Y-52955000D01*
X120731667Y-52888333D01*
X120731667Y-52821667D01*
X120698334Y-52755000D01*
X120665001Y-52721667D01*
X120598334Y-52688333D01*
X120465001Y-52655000D01*
X120398334Y-52621667D01*
X120365001Y-52588333D01*
X120331667Y-52521667D01*
X120331667Y-52455000D01*
X120365001Y-52388333D01*
X120398334Y-52355000D01*
X120465001Y-52321667D01*
X120631667Y-52321667D01*
X120731667Y-52355000D01*
X120931668Y-52321667D02*
X121331668Y-52321667D01*
X121131668Y-53021667D02*
X121131668Y-52321667D01*
X110541667Y-51686667D02*
X110541667Y-52186667D01*
X110508333Y-52286667D01*
X110441667Y-52353333D01*
X110341667Y-52386667D01*
X110275000Y-52386667D01*
X110875000Y-52386667D02*
X110875000Y-51686667D01*
X111141666Y-51686667D01*
X111208333Y-51720000D01*
X111241666Y-51753333D01*
X111275000Y-51820000D01*
X111275000Y-51920000D01*
X111241666Y-51986667D01*
X111208333Y-52020000D01*
X111141666Y-52053333D01*
X110875000Y-52053333D01*
X111508333Y-51686667D02*
X111941666Y-51686667D01*
X111708333Y-51953333D01*
X111808333Y-51953333D01*
X111875000Y-51986667D01*
X111908333Y-52020000D01*
X111941666Y-52086667D01*
X111941666Y-52253333D01*
X111908333Y-52320000D01*
X111875000Y-52353333D01*
X111808333Y-52386667D01*
X111608333Y-52386667D01*
X111541666Y-52353333D01*
X111508333Y-52320000D01*
D12*
X121919124Y-103634512D02*
X128121443Y-104728148D01*
X121949344Y-103497680D02*
X128139845Y-104589233D01*
X121986457Y-103362065D02*
X124629681Y-103828136D01*
X125508130Y-103983031D02*
X128151354Y-104449102D01*
X122029479Y-103227491D02*
X124447182Y-103653797D01*
X125739250Y-103881624D02*
X128156953Y-104307930D01*
X122079395Y-103094133D02*
X124340513Y-103492829D01*
X125894540Y-103766846D02*
X128155659Y-104165542D01*
X122135219Y-102961816D02*
X124275207Y-103339154D01*
X126008468Y-103644775D02*
X128148456Y-104022112D01*
X122197938Y-102830716D02*
X124238459Y-103190515D01*
X126093837Y-103517668D02*
X128134359Y-103877467D01*
X122267550Y-102700830D02*
X124224363Y-103045869D01*
X126156555Y-103386567D02*
X128113368Y-103731606D01*
X122344055Y-102572161D02*
X124231932Y-102905044D01*
X126197608Y-103251646D02*
X128085484Y-103584529D01*
X122429424Y-102445054D02*
X124258212Y-102767518D01*
X126219949Y-103113426D02*
X128048737Y-103435890D01*
X122522671Y-102319336D02*
X124304189Y-102633466D01*
X126222594Y-102971732D02*
X128004111Y-103285862D01*
X122624782Y-102195181D02*
X124370846Y-102503059D01*
X126204558Y-102826392D02*
X127950622Y-103134270D01*
X122735756Y-102072589D02*
X124462124Y-102376994D01*
X126161902Y-102676711D02*
X127888270Y-102981116D01*
X122858547Y-101952081D02*
X124583930Y-102256312D01*
X126088717Y-102521647D02*
X127814100Y-102825878D01*
X122993156Y-101833656D02*
X124751038Y-102143618D01*
X125970230Y-102358595D02*
X127728112Y-102668557D01*
X123140568Y-101717489D02*
X125010718Y-102047247D01*
X125759172Y-102179220D02*
X127629322Y-102508978D01*
X123305706Y-101604448D02*
X127512805Y-102346273D01*
X123489556Y-101494706D02*
X127377577Y-102180269D01*
X123699011Y-101389479D02*
X127216744Y-102009750D01*
X123942933Y-101290329D02*
X127021443Y-101833153D01*
X124239051Y-101200383D02*
X126773946Y-101647353D01*
X124632665Y-101127628D02*
X126428954Y-101444362D01*
X126224319Y-103024181D02*
G75*
G03X126224319Y-103024181I-999999J0D01*
G01*
X128194759Y-104255190D02*
G75*
G03X128194759Y-104255190I-3187499J0D01*
G01*
X130810000Y-99060000D02*
X130810000Y-91440000D01*
X128270000Y-99060000D02*
X128270000Y-91440000D01*
X127990000Y-101880000D02*
X127990000Y-100330000D01*
X130810000Y-91440000D02*
X128270000Y-91440000D01*
X128270000Y-99060000D02*
X130810000Y-99060000D01*
X131090000Y-100330000D02*
X131090000Y-101880000D01*
X131090000Y-101880000D02*
X127990000Y-101880000D01*
X123229386Y-96058016D02*
X128683614Y-92909016D01*
X123164582Y-95933773D02*
X128608418Y-92790773D01*
X123105840Y-95806029D02*
X125430253Y-94464029D01*
X126202747Y-94018029D02*
X128527160Y-92676029D01*
X123052295Y-95675286D02*
X125178387Y-94447786D01*
X126314613Y-93791786D02*
X128440705Y-92564286D01*
X123004812Y-95541042D02*
X124993206Y-94393042D01*
X126359794Y-93604042D02*
X128348188Y-92456042D01*
X122962524Y-95403799D02*
X124844398Y-94317299D01*
X126368602Y-93437299D02*
X128250476Y-92350799D01*
X122926299Y-95263055D02*
X124720704Y-94227055D01*
X126352296Y-93285055D02*
X128146701Y-92249055D01*
X122896137Y-95118811D02*
X124616929Y-94125311D01*
X126316071Y-93144311D02*
X128036863Y-92150811D01*
X122872036Y-94971068D02*
X124532207Y-94012568D01*
X126260793Y-93014568D02*
X127920964Y-92056068D01*
X122855730Y-94818824D02*
X124463939Y-93890324D01*
X126189061Y-92894324D02*
X127797270Y-91965824D01*
X122846351Y-94662581D02*
X124412991Y-93758081D01*
X126100009Y-92784081D02*
X127666649Y-91879581D01*
X122844767Y-94501837D02*
X124380230Y-93615337D01*
X125992770Y-92684337D02*
X127528233Y-91797837D01*
X122850978Y-94336594D02*
X124369120Y-93460094D01*
X125863880Y-92597094D02*
X127382022Y-91720594D01*
X122867580Y-94165350D02*
X124384857Y-93289350D01*
X125708143Y-92525350D02*
X127225420Y-91649350D01*
X122894575Y-93988107D02*
X124440430Y-93095607D01*
X125512570Y-92476607D02*
X127058425Y-91584107D01*
X122932828Y-93804363D02*
X124577410Y-92854863D01*
X125235590Y-92474863D02*
X126880172Y-91525363D01*
X122986670Y-93611619D02*
X126686330Y-91475619D01*
X123056966Y-93409376D02*
X126476034Y-91435376D01*
X123149779Y-93194132D02*
X126243221Y-91408132D01*
X123272902Y-92961389D02*
X125980098Y-91398389D01*
X123441925Y-92702145D02*
X125671075Y-91415145D01*
X123696685Y-92393402D02*
X125276315Y-91481402D01*
X126369000Y-93465936D02*
G75*
G03X126369000Y-93465936I-1000000J0D01*
G01*
X129181500Y-94548468D02*
G75*
G03X129181500Y-94548468I-3187500J0D01*
G01*
X100893000Y-54400000D02*
X100893000Y-54200000D01*
X100893000Y-51806000D02*
X100893000Y-51986000D01*
X104120744Y-52116357D02*
G75*
G03X100893000Y-51800000I-1727744J-1003643D01*
G01*
X103445006Y-51986932D02*
G75*
G03X101342000Y-51986000I-1052006J-1133068D01*
G01*
X100905780Y-54426726D02*
G75*
G03X104143000Y-54080000I1497220J1306726D01*
G01*
X101379111Y-54199253D02*
G75*
G03X103427000Y-54180000I1013889J1079253D01*
G01*
X118070000Y-110660000D02*
X118070000Y-110210000D01*
X118520000Y-111760000D02*
G75*
G03X118520000Y-111760000I-2950000J0D01*
G01*
X118070000Y-112860000D02*
X118070000Y-113310000D01*
X123190000Y-62230000D02*
X123190000Y-57150000D01*
X123190000Y-57150000D02*
X120650000Y-57150000D01*
X120650000Y-57150000D02*
X120650000Y-62230000D01*
X120370000Y-65050000D02*
X120370000Y-63500000D01*
X120650000Y-62230000D02*
X123190000Y-62230000D01*
X123470000Y-63500000D02*
X123470000Y-65050000D01*
X123470000Y-65050000D02*
X120370000Y-65050000D01*
X126010000Y-73660000D02*
X126010000Y-75210000D01*
X126010000Y-75210000D02*
X122910000Y-75210000D01*
X122910000Y-75210000D02*
X122910000Y-73660000D01*
X123190000Y-72390000D02*
X123190000Y-62230000D01*
X123190000Y-62230000D02*
X125730000Y-62230000D01*
X125730000Y-62230000D02*
X125730000Y-72390000D01*
X123190000Y-72390000D02*
X125730000Y-72390000D01*
X102743000Y-99441000D02*
X102743000Y-101981000D01*
X103023000Y-96621000D02*
X103023000Y-98171000D01*
X102743000Y-99441000D02*
X100203000Y-99441000D01*
X99923000Y-98171000D02*
X99923000Y-96621000D01*
X99923000Y-96621000D02*
X103023000Y-96621000D01*
X100203000Y-99441000D02*
X100203000Y-101981000D01*
X100203000Y-101981000D02*
X102743000Y-101981000D01*
X102870000Y-109728000D02*
X102870000Y-112268000D01*
X103150000Y-106908000D02*
X103150000Y-108458000D01*
X102870000Y-109728000D02*
X100330000Y-109728000D01*
X100050000Y-108458000D02*
X100050000Y-106908000D01*
X100050000Y-106908000D02*
X103150000Y-106908000D01*
X100330000Y-109728000D02*
X100330000Y-112268000D01*
X100330000Y-112268000D02*
X102870000Y-112268000D01*
X128270000Y-101600000D02*
X128270000Y-106680000D01*
X128270000Y-106680000D02*
X130810000Y-106680000D01*
X130810000Y-106680000D02*
X130810000Y-101600000D01*
X131090000Y-98780000D02*
X131090000Y-100330000D01*
X130810000Y-101600000D02*
X128270000Y-101600000D01*
X127990000Y-100330000D02*
X127990000Y-98780000D01*
X127990000Y-98780000D02*
X131090000Y-98780000D01*
X128270000Y-106680000D02*
X130810000Y-106680000D01*
X130810000Y-106680000D02*
X130810000Y-114300000D01*
X130810000Y-114300000D02*
X128270000Y-114300000D01*
X128270000Y-114300000D02*
X128270000Y-106680000D01*
X130810000Y-109220000D02*
X128270000Y-109220000D01*
X99322000Y-72754000D02*
X99322000Y-54754000D01*
X99322000Y-54754000D02*
X100722000Y-54754000D01*
X105122000Y-54754000D02*
X100722000Y-54754000D01*
X99522000Y-72754000D02*
X99322000Y-72754000D01*
X105222000Y-72754000D02*
X105222000Y-54754000D01*
X105522000Y-72754000D02*
X99522000Y-72754000D01*
X105522000Y-72754000D02*
X105122000Y-72754000D01*
X105122000Y-54754000D02*
X105522000Y-54754000D01*
X119522000Y-72754000D02*
X119522000Y-54754000D01*
X119522000Y-72754000D02*
X105522000Y-72754000D01*
X105522000Y-54754000D02*
X119522000Y-54754000D01*
D19*
G36*
X103672640Y-100644960D02*
X103703120Y-100629720D01*
X103766620Y-100589080D01*
X103860600Y-100528120D01*
X103969820Y-100454460D01*
X104081580Y-100378260D01*
X104170480Y-100317300D01*
X104233980Y-100276660D01*
X104261920Y-100263960D01*
X104274620Y-100269040D01*
X104327960Y-100294440D01*
X104404160Y-100332540D01*
X104447340Y-100355400D01*
X104518460Y-100385880D01*
X104551480Y-100390960D01*
X104559100Y-100383340D01*
X104584500Y-100330000D01*
X104622600Y-100238560D01*
X104675940Y-100116640D01*
X104736900Y-99976940D01*
X104800400Y-99824540D01*
X104866440Y-99669600D01*
X104927400Y-99519740D01*
X104980740Y-99387660D01*
X105023920Y-99278440D01*
X105054400Y-99204780D01*
X105064560Y-99171760D01*
X105062020Y-99164140D01*
X105026460Y-99131120D01*
X104965500Y-99085400D01*
X104833420Y-98978720D01*
X104703880Y-98816160D01*
X104625140Y-98630740D01*
X104597200Y-98427540D01*
X104620060Y-98237040D01*
X104696260Y-98054160D01*
X104823260Y-97891600D01*
X104975660Y-97769680D01*
X105156000Y-97690940D01*
X105359200Y-97668080D01*
X105552240Y-97688400D01*
X105737660Y-97762060D01*
X105902760Y-97886520D01*
X105971340Y-97967800D01*
X106067860Y-98132900D01*
X106121200Y-98310700D01*
X106128820Y-98356420D01*
X106118660Y-98552000D01*
X106062780Y-98737420D01*
X105958640Y-98905060D01*
X105816400Y-99042220D01*
X105798620Y-99057460D01*
X105730040Y-99105720D01*
X105686860Y-99141280D01*
X105651300Y-99169220D01*
X105900220Y-99768660D01*
X105940860Y-99862640D01*
X106009440Y-100027740D01*
X106067860Y-100167440D01*
X106116120Y-100279200D01*
X106149140Y-100355400D01*
X106164380Y-100385880D01*
X106166920Y-100385880D01*
X106187240Y-100390960D01*
X106232960Y-100373180D01*
X106316780Y-100332540D01*
X106372660Y-100304600D01*
X106436160Y-100274120D01*
X106464100Y-100263960D01*
X106489500Y-100276660D01*
X106550460Y-100314760D01*
X106639360Y-100375720D01*
X106746040Y-100449380D01*
X106847640Y-100517960D01*
X106941620Y-100578920D01*
X107010200Y-100622100D01*
X107043220Y-100639880D01*
X107048300Y-100639880D01*
X107078780Y-100624640D01*
X107132120Y-100578920D01*
X107213400Y-100502720D01*
X107330240Y-100388420D01*
X107348020Y-100370640D01*
X107442000Y-100274120D01*
X107518200Y-100192840D01*
X107571540Y-100136960D01*
X107589320Y-100109020D01*
X107589320Y-100109020D01*
X107571540Y-100076000D01*
X107528360Y-100009960D01*
X107467400Y-99913440D01*
X107391200Y-99801680D01*
X107193080Y-99514660D01*
X107302300Y-99242880D01*
X107335320Y-99159060D01*
X107378500Y-99057460D01*
X107408980Y-98986340D01*
X107424220Y-98953320D01*
X107454700Y-98943160D01*
X107528360Y-98925380D01*
X107637580Y-98902520D01*
X107767120Y-98879660D01*
X107889040Y-98856800D01*
X107998260Y-98836480D01*
X108079540Y-98821240D01*
X108115100Y-98813620D01*
X108125260Y-98808540D01*
X108130340Y-98790760D01*
X108135420Y-98752660D01*
X108137960Y-98686620D01*
X108140500Y-98579940D01*
X108140500Y-98427540D01*
X108140500Y-98409760D01*
X108137960Y-98262440D01*
X108135420Y-98148140D01*
X108132880Y-98071940D01*
X108127800Y-98041460D01*
X108127800Y-98041460D01*
X108092240Y-98033840D01*
X108013500Y-98016060D01*
X107904280Y-97995740D01*
X107772200Y-97970340D01*
X107762040Y-97967800D01*
X107632500Y-97942400D01*
X107520740Y-97919540D01*
X107444540Y-97901760D01*
X107411520Y-97891600D01*
X107403900Y-97881440D01*
X107378500Y-97830640D01*
X107340400Y-97749360D01*
X107297220Y-97650300D01*
X107254040Y-97546160D01*
X107215940Y-97454720D01*
X107190540Y-97383600D01*
X107182920Y-97353120D01*
X107185460Y-97353120D01*
X107203240Y-97320100D01*
X107248960Y-97251520D01*
X107312460Y-97157540D01*
X107391200Y-97045780D01*
X107396280Y-97038160D01*
X107472480Y-96926400D01*
X107533440Y-96832420D01*
X107574080Y-96763840D01*
X107589320Y-96733360D01*
X107589320Y-96733360D01*
X107563920Y-96700340D01*
X107508040Y-96636840D01*
X107426760Y-96550480D01*
X107327700Y-96453960D01*
X107297220Y-96423480D01*
X107190540Y-96316800D01*
X107114340Y-96248220D01*
X107068620Y-96210120D01*
X107045760Y-96202500D01*
X107043220Y-96202500D01*
X107010200Y-96222820D01*
X106941620Y-96268540D01*
X106845100Y-96334580D01*
X106733340Y-96410780D01*
X106725720Y-96415860D01*
X106613960Y-96492060D01*
X106519980Y-96555560D01*
X106453940Y-96598740D01*
X106426000Y-96616520D01*
X106420920Y-96616520D01*
X106375200Y-96601280D01*
X106296460Y-96573340D01*
X106199940Y-96537780D01*
X106095800Y-96494600D01*
X106004360Y-96456500D01*
X105933240Y-96423480D01*
X105900220Y-96405700D01*
X105900220Y-96403160D01*
X105887520Y-96365060D01*
X105867200Y-96281240D01*
X105844340Y-96166940D01*
X105818940Y-96029780D01*
X105813860Y-96006920D01*
X105788460Y-95874840D01*
X105768140Y-95765620D01*
X105752900Y-95689420D01*
X105745280Y-95658940D01*
X105724960Y-95653860D01*
X105661460Y-95648780D01*
X105562400Y-95646240D01*
X105443020Y-95646240D01*
X105318560Y-95646240D01*
X105194100Y-95648780D01*
X105089960Y-95653860D01*
X105013760Y-95658940D01*
X104983280Y-95664020D01*
X104983280Y-95666560D01*
X104970580Y-95707200D01*
X104952800Y-95791020D01*
X104929940Y-95905320D01*
X104902000Y-96042480D01*
X104896920Y-96067880D01*
X104874060Y-96199960D01*
X104851200Y-96306640D01*
X104835960Y-96382840D01*
X104825800Y-96410780D01*
X104815640Y-96418400D01*
X104759760Y-96441260D01*
X104670860Y-96479360D01*
X104561640Y-96522540D01*
X104307640Y-96626680D01*
X103995220Y-96410780D01*
X103964740Y-96393000D01*
X103852980Y-96316800D01*
X103761540Y-96253300D01*
X103698040Y-96212660D01*
X103670100Y-96197420D01*
X103667560Y-96199960D01*
X103637080Y-96225360D01*
X103576120Y-96283780D01*
X103489760Y-96367600D01*
X103393240Y-96464120D01*
X103319580Y-96537780D01*
X103233220Y-96624140D01*
X103179880Y-96682560D01*
X103149400Y-96720660D01*
X103139240Y-96743520D01*
X103141780Y-96758760D01*
X103162100Y-96791780D01*
X103207820Y-96860360D01*
X103271320Y-96954340D01*
X103347520Y-97066100D01*
X103411020Y-97157540D01*
X103477060Y-97261680D01*
X103522780Y-97337880D01*
X103538020Y-97373440D01*
X103532940Y-97388680D01*
X103512620Y-97449640D01*
X103474520Y-97543620D01*
X103428800Y-97652840D01*
X103319580Y-97899220D01*
X103157020Y-97932240D01*
X103057960Y-97950020D01*
X102920800Y-97975420D01*
X102791260Y-98000820D01*
X102585520Y-98041460D01*
X102577900Y-98793300D01*
X102608380Y-98808540D01*
X102638860Y-98816160D01*
X102715060Y-98833940D01*
X102824280Y-98854260D01*
X102951280Y-98879660D01*
X103060500Y-98899980D01*
X103172260Y-98920300D01*
X103251000Y-98935540D01*
X103286560Y-98943160D01*
X103294180Y-98953320D01*
X103322120Y-99006660D01*
X103360220Y-99093020D01*
X103403400Y-99194620D01*
X103449120Y-99298760D01*
X103487220Y-99397820D01*
X103515160Y-99471480D01*
X103525320Y-99509580D01*
X103510080Y-99537520D01*
X103466900Y-99603560D01*
X103405940Y-99695000D01*
X103332280Y-99804220D01*
X103258620Y-99913440D01*
X103195120Y-100007420D01*
X103151940Y-100073460D01*
X103131620Y-100103940D01*
X103141780Y-100126800D01*
X103184960Y-100177600D01*
X103268780Y-100263960D01*
X103390700Y-100385880D01*
X103411020Y-100403660D01*
X103507540Y-100497640D01*
X103591360Y-100573840D01*
X103647240Y-100624640D01*
X103672640Y-100644960D01*
X103672640Y-100644960D01*
G37*
X103672640Y-100644960D02*
X103703120Y-100629720D01*
X103766620Y-100589080D01*
X103860600Y-100528120D01*
X103969820Y-100454460D01*
X104081580Y-100378260D01*
X104170480Y-100317300D01*
X104233980Y-100276660D01*
X104261920Y-100263960D01*
X104274620Y-100269040D01*
X104327960Y-100294440D01*
X104404160Y-100332540D01*
X104447340Y-100355400D01*
X104518460Y-100385880D01*
X104551480Y-100390960D01*
X104559100Y-100383340D01*
X104584500Y-100330000D01*
X104622600Y-100238560D01*
X104675940Y-100116640D01*
X104736900Y-99976940D01*
X104800400Y-99824540D01*
X104866440Y-99669600D01*
X104927400Y-99519740D01*
X104980740Y-99387660D01*
X105023920Y-99278440D01*
X105054400Y-99204780D01*
X105064560Y-99171760D01*
X105062020Y-99164140D01*
X105026460Y-99131120D01*
X104965500Y-99085400D01*
X104833420Y-98978720D01*
X104703880Y-98816160D01*
X104625140Y-98630740D01*
X104597200Y-98427540D01*
X104620060Y-98237040D01*
X104696260Y-98054160D01*
X104823260Y-97891600D01*
X104975660Y-97769680D01*
X105156000Y-97690940D01*
X105359200Y-97668080D01*
X105552240Y-97688400D01*
X105737660Y-97762060D01*
X105902760Y-97886520D01*
X105971340Y-97967800D01*
X106067860Y-98132900D01*
X106121200Y-98310700D01*
X106128820Y-98356420D01*
X106118660Y-98552000D01*
X106062780Y-98737420D01*
X105958640Y-98905060D01*
X105816400Y-99042220D01*
X105798620Y-99057460D01*
X105730040Y-99105720D01*
X105686860Y-99141280D01*
X105651300Y-99169220D01*
X105900220Y-99768660D01*
X105940860Y-99862640D01*
X106009440Y-100027740D01*
X106067860Y-100167440D01*
X106116120Y-100279200D01*
X106149140Y-100355400D01*
X106164380Y-100385880D01*
X106166920Y-100385880D01*
X106187240Y-100390960D01*
X106232960Y-100373180D01*
X106316780Y-100332540D01*
X106372660Y-100304600D01*
X106436160Y-100274120D01*
X106464100Y-100263960D01*
X106489500Y-100276660D01*
X106550460Y-100314760D01*
X106639360Y-100375720D01*
X106746040Y-100449380D01*
X106847640Y-100517960D01*
X106941620Y-100578920D01*
X107010200Y-100622100D01*
X107043220Y-100639880D01*
X107048300Y-100639880D01*
X107078780Y-100624640D01*
X107132120Y-100578920D01*
X107213400Y-100502720D01*
X107330240Y-100388420D01*
X107348020Y-100370640D01*
X107442000Y-100274120D01*
X107518200Y-100192840D01*
X107571540Y-100136960D01*
X107589320Y-100109020D01*
X107589320Y-100109020D01*
X107571540Y-100076000D01*
X107528360Y-100009960D01*
X107467400Y-99913440D01*
X107391200Y-99801680D01*
X107193080Y-99514660D01*
X107302300Y-99242880D01*
X107335320Y-99159060D01*
X107378500Y-99057460D01*
X107408980Y-98986340D01*
X107424220Y-98953320D01*
X107454700Y-98943160D01*
X107528360Y-98925380D01*
X107637580Y-98902520D01*
X107767120Y-98879660D01*
X107889040Y-98856800D01*
X107998260Y-98836480D01*
X108079540Y-98821240D01*
X108115100Y-98813620D01*
X108125260Y-98808540D01*
X108130340Y-98790760D01*
X108135420Y-98752660D01*
X108137960Y-98686620D01*
X108140500Y-98579940D01*
X108140500Y-98427540D01*
X108140500Y-98409760D01*
X108137960Y-98262440D01*
X108135420Y-98148140D01*
X108132880Y-98071940D01*
X108127800Y-98041460D01*
X108127800Y-98041460D01*
X108092240Y-98033840D01*
X108013500Y-98016060D01*
X107904280Y-97995740D01*
X107772200Y-97970340D01*
X107762040Y-97967800D01*
X107632500Y-97942400D01*
X107520740Y-97919540D01*
X107444540Y-97901760D01*
X107411520Y-97891600D01*
X107403900Y-97881440D01*
X107378500Y-97830640D01*
X107340400Y-97749360D01*
X107297220Y-97650300D01*
X107254040Y-97546160D01*
X107215940Y-97454720D01*
X107190540Y-97383600D01*
X107182920Y-97353120D01*
X107185460Y-97353120D01*
X107203240Y-97320100D01*
X107248960Y-97251520D01*
X107312460Y-97157540D01*
X107391200Y-97045780D01*
X107396280Y-97038160D01*
X107472480Y-96926400D01*
X107533440Y-96832420D01*
X107574080Y-96763840D01*
X107589320Y-96733360D01*
X107589320Y-96733360D01*
X107563920Y-96700340D01*
X107508040Y-96636840D01*
X107426760Y-96550480D01*
X107327700Y-96453960D01*
X107297220Y-96423480D01*
X107190540Y-96316800D01*
X107114340Y-96248220D01*
X107068620Y-96210120D01*
X107045760Y-96202500D01*
X107043220Y-96202500D01*
X107010200Y-96222820D01*
X106941620Y-96268540D01*
X106845100Y-96334580D01*
X106733340Y-96410780D01*
X106725720Y-96415860D01*
X106613960Y-96492060D01*
X106519980Y-96555560D01*
X106453940Y-96598740D01*
X106426000Y-96616520D01*
X106420920Y-96616520D01*
X106375200Y-96601280D01*
X106296460Y-96573340D01*
X106199940Y-96537780D01*
X106095800Y-96494600D01*
X106004360Y-96456500D01*
X105933240Y-96423480D01*
X105900220Y-96405700D01*
X105900220Y-96403160D01*
X105887520Y-96365060D01*
X105867200Y-96281240D01*
X105844340Y-96166940D01*
X105818940Y-96029780D01*
X105813860Y-96006920D01*
X105788460Y-95874840D01*
X105768140Y-95765620D01*
X105752900Y-95689420D01*
X105745280Y-95658940D01*
X105724960Y-95653860D01*
X105661460Y-95648780D01*
X105562400Y-95646240D01*
X105443020Y-95646240D01*
X105318560Y-95646240D01*
X105194100Y-95648780D01*
X105089960Y-95653860D01*
X105013760Y-95658940D01*
X104983280Y-95664020D01*
X104983280Y-95666560D01*
X104970580Y-95707200D01*
X104952800Y-95791020D01*
X104929940Y-95905320D01*
X104902000Y-96042480D01*
X104896920Y-96067880D01*
X104874060Y-96199960D01*
X104851200Y-96306640D01*
X104835960Y-96382840D01*
X104825800Y-96410780D01*
X104815640Y-96418400D01*
X104759760Y-96441260D01*
X104670860Y-96479360D01*
X104561640Y-96522540D01*
X104307640Y-96626680D01*
X103995220Y-96410780D01*
X103964740Y-96393000D01*
X103852980Y-96316800D01*
X103761540Y-96253300D01*
X103698040Y-96212660D01*
X103670100Y-96197420D01*
X103667560Y-96199960D01*
X103637080Y-96225360D01*
X103576120Y-96283780D01*
X103489760Y-96367600D01*
X103393240Y-96464120D01*
X103319580Y-96537780D01*
X103233220Y-96624140D01*
X103179880Y-96682560D01*
X103149400Y-96720660D01*
X103139240Y-96743520D01*
X103141780Y-96758760D01*
X103162100Y-96791780D01*
X103207820Y-96860360D01*
X103271320Y-96954340D01*
X103347520Y-97066100D01*
X103411020Y-97157540D01*
X103477060Y-97261680D01*
X103522780Y-97337880D01*
X103538020Y-97373440D01*
X103532940Y-97388680D01*
X103512620Y-97449640D01*
X103474520Y-97543620D01*
X103428800Y-97652840D01*
X103319580Y-97899220D01*
X103157020Y-97932240D01*
X103057960Y-97950020D01*
X102920800Y-97975420D01*
X102791260Y-98000820D01*
X102585520Y-98041460D01*
X102577900Y-98793300D01*
X102608380Y-98808540D01*
X102638860Y-98816160D01*
X102715060Y-98833940D01*
X102824280Y-98854260D01*
X102951280Y-98879660D01*
X103060500Y-98899980D01*
X103172260Y-98920300D01*
X103251000Y-98935540D01*
X103286560Y-98943160D01*
X103294180Y-98953320D01*
X103322120Y-99006660D01*
X103360220Y-99093020D01*
X103403400Y-99194620D01*
X103449120Y-99298760D01*
X103487220Y-99397820D01*
X103515160Y-99471480D01*
X103525320Y-99509580D01*
X103510080Y-99537520D01*
X103466900Y-99603560D01*
X103405940Y-99695000D01*
X103332280Y-99804220D01*
X103258620Y-99913440D01*
X103195120Y-100007420D01*
X103151940Y-100073460D01*
X103131620Y-100103940D01*
X103141780Y-100126800D01*
X103184960Y-100177600D01*
X103268780Y-100263960D01*
X103390700Y-100385880D01*
X103411020Y-100403660D01*
X103507540Y-100497640D01*
X103591360Y-100573840D01*
X103647240Y-100624640D01*
X103672640Y-100644960D01*
D12*
X123190000Y-54610000D02*
X123190000Y-59690000D01*
X123190000Y-59690000D02*
X125730000Y-59690000D01*
X125730000Y-59690000D02*
X125730000Y-54610000D01*
X126010000Y-51790000D02*
X126010000Y-53340000D01*
X125730000Y-54610000D02*
X123190000Y-54610000D01*
X122910000Y-53340000D02*
X122910000Y-51790000D01*
X122910000Y-51790000D02*
X126010000Y-51790000D01*
X119955200Y-110709200D02*
X119955200Y-112709200D01*
X122005200Y-112709200D02*
X122005200Y-110709200D01*
X109014000Y-105140000D02*
X109014000Y-101640000D01*
X109014000Y-101640000D02*
X122014000Y-101640000D01*
X122014000Y-101640000D02*
X122014000Y-108640000D01*
X122014000Y-108640000D02*
X109014000Y-108640000D01*
X109014000Y-108640000D02*
X109014000Y-105140000D01*
X113030000Y-101753000D02*
X111480000Y-101753000D01*
X111480000Y-101753000D02*
X111480000Y-98653000D01*
X111480000Y-98653000D02*
X113030000Y-98653000D01*
X114300000Y-98933000D02*
X124460000Y-98933000D01*
X124460000Y-98933000D02*
X124460000Y-101473000D01*
X124460000Y-101473000D02*
X114300000Y-101473000D01*
X114300000Y-98933000D02*
X114300000Y-101473000D01*
X124895000Y-109399600D02*
G75*
G03X124895000Y-109399600I-100000J0D01*
G01*
X125345000Y-109649600D02*
X124845000Y-109649600D01*
X125345000Y-112549600D02*
X125345000Y-109649600D01*
X124845000Y-112549600D02*
X125345000Y-112549600D01*
X124845000Y-109649600D02*
X124845000Y-112549600D01*
X104775000Y-91440000D02*
X99695000Y-91440000D01*
X99695000Y-91440000D02*
X99695000Y-93980000D01*
X99695000Y-93980000D02*
X104775000Y-93980000D01*
X107595000Y-94260000D02*
X106045000Y-94260000D01*
X104775000Y-93980000D02*
X104775000Y-91440000D01*
X106045000Y-91160000D02*
X107595000Y-91160000D01*
X107595000Y-91160000D02*
X107595000Y-94260000D01*
X109363000Y-111955000D02*
X111363000Y-111955000D01*
X111363000Y-114105000D02*
X109363000Y-114105000D01*
X103863140Y-110721140D02*
X104564180Y-110721140D01*
X104564180Y-110721140D02*
X104564180Y-111521240D01*
X103863140Y-106918760D02*
X103863140Y-111521240D01*
X103863140Y-111521240D02*
X107464860Y-111521240D01*
X107464860Y-111521240D02*
X107464860Y-106918760D01*
X107464860Y-106918760D02*
X103863140Y-106918760D01*
X109363000Y-108907000D02*
X111363000Y-108907000D01*
X111363000Y-111057000D02*
X109363000Y-111057000D01*
X107934000Y-100194000D02*
X105934000Y-100194000D01*
X105934000Y-102244000D02*
X107934000Y-102244000D01*
X102854000Y-74925500D02*
X100854000Y-74925500D01*
X100854000Y-72775500D02*
X102854000Y-72775500D01*
X126531409Y-105859292D02*
X126570036Y-105914457D01*
X126592124Y-106063412D01*
X126575586Y-106157203D01*
X126503884Y-106289622D01*
X126393555Y-106366875D01*
X126291495Y-106397233D01*
X126095643Y-106411053D01*
X125954956Y-106386246D01*
X125775643Y-106306274D01*
X125690120Y-106242841D01*
X125612867Y-106132512D01*
X125590779Y-105983555D01*
X125607317Y-105889764D01*
X125679019Y-105757346D01*
X125734183Y-105718720D01*
X126161680Y-105213856D02*
X126098246Y-105299378D01*
X126043082Y-105338005D01*
X125941022Y-105368362D01*
X125894126Y-105360093D01*
X125808604Y-105296660D01*
X125769977Y-105241495D01*
X125739620Y-105139435D01*
X125772696Y-104951852D01*
X125836129Y-104866330D01*
X125891294Y-104827703D01*
X125993354Y-104797346D01*
X126040249Y-104805614D01*
X126125772Y-104869048D01*
X126164398Y-104924212D01*
X126194756Y-105026273D01*
X126161680Y-105213856D01*
X126192037Y-105315916D01*
X126230664Y-105371080D01*
X126316187Y-105434514D01*
X126503769Y-105467590D01*
X126605830Y-105437232D01*
X126660994Y-105398606D01*
X126724427Y-105313083D01*
X126757503Y-105125500D01*
X126727146Y-105023440D01*
X126688519Y-104968276D01*
X126602997Y-104904842D01*
X126415415Y-104871766D01*
X126313354Y-104902124D01*
X126258189Y-104940750D01*
X126194756Y-105026273D01*
X119782857Y-87245714D02*
X118582857Y-87245714D01*
X118582857Y-86788571D01*
X118640000Y-86674285D01*
X118697143Y-86617142D01*
X118811429Y-86559999D01*
X118982857Y-86559999D01*
X119097143Y-86617142D01*
X119154286Y-86674285D01*
X119211429Y-86788571D01*
X119211429Y-87245714D01*
X118582857Y-86159999D02*
X118582857Y-85359999D01*
X119782857Y-85874285D01*
X124067372Y-96808235D02*
X124002323Y-96790805D01*
X123889656Y-96690896D01*
X123842037Y-96608418D01*
X123811847Y-96460890D01*
X123846706Y-96330792D01*
X123905375Y-96241934D01*
X124046523Y-96105457D01*
X124170242Y-96034028D01*
X124359008Y-95980029D01*
X124465296Y-95973649D01*
X124595394Y-96008509D01*
X124708062Y-96108418D01*
X124755681Y-96190896D01*
X124785870Y-96338424D01*
X124768440Y-96403473D01*
X125017585Y-96644528D02*
X125350919Y-97221879D01*
X124270608Y-97350725D01*
X100734905Y-93523381D02*
X100734905Y-92523381D01*
X101115858Y-92523381D01*
X101211096Y-92571000D01*
X101258715Y-92618619D01*
X101306334Y-92713857D01*
X101306334Y-92856714D01*
X101258715Y-92951952D01*
X101211096Y-92999571D01*
X101115858Y-93047190D01*
X100734905Y-93047190D01*
X102163477Y-92856714D02*
X102163477Y-93523381D01*
X101925381Y-92475762D02*
X101687286Y-93190048D01*
X102306334Y-93190048D01*
X128004857Y-107226000D02*
X128033429Y-107140286D01*
X128033429Y-106997429D01*
X128004857Y-106940286D01*
X127976286Y-106911715D01*
X127919143Y-106883143D01*
X127862000Y-106883143D01*
X127804857Y-106911715D01*
X127776286Y-106940286D01*
X127747714Y-106997429D01*
X127719143Y-107111715D01*
X127690571Y-107168857D01*
X127662000Y-107197429D01*
X127604857Y-107226000D01*
X127547714Y-107226000D01*
X127490571Y-107197429D01*
X127462000Y-107168857D01*
X127433429Y-107111715D01*
X127433429Y-106968857D01*
X127462000Y-106883143D01*
X127433429Y-106683143D02*
X128033429Y-106540286D01*
X127604857Y-106426000D01*
X128033429Y-106311714D01*
X127433429Y-106168857D01*
X127433429Y-105997429D02*
X127433429Y-105626000D01*
X127662000Y-105826000D01*
X127662000Y-105740286D01*
X127690571Y-105683143D01*
X127719143Y-105654572D01*
X127776286Y-105626000D01*
X127919143Y-105626000D01*
X127976286Y-105654572D01*
X128004857Y-105683143D01*
X128033429Y-105740286D01*
X128033429Y-105911714D01*
X128004857Y-105968857D01*
X127976286Y-105997429D01*
X114595357Y-62445786D02*
X115566786Y-62445786D01*
X115681071Y-62388643D01*
X115738214Y-62331500D01*
X115795357Y-62217214D01*
X115795357Y-61988643D01*
X115738214Y-61874357D01*
X115681071Y-61817214D01*
X115566786Y-61760071D01*
X114595357Y-61760071D01*
X115795357Y-60560071D02*
X115795357Y-61245786D01*
X115795357Y-60902928D02*
X114595357Y-60902928D01*
X114766786Y-61017214D01*
X114881071Y-61131500D01*
X114938214Y-61245786D01*
X117242857Y-87245714D02*
X116042857Y-87245714D01*
X116042857Y-86788571D01*
X116100000Y-86674285D01*
X116157143Y-86617142D01*
X116271429Y-86559999D01*
X116442857Y-86559999D01*
X116557143Y-86617142D01*
X116614286Y-86674285D01*
X116671429Y-86788571D01*
X116671429Y-87245714D01*
X116042857Y-85531428D02*
X116042857Y-85759999D01*
X116100000Y-85874285D01*
X116157143Y-85931428D01*
X116328571Y-86045714D01*
X116557143Y-86102857D01*
X117014286Y-86102857D01*
X117128571Y-86045714D01*
X117185714Y-85988571D01*
X117242857Y-85874285D01*
X117242857Y-85645714D01*
X117185714Y-85531428D01*
X117128571Y-85474285D01*
X117014286Y-85417142D01*
X116728571Y-85417142D01*
X116614286Y-85474285D01*
X116557143Y-85531428D01*
X116500000Y-85645714D01*
X116500000Y-85874285D01*
X116557143Y-85988571D01*
X116614286Y-86045714D01*
X116728571Y-86102857D01*
X121457981Y-111875866D02*
X121457981Y-112352057D01*
X120457981Y-112352057D01*
X120457981Y-111637771D02*
X120457981Y-111018723D01*
X120838933Y-111352057D01*
X120838933Y-111209199D01*
X120886552Y-111113961D01*
X120934171Y-111066342D01*
X121029410Y-111018723D01*
X121267505Y-111018723D01*
X121362743Y-111066342D01*
X121410362Y-111113961D01*
X121457981Y-111209199D01*
X121457981Y-111494914D01*
X121410362Y-111590152D01*
X121362743Y-111637771D01*
X111247181Y-101544286D02*
X110247181Y-101544286D01*
X110247181Y-101163333D01*
X110294800Y-101068095D01*
X110342419Y-101020476D01*
X110437657Y-100972857D01*
X110580514Y-100972857D01*
X110675752Y-101020476D01*
X110723371Y-101068095D01*
X110770990Y-101163333D01*
X110770990Y-101544286D01*
X111247181Y-100020476D02*
X111247181Y-100591905D01*
X111247181Y-100306191D02*
X110247181Y-100306191D01*
X110390038Y-100401429D01*
X110485276Y-100496667D01*
X110532895Y-100591905D01*
X111247181Y-99068095D02*
X111247181Y-99639524D01*
X111247181Y-99353810D02*
X110247181Y-99353810D01*
X110390038Y-99449048D01*
X110485276Y-99544286D01*
X110532895Y-99639524D01*
X124460095Y-108113581D02*
X124460095Y-108923105D01*
X124507714Y-109018343D01*
X124555333Y-109065962D01*
X124650571Y-109113581D01*
X124841048Y-109113581D01*
X124936286Y-109065962D01*
X124983905Y-109018343D01*
X125031524Y-108923105D01*
X125031524Y-108113581D01*
X125936286Y-108446914D02*
X125936286Y-109113581D01*
X125698190Y-108065962D02*
X125460095Y-108780248D01*
X126079143Y-108780248D01*
X111597381Y-93924286D02*
X110597381Y-93924286D01*
X110597381Y-93543333D01*
X110645000Y-93448095D01*
X110692619Y-93400476D01*
X110787857Y-93352857D01*
X110930714Y-93352857D01*
X111025952Y-93400476D01*
X111073571Y-93448095D01*
X111121190Y-93543333D01*
X111121190Y-93924286D01*
X111597381Y-92400476D02*
X111597381Y-92971905D01*
X111597381Y-92686191D02*
X110597381Y-92686191D01*
X110740238Y-92781429D01*
X110835476Y-92876667D01*
X110883095Y-92971905D01*
X110692619Y-92019524D02*
X110645000Y-91971905D01*
X110597381Y-91876667D01*
X110597381Y-91638571D01*
X110645000Y-91543333D01*
X110692619Y-91495714D01*
X110787857Y-91448095D01*
X110883095Y-91448095D01*
X111025952Y-91495714D01*
X111597381Y-92067143D01*
X111597381Y-91448095D01*
X110059829Y-114245886D02*
X110059829Y-113874457D01*
X110288400Y-114074457D01*
X110288400Y-113988743D01*
X110316971Y-113931600D01*
X110345543Y-113903029D01*
X110402686Y-113874457D01*
X110545543Y-113874457D01*
X110602686Y-113903029D01*
X110631257Y-113931600D01*
X110659829Y-113988743D01*
X110659829Y-114160171D01*
X110631257Y-114217314D01*
X110602686Y-114245886D01*
X110059829Y-113674457D02*
X110059829Y-113303028D01*
X110288400Y-113503028D01*
X110288400Y-113417314D01*
X110316971Y-113360171D01*
X110345543Y-113331600D01*
X110402686Y-113303028D01*
X110545543Y-113303028D01*
X110602686Y-113331600D01*
X110631257Y-113360171D01*
X110659829Y-113417314D01*
X110659829Y-113588742D01*
X110631257Y-113645885D01*
X110602686Y-113674457D01*
X110059829Y-112931599D02*
X110059829Y-112874456D01*
X110088400Y-112817313D01*
X110116971Y-112788742D01*
X110174114Y-112760171D01*
X110288400Y-112731599D01*
X110431257Y-112731599D01*
X110545543Y-112760171D01*
X110602686Y-112788742D01*
X110631257Y-112817313D01*
X110659829Y-112874456D01*
X110659829Y-112931599D01*
X110631257Y-112988742D01*
X110602686Y-113017313D01*
X110545543Y-113045885D01*
X110431257Y-113074456D01*
X110288400Y-113074456D01*
X110174114Y-113045885D01*
X110116971Y-113017313D01*
X110088400Y-112988742D01*
X110059829Y-112931599D01*
X110659829Y-112503027D02*
X110659829Y-112360170D01*
X110545543Y-112360170D01*
X110516971Y-112417313D01*
X110459829Y-112474456D01*
X110374114Y-112503027D01*
X110231257Y-112503027D01*
X110145543Y-112474456D01*
X110088400Y-112417313D01*
X110059829Y-112331599D01*
X110059829Y-112217313D01*
X110088400Y-112131599D01*
X110145543Y-112074456D01*
X110231257Y-112045884D01*
X110374114Y-112045884D01*
X110459829Y-112074456D01*
X110516971Y-112131599D01*
X110545543Y-112188742D01*
X110659829Y-112188742D01*
X110659829Y-112045884D01*
X101306381Y-109981905D02*
X102115905Y-109981905D01*
X102211143Y-109934286D01*
X102258762Y-109886667D01*
X102306381Y-109791429D01*
X102306381Y-109600952D01*
X102258762Y-109505714D01*
X102211143Y-109458095D01*
X102115905Y-109410476D01*
X101306381Y-109410476D01*
X101306381Y-108458095D02*
X101306381Y-108934286D01*
X101782571Y-108981905D01*
X101734952Y-108934286D01*
X101687333Y-108839048D01*
X101687333Y-108600952D01*
X101734952Y-108505714D01*
X101782571Y-108458095D01*
X101877810Y-108410476D01*
X102115905Y-108410476D01*
X102211143Y-108458095D01*
X102258762Y-108505714D01*
X102306381Y-108600952D01*
X102306381Y-108839048D01*
X102258762Y-108934286D01*
X102211143Y-108981905D01*
X110059829Y-111147086D02*
X110059829Y-110775657D01*
X110288400Y-110975657D01*
X110288400Y-110889943D01*
X110316971Y-110832800D01*
X110345543Y-110804229D01*
X110402686Y-110775657D01*
X110545543Y-110775657D01*
X110602686Y-110804229D01*
X110631257Y-110832800D01*
X110659829Y-110889943D01*
X110659829Y-111061371D01*
X110631257Y-111118514D01*
X110602686Y-111147086D01*
X110059829Y-110575657D02*
X110059829Y-110204228D01*
X110288400Y-110404228D01*
X110288400Y-110318514D01*
X110316971Y-110261371D01*
X110345543Y-110232800D01*
X110402686Y-110204228D01*
X110545543Y-110204228D01*
X110602686Y-110232800D01*
X110631257Y-110261371D01*
X110659829Y-110318514D01*
X110659829Y-110489942D01*
X110631257Y-110547085D01*
X110602686Y-110575657D01*
X110059829Y-109832799D02*
X110059829Y-109775656D01*
X110088400Y-109718513D01*
X110116971Y-109689942D01*
X110174114Y-109661371D01*
X110288400Y-109632799D01*
X110431257Y-109632799D01*
X110545543Y-109661371D01*
X110602686Y-109689942D01*
X110631257Y-109718513D01*
X110659829Y-109775656D01*
X110659829Y-109832799D01*
X110631257Y-109889942D01*
X110602686Y-109918513D01*
X110545543Y-109947085D01*
X110431257Y-109975656D01*
X110288400Y-109975656D01*
X110174114Y-109947085D01*
X110116971Y-109918513D01*
X110088400Y-109889942D01*
X110059829Y-109832799D01*
X110659829Y-109404227D02*
X110659829Y-109261370D01*
X110545543Y-109261370D01*
X110516971Y-109318513D01*
X110459829Y-109375656D01*
X110374114Y-109404227D01*
X110231257Y-109404227D01*
X110145543Y-109375656D01*
X110088400Y-109318513D01*
X110059829Y-109232799D01*
X110059829Y-109118513D01*
X110088400Y-109032799D01*
X110145543Y-108975656D01*
X110231257Y-108947084D01*
X110374114Y-108947084D01*
X110459829Y-108975656D01*
X110516971Y-109032799D01*
X110545543Y-109089942D01*
X110659829Y-109089942D01*
X110659829Y-108947084D01*
X106716534Y-101645981D02*
X106240343Y-101645981D01*
X106240343Y-100645981D01*
X107002248Y-100741219D02*
X107049867Y-100693600D01*
X107145105Y-100645981D01*
X107383201Y-100645981D01*
X107478439Y-100693600D01*
X107526058Y-100741219D01*
X107573677Y-100836457D01*
X107573677Y-100931695D01*
X107526058Y-101074552D01*
X106954629Y-101645981D01*
X107573677Y-101645981D01*
X101719029Y-73912400D02*
X101433314Y-74112400D01*
X101719029Y-74255257D02*
X101119029Y-74255257D01*
X101119029Y-74026685D01*
X101147600Y-73969543D01*
X101176171Y-73940971D01*
X101233314Y-73912400D01*
X101319029Y-73912400D01*
X101376171Y-73940971D01*
X101404743Y-73969543D01*
X101433314Y-74026685D01*
X101433314Y-74255257D01*
X101119029Y-73712400D02*
X101119029Y-73340971D01*
X101347600Y-73540971D01*
X101347600Y-73455257D01*
X101376171Y-73398114D01*
X101404743Y-73369543D01*
X101461886Y-73340971D01*
X101604743Y-73340971D01*
X101661886Y-73369543D01*
X101690457Y-73398114D01*
X101719029Y-73455257D01*
X101719029Y-73626685D01*
X101690457Y-73683828D01*
X101661886Y-73712400D01*
X102684229Y-74563200D02*
X102684229Y-74906057D01*
X102684229Y-74734629D02*
X102084229Y-74734629D01*
X102169943Y-74791772D01*
X102227086Y-74848914D01*
X102255657Y-74906057D01*
X102084229Y-74191771D02*
X102084229Y-74134628D01*
X102112800Y-74077485D01*
X102141371Y-74048914D01*
X102198514Y-74020343D01*
X102312800Y-73991771D01*
X102455657Y-73991771D01*
X102569943Y-74020343D01*
X102627086Y-74048914D01*
X102655657Y-74077485D01*
X102684229Y-74134628D01*
X102684229Y-74191771D01*
X102655657Y-74248914D01*
X102627086Y-74277485D01*
X102569943Y-74306057D01*
X102455657Y-74334628D01*
X102312800Y-74334628D01*
X102198514Y-74306057D01*
X102141371Y-74277485D01*
X102112800Y-74248914D01*
X102084229Y-74191771D01*
X102684229Y-73734628D02*
X102084229Y-73734628D01*
X102455657Y-73677485D02*
X102684229Y-73506056D01*
X102284229Y-73506056D02*
X102512800Y-73734628D01*
X102684229Y-73277485D02*
X102684229Y-73134628D01*
X102569943Y-73134628D01*
X102541371Y-73191771D01*
X102484229Y-73248914D01*
X102398514Y-73277485D01*
X102255657Y-73277485D01*
X102169943Y-73248914D01*
X102112800Y-73191771D01*
X102084229Y-73106057D01*
X102084229Y-72991771D01*
X102112800Y-72906057D01*
X102169943Y-72848914D01*
X102255657Y-72820342D01*
X102398514Y-72820342D01*
X102484229Y-72848914D01*
X102541371Y-72906057D01*
X102569943Y-72963200D01*
X102684229Y-72963200D01*
X102684229Y-72820342D01*
M02*
