G04 #@! TF.FileFunction,Legend,Top*
%FSLAX46Y46*%
G04 Gerber Fmt 4.6, Leading zero omitted, Abs format (unit mm)*
G04 Created by KiCad (PCBNEW 4.0.2-4+6225~38~ubuntu15.04.1-stable) date 2016年04月15日 16時13分23秒*
%MOMM*%
G01*
G04 APERTURE LIST*
%ADD10C,0.100000*%
%ADD11C,0.150000*%
%ADD12C,0.175000*%
%ADD13C,0.200000*%
%ADD14C,0.300000*%
G04 APERTURE END LIST*
D10*
D11*
X160388167Y-74468429D02*
X159688167Y-74468429D01*
X159688167Y-74068429D02*
X159688167Y-73954143D01*
X159721500Y-73897001D01*
X159788167Y-73839858D01*
X159921500Y-73811286D01*
X160154833Y-73811286D01*
X160288167Y-73839858D01*
X160354833Y-73897001D01*
X160388167Y-73954143D01*
X160388167Y-74068429D01*
X160354833Y-74125572D01*
X160288167Y-74182715D01*
X160154833Y-74211286D01*
X159921500Y-74211286D01*
X159788167Y-74182715D01*
X159721500Y-74125572D01*
X159688167Y-74068429D01*
X160388167Y-73239858D02*
X160388167Y-73582715D01*
X160388167Y-73411287D02*
X159688167Y-73411287D01*
X159788167Y-73468430D01*
X159854833Y-73525572D01*
X159888167Y-73582715D01*
X159921500Y-72725572D02*
X160388167Y-72725572D01*
X159654833Y-72868429D02*
X160154833Y-73011286D01*
X160154833Y-72639858D01*
X160388167Y-71954143D02*
X159688167Y-71954143D01*
X159688167Y-71554143D02*
X159688167Y-71439857D01*
X159721500Y-71382715D01*
X159788167Y-71325572D01*
X159921500Y-71297000D01*
X160154833Y-71297000D01*
X160288167Y-71325572D01*
X160354833Y-71382715D01*
X160388167Y-71439857D01*
X160388167Y-71554143D01*
X160354833Y-71611286D01*
X160288167Y-71668429D01*
X160154833Y-71697000D01*
X159921500Y-71697000D01*
X159788167Y-71668429D01*
X159721500Y-71611286D01*
X159688167Y-71554143D01*
X160388167Y-70725572D02*
X160388167Y-71068429D01*
X160388167Y-70897001D02*
X159688167Y-70897001D01*
X159788167Y-70954144D01*
X159854833Y-71011286D01*
X159888167Y-71068429D01*
X159754833Y-70497000D02*
X159721500Y-70468429D01*
X159688167Y-70411286D01*
X159688167Y-70268429D01*
X159721500Y-70211286D01*
X159754833Y-70182715D01*
X159821500Y-70154143D01*
X159888167Y-70154143D01*
X159988167Y-70182715D01*
X160388167Y-70525572D01*
X160388167Y-70154143D01*
X160388167Y-69439857D02*
X159688167Y-69439857D01*
X159688167Y-69039857D02*
X159688167Y-68925571D01*
X159721500Y-68868429D01*
X159788167Y-68811286D01*
X159921500Y-68782714D01*
X160154833Y-68782714D01*
X160288167Y-68811286D01*
X160354833Y-68868429D01*
X160388167Y-68925571D01*
X160388167Y-69039857D01*
X160354833Y-69097000D01*
X160288167Y-69154143D01*
X160154833Y-69182714D01*
X159921500Y-69182714D01*
X159788167Y-69154143D01*
X159721500Y-69097000D01*
X159688167Y-69039857D01*
X160388167Y-68211286D02*
X160388167Y-68554143D01*
X160388167Y-68382715D02*
X159688167Y-68382715D01*
X159788167Y-68439858D01*
X159854833Y-68497000D01*
X159888167Y-68554143D01*
X159688167Y-68011286D02*
X159688167Y-67639857D01*
X159954833Y-67839857D01*
X159954833Y-67754143D01*
X159988167Y-67697000D01*
X160021500Y-67668429D01*
X160088167Y-67639857D01*
X160254833Y-67639857D01*
X160321500Y-67668429D01*
X160354833Y-67697000D01*
X160388167Y-67754143D01*
X160388167Y-67925571D01*
X160354833Y-67982714D01*
X160321500Y-68011286D01*
X160388167Y-66468428D02*
X159688167Y-66468428D01*
X159688167Y-66068428D02*
X159688167Y-65954142D01*
X159721500Y-65897000D01*
X159788167Y-65839857D01*
X159921500Y-65811285D01*
X160154833Y-65811285D01*
X160288167Y-65839857D01*
X160354833Y-65897000D01*
X160388167Y-65954142D01*
X160388167Y-66068428D01*
X160354833Y-66125571D01*
X160288167Y-66182714D01*
X160154833Y-66211285D01*
X159921500Y-66211285D01*
X159788167Y-66182714D01*
X159721500Y-66125571D01*
X159688167Y-66068428D01*
X159754833Y-65582714D02*
X159721500Y-65554143D01*
X159688167Y-65497000D01*
X159688167Y-65354143D01*
X159721500Y-65297000D01*
X159754833Y-65268429D01*
X159821500Y-65239857D01*
X159888167Y-65239857D01*
X159988167Y-65268429D01*
X160388167Y-65611286D01*
X160388167Y-65239857D01*
X160388167Y-64068428D02*
X159688167Y-64068428D01*
X159688167Y-63668428D02*
X159688167Y-63554142D01*
X159721500Y-63497000D01*
X159788167Y-63439857D01*
X159921500Y-63411285D01*
X160154833Y-63411285D01*
X160288167Y-63439857D01*
X160354833Y-63497000D01*
X160388167Y-63554142D01*
X160388167Y-63668428D01*
X160354833Y-63725571D01*
X160288167Y-63782714D01*
X160154833Y-63811285D01*
X159921500Y-63811285D01*
X159788167Y-63782714D01*
X159721500Y-63725571D01*
X159688167Y-63668428D01*
X159921500Y-62897000D02*
X160388167Y-62897000D01*
X159654833Y-63039857D02*
X160154833Y-63182714D01*
X160154833Y-62811286D01*
X160388167Y-61668428D02*
X159688167Y-61668428D01*
X159688167Y-61268428D02*
X159688167Y-61154142D01*
X159721500Y-61097000D01*
X159788167Y-61039857D01*
X159921500Y-61011285D01*
X160154833Y-61011285D01*
X160288167Y-61039857D01*
X160354833Y-61097000D01*
X160388167Y-61154142D01*
X160388167Y-61268428D01*
X160354833Y-61325571D01*
X160288167Y-61382714D01*
X160154833Y-61411285D01*
X159921500Y-61411285D01*
X159788167Y-61382714D01*
X159721500Y-61325571D01*
X159688167Y-61268428D01*
X159688167Y-60468429D02*
X159688167Y-60754143D01*
X160021500Y-60782714D01*
X159988167Y-60754143D01*
X159954833Y-60697000D01*
X159954833Y-60554143D01*
X159988167Y-60497000D01*
X160021500Y-60468429D01*
X160088167Y-60439857D01*
X160254833Y-60439857D01*
X160321500Y-60468429D01*
X160354833Y-60497000D01*
X160388167Y-60554143D01*
X160388167Y-60697000D01*
X160354833Y-60754143D01*
X160321500Y-60782714D01*
X159688167Y-59811285D02*
X159688167Y-59468428D01*
X160388167Y-59639857D02*
X159688167Y-59639857D01*
X159688167Y-59154142D02*
X159688167Y-59039856D01*
X159721500Y-58982714D01*
X159788167Y-58925571D01*
X159921500Y-58896999D01*
X160154833Y-58896999D01*
X160288167Y-58925571D01*
X160354833Y-58982714D01*
X160388167Y-59039856D01*
X160388167Y-59154142D01*
X160354833Y-59211285D01*
X160288167Y-59268428D01*
X160154833Y-59296999D01*
X159921500Y-59296999D01*
X159788167Y-59268428D01*
X159721500Y-59211285D01*
X159688167Y-59154142D01*
X159688167Y-58639857D02*
X160254833Y-58639857D01*
X160321500Y-58611285D01*
X160354833Y-58582714D01*
X160388167Y-58525571D01*
X160388167Y-58411285D01*
X160354833Y-58354143D01*
X160321500Y-58325571D01*
X160254833Y-58297000D01*
X159688167Y-58297000D01*
X159688167Y-58097000D02*
X159688167Y-57754143D01*
X160388167Y-57925572D02*
X159688167Y-57925572D01*
X160388167Y-57097000D02*
X159688167Y-57097000D01*
X159688167Y-56697000D02*
X159688167Y-56582714D01*
X159721500Y-56525572D01*
X159788167Y-56468429D01*
X159921500Y-56439857D01*
X160154833Y-56439857D01*
X160288167Y-56468429D01*
X160354833Y-56525572D01*
X160388167Y-56582714D01*
X160388167Y-56697000D01*
X160354833Y-56754143D01*
X160288167Y-56811286D01*
X160154833Y-56839857D01*
X159921500Y-56839857D01*
X159788167Y-56811286D01*
X159721500Y-56754143D01*
X159688167Y-56697000D01*
X160388167Y-55868429D02*
X160388167Y-56211286D01*
X160388167Y-56039858D02*
X159688167Y-56039858D01*
X159788167Y-56097001D01*
X159854833Y-56154143D01*
X159888167Y-56211286D01*
X159688167Y-55354143D02*
X159688167Y-55468429D01*
X159721500Y-55525572D01*
X159754833Y-55554143D01*
X159854833Y-55611286D01*
X159988167Y-55639857D01*
X160254833Y-55639857D01*
X160321500Y-55611286D01*
X160354833Y-55582714D01*
X160388167Y-55525572D01*
X160388167Y-55411286D01*
X160354833Y-55354143D01*
X160321500Y-55325572D01*
X160254833Y-55297000D01*
X160088167Y-55297000D01*
X160021500Y-55325572D01*
X159988167Y-55354143D01*
X159954833Y-55411286D01*
X159954833Y-55525572D01*
X159988167Y-55582714D01*
X160021500Y-55611286D01*
X160088167Y-55639857D01*
D12*
X159372167Y-60974714D02*
X159038833Y-61274714D01*
X159372167Y-61488999D02*
X158672167Y-61488999D01*
X158672167Y-61146142D01*
X158705500Y-61060428D01*
X158738833Y-61017571D01*
X158805500Y-60974714D01*
X158905500Y-60974714D01*
X158972167Y-61017571D01*
X159005500Y-61060428D01*
X159038833Y-61146142D01*
X159038833Y-61488999D01*
X158672167Y-60588999D02*
X159238833Y-60588999D01*
X159305500Y-60546142D01*
X159338833Y-60503285D01*
X159372167Y-60417571D01*
X159372167Y-60246142D01*
X159338833Y-60160428D01*
X159305500Y-60117571D01*
X159238833Y-60074714D01*
X158672167Y-60074714D01*
X159372167Y-59646142D02*
X158672167Y-59646142D01*
X159372167Y-59131857D01*
X158672167Y-59131857D01*
X158672167Y-58103286D02*
X159372167Y-57889000D01*
X158872167Y-57717571D01*
X159372167Y-57546143D01*
X158672167Y-57331857D01*
X159372167Y-56474715D02*
X159038833Y-56774715D01*
X159372167Y-56989000D02*
X158672167Y-56989000D01*
X158672167Y-56646143D01*
X158705500Y-56560429D01*
X158738833Y-56517572D01*
X158805500Y-56474715D01*
X158905500Y-56474715D01*
X158972167Y-56517572D01*
X159005500Y-56560429D01*
X159038833Y-56646143D01*
X159038833Y-56989000D01*
X159372167Y-56089000D02*
X158672167Y-56089000D01*
X158672167Y-55789001D02*
X158672167Y-55274715D01*
X159372167Y-55531858D02*
X158672167Y-55531858D01*
X159005500Y-54974715D02*
X159005500Y-54674715D01*
X159372167Y-54546144D02*
X159372167Y-54974715D01*
X158672167Y-54974715D01*
X158672167Y-54546144D01*
D13*
X165524691Y-52522381D02*
X165524691Y-51760476D01*
X165477072Y-52474762D02*
X165477072Y-51808095D01*
X165429453Y-52474762D02*
X165429453Y-51808095D01*
X165381834Y-52427143D02*
X165381834Y-51855714D01*
X165334215Y-52427143D02*
X165334215Y-51855714D01*
X165286596Y-52379524D02*
X165286596Y-51903333D01*
X165238977Y-52379524D02*
X165238977Y-51903333D01*
X165191358Y-52331905D02*
X165191358Y-51950952D01*
X165143739Y-52284286D02*
X165143739Y-51998571D01*
X165096120Y-52284286D02*
X165096120Y-51998571D01*
X165048500Y-52236667D02*
X165048500Y-52046190D01*
X165000881Y-52236667D02*
X165000881Y-52046190D01*
X164953262Y-52141429D02*
X164905643Y-52141429D01*
X164953262Y-52189048D02*
X164953262Y-52093810D01*
X165572310Y-52522381D02*
X164858024Y-52141429D01*
X165572310Y-51760476D01*
X164810405Y-52141429D02*
X165572310Y-51712857D01*
X165572310Y-52570000D01*
X164810405Y-52141429D01*
X166619929Y-52522381D02*
X166286595Y-52046190D01*
X166048500Y-52522381D02*
X166048500Y-51522381D01*
X166429453Y-51522381D01*
X166524691Y-51570000D01*
X166572310Y-51617619D01*
X166619929Y-51712857D01*
X166619929Y-51855714D01*
X166572310Y-51950952D01*
X166524691Y-51998571D01*
X166429453Y-52046190D01*
X166048500Y-52046190D01*
X167000881Y-52474762D02*
X167143738Y-52522381D01*
X167381834Y-52522381D01*
X167477072Y-52474762D01*
X167524691Y-52427143D01*
X167572310Y-52331905D01*
X167572310Y-52236667D01*
X167524691Y-52141429D01*
X167477072Y-52093810D01*
X167381834Y-52046190D01*
X167191357Y-51998571D01*
X167096119Y-51950952D01*
X167048500Y-51903333D01*
X167000881Y-51808095D01*
X167000881Y-51712857D01*
X167048500Y-51617619D01*
X167096119Y-51570000D01*
X167191357Y-51522381D01*
X167429453Y-51522381D01*
X167572310Y-51570000D01*
X167858024Y-51522381D02*
X168429453Y-51522381D01*
X168143738Y-52522381D02*
X168143738Y-51522381D01*
D12*
X158545167Y-74393617D02*
X158545167Y-73867903D01*
X159245167Y-74130760D02*
X158545167Y-74130760D01*
X158545167Y-73648855D02*
X159245167Y-73035522D01*
X158545167Y-73035522D02*
X159245167Y-73648855D01*
X159245167Y-71458380D02*
X158911833Y-71765047D01*
X159245167Y-71984094D02*
X158545167Y-71984094D01*
X158545167Y-71633618D01*
X158578500Y-71545999D01*
X158611833Y-71502190D01*
X158678500Y-71458380D01*
X158778500Y-71458380D01*
X158845167Y-71502190D01*
X158878500Y-71545999D01*
X158911833Y-71633618D01*
X158911833Y-71984094D01*
X158545167Y-71151713D02*
X159245167Y-70538380D01*
X158545167Y-70538380D02*
X159245167Y-71151713D01*
X158545167Y-69048857D02*
X158545167Y-69486952D01*
X158878500Y-69530762D01*
X158845167Y-69486952D01*
X158811833Y-69399333D01*
X158811833Y-69180286D01*
X158845167Y-69092667D01*
X158878500Y-69048857D01*
X158945167Y-69005048D01*
X159111833Y-69005048D01*
X159178500Y-69048857D01*
X159211833Y-69092667D01*
X159245167Y-69180286D01*
X159245167Y-69399333D01*
X159211833Y-69486952D01*
X159178500Y-69530762D01*
X158545167Y-68742191D02*
X159245167Y-68435524D01*
X158545167Y-68128858D01*
X158545167Y-67208858D02*
X158545167Y-66639335D01*
X158811833Y-66946001D01*
X158811833Y-66814573D01*
X158845167Y-66726954D01*
X158878500Y-66683144D01*
X158945167Y-66639335D01*
X159111833Y-66639335D01*
X159178500Y-66683144D01*
X159211833Y-66726954D01*
X159245167Y-66814573D01*
X159245167Y-67077430D01*
X159211833Y-67165049D01*
X159178500Y-67208858D01*
X158545167Y-66376478D02*
X159245167Y-66069811D01*
X158545167Y-65763145D01*
X158578500Y-64273622D02*
X158545167Y-64361241D01*
X158545167Y-64492669D01*
X158578500Y-64624098D01*
X158645167Y-64711717D01*
X158711833Y-64755526D01*
X158845167Y-64799336D01*
X158945167Y-64799336D01*
X159078500Y-64755526D01*
X159145167Y-64711717D01*
X159211833Y-64624098D01*
X159245167Y-64492669D01*
X159245167Y-64405050D01*
X159211833Y-64273622D01*
X159178500Y-64229812D01*
X158945167Y-64229812D01*
X158945167Y-64405050D01*
X159245167Y-63835526D02*
X158545167Y-63835526D01*
X159245167Y-63309812D01*
X158545167Y-63309812D01*
X159245167Y-62871716D02*
X158545167Y-62871716D01*
X158545167Y-62652669D01*
X158578500Y-62521240D01*
X158645167Y-62433621D01*
X158711833Y-62389812D01*
X158845167Y-62346002D01*
X158945167Y-62346002D01*
X159078500Y-62389812D01*
X159145167Y-62433621D01*
X159211833Y-62521240D01*
X159245167Y-62652669D01*
X159245167Y-62871716D01*
D11*
X154290667Y-62836286D02*
X154290667Y-62464857D01*
X154557333Y-62664857D01*
X154557333Y-62579143D01*
X154590667Y-62522000D01*
X154624000Y-62493429D01*
X154690667Y-62464857D01*
X154857333Y-62464857D01*
X154924000Y-62493429D01*
X154957333Y-62522000D01*
X154990667Y-62579143D01*
X154990667Y-62750571D01*
X154957333Y-62807714D01*
X154924000Y-62836286D01*
X154290667Y-62264857D02*
X154290667Y-61893428D01*
X154557333Y-62093428D01*
X154557333Y-62007714D01*
X154590667Y-61950571D01*
X154624000Y-61922000D01*
X154690667Y-61893428D01*
X154857333Y-61893428D01*
X154924000Y-61922000D01*
X154957333Y-61950571D01*
X154990667Y-62007714D01*
X154990667Y-62179142D01*
X154957333Y-62236285D01*
X154924000Y-62264857D01*
X154290667Y-61521999D02*
X154290667Y-61464856D01*
X154324000Y-61407713D01*
X154357333Y-61379142D01*
X154424000Y-61350571D01*
X154557333Y-61321999D01*
X154724000Y-61321999D01*
X154857333Y-61350571D01*
X154924000Y-61379142D01*
X154957333Y-61407713D01*
X154990667Y-61464856D01*
X154990667Y-61521999D01*
X154957333Y-61579142D01*
X154924000Y-61607713D01*
X154857333Y-61636285D01*
X154724000Y-61664856D01*
X154557333Y-61664856D01*
X154424000Y-61636285D01*
X154357333Y-61607713D01*
X154324000Y-61579142D01*
X154290667Y-61521999D01*
X154990667Y-61093427D02*
X154990667Y-60950570D01*
X154857333Y-60950570D01*
X154824000Y-61007713D01*
X154757333Y-61064856D01*
X154657333Y-61093427D01*
X154490667Y-61093427D01*
X154390667Y-61064856D01*
X154324000Y-61007713D01*
X154290667Y-60921999D01*
X154290667Y-60807713D01*
X154324000Y-60721999D01*
X154390667Y-60664856D01*
X154490667Y-60636284D01*
X154657333Y-60636284D01*
X154757333Y-60664856D01*
X154824000Y-60721999D01*
X154857333Y-60779142D01*
X154990667Y-60779142D01*
X154990667Y-60636284D01*
D13*
X132767095Y-112872881D02*
X132767095Y-111872881D01*
X133100429Y-112587167D01*
X133433762Y-111872881D01*
X133433762Y-112872881D01*
X134100428Y-111872881D02*
X134290905Y-111872881D01*
X134386143Y-111920500D01*
X134481381Y-112015738D01*
X134529000Y-112206214D01*
X134529000Y-112539548D01*
X134481381Y-112730024D01*
X134386143Y-112825262D01*
X134290905Y-112872881D01*
X134100428Y-112872881D01*
X134005190Y-112825262D01*
X133909952Y-112730024D01*
X133862333Y-112539548D01*
X133862333Y-112206214D01*
X133909952Y-112015738D01*
X134005190Y-111920500D01*
X134100428Y-111872881D01*
X134814714Y-111872881D02*
X135386143Y-111872881D01*
X135100428Y-112872881D02*
X135100428Y-111872881D01*
X135909952Y-111872881D02*
X136100429Y-111872881D01*
X136195667Y-111920500D01*
X136290905Y-112015738D01*
X136338524Y-112206214D01*
X136338524Y-112539548D01*
X136290905Y-112730024D01*
X136195667Y-112825262D01*
X136100429Y-112872881D01*
X135909952Y-112872881D01*
X135814714Y-112825262D01*
X135719476Y-112730024D01*
X135671857Y-112539548D01*
X135671857Y-112206214D01*
X135719476Y-112015738D01*
X135814714Y-111920500D01*
X135909952Y-111872881D01*
X137338524Y-112872881D02*
X137005190Y-112396690D01*
X136767095Y-112872881D02*
X136767095Y-111872881D01*
X137148048Y-111872881D01*
X137243286Y-111920500D01*
X137290905Y-111968119D01*
X137338524Y-112063357D01*
X137338524Y-112206214D01*
X137290905Y-112301452D01*
X137243286Y-112349071D01*
X137148048Y-112396690D01*
X136767095Y-112396690D01*
X137100429Y-113949071D02*
X137243286Y-113996690D01*
X137290905Y-114044310D01*
X137338524Y-114139548D01*
X137338524Y-114282405D01*
X137290905Y-114377643D01*
X137243286Y-114425262D01*
X137148048Y-114472881D01*
X136767095Y-114472881D01*
X136767095Y-113472881D01*
X137100429Y-113472881D01*
X137195667Y-113520500D01*
X137243286Y-113568119D01*
X137290905Y-113663357D01*
X137290905Y-113758595D01*
X137243286Y-113853833D01*
X137195667Y-113901452D01*
X137100429Y-113949071D01*
X136767095Y-113949071D01*
X149149976Y-112809381D02*
X149149976Y-111809381D01*
X149416643Y-112523667D01*
X149683310Y-111809381D01*
X149683310Y-112809381D01*
X150216643Y-111809381D02*
X150369024Y-111809381D01*
X150445215Y-111857000D01*
X150521405Y-111952238D01*
X150559500Y-112142714D01*
X150559500Y-112476048D01*
X150521405Y-112666524D01*
X150445215Y-112761762D01*
X150369024Y-112809381D01*
X150216643Y-112809381D01*
X150140453Y-112761762D01*
X150064262Y-112666524D01*
X150026167Y-112476048D01*
X150026167Y-112142714D01*
X150064262Y-111952238D01*
X150140453Y-111857000D01*
X150216643Y-111809381D01*
X150788071Y-111809381D02*
X151245214Y-111809381D01*
X151016643Y-112809381D02*
X151016643Y-111809381D01*
X151664262Y-111809381D02*
X151816643Y-111809381D01*
X151892834Y-111857000D01*
X151969024Y-111952238D01*
X152007119Y-112142714D01*
X152007119Y-112476048D01*
X151969024Y-112666524D01*
X151892834Y-112761762D01*
X151816643Y-112809381D01*
X151664262Y-112809381D01*
X151588072Y-112761762D01*
X151511881Y-112666524D01*
X151473786Y-112476048D01*
X151473786Y-112142714D01*
X151511881Y-111952238D01*
X151588072Y-111857000D01*
X151664262Y-111809381D01*
X152807119Y-112809381D02*
X152540452Y-112333190D01*
X152349976Y-112809381D02*
X152349976Y-111809381D01*
X152654738Y-111809381D01*
X152730929Y-111857000D01*
X152769024Y-111904619D01*
X152807119Y-111999857D01*
X152807119Y-112142714D01*
X152769024Y-112237952D01*
X152730929Y-112285571D01*
X152654738Y-112333190D01*
X152349976Y-112333190D01*
X152426167Y-114123667D02*
X152807119Y-114123667D01*
X152349976Y-114409381D02*
X152616643Y-113409381D01*
X152883310Y-114409381D01*
D12*
X159023905Y-95390832D02*
X158223905Y-95390832D01*
X158223905Y-95124166D01*
X158262000Y-95057499D01*
X158300095Y-95024166D01*
X158376286Y-94990832D01*
X158490571Y-94990832D01*
X158566762Y-95024166D01*
X158604857Y-95057499D01*
X158642952Y-95124166D01*
X158642952Y-95390832D01*
X158223905Y-94757499D02*
X159023905Y-94590832D01*
X158452476Y-94457499D01*
X159023905Y-94324166D01*
X158223905Y-94157499D01*
X159023905Y-93490832D02*
X158642952Y-93724166D01*
X159023905Y-93890832D02*
X158223905Y-93890832D01*
X158223905Y-93624166D01*
X158262000Y-93557499D01*
X158300095Y-93524166D01*
X158376286Y-93490832D01*
X158490571Y-93490832D01*
X158566762Y-93524166D01*
X158604857Y-93557499D01*
X158642952Y-93624166D01*
X158642952Y-93890832D01*
X159023905Y-92657499D02*
X158223905Y-92657499D01*
X159023905Y-92324166D02*
X158223905Y-92324166D01*
X159023905Y-91924166D01*
X158223905Y-91924166D01*
X159899857Y-95524166D02*
X159937952Y-95424166D01*
X159976048Y-95390833D01*
X160052238Y-95357499D01*
X160166524Y-95357499D01*
X160242714Y-95390833D01*
X160280810Y-95424166D01*
X160318905Y-95490833D01*
X160318905Y-95757499D01*
X159518905Y-95757499D01*
X159518905Y-95524166D01*
X159557000Y-95457499D01*
X159595095Y-95424166D01*
X159671286Y-95390833D01*
X159747476Y-95390833D01*
X159823667Y-95424166D01*
X159861762Y-95457499D01*
X159899857Y-95524166D01*
X159899857Y-95757499D01*
X160090333Y-95090833D02*
X160090333Y-94757499D01*
X160318905Y-95157499D02*
X159518905Y-94924166D01*
X160318905Y-94690833D01*
X159518905Y-94557499D02*
X159518905Y-94157499D01*
X160318905Y-94357499D02*
X159518905Y-94357499D01*
X159518905Y-94024166D02*
X159518905Y-93624166D01*
X160318905Y-93824166D02*
X159518905Y-93824166D01*
X159518905Y-92924167D02*
X159518905Y-92490834D01*
X159823667Y-92724167D01*
X159823667Y-92624167D01*
X159861762Y-92557500D01*
X159899857Y-92524167D01*
X159976048Y-92490834D01*
X160166524Y-92490834D01*
X160242714Y-92524167D01*
X160280810Y-92557500D01*
X160318905Y-92624167D01*
X160318905Y-92824167D01*
X160280810Y-92890834D01*
X160242714Y-92924167D01*
X159518905Y-92290833D02*
X160318905Y-92057500D01*
X159518905Y-91824167D01*
D13*
X161667000Y-102171404D02*
X161619381Y-102266642D01*
X161619381Y-102409499D01*
X161667000Y-102552357D01*
X161762238Y-102647595D01*
X161857476Y-102695214D01*
X162047952Y-102742833D01*
X162190810Y-102742833D01*
X162381286Y-102695214D01*
X162476524Y-102647595D01*
X162571762Y-102552357D01*
X162619381Y-102409499D01*
X162619381Y-102314261D01*
X162571762Y-102171404D01*
X162524143Y-102123785D01*
X162190810Y-102123785D01*
X162190810Y-102314261D01*
X162619381Y-101695214D02*
X161619381Y-101695214D01*
X162619381Y-101123785D01*
X161619381Y-101123785D01*
X162619381Y-100647595D02*
X161619381Y-100647595D01*
X161619381Y-100409500D01*
X161667000Y-100266642D01*
X161762238Y-100171404D01*
X161857476Y-100123785D01*
X162047952Y-100076166D01*
X162190810Y-100076166D01*
X162381286Y-100123785D01*
X162476524Y-100171404D01*
X162571762Y-100266642D01*
X162619381Y-100409500D01*
X162619381Y-100647595D01*
D12*
X137483119Y-93267668D02*
X138483119Y-93267668D01*
X137768833Y-93501001D01*
X138483119Y-93734334D01*
X137483119Y-93734334D01*
X138483119Y-94201001D02*
X138483119Y-94334334D01*
X138435500Y-94401001D01*
X138340262Y-94467668D01*
X138149786Y-94501001D01*
X137816452Y-94501001D01*
X137625976Y-94467668D01*
X137530738Y-94401001D01*
X137483119Y-94334334D01*
X137483119Y-94201001D01*
X137530738Y-94134334D01*
X137625976Y-94067668D01*
X137816452Y-94034334D01*
X138149786Y-94034334D01*
X138340262Y-94067668D01*
X138435500Y-94134334D01*
X138483119Y-94201001D01*
X138483119Y-94701001D02*
X138483119Y-95101001D01*
X137483119Y-94901001D02*
X138483119Y-94901001D01*
X138483119Y-95467667D02*
X138483119Y-95601000D01*
X138435500Y-95667667D01*
X138340262Y-95734334D01*
X138149786Y-95767667D01*
X137816452Y-95767667D01*
X137625976Y-95734334D01*
X137530738Y-95667667D01*
X137483119Y-95601000D01*
X137483119Y-95467667D01*
X137530738Y-95401000D01*
X137625976Y-95334334D01*
X137816452Y-95301000D01*
X138149786Y-95301000D01*
X138340262Y-95334334D01*
X138435500Y-95401000D01*
X138483119Y-95467667D01*
X137483119Y-96467667D02*
X137959310Y-96234333D01*
X137483119Y-96067667D02*
X138483119Y-96067667D01*
X138483119Y-96334333D01*
X138435500Y-96401000D01*
X138387881Y-96434333D01*
X138292643Y-96467667D01*
X138149786Y-96467667D01*
X138054548Y-96434333D01*
X138006929Y-96401000D01*
X137959310Y-96334333D01*
X137959310Y-96067667D01*
X137483119Y-97301000D02*
X138483119Y-97301000D01*
X138483119Y-97567666D01*
X138435500Y-97634333D01*
X138387881Y-97667666D01*
X138292643Y-97701000D01*
X138149786Y-97701000D01*
X138054548Y-97667666D01*
X138006929Y-97634333D01*
X137959310Y-97567666D01*
X137959310Y-97301000D01*
X138483119Y-98134333D02*
X138483119Y-98267666D01*
X138435500Y-98334333D01*
X138340262Y-98401000D01*
X138149786Y-98434333D01*
X137816452Y-98434333D01*
X137625976Y-98401000D01*
X137530738Y-98334333D01*
X137483119Y-98267666D01*
X137483119Y-98134333D01*
X137530738Y-98067666D01*
X137625976Y-98001000D01*
X137816452Y-97967666D01*
X138149786Y-97967666D01*
X138340262Y-98001000D01*
X138435500Y-98067666D01*
X138483119Y-98134333D01*
X138483119Y-98667666D02*
X137483119Y-98834333D01*
X138197405Y-98967666D01*
X137483119Y-99100999D01*
X138483119Y-99267666D01*
X138006929Y-99534333D02*
X138006929Y-99767666D01*
X137483119Y-99867666D02*
X137483119Y-99534333D01*
X138483119Y-99534333D01*
X138483119Y-99867666D01*
X137483119Y-100567666D02*
X137959310Y-100334332D01*
X137483119Y-100167666D02*
X138483119Y-100167666D01*
X138483119Y-100434332D01*
X138435500Y-100500999D01*
X138387881Y-100534332D01*
X138292643Y-100567666D01*
X138149786Y-100567666D01*
X138054548Y-100534332D01*
X138006929Y-100500999D01*
X137959310Y-100434332D01*
X137959310Y-100167666D01*
X136908119Y-91717668D02*
X136908119Y-92151001D01*
X136527167Y-91917668D01*
X136527167Y-92017668D01*
X136479548Y-92084335D01*
X136431929Y-92117668D01*
X136336690Y-92151001D01*
X136098595Y-92151001D01*
X136003357Y-92117668D01*
X135955738Y-92084335D01*
X135908119Y-92017668D01*
X135908119Y-91817668D01*
X135955738Y-91751001D01*
X136003357Y-91717668D01*
X136003357Y-92451002D02*
X135955738Y-92484335D01*
X135908119Y-92451002D01*
X135955738Y-92417668D01*
X136003357Y-92451002D01*
X135908119Y-92451002D01*
X136908119Y-92717668D02*
X136908119Y-93151001D01*
X136527167Y-92917668D01*
X136527167Y-93017668D01*
X136479548Y-93084335D01*
X136431929Y-93117668D01*
X136336690Y-93151001D01*
X136098595Y-93151001D01*
X136003357Y-93117668D01*
X135955738Y-93084335D01*
X135908119Y-93017668D01*
X135908119Y-92817668D01*
X135955738Y-92751001D01*
X136003357Y-92717668D01*
X136908119Y-93351002D02*
X135908119Y-93584335D01*
X136908119Y-93817668D01*
X136431929Y-94817668D02*
X136384310Y-94917668D01*
X136336690Y-94951001D01*
X136241452Y-94984335D01*
X136098595Y-94984335D01*
X136003357Y-94951001D01*
X135955738Y-94917668D01*
X135908119Y-94851001D01*
X135908119Y-94584335D01*
X136908119Y-94584335D01*
X136908119Y-94817668D01*
X136860500Y-94884335D01*
X136812881Y-94917668D01*
X136717643Y-94951001D01*
X136622405Y-94951001D01*
X136527167Y-94917668D01*
X136479548Y-94884335D01*
X136431929Y-94817668D01*
X136431929Y-94584335D01*
X136193833Y-95251001D02*
X136193833Y-95584335D01*
X135908119Y-95184335D02*
X136908119Y-95417668D01*
X135908119Y-95651001D01*
X136908119Y-95784335D02*
X136908119Y-96184335D01*
X135908119Y-95984335D02*
X136908119Y-95984335D01*
X136908119Y-96317668D02*
X136908119Y-96717668D01*
X135908119Y-96517668D02*
X136908119Y-96517668D01*
X135908119Y-97484334D02*
X136908119Y-97484334D01*
X136193833Y-97717667D01*
X136908119Y-97951000D01*
X135908119Y-97951000D01*
X136908119Y-98417667D02*
X136908119Y-98551000D01*
X136860500Y-98617667D01*
X136765262Y-98684334D01*
X136574786Y-98717667D01*
X136241452Y-98717667D01*
X136050976Y-98684334D01*
X135955738Y-98617667D01*
X135908119Y-98551000D01*
X135908119Y-98417667D01*
X135955738Y-98351000D01*
X136050976Y-98284334D01*
X136241452Y-98251000D01*
X136574786Y-98251000D01*
X136765262Y-98284334D01*
X136860500Y-98351000D01*
X136908119Y-98417667D01*
X136908119Y-98917667D02*
X136908119Y-99317667D01*
X135908119Y-99117667D02*
X136908119Y-99117667D01*
X136908119Y-100017666D02*
X136908119Y-100450999D01*
X136527167Y-100217666D01*
X136527167Y-100317666D01*
X136479548Y-100384333D01*
X136431929Y-100417666D01*
X136336690Y-100450999D01*
X136098595Y-100450999D01*
X136003357Y-100417666D01*
X135955738Y-100384333D01*
X135908119Y-100317666D01*
X135908119Y-100117666D01*
X135955738Y-100050999D01*
X136003357Y-100017666D01*
X136003357Y-100751000D02*
X135955738Y-100784333D01*
X135908119Y-100751000D01*
X135955738Y-100717666D01*
X136003357Y-100751000D01*
X135908119Y-100751000D01*
X136908119Y-101017666D02*
X136908119Y-101450999D01*
X136527167Y-101217666D01*
X136527167Y-101317666D01*
X136479548Y-101384333D01*
X136431929Y-101417666D01*
X136336690Y-101450999D01*
X136098595Y-101450999D01*
X136003357Y-101417666D01*
X135955738Y-101384333D01*
X135908119Y-101317666D01*
X135908119Y-101117666D01*
X135955738Y-101050999D01*
X136003357Y-101017666D01*
X136908119Y-101651000D02*
X135908119Y-101884333D01*
X136908119Y-102117666D01*
D13*
X159523881Y-113061453D02*
X159523881Y-112870976D01*
X159571500Y-112775738D01*
X159666738Y-112680500D01*
X159857214Y-112632881D01*
X160190548Y-112632881D01*
X160381024Y-112680500D01*
X160476262Y-112775738D01*
X160523881Y-112870976D01*
X160523881Y-113061453D01*
X160476262Y-113156691D01*
X160381024Y-113251929D01*
X160190548Y-113299548D01*
X159857214Y-113299548D01*
X159666738Y-113251929D01*
X159571500Y-113156691D01*
X159523881Y-113061453D01*
X160000071Y-111870976D02*
X160000071Y-112204310D01*
X160523881Y-112204310D02*
X159523881Y-112204310D01*
X159523881Y-111728119D01*
X160000071Y-111013833D02*
X160000071Y-111347167D01*
X160523881Y-111347167D02*
X159523881Y-111347167D01*
X159523881Y-110870976D01*
X159523881Y-109537643D02*
X159523881Y-109347166D01*
X159571500Y-109251928D01*
X159666738Y-109156690D01*
X159857214Y-109109071D01*
X160190548Y-109109071D01*
X160381024Y-109156690D01*
X160476262Y-109251928D01*
X160523881Y-109347166D01*
X160523881Y-109537643D01*
X160476262Y-109632881D01*
X160381024Y-109728119D01*
X160190548Y-109775738D01*
X159857214Y-109775738D01*
X159666738Y-109728119D01*
X159571500Y-109632881D01*
X159523881Y-109537643D01*
X160523881Y-108680500D02*
X159523881Y-108680500D01*
X160523881Y-108109071D01*
X159523881Y-108109071D01*
X151554691Y-52966881D02*
X151554691Y-52204976D01*
X151507072Y-52919262D02*
X151507072Y-52252595D01*
X151459453Y-52919262D02*
X151459453Y-52252595D01*
X151411834Y-52871643D02*
X151411834Y-52300214D01*
X151364215Y-52871643D02*
X151364215Y-52300214D01*
X151316596Y-52824024D02*
X151316596Y-52347833D01*
X151268977Y-52824024D02*
X151268977Y-52347833D01*
X151221358Y-52776405D02*
X151221358Y-52395452D01*
X151173739Y-52728786D02*
X151173739Y-52443071D01*
X151126120Y-52728786D02*
X151126120Y-52443071D01*
X151078500Y-52681167D02*
X151078500Y-52490690D01*
X151030881Y-52681167D02*
X151030881Y-52490690D01*
X150983262Y-52585929D02*
X150935643Y-52585929D01*
X150983262Y-52633548D02*
X150983262Y-52538310D01*
X151602310Y-52966881D02*
X150888024Y-52585929D01*
X151602310Y-52204976D01*
X150840405Y-52585929D02*
X151602310Y-52157357D01*
X151602310Y-53014500D01*
X150840405Y-52585929D01*
X152649929Y-52966881D02*
X152316595Y-52490690D01*
X152078500Y-52966881D02*
X152078500Y-51966881D01*
X152459453Y-51966881D01*
X152554691Y-52014500D01*
X152602310Y-52062119D01*
X152649929Y-52157357D01*
X152649929Y-52300214D01*
X152602310Y-52395452D01*
X152554691Y-52443071D01*
X152459453Y-52490690D01*
X152078500Y-52490690D01*
X153030881Y-52919262D02*
X153173738Y-52966881D01*
X153411834Y-52966881D01*
X153507072Y-52919262D01*
X153554691Y-52871643D01*
X153602310Y-52776405D01*
X153602310Y-52681167D01*
X153554691Y-52585929D01*
X153507072Y-52538310D01*
X153411834Y-52490690D01*
X153221357Y-52443071D01*
X153126119Y-52395452D01*
X153078500Y-52347833D01*
X153030881Y-52252595D01*
X153030881Y-52157357D01*
X153078500Y-52062119D01*
X153126119Y-52014500D01*
X153221357Y-51966881D01*
X153459453Y-51966881D01*
X153602310Y-52014500D01*
X153888024Y-51966881D02*
X154459453Y-51966881D01*
X154173738Y-52966881D02*
X154173738Y-51966881D01*
X140759667Y-51903381D02*
X140759667Y-52617667D01*
X140712047Y-52760524D01*
X140616809Y-52855762D01*
X140473952Y-52903381D01*
X140378714Y-52903381D01*
X141235857Y-52903381D02*
X141235857Y-51903381D01*
X141616810Y-51903381D01*
X141712048Y-51951000D01*
X141759667Y-51998619D01*
X141807286Y-52093857D01*
X141807286Y-52236714D01*
X141759667Y-52331952D01*
X141712048Y-52379571D01*
X141616810Y-52427190D01*
X141235857Y-52427190D01*
X142140619Y-51903381D02*
X142759667Y-51903381D01*
X142426333Y-52284333D01*
X142569191Y-52284333D01*
X142664429Y-52331952D01*
X142712048Y-52379571D01*
X142759667Y-52474810D01*
X142759667Y-52712905D01*
X142712048Y-52808143D01*
X142664429Y-52855762D01*
X142569191Y-52903381D01*
X142283476Y-52903381D01*
X142188238Y-52855762D01*
X142140619Y-52808143D01*
D14*
X136830572Y-52177143D02*
X137973429Y-52177143D01*
X137402000Y-52748571D02*
X137402000Y-51605714D01*
D11*
X127888167Y-74468429D02*
X127188167Y-74468429D01*
X127188167Y-74068429D02*
X127188167Y-73954143D01*
X127221500Y-73897001D01*
X127288167Y-73839858D01*
X127421500Y-73811286D01*
X127654833Y-73811286D01*
X127788167Y-73839858D01*
X127854833Y-73897001D01*
X127888167Y-73954143D01*
X127888167Y-74068429D01*
X127854833Y-74125572D01*
X127788167Y-74182715D01*
X127654833Y-74211286D01*
X127421500Y-74211286D01*
X127288167Y-74182715D01*
X127221500Y-74125572D01*
X127188167Y-74068429D01*
X127888167Y-73239858D02*
X127888167Y-73582715D01*
X127888167Y-73411287D02*
X127188167Y-73411287D01*
X127288167Y-73468430D01*
X127354833Y-73525572D01*
X127388167Y-73582715D01*
X127421500Y-72725572D02*
X127888167Y-72725572D01*
X127154833Y-72868429D02*
X127654833Y-73011286D01*
X127654833Y-72639858D01*
X127888167Y-71954143D02*
X127188167Y-71954143D01*
X127188167Y-71554143D02*
X127188167Y-71439857D01*
X127221500Y-71382715D01*
X127288167Y-71325572D01*
X127421500Y-71297000D01*
X127654833Y-71297000D01*
X127788167Y-71325572D01*
X127854833Y-71382715D01*
X127888167Y-71439857D01*
X127888167Y-71554143D01*
X127854833Y-71611286D01*
X127788167Y-71668429D01*
X127654833Y-71697000D01*
X127421500Y-71697000D01*
X127288167Y-71668429D01*
X127221500Y-71611286D01*
X127188167Y-71554143D01*
X127888167Y-70725572D02*
X127888167Y-71068429D01*
X127888167Y-70897001D02*
X127188167Y-70897001D01*
X127288167Y-70954144D01*
X127354833Y-71011286D01*
X127388167Y-71068429D01*
X127254833Y-70497000D02*
X127221500Y-70468429D01*
X127188167Y-70411286D01*
X127188167Y-70268429D01*
X127221500Y-70211286D01*
X127254833Y-70182715D01*
X127321500Y-70154143D01*
X127388167Y-70154143D01*
X127488167Y-70182715D01*
X127888167Y-70525572D01*
X127888167Y-70154143D01*
X127888167Y-69439857D02*
X127188167Y-69439857D01*
X127188167Y-69039857D02*
X127188167Y-68925571D01*
X127221500Y-68868429D01*
X127288167Y-68811286D01*
X127421500Y-68782714D01*
X127654833Y-68782714D01*
X127788167Y-68811286D01*
X127854833Y-68868429D01*
X127888167Y-68925571D01*
X127888167Y-69039857D01*
X127854833Y-69097000D01*
X127788167Y-69154143D01*
X127654833Y-69182714D01*
X127421500Y-69182714D01*
X127288167Y-69154143D01*
X127221500Y-69097000D01*
X127188167Y-69039857D01*
X127888167Y-68211286D02*
X127888167Y-68554143D01*
X127888167Y-68382715D02*
X127188167Y-68382715D01*
X127288167Y-68439858D01*
X127354833Y-68497000D01*
X127388167Y-68554143D01*
X127188167Y-68011286D02*
X127188167Y-67639857D01*
X127454833Y-67839857D01*
X127454833Y-67754143D01*
X127488167Y-67697000D01*
X127521500Y-67668429D01*
X127588167Y-67639857D01*
X127754833Y-67639857D01*
X127821500Y-67668429D01*
X127854833Y-67697000D01*
X127888167Y-67754143D01*
X127888167Y-67925571D01*
X127854833Y-67982714D01*
X127821500Y-68011286D01*
X127888167Y-66468428D02*
X127188167Y-66468428D01*
X127188167Y-66068428D02*
X127188167Y-65954142D01*
X127221500Y-65897000D01*
X127288167Y-65839857D01*
X127421500Y-65811285D01*
X127654833Y-65811285D01*
X127788167Y-65839857D01*
X127854833Y-65897000D01*
X127888167Y-65954142D01*
X127888167Y-66068428D01*
X127854833Y-66125571D01*
X127788167Y-66182714D01*
X127654833Y-66211285D01*
X127421500Y-66211285D01*
X127288167Y-66182714D01*
X127221500Y-66125571D01*
X127188167Y-66068428D01*
X127254833Y-65582714D02*
X127221500Y-65554143D01*
X127188167Y-65497000D01*
X127188167Y-65354143D01*
X127221500Y-65297000D01*
X127254833Y-65268429D01*
X127321500Y-65239857D01*
X127388167Y-65239857D01*
X127488167Y-65268429D01*
X127888167Y-65611286D01*
X127888167Y-65239857D01*
X127888167Y-64068428D02*
X127188167Y-64068428D01*
X127188167Y-63668428D02*
X127188167Y-63554142D01*
X127221500Y-63497000D01*
X127288167Y-63439857D01*
X127421500Y-63411285D01*
X127654833Y-63411285D01*
X127788167Y-63439857D01*
X127854833Y-63497000D01*
X127888167Y-63554142D01*
X127888167Y-63668428D01*
X127854833Y-63725571D01*
X127788167Y-63782714D01*
X127654833Y-63811285D01*
X127421500Y-63811285D01*
X127288167Y-63782714D01*
X127221500Y-63725571D01*
X127188167Y-63668428D01*
X127421500Y-62897000D02*
X127888167Y-62897000D01*
X127154833Y-63039857D02*
X127654833Y-63182714D01*
X127654833Y-62811286D01*
X127888167Y-61668428D02*
X127188167Y-61668428D01*
X127188167Y-61268428D02*
X127188167Y-61154142D01*
X127221500Y-61097000D01*
X127288167Y-61039857D01*
X127421500Y-61011285D01*
X127654833Y-61011285D01*
X127788167Y-61039857D01*
X127854833Y-61097000D01*
X127888167Y-61154142D01*
X127888167Y-61268428D01*
X127854833Y-61325571D01*
X127788167Y-61382714D01*
X127654833Y-61411285D01*
X127421500Y-61411285D01*
X127288167Y-61382714D01*
X127221500Y-61325571D01*
X127188167Y-61268428D01*
X127188167Y-60468429D02*
X127188167Y-60754143D01*
X127521500Y-60782714D01*
X127488167Y-60754143D01*
X127454833Y-60697000D01*
X127454833Y-60554143D01*
X127488167Y-60497000D01*
X127521500Y-60468429D01*
X127588167Y-60439857D01*
X127754833Y-60439857D01*
X127821500Y-60468429D01*
X127854833Y-60497000D01*
X127888167Y-60554143D01*
X127888167Y-60697000D01*
X127854833Y-60754143D01*
X127821500Y-60782714D01*
X127188167Y-59811285D02*
X127188167Y-59468428D01*
X127888167Y-59639857D02*
X127188167Y-59639857D01*
X127188167Y-59154142D02*
X127188167Y-59039856D01*
X127221500Y-58982714D01*
X127288167Y-58925571D01*
X127421500Y-58896999D01*
X127654833Y-58896999D01*
X127788167Y-58925571D01*
X127854833Y-58982714D01*
X127888167Y-59039856D01*
X127888167Y-59154142D01*
X127854833Y-59211285D01*
X127788167Y-59268428D01*
X127654833Y-59296999D01*
X127421500Y-59296999D01*
X127288167Y-59268428D01*
X127221500Y-59211285D01*
X127188167Y-59154142D01*
X127188167Y-58639857D02*
X127754833Y-58639857D01*
X127821500Y-58611285D01*
X127854833Y-58582714D01*
X127888167Y-58525571D01*
X127888167Y-58411285D01*
X127854833Y-58354143D01*
X127821500Y-58325571D01*
X127754833Y-58297000D01*
X127188167Y-58297000D01*
X127188167Y-58097000D02*
X127188167Y-57754143D01*
X127888167Y-57925572D02*
X127188167Y-57925572D01*
X127888167Y-57097000D02*
X127188167Y-57097000D01*
X127188167Y-56697000D02*
X127188167Y-56582714D01*
X127221500Y-56525572D01*
X127288167Y-56468429D01*
X127421500Y-56439857D01*
X127654833Y-56439857D01*
X127788167Y-56468429D01*
X127854833Y-56525572D01*
X127888167Y-56582714D01*
X127888167Y-56697000D01*
X127854833Y-56754143D01*
X127788167Y-56811286D01*
X127654833Y-56839857D01*
X127421500Y-56839857D01*
X127288167Y-56811286D01*
X127221500Y-56754143D01*
X127188167Y-56697000D01*
X127888167Y-55868429D02*
X127888167Y-56211286D01*
X127888167Y-56039858D02*
X127188167Y-56039858D01*
X127288167Y-56097001D01*
X127354833Y-56154143D01*
X127388167Y-56211286D01*
X127188167Y-55354143D02*
X127188167Y-55468429D01*
X127221500Y-55525572D01*
X127254833Y-55554143D01*
X127354833Y-55611286D01*
X127488167Y-55639857D01*
X127754833Y-55639857D01*
X127821500Y-55611286D01*
X127854833Y-55582714D01*
X127888167Y-55525572D01*
X127888167Y-55411286D01*
X127854833Y-55354143D01*
X127821500Y-55325572D01*
X127754833Y-55297000D01*
X127588167Y-55297000D01*
X127521500Y-55325572D01*
X127488167Y-55354143D01*
X127454833Y-55411286D01*
X127454833Y-55525572D01*
X127488167Y-55582714D01*
X127521500Y-55611286D01*
X127588167Y-55639857D01*
D12*
X126872167Y-60974714D02*
X126538833Y-61274714D01*
X126872167Y-61488999D02*
X126172167Y-61488999D01*
X126172167Y-61146142D01*
X126205500Y-61060428D01*
X126238833Y-61017571D01*
X126305500Y-60974714D01*
X126405500Y-60974714D01*
X126472167Y-61017571D01*
X126505500Y-61060428D01*
X126538833Y-61146142D01*
X126538833Y-61488999D01*
X126172167Y-60588999D02*
X126738833Y-60588999D01*
X126805500Y-60546142D01*
X126838833Y-60503285D01*
X126872167Y-60417571D01*
X126872167Y-60246142D01*
X126838833Y-60160428D01*
X126805500Y-60117571D01*
X126738833Y-60074714D01*
X126172167Y-60074714D01*
X126872167Y-59646142D02*
X126172167Y-59646142D01*
X126872167Y-59131857D01*
X126172167Y-59131857D01*
X126172167Y-58103286D02*
X126872167Y-57889000D01*
X126372167Y-57717571D01*
X126872167Y-57546143D01*
X126172167Y-57331857D01*
X126872167Y-56474715D02*
X126538833Y-56774715D01*
X126872167Y-56989000D02*
X126172167Y-56989000D01*
X126172167Y-56646143D01*
X126205500Y-56560429D01*
X126238833Y-56517572D01*
X126305500Y-56474715D01*
X126405500Y-56474715D01*
X126472167Y-56517572D01*
X126505500Y-56560429D01*
X126538833Y-56646143D01*
X126538833Y-56989000D01*
X126872167Y-56089000D02*
X126172167Y-56089000D01*
X126172167Y-55789001D02*
X126172167Y-55274715D01*
X126872167Y-55531858D02*
X126172167Y-55531858D01*
X126505500Y-54974715D02*
X126505500Y-54674715D01*
X126872167Y-54546144D02*
X126872167Y-54974715D01*
X126172167Y-54974715D01*
X126172167Y-54546144D01*
D13*
X133024691Y-52522381D02*
X133024691Y-51760476D01*
X132977072Y-52474762D02*
X132977072Y-51808095D01*
X132929453Y-52474762D02*
X132929453Y-51808095D01*
X132881834Y-52427143D02*
X132881834Y-51855714D01*
X132834215Y-52427143D02*
X132834215Y-51855714D01*
X132786596Y-52379524D02*
X132786596Y-51903333D01*
X132738977Y-52379524D02*
X132738977Y-51903333D01*
X132691358Y-52331905D02*
X132691358Y-51950952D01*
X132643739Y-52284286D02*
X132643739Y-51998571D01*
X132596120Y-52284286D02*
X132596120Y-51998571D01*
X132548500Y-52236667D02*
X132548500Y-52046190D01*
X132500881Y-52236667D02*
X132500881Y-52046190D01*
X132453262Y-52141429D02*
X132405643Y-52141429D01*
X132453262Y-52189048D02*
X132453262Y-52093810D01*
X133072310Y-52522381D02*
X132358024Y-52141429D01*
X133072310Y-51760476D01*
X132310405Y-52141429D02*
X133072310Y-51712857D01*
X133072310Y-52570000D01*
X132310405Y-52141429D01*
X134119929Y-52522381D02*
X133786595Y-52046190D01*
X133548500Y-52522381D02*
X133548500Y-51522381D01*
X133929453Y-51522381D01*
X134024691Y-51570000D01*
X134072310Y-51617619D01*
X134119929Y-51712857D01*
X134119929Y-51855714D01*
X134072310Y-51950952D01*
X134024691Y-51998571D01*
X133929453Y-52046190D01*
X133548500Y-52046190D01*
X134500881Y-52474762D02*
X134643738Y-52522381D01*
X134881834Y-52522381D01*
X134977072Y-52474762D01*
X135024691Y-52427143D01*
X135072310Y-52331905D01*
X135072310Y-52236667D01*
X135024691Y-52141429D01*
X134977072Y-52093810D01*
X134881834Y-52046190D01*
X134691357Y-51998571D01*
X134596119Y-51950952D01*
X134548500Y-51903333D01*
X134500881Y-51808095D01*
X134500881Y-51712857D01*
X134548500Y-51617619D01*
X134596119Y-51570000D01*
X134691357Y-51522381D01*
X134929453Y-51522381D01*
X135072310Y-51570000D01*
X135358024Y-51522381D02*
X135929453Y-51522381D01*
X135643738Y-52522381D02*
X135643738Y-51522381D01*
D12*
X126045167Y-74393617D02*
X126045167Y-73867903D01*
X126745167Y-74130760D02*
X126045167Y-74130760D01*
X126045167Y-73648855D02*
X126745167Y-73035522D01*
X126045167Y-73035522D02*
X126745167Y-73648855D01*
X126745167Y-71458380D02*
X126411833Y-71765047D01*
X126745167Y-71984094D02*
X126045167Y-71984094D01*
X126045167Y-71633618D01*
X126078500Y-71545999D01*
X126111833Y-71502190D01*
X126178500Y-71458380D01*
X126278500Y-71458380D01*
X126345167Y-71502190D01*
X126378500Y-71545999D01*
X126411833Y-71633618D01*
X126411833Y-71984094D01*
X126045167Y-71151713D02*
X126745167Y-70538380D01*
X126045167Y-70538380D02*
X126745167Y-71151713D01*
X126045167Y-69048857D02*
X126045167Y-69486952D01*
X126378500Y-69530762D01*
X126345167Y-69486952D01*
X126311833Y-69399333D01*
X126311833Y-69180286D01*
X126345167Y-69092667D01*
X126378500Y-69048857D01*
X126445167Y-69005048D01*
X126611833Y-69005048D01*
X126678500Y-69048857D01*
X126711833Y-69092667D01*
X126745167Y-69180286D01*
X126745167Y-69399333D01*
X126711833Y-69486952D01*
X126678500Y-69530762D01*
X126045167Y-68742191D02*
X126745167Y-68435524D01*
X126045167Y-68128858D01*
X126045167Y-67208858D02*
X126045167Y-66639335D01*
X126311833Y-66946001D01*
X126311833Y-66814573D01*
X126345167Y-66726954D01*
X126378500Y-66683144D01*
X126445167Y-66639335D01*
X126611833Y-66639335D01*
X126678500Y-66683144D01*
X126711833Y-66726954D01*
X126745167Y-66814573D01*
X126745167Y-67077430D01*
X126711833Y-67165049D01*
X126678500Y-67208858D01*
X126045167Y-66376478D02*
X126745167Y-66069811D01*
X126045167Y-65763145D01*
X126078500Y-64273622D02*
X126045167Y-64361241D01*
X126045167Y-64492669D01*
X126078500Y-64624098D01*
X126145167Y-64711717D01*
X126211833Y-64755526D01*
X126345167Y-64799336D01*
X126445167Y-64799336D01*
X126578500Y-64755526D01*
X126645167Y-64711717D01*
X126711833Y-64624098D01*
X126745167Y-64492669D01*
X126745167Y-64405050D01*
X126711833Y-64273622D01*
X126678500Y-64229812D01*
X126445167Y-64229812D01*
X126445167Y-64405050D01*
X126745167Y-63835526D02*
X126045167Y-63835526D01*
X126745167Y-63309812D01*
X126045167Y-63309812D01*
X126745167Y-62871716D02*
X126045167Y-62871716D01*
X126045167Y-62652669D01*
X126078500Y-62521240D01*
X126145167Y-62433621D01*
X126211833Y-62389812D01*
X126345167Y-62346002D01*
X126445167Y-62346002D01*
X126578500Y-62389812D01*
X126645167Y-62433621D01*
X126711833Y-62521240D01*
X126745167Y-62652669D01*
X126745167Y-62871716D01*
D11*
X121790667Y-62836286D02*
X121790667Y-62464857D01*
X122057333Y-62664857D01*
X122057333Y-62579143D01*
X122090667Y-62522000D01*
X122124000Y-62493429D01*
X122190667Y-62464857D01*
X122357333Y-62464857D01*
X122424000Y-62493429D01*
X122457333Y-62522000D01*
X122490667Y-62579143D01*
X122490667Y-62750571D01*
X122457333Y-62807714D01*
X122424000Y-62836286D01*
X121790667Y-62264857D02*
X121790667Y-61893428D01*
X122057333Y-62093428D01*
X122057333Y-62007714D01*
X122090667Y-61950571D01*
X122124000Y-61922000D01*
X122190667Y-61893428D01*
X122357333Y-61893428D01*
X122424000Y-61922000D01*
X122457333Y-61950571D01*
X122490667Y-62007714D01*
X122490667Y-62179142D01*
X122457333Y-62236285D01*
X122424000Y-62264857D01*
X121790667Y-61521999D02*
X121790667Y-61464856D01*
X121824000Y-61407713D01*
X121857333Y-61379142D01*
X121924000Y-61350571D01*
X122057333Y-61321999D01*
X122224000Y-61321999D01*
X122357333Y-61350571D01*
X122424000Y-61379142D01*
X122457333Y-61407713D01*
X122490667Y-61464856D01*
X122490667Y-61521999D01*
X122457333Y-61579142D01*
X122424000Y-61607713D01*
X122357333Y-61636285D01*
X122224000Y-61664856D01*
X122057333Y-61664856D01*
X121924000Y-61636285D01*
X121857333Y-61607713D01*
X121824000Y-61579142D01*
X121790667Y-61521999D01*
X122490667Y-61093427D02*
X122490667Y-60950570D01*
X122357333Y-60950570D01*
X122324000Y-61007713D01*
X122257333Y-61064856D01*
X122157333Y-61093427D01*
X121990667Y-61093427D01*
X121890667Y-61064856D01*
X121824000Y-61007713D01*
X121790667Y-60921999D01*
X121790667Y-60807713D01*
X121824000Y-60721999D01*
X121890667Y-60664856D01*
X121990667Y-60636284D01*
X122157333Y-60636284D01*
X122257333Y-60664856D01*
X122324000Y-60721999D01*
X122357333Y-60779142D01*
X122490667Y-60779142D01*
X122490667Y-60636284D01*
D13*
X100267095Y-112872881D02*
X100267095Y-111872881D01*
X100600429Y-112587167D01*
X100933762Y-111872881D01*
X100933762Y-112872881D01*
X101600428Y-111872881D02*
X101790905Y-111872881D01*
X101886143Y-111920500D01*
X101981381Y-112015738D01*
X102029000Y-112206214D01*
X102029000Y-112539548D01*
X101981381Y-112730024D01*
X101886143Y-112825262D01*
X101790905Y-112872881D01*
X101600428Y-112872881D01*
X101505190Y-112825262D01*
X101409952Y-112730024D01*
X101362333Y-112539548D01*
X101362333Y-112206214D01*
X101409952Y-112015738D01*
X101505190Y-111920500D01*
X101600428Y-111872881D01*
X102314714Y-111872881D02*
X102886143Y-111872881D01*
X102600428Y-112872881D02*
X102600428Y-111872881D01*
X103409952Y-111872881D02*
X103600429Y-111872881D01*
X103695667Y-111920500D01*
X103790905Y-112015738D01*
X103838524Y-112206214D01*
X103838524Y-112539548D01*
X103790905Y-112730024D01*
X103695667Y-112825262D01*
X103600429Y-112872881D01*
X103409952Y-112872881D01*
X103314714Y-112825262D01*
X103219476Y-112730024D01*
X103171857Y-112539548D01*
X103171857Y-112206214D01*
X103219476Y-112015738D01*
X103314714Y-111920500D01*
X103409952Y-111872881D01*
X104838524Y-112872881D02*
X104505190Y-112396690D01*
X104267095Y-112872881D02*
X104267095Y-111872881D01*
X104648048Y-111872881D01*
X104743286Y-111920500D01*
X104790905Y-111968119D01*
X104838524Y-112063357D01*
X104838524Y-112206214D01*
X104790905Y-112301452D01*
X104743286Y-112349071D01*
X104648048Y-112396690D01*
X104267095Y-112396690D01*
X104600429Y-113949071D02*
X104743286Y-113996690D01*
X104790905Y-114044310D01*
X104838524Y-114139548D01*
X104838524Y-114282405D01*
X104790905Y-114377643D01*
X104743286Y-114425262D01*
X104648048Y-114472881D01*
X104267095Y-114472881D01*
X104267095Y-113472881D01*
X104600429Y-113472881D01*
X104695667Y-113520500D01*
X104743286Y-113568119D01*
X104790905Y-113663357D01*
X104790905Y-113758595D01*
X104743286Y-113853833D01*
X104695667Y-113901452D01*
X104600429Y-113949071D01*
X104267095Y-113949071D01*
X116649976Y-112809381D02*
X116649976Y-111809381D01*
X116916643Y-112523667D01*
X117183310Y-111809381D01*
X117183310Y-112809381D01*
X117716643Y-111809381D02*
X117869024Y-111809381D01*
X117945215Y-111857000D01*
X118021405Y-111952238D01*
X118059500Y-112142714D01*
X118059500Y-112476048D01*
X118021405Y-112666524D01*
X117945215Y-112761762D01*
X117869024Y-112809381D01*
X117716643Y-112809381D01*
X117640453Y-112761762D01*
X117564262Y-112666524D01*
X117526167Y-112476048D01*
X117526167Y-112142714D01*
X117564262Y-111952238D01*
X117640453Y-111857000D01*
X117716643Y-111809381D01*
X118288071Y-111809381D02*
X118745214Y-111809381D01*
X118516643Y-112809381D02*
X118516643Y-111809381D01*
X119164262Y-111809381D02*
X119316643Y-111809381D01*
X119392834Y-111857000D01*
X119469024Y-111952238D01*
X119507119Y-112142714D01*
X119507119Y-112476048D01*
X119469024Y-112666524D01*
X119392834Y-112761762D01*
X119316643Y-112809381D01*
X119164262Y-112809381D01*
X119088072Y-112761762D01*
X119011881Y-112666524D01*
X118973786Y-112476048D01*
X118973786Y-112142714D01*
X119011881Y-111952238D01*
X119088072Y-111857000D01*
X119164262Y-111809381D01*
X120307119Y-112809381D02*
X120040452Y-112333190D01*
X119849976Y-112809381D02*
X119849976Y-111809381D01*
X120154738Y-111809381D01*
X120230929Y-111857000D01*
X120269024Y-111904619D01*
X120307119Y-111999857D01*
X120307119Y-112142714D01*
X120269024Y-112237952D01*
X120230929Y-112285571D01*
X120154738Y-112333190D01*
X119849976Y-112333190D01*
X119926167Y-114123667D02*
X120307119Y-114123667D01*
X119849976Y-114409381D02*
X120116643Y-113409381D01*
X120383310Y-114409381D01*
D12*
X126523905Y-95390832D02*
X125723905Y-95390832D01*
X125723905Y-95124166D01*
X125762000Y-95057499D01*
X125800095Y-95024166D01*
X125876286Y-94990832D01*
X125990571Y-94990832D01*
X126066762Y-95024166D01*
X126104857Y-95057499D01*
X126142952Y-95124166D01*
X126142952Y-95390832D01*
X125723905Y-94757499D02*
X126523905Y-94590832D01*
X125952476Y-94457499D01*
X126523905Y-94324166D01*
X125723905Y-94157499D01*
X126523905Y-93490832D02*
X126142952Y-93724166D01*
X126523905Y-93890832D02*
X125723905Y-93890832D01*
X125723905Y-93624166D01*
X125762000Y-93557499D01*
X125800095Y-93524166D01*
X125876286Y-93490832D01*
X125990571Y-93490832D01*
X126066762Y-93524166D01*
X126104857Y-93557499D01*
X126142952Y-93624166D01*
X126142952Y-93890832D01*
X126523905Y-92657499D02*
X125723905Y-92657499D01*
X126523905Y-92324166D02*
X125723905Y-92324166D01*
X126523905Y-91924166D01*
X125723905Y-91924166D01*
X127399857Y-95524166D02*
X127437952Y-95424166D01*
X127476048Y-95390833D01*
X127552238Y-95357499D01*
X127666524Y-95357499D01*
X127742714Y-95390833D01*
X127780810Y-95424166D01*
X127818905Y-95490833D01*
X127818905Y-95757499D01*
X127018905Y-95757499D01*
X127018905Y-95524166D01*
X127057000Y-95457499D01*
X127095095Y-95424166D01*
X127171286Y-95390833D01*
X127247476Y-95390833D01*
X127323667Y-95424166D01*
X127361762Y-95457499D01*
X127399857Y-95524166D01*
X127399857Y-95757499D01*
X127590333Y-95090833D02*
X127590333Y-94757499D01*
X127818905Y-95157499D02*
X127018905Y-94924166D01*
X127818905Y-94690833D01*
X127018905Y-94557499D02*
X127018905Y-94157499D01*
X127818905Y-94357499D02*
X127018905Y-94357499D01*
X127018905Y-94024166D02*
X127018905Y-93624166D01*
X127818905Y-93824166D02*
X127018905Y-93824166D01*
X127018905Y-92924167D02*
X127018905Y-92490834D01*
X127323667Y-92724167D01*
X127323667Y-92624167D01*
X127361762Y-92557500D01*
X127399857Y-92524167D01*
X127476048Y-92490834D01*
X127666524Y-92490834D01*
X127742714Y-92524167D01*
X127780810Y-92557500D01*
X127818905Y-92624167D01*
X127818905Y-92824167D01*
X127780810Y-92890834D01*
X127742714Y-92924167D01*
X127018905Y-92290833D02*
X127818905Y-92057500D01*
X127018905Y-91824167D01*
D13*
X129167000Y-102171404D02*
X129119381Y-102266642D01*
X129119381Y-102409499D01*
X129167000Y-102552357D01*
X129262238Y-102647595D01*
X129357476Y-102695214D01*
X129547952Y-102742833D01*
X129690810Y-102742833D01*
X129881286Y-102695214D01*
X129976524Y-102647595D01*
X130071762Y-102552357D01*
X130119381Y-102409499D01*
X130119381Y-102314261D01*
X130071762Y-102171404D01*
X130024143Y-102123785D01*
X129690810Y-102123785D01*
X129690810Y-102314261D01*
X130119381Y-101695214D02*
X129119381Y-101695214D01*
X130119381Y-101123785D01*
X129119381Y-101123785D01*
X130119381Y-100647595D02*
X129119381Y-100647595D01*
X129119381Y-100409500D01*
X129167000Y-100266642D01*
X129262238Y-100171404D01*
X129357476Y-100123785D01*
X129547952Y-100076166D01*
X129690810Y-100076166D01*
X129881286Y-100123785D01*
X129976524Y-100171404D01*
X130071762Y-100266642D01*
X130119381Y-100409500D01*
X130119381Y-100647595D01*
D12*
X104983119Y-93267668D02*
X105983119Y-93267668D01*
X105268833Y-93501001D01*
X105983119Y-93734334D01*
X104983119Y-93734334D01*
X105983119Y-94201001D02*
X105983119Y-94334334D01*
X105935500Y-94401001D01*
X105840262Y-94467668D01*
X105649786Y-94501001D01*
X105316452Y-94501001D01*
X105125976Y-94467668D01*
X105030738Y-94401001D01*
X104983119Y-94334334D01*
X104983119Y-94201001D01*
X105030738Y-94134334D01*
X105125976Y-94067668D01*
X105316452Y-94034334D01*
X105649786Y-94034334D01*
X105840262Y-94067668D01*
X105935500Y-94134334D01*
X105983119Y-94201001D01*
X105983119Y-94701001D02*
X105983119Y-95101001D01*
X104983119Y-94901001D02*
X105983119Y-94901001D01*
X105983119Y-95467667D02*
X105983119Y-95601000D01*
X105935500Y-95667667D01*
X105840262Y-95734334D01*
X105649786Y-95767667D01*
X105316452Y-95767667D01*
X105125976Y-95734334D01*
X105030738Y-95667667D01*
X104983119Y-95601000D01*
X104983119Y-95467667D01*
X105030738Y-95401000D01*
X105125976Y-95334334D01*
X105316452Y-95301000D01*
X105649786Y-95301000D01*
X105840262Y-95334334D01*
X105935500Y-95401000D01*
X105983119Y-95467667D01*
X104983119Y-96467667D02*
X105459310Y-96234333D01*
X104983119Y-96067667D02*
X105983119Y-96067667D01*
X105983119Y-96334333D01*
X105935500Y-96401000D01*
X105887881Y-96434333D01*
X105792643Y-96467667D01*
X105649786Y-96467667D01*
X105554548Y-96434333D01*
X105506929Y-96401000D01*
X105459310Y-96334333D01*
X105459310Y-96067667D01*
X104983119Y-97301000D02*
X105983119Y-97301000D01*
X105983119Y-97567666D01*
X105935500Y-97634333D01*
X105887881Y-97667666D01*
X105792643Y-97701000D01*
X105649786Y-97701000D01*
X105554548Y-97667666D01*
X105506929Y-97634333D01*
X105459310Y-97567666D01*
X105459310Y-97301000D01*
X105983119Y-98134333D02*
X105983119Y-98267666D01*
X105935500Y-98334333D01*
X105840262Y-98401000D01*
X105649786Y-98434333D01*
X105316452Y-98434333D01*
X105125976Y-98401000D01*
X105030738Y-98334333D01*
X104983119Y-98267666D01*
X104983119Y-98134333D01*
X105030738Y-98067666D01*
X105125976Y-98001000D01*
X105316452Y-97967666D01*
X105649786Y-97967666D01*
X105840262Y-98001000D01*
X105935500Y-98067666D01*
X105983119Y-98134333D01*
X105983119Y-98667666D02*
X104983119Y-98834333D01*
X105697405Y-98967666D01*
X104983119Y-99100999D01*
X105983119Y-99267666D01*
X105506929Y-99534333D02*
X105506929Y-99767666D01*
X104983119Y-99867666D02*
X104983119Y-99534333D01*
X105983119Y-99534333D01*
X105983119Y-99867666D01*
X104983119Y-100567666D02*
X105459310Y-100334332D01*
X104983119Y-100167666D02*
X105983119Y-100167666D01*
X105983119Y-100434332D01*
X105935500Y-100500999D01*
X105887881Y-100534332D01*
X105792643Y-100567666D01*
X105649786Y-100567666D01*
X105554548Y-100534332D01*
X105506929Y-100500999D01*
X105459310Y-100434332D01*
X105459310Y-100167666D01*
X104408119Y-91717668D02*
X104408119Y-92151001D01*
X104027167Y-91917668D01*
X104027167Y-92017668D01*
X103979548Y-92084335D01*
X103931929Y-92117668D01*
X103836690Y-92151001D01*
X103598595Y-92151001D01*
X103503357Y-92117668D01*
X103455738Y-92084335D01*
X103408119Y-92017668D01*
X103408119Y-91817668D01*
X103455738Y-91751001D01*
X103503357Y-91717668D01*
X103503357Y-92451002D02*
X103455738Y-92484335D01*
X103408119Y-92451002D01*
X103455738Y-92417668D01*
X103503357Y-92451002D01*
X103408119Y-92451002D01*
X104408119Y-92717668D02*
X104408119Y-93151001D01*
X104027167Y-92917668D01*
X104027167Y-93017668D01*
X103979548Y-93084335D01*
X103931929Y-93117668D01*
X103836690Y-93151001D01*
X103598595Y-93151001D01*
X103503357Y-93117668D01*
X103455738Y-93084335D01*
X103408119Y-93017668D01*
X103408119Y-92817668D01*
X103455738Y-92751001D01*
X103503357Y-92717668D01*
X104408119Y-93351002D02*
X103408119Y-93584335D01*
X104408119Y-93817668D01*
X103931929Y-94817668D02*
X103884310Y-94917668D01*
X103836690Y-94951001D01*
X103741452Y-94984335D01*
X103598595Y-94984335D01*
X103503357Y-94951001D01*
X103455738Y-94917668D01*
X103408119Y-94851001D01*
X103408119Y-94584335D01*
X104408119Y-94584335D01*
X104408119Y-94817668D01*
X104360500Y-94884335D01*
X104312881Y-94917668D01*
X104217643Y-94951001D01*
X104122405Y-94951001D01*
X104027167Y-94917668D01*
X103979548Y-94884335D01*
X103931929Y-94817668D01*
X103931929Y-94584335D01*
X103693833Y-95251001D02*
X103693833Y-95584335D01*
X103408119Y-95184335D02*
X104408119Y-95417668D01*
X103408119Y-95651001D01*
X104408119Y-95784335D02*
X104408119Y-96184335D01*
X103408119Y-95984335D02*
X104408119Y-95984335D01*
X104408119Y-96317668D02*
X104408119Y-96717668D01*
X103408119Y-96517668D02*
X104408119Y-96517668D01*
X103408119Y-97484334D02*
X104408119Y-97484334D01*
X103693833Y-97717667D01*
X104408119Y-97951000D01*
X103408119Y-97951000D01*
X104408119Y-98417667D02*
X104408119Y-98551000D01*
X104360500Y-98617667D01*
X104265262Y-98684334D01*
X104074786Y-98717667D01*
X103741452Y-98717667D01*
X103550976Y-98684334D01*
X103455738Y-98617667D01*
X103408119Y-98551000D01*
X103408119Y-98417667D01*
X103455738Y-98351000D01*
X103550976Y-98284334D01*
X103741452Y-98251000D01*
X104074786Y-98251000D01*
X104265262Y-98284334D01*
X104360500Y-98351000D01*
X104408119Y-98417667D01*
X104408119Y-98917667D02*
X104408119Y-99317667D01*
X103408119Y-99117667D02*
X104408119Y-99117667D01*
X104408119Y-100017666D02*
X104408119Y-100450999D01*
X104027167Y-100217666D01*
X104027167Y-100317666D01*
X103979548Y-100384333D01*
X103931929Y-100417666D01*
X103836690Y-100450999D01*
X103598595Y-100450999D01*
X103503357Y-100417666D01*
X103455738Y-100384333D01*
X103408119Y-100317666D01*
X103408119Y-100117666D01*
X103455738Y-100050999D01*
X103503357Y-100017666D01*
X103503357Y-100751000D02*
X103455738Y-100784333D01*
X103408119Y-100751000D01*
X103455738Y-100717666D01*
X103503357Y-100751000D01*
X103408119Y-100751000D01*
X104408119Y-101017666D02*
X104408119Y-101450999D01*
X104027167Y-101217666D01*
X104027167Y-101317666D01*
X103979548Y-101384333D01*
X103931929Y-101417666D01*
X103836690Y-101450999D01*
X103598595Y-101450999D01*
X103503357Y-101417666D01*
X103455738Y-101384333D01*
X103408119Y-101317666D01*
X103408119Y-101117666D01*
X103455738Y-101050999D01*
X103503357Y-101017666D01*
X104408119Y-101651000D02*
X103408119Y-101884333D01*
X104408119Y-102117666D01*
D13*
X127023881Y-113061453D02*
X127023881Y-112870976D01*
X127071500Y-112775738D01*
X127166738Y-112680500D01*
X127357214Y-112632881D01*
X127690548Y-112632881D01*
X127881024Y-112680500D01*
X127976262Y-112775738D01*
X128023881Y-112870976D01*
X128023881Y-113061453D01*
X127976262Y-113156691D01*
X127881024Y-113251929D01*
X127690548Y-113299548D01*
X127357214Y-113299548D01*
X127166738Y-113251929D01*
X127071500Y-113156691D01*
X127023881Y-113061453D01*
X127500071Y-111870976D02*
X127500071Y-112204310D01*
X128023881Y-112204310D02*
X127023881Y-112204310D01*
X127023881Y-111728119D01*
X127500071Y-111013833D02*
X127500071Y-111347167D01*
X128023881Y-111347167D02*
X127023881Y-111347167D01*
X127023881Y-110870976D01*
X127023881Y-109537643D02*
X127023881Y-109347166D01*
X127071500Y-109251928D01*
X127166738Y-109156690D01*
X127357214Y-109109071D01*
X127690548Y-109109071D01*
X127881024Y-109156690D01*
X127976262Y-109251928D01*
X128023881Y-109347166D01*
X128023881Y-109537643D01*
X127976262Y-109632881D01*
X127881024Y-109728119D01*
X127690548Y-109775738D01*
X127357214Y-109775738D01*
X127166738Y-109728119D01*
X127071500Y-109632881D01*
X127023881Y-109537643D01*
X128023881Y-108680500D02*
X127023881Y-108680500D01*
X128023881Y-108109071D01*
X127023881Y-108109071D01*
X119054691Y-52966881D02*
X119054691Y-52204976D01*
X119007072Y-52919262D02*
X119007072Y-52252595D01*
X118959453Y-52919262D02*
X118959453Y-52252595D01*
X118911834Y-52871643D02*
X118911834Y-52300214D01*
X118864215Y-52871643D02*
X118864215Y-52300214D01*
X118816596Y-52824024D02*
X118816596Y-52347833D01*
X118768977Y-52824024D02*
X118768977Y-52347833D01*
X118721358Y-52776405D02*
X118721358Y-52395452D01*
X118673739Y-52728786D02*
X118673739Y-52443071D01*
X118626120Y-52728786D02*
X118626120Y-52443071D01*
X118578500Y-52681167D02*
X118578500Y-52490690D01*
X118530881Y-52681167D02*
X118530881Y-52490690D01*
X118483262Y-52585929D02*
X118435643Y-52585929D01*
X118483262Y-52633548D02*
X118483262Y-52538310D01*
X119102310Y-52966881D02*
X118388024Y-52585929D01*
X119102310Y-52204976D01*
X118340405Y-52585929D02*
X119102310Y-52157357D01*
X119102310Y-53014500D01*
X118340405Y-52585929D01*
X120149929Y-52966881D02*
X119816595Y-52490690D01*
X119578500Y-52966881D02*
X119578500Y-51966881D01*
X119959453Y-51966881D01*
X120054691Y-52014500D01*
X120102310Y-52062119D01*
X120149929Y-52157357D01*
X120149929Y-52300214D01*
X120102310Y-52395452D01*
X120054691Y-52443071D01*
X119959453Y-52490690D01*
X119578500Y-52490690D01*
X120530881Y-52919262D02*
X120673738Y-52966881D01*
X120911834Y-52966881D01*
X121007072Y-52919262D01*
X121054691Y-52871643D01*
X121102310Y-52776405D01*
X121102310Y-52681167D01*
X121054691Y-52585929D01*
X121007072Y-52538310D01*
X120911834Y-52490690D01*
X120721357Y-52443071D01*
X120626119Y-52395452D01*
X120578500Y-52347833D01*
X120530881Y-52252595D01*
X120530881Y-52157357D01*
X120578500Y-52062119D01*
X120626119Y-52014500D01*
X120721357Y-51966881D01*
X120959453Y-51966881D01*
X121102310Y-52014500D01*
X121388024Y-51966881D02*
X121959453Y-51966881D01*
X121673738Y-52966881D02*
X121673738Y-51966881D01*
X108259667Y-51903381D02*
X108259667Y-52617667D01*
X108212047Y-52760524D01*
X108116809Y-52855762D01*
X107973952Y-52903381D01*
X107878714Y-52903381D01*
X108735857Y-52903381D02*
X108735857Y-51903381D01*
X109116810Y-51903381D01*
X109212048Y-51951000D01*
X109259667Y-51998619D01*
X109307286Y-52093857D01*
X109307286Y-52236714D01*
X109259667Y-52331952D01*
X109212048Y-52379571D01*
X109116810Y-52427190D01*
X108735857Y-52427190D01*
X109640619Y-51903381D02*
X110259667Y-51903381D01*
X109926333Y-52284333D01*
X110069191Y-52284333D01*
X110164429Y-52331952D01*
X110212048Y-52379571D01*
X110259667Y-52474810D01*
X110259667Y-52712905D01*
X110212048Y-52808143D01*
X110164429Y-52855762D01*
X110069191Y-52903381D01*
X109783476Y-52903381D01*
X109688238Y-52855762D01*
X109640619Y-52808143D01*
D14*
X104330572Y-52177143D02*
X105473429Y-52177143D01*
X104902000Y-52748571D02*
X104902000Y-51605714D01*
D11*
X192888167Y-74468429D02*
X192188167Y-74468429D01*
X192188167Y-74068429D02*
X192188167Y-73954143D01*
X192221500Y-73897001D01*
X192288167Y-73839858D01*
X192421500Y-73811286D01*
X192654833Y-73811286D01*
X192788167Y-73839858D01*
X192854833Y-73897001D01*
X192888167Y-73954143D01*
X192888167Y-74068429D01*
X192854833Y-74125572D01*
X192788167Y-74182715D01*
X192654833Y-74211286D01*
X192421500Y-74211286D01*
X192288167Y-74182715D01*
X192221500Y-74125572D01*
X192188167Y-74068429D01*
X192888167Y-73239858D02*
X192888167Y-73582715D01*
X192888167Y-73411287D02*
X192188167Y-73411287D01*
X192288167Y-73468430D01*
X192354833Y-73525572D01*
X192388167Y-73582715D01*
X192421500Y-72725572D02*
X192888167Y-72725572D01*
X192154833Y-72868429D02*
X192654833Y-73011286D01*
X192654833Y-72639858D01*
X192888167Y-71954143D02*
X192188167Y-71954143D01*
X192188167Y-71554143D02*
X192188167Y-71439857D01*
X192221500Y-71382715D01*
X192288167Y-71325572D01*
X192421500Y-71297000D01*
X192654833Y-71297000D01*
X192788167Y-71325572D01*
X192854833Y-71382715D01*
X192888167Y-71439857D01*
X192888167Y-71554143D01*
X192854833Y-71611286D01*
X192788167Y-71668429D01*
X192654833Y-71697000D01*
X192421500Y-71697000D01*
X192288167Y-71668429D01*
X192221500Y-71611286D01*
X192188167Y-71554143D01*
X192888167Y-70725572D02*
X192888167Y-71068429D01*
X192888167Y-70897001D02*
X192188167Y-70897001D01*
X192288167Y-70954144D01*
X192354833Y-71011286D01*
X192388167Y-71068429D01*
X192254833Y-70497000D02*
X192221500Y-70468429D01*
X192188167Y-70411286D01*
X192188167Y-70268429D01*
X192221500Y-70211286D01*
X192254833Y-70182715D01*
X192321500Y-70154143D01*
X192388167Y-70154143D01*
X192488167Y-70182715D01*
X192888167Y-70525572D01*
X192888167Y-70154143D01*
X192888167Y-69439857D02*
X192188167Y-69439857D01*
X192188167Y-69039857D02*
X192188167Y-68925571D01*
X192221500Y-68868429D01*
X192288167Y-68811286D01*
X192421500Y-68782714D01*
X192654833Y-68782714D01*
X192788167Y-68811286D01*
X192854833Y-68868429D01*
X192888167Y-68925571D01*
X192888167Y-69039857D01*
X192854833Y-69097000D01*
X192788167Y-69154143D01*
X192654833Y-69182714D01*
X192421500Y-69182714D01*
X192288167Y-69154143D01*
X192221500Y-69097000D01*
X192188167Y-69039857D01*
X192888167Y-68211286D02*
X192888167Y-68554143D01*
X192888167Y-68382715D02*
X192188167Y-68382715D01*
X192288167Y-68439858D01*
X192354833Y-68497000D01*
X192388167Y-68554143D01*
X192188167Y-68011286D02*
X192188167Y-67639857D01*
X192454833Y-67839857D01*
X192454833Y-67754143D01*
X192488167Y-67697000D01*
X192521500Y-67668429D01*
X192588167Y-67639857D01*
X192754833Y-67639857D01*
X192821500Y-67668429D01*
X192854833Y-67697000D01*
X192888167Y-67754143D01*
X192888167Y-67925571D01*
X192854833Y-67982714D01*
X192821500Y-68011286D01*
X192888167Y-66468428D02*
X192188167Y-66468428D01*
X192188167Y-66068428D02*
X192188167Y-65954142D01*
X192221500Y-65897000D01*
X192288167Y-65839857D01*
X192421500Y-65811285D01*
X192654833Y-65811285D01*
X192788167Y-65839857D01*
X192854833Y-65897000D01*
X192888167Y-65954142D01*
X192888167Y-66068428D01*
X192854833Y-66125571D01*
X192788167Y-66182714D01*
X192654833Y-66211285D01*
X192421500Y-66211285D01*
X192288167Y-66182714D01*
X192221500Y-66125571D01*
X192188167Y-66068428D01*
X192254833Y-65582714D02*
X192221500Y-65554143D01*
X192188167Y-65497000D01*
X192188167Y-65354143D01*
X192221500Y-65297000D01*
X192254833Y-65268429D01*
X192321500Y-65239857D01*
X192388167Y-65239857D01*
X192488167Y-65268429D01*
X192888167Y-65611286D01*
X192888167Y-65239857D01*
X192888167Y-64068428D02*
X192188167Y-64068428D01*
X192188167Y-63668428D02*
X192188167Y-63554142D01*
X192221500Y-63497000D01*
X192288167Y-63439857D01*
X192421500Y-63411285D01*
X192654833Y-63411285D01*
X192788167Y-63439857D01*
X192854833Y-63497000D01*
X192888167Y-63554142D01*
X192888167Y-63668428D01*
X192854833Y-63725571D01*
X192788167Y-63782714D01*
X192654833Y-63811285D01*
X192421500Y-63811285D01*
X192288167Y-63782714D01*
X192221500Y-63725571D01*
X192188167Y-63668428D01*
X192421500Y-62897000D02*
X192888167Y-62897000D01*
X192154833Y-63039857D02*
X192654833Y-63182714D01*
X192654833Y-62811286D01*
X192888167Y-61668428D02*
X192188167Y-61668428D01*
X192188167Y-61268428D02*
X192188167Y-61154142D01*
X192221500Y-61097000D01*
X192288167Y-61039857D01*
X192421500Y-61011285D01*
X192654833Y-61011285D01*
X192788167Y-61039857D01*
X192854833Y-61097000D01*
X192888167Y-61154142D01*
X192888167Y-61268428D01*
X192854833Y-61325571D01*
X192788167Y-61382714D01*
X192654833Y-61411285D01*
X192421500Y-61411285D01*
X192288167Y-61382714D01*
X192221500Y-61325571D01*
X192188167Y-61268428D01*
X192188167Y-60468429D02*
X192188167Y-60754143D01*
X192521500Y-60782714D01*
X192488167Y-60754143D01*
X192454833Y-60697000D01*
X192454833Y-60554143D01*
X192488167Y-60497000D01*
X192521500Y-60468429D01*
X192588167Y-60439857D01*
X192754833Y-60439857D01*
X192821500Y-60468429D01*
X192854833Y-60497000D01*
X192888167Y-60554143D01*
X192888167Y-60697000D01*
X192854833Y-60754143D01*
X192821500Y-60782714D01*
X192188167Y-59811285D02*
X192188167Y-59468428D01*
X192888167Y-59639857D02*
X192188167Y-59639857D01*
X192188167Y-59154142D02*
X192188167Y-59039856D01*
X192221500Y-58982714D01*
X192288167Y-58925571D01*
X192421500Y-58896999D01*
X192654833Y-58896999D01*
X192788167Y-58925571D01*
X192854833Y-58982714D01*
X192888167Y-59039856D01*
X192888167Y-59154142D01*
X192854833Y-59211285D01*
X192788167Y-59268428D01*
X192654833Y-59296999D01*
X192421500Y-59296999D01*
X192288167Y-59268428D01*
X192221500Y-59211285D01*
X192188167Y-59154142D01*
X192188167Y-58639857D02*
X192754833Y-58639857D01*
X192821500Y-58611285D01*
X192854833Y-58582714D01*
X192888167Y-58525571D01*
X192888167Y-58411285D01*
X192854833Y-58354143D01*
X192821500Y-58325571D01*
X192754833Y-58297000D01*
X192188167Y-58297000D01*
X192188167Y-58097000D02*
X192188167Y-57754143D01*
X192888167Y-57925572D02*
X192188167Y-57925572D01*
X192888167Y-57097000D02*
X192188167Y-57097000D01*
X192188167Y-56697000D02*
X192188167Y-56582714D01*
X192221500Y-56525572D01*
X192288167Y-56468429D01*
X192421500Y-56439857D01*
X192654833Y-56439857D01*
X192788167Y-56468429D01*
X192854833Y-56525572D01*
X192888167Y-56582714D01*
X192888167Y-56697000D01*
X192854833Y-56754143D01*
X192788167Y-56811286D01*
X192654833Y-56839857D01*
X192421500Y-56839857D01*
X192288167Y-56811286D01*
X192221500Y-56754143D01*
X192188167Y-56697000D01*
X192888167Y-55868429D02*
X192888167Y-56211286D01*
X192888167Y-56039858D02*
X192188167Y-56039858D01*
X192288167Y-56097001D01*
X192354833Y-56154143D01*
X192388167Y-56211286D01*
X192188167Y-55354143D02*
X192188167Y-55468429D01*
X192221500Y-55525572D01*
X192254833Y-55554143D01*
X192354833Y-55611286D01*
X192488167Y-55639857D01*
X192754833Y-55639857D01*
X192821500Y-55611286D01*
X192854833Y-55582714D01*
X192888167Y-55525572D01*
X192888167Y-55411286D01*
X192854833Y-55354143D01*
X192821500Y-55325572D01*
X192754833Y-55297000D01*
X192588167Y-55297000D01*
X192521500Y-55325572D01*
X192488167Y-55354143D01*
X192454833Y-55411286D01*
X192454833Y-55525572D01*
X192488167Y-55582714D01*
X192521500Y-55611286D01*
X192588167Y-55639857D01*
D12*
X191872167Y-60974714D02*
X191538833Y-61274714D01*
X191872167Y-61488999D02*
X191172167Y-61488999D01*
X191172167Y-61146142D01*
X191205500Y-61060428D01*
X191238833Y-61017571D01*
X191305500Y-60974714D01*
X191405500Y-60974714D01*
X191472167Y-61017571D01*
X191505500Y-61060428D01*
X191538833Y-61146142D01*
X191538833Y-61488999D01*
X191172167Y-60588999D02*
X191738833Y-60588999D01*
X191805500Y-60546142D01*
X191838833Y-60503285D01*
X191872167Y-60417571D01*
X191872167Y-60246142D01*
X191838833Y-60160428D01*
X191805500Y-60117571D01*
X191738833Y-60074714D01*
X191172167Y-60074714D01*
X191872167Y-59646142D02*
X191172167Y-59646142D01*
X191872167Y-59131857D01*
X191172167Y-59131857D01*
X191172167Y-58103286D02*
X191872167Y-57889000D01*
X191372167Y-57717571D01*
X191872167Y-57546143D01*
X191172167Y-57331857D01*
X191872167Y-56474715D02*
X191538833Y-56774715D01*
X191872167Y-56989000D02*
X191172167Y-56989000D01*
X191172167Y-56646143D01*
X191205500Y-56560429D01*
X191238833Y-56517572D01*
X191305500Y-56474715D01*
X191405500Y-56474715D01*
X191472167Y-56517572D01*
X191505500Y-56560429D01*
X191538833Y-56646143D01*
X191538833Y-56989000D01*
X191872167Y-56089000D02*
X191172167Y-56089000D01*
X191172167Y-55789001D02*
X191172167Y-55274715D01*
X191872167Y-55531858D02*
X191172167Y-55531858D01*
X191505500Y-54974715D02*
X191505500Y-54674715D01*
X191872167Y-54546144D02*
X191872167Y-54974715D01*
X191172167Y-54974715D01*
X191172167Y-54546144D01*
D13*
X198024691Y-52522381D02*
X198024691Y-51760476D01*
X197977072Y-52474762D02*
X197977072Y-51808095D01*
X197929453Y-52474762D02*
X197929453Y-51808095D01*
X197881834Y-52427143D02*
X197881834Y-51855714D01*
X197834215Y-52427143D02*
X197834215Y-51855714D01*
X197786596Y-52379524D02*
X197786596Y-51903333D01*
X197738977Y-52379524D02*
X197738977Y-51903333D01*
X197691358Y-52331905D02*
X197691358Y-51950952D01*
X197643739Y-52284286D02*
X197643739Y-51998571D01*
X197596120Y-52284286D02*
X197596120Y-51998571D01*
X197548500Y-52236667D02*
X197548500Y-52046190D01*
X197500881Y-52236667D02*
X197500881Y-52046190D01*
X197453262Y-52141429D02*
X197405643Y-52141429D01*
X197453262Y-52189048D02*
X197453262Y-52093810D01*
X198072310Y-52522381D02*
X197358024Y-52141429D01*
X198072310Y-51760476D01*
X197310405Y-52141429D02*
X198072310Y-51712857D01*
X198072310Y-52570000D01*
X197310405Y-52141429D01*
X199119929Y-52522381D02*
X198786595Y-52046190D01*
X198548500Y-52522381D02*
X198548500Y-51522381D01*
X198929453Y-51522381D01*
X199024691Y-51570000D01*
X199072310Y-51617619D01*
X199119929Y-51712857D01*
X199119929Y-51855714D01*
X199072310Y-51950952D01*
X199024691Y-51998571D01*
X198929453Y-52046190D01*
X198548500Y-52046190D01*
X199500881Y-52474762D02*
X199643738Y-52522381D01*
X199881834Y-52522381D01*
X199977072Y-52474762D01*
X200024691Y-52427143D01*
X200072310Y-52331905D01*
X200072310Y-52236667D01*
X200024691Y-52141429D01*
X199977072Y-52093810D01*
X199881834Y-52046190D01*
X199691357Y-51998571D01*
X199596119Y-51950952D01*
X199548500Y-51903333D01*
X199500881Y-51808095D01*
X199500881Y-51712857D01*
X199548500Y-51617619D01*
X199596119Y-51570000D01*
X199691357Y-51522381D01*
X199929453Y-51522381D01*
X200072310Y-51570000D01*
X200358024Y-51522381D02*
X200929453Y-51522381D01*
X200643738Y-52522381D02*
X200643738Y-51522381D01*
D12*
X191045167Y-74393617D02*
X191045167Y-73867903D01*
X191745167Y-74130760D02*
X191045167Y-74130760D01*
X191045167Y-73648855D02*
X191745167Y-73035522D01*
X191045167Y-73035522D02*
X191745167Y-73648855D01*
X191745167Y-71458380D02*
X191411833Y-71765047D01*
X191745167Y-71984094D02*
X191045167Y-71984094D01*
X191045167Y-71633618D01*
X191078500Y-71545999D01*
X191111833Y-71502190D01*
X191178500Y-71458380D01*
X191278500Y-71458380D01*
X191345167Y-71502190D01*
X191378500Y-71545999D01*
X191411833Y-71633618D01*
X191411833Y-71984094D01*
X191045167Y-71151713D02*
X191745167Y-70538380D01*
X191045167Y-70538380D02*
X191745167Y-71151713D01*
X191045167Y-69048857D02*
X191045167Y-69486952D01*
X191378500Y-69530762D01*
X191345167Y-69486952D01*
X191311833Y-69399333D01*
X191311833Y-69180286D01*
X191345167Y-69092667D01*
X191378500Y-69048857D01*
X191445167Y-69005048D01*
X191611833Y-69005048D01*
X191678500Y-69048857D01*
X191711833Y-69092667D01*
X191745167Y-69180286D01*
X191745167Y-69399333D01*
X191711833Y-69486952D01*
X191678500Y-69530762D01*
X191045167Y-68742191D02*
X191745167Y-68435524D01*
X191045167Y-68128858D01*
X191045167Y-67208858D02*
X191045167Y-66639335D01*
X191311833Y-66946001D01*
X191311833Y-66814573D01*
X191345167Y-66726954D01*
X191378500Y-66683144D01*
X191445167Y-66639335D01*
X191611833Y-66639335D01*
X191678500Y-66683144D01*
X191711833Y-66726954D01*
X191745167Y-66814573D01*
X191745167Y-67077430D01*
X191711833Y-67165049D01*
X191678500Y-67208858D01*
X191045167Y-66376478D02*
X191745167Y-66069811D01*
X191045167Y-65763145D01*
X191078500Y-64273622D02*
X191045167Y-64361241D01*
X191045167Y-64492669D01*
X191078500Y-64624098D01*
X191145167Y-64711717D01*
X191211833Y-64755526D01*
X191345167Y-64799336D01*
X191445167Y-64799336D01*
X191578500Y-64755526D01*
X191645167Y-64711717D01*
X191711833Y-64624098D01*
X191745167Y-64492669D01*
X191745167Y-64405050D01*
X191711833Y-64273622D01*
X191678500Y-64229812D01*
X191445167Y-64229812D01*
X191445167Y-64405050D01*
X191745167Y-63835526D02*
X191045167Y-63835526D01*
X191745167Y-63309812D01*
X191045167Y-63309812D01*
X191745167Y-62871716D02*
X191045167Y-62871716D01*
X191045167Y-62652669D01*
X191078500Y-62521240D01*
X191145167Y-62433621D01*
X191211833Y-62389812D01*
X191345167Y-62346002D01*
X191445167Y-62346002D01*
X191578500Y-62389812D01*
X191645167Y-62433621D01*
X191711833Y-62521240D01*
X191745167Y-62652669D01*
X191745167Y-62871716D01*
D11*
X186790667Y-62836286D02*
X186790667Y-62464857D01*
X187057333Y-62664857D01*
X187057333Y-62579143D01*
X187090667Y-62522000D01*
X187124000Y-62493429D01*
X187190667Y-62464857D01*
X187357333Y-62464857D01*
X187424000Y-62493429D01*
X187457333Y-62522000D01*
X187490667Y-62579143D01*
X187490667Y-62750571D01*
X187457333Y-62807714D01*
X187424000Y-62836286D01*
X186790667Y-62264857D02*
X186790667Y-61893428D01*
X187057333Y-62093428D01*
X187057333Y-62007714D01*
X187090667Y-61950571D01*
X187124000Y-61922000D01*
X187190667Y-61893428D01*
X187357333Y-61893428D01*
X187424000Y-61922000D01*
X187457333Y-61950571D01*
X187490667Y-62007714D01*
X187490667Y-62179142D01*
X187457333Y-62236285D01*
X187424000Y-62264857D01*
X186790667Y-61521999D02*
X186790667Y-61464856D01*
X186824000Y-61407713D01*
X186857333Y-61379142D01*
X186924000Y-61350571D01*
X187057333Y-61321999D01*
X187224000Y-61321999D01*
X187357333Y-61350571D01*
X187424000Y-61379142D01*
X187457333Y-61407713D01*
X187490667Y-61464856D01*
X187490667Y-61521999D01*
X187457333Y-61579142D01*
X187424000Y-61607713D01*
X187357333Y-61636285D01*
X187224000Y-61664856D01*
X187057333Y-61664856D01*
X186924000Y-61636285D01*
X186857333Y-61607713D01*
X186824000Y-61579142D01*
X186790667Y-61521999D01*
X187490667Y-61093427D02*
X187490667Y-60950570D01*
X187357333Y-60950570D01*
X187324000Y-61007713D01*
X187257333Y-61064856D01*
X187157333Y-61093427D01*
X186990667Y-61093427D01*
X186890667Y-61064856D01*
X186824000Y-61007713D01*
X186790667Y-60921999D01*
X186790667Y-60807713D01*
X186824000Y-60721999D01*
X186890667Y-60664856D01*
X186990667Y-60636284D01*
X187157333Y-60636284D01*
X187257333Y-60664856D01*
X187324000Y-60721999D01*
X187357333Y-60779142D01*
X187490667Y-60779142D01*
X187490667Y-60636284D01*
D13*
X165267095Y-112872881D02*
X165267095Y-111872881D01*
X165600429Y-112587167D01*
X165933762Y-111872881D01*
X165933762Y-112872881D01*
X166600428Y-111872881D02*
X166790905Y-111872881D01*
X166886143Y-111920500D01*
X166981381Y-112015738D01*
X167029000Y-112206214D01*
X167029000Y-112539548D01*
X166981381Y-112730024D01*
X166886143Y-112825262D01*
X166790905Y-112872881D01*
X166600428Y-112872881D01*
X166505190Y-112825262D01*
X166409952Y-112730024D01*
X166362333Y-112539548D01*
X166362333Y-112206214D01*
X166409952Y-112015738D01*
X166505190Y-111920500D01*
X166600428Y-111872881D01*
X167314714Y-111872881D02*
X167886143Y-111872881D01*
X167600428Y-112872881D02*
X167600428Y-111872881D01*
X168409952Y-111872881D02*
X168600429Y-111872881D01*
X168695667Y-111920500D01*
X168790905Y-112015738D01*
X168838524Y-112206214D01*
X168838524Y-112539548D01*
X168790905Y-112730024D01*
X168695667Y-112825262D01*
X168600429Y-112872881D01*
X168409952Y-112872881D01*
X168314714Y-112825262D01*
X168219476Y-112730024D01*
X168171857Y-112539548D01*
X168171857Y-112206214D01*
X168219476Y-112015738D01*
X168314714Y-111920500D01*
X168409952Y-111872881D01*
X169838524Y-112872881D02*
X169505190Y-112396690D01*
X169267095Y-112872881D02*
X169267095Y-111872881D01*
X169648048Y-111872881D01*
X169743286Y-111920500D01*
X169790905Y-111968119D01*
X169838524Y-112063357D01*
X169838524Y-112206214D01*
X169790905Y-112301452D01*
X169743286Y-112349071D01*
X169648048Y-112396690D01*
X169267095Y-112396690D01*
X169600429Y-113949071D02*
X169743286Y-113996690D01*
X169790905Y-114044310D01*
X169838524Y-114139548D01*
X169838524Y-114282405D01*
X169790905Y-114377643D01*
X169743286Y-114425262D01*
X169648048Y-114472881D01*
X169267095Y-114472881D01*
X169267095Y-113472881D01*
X169600429Y-113472881D01*
X169695667Y-113520500D01*
X169743286Y-113568119D01*
X169790905Y-113663357D01*
X169790905Y-113758595D01*
X169743286Y-113853833D01*
X169695667Y-113901452D01*
X169600429Y-113949071D01*
X169267095Y-113949071D01*
X181649976Y-112809381D02*
X181649976Y-111809381D01*
X181916643Y-112523667D01*
X182183310Y-111809381D01*
X182183310Y-112809381D01*
X182716643Y-111809381D02*
X182869024Y-111809381D01*
X182945215Y-111857000D01*
X183021405Y-111952238D01*
X183059500Y-112142714D01*
X183059500Y-112476048D01*
X183021405Y-112666524D01*
X182945215Y-112761762D01*
X182869024Y-112809381D01*
X182716643Y-112809381D01*
X182640453Y-112761762D01*
X182564262Y-112666524D01*
X182526167Y-112476048D01*
X182526167Y-112142714D01*
X182564262Y-111952238D01*
X182640453Y-111857000D01*
X182716643Y-111809381D01*
X183288071Y-111809381D02*
X183745214Y-111809381D01*
X183516643Y-112809381D02*
X183516643Y-111809381D01*
X184164262Y-111809381D02*
X184316643Y-111809381D01*
X184392834Y-111857000D01*
X184469024Y-111952238D01*
X184507119Y-112142714D01*
X184507119Y-112476048D01*
X184469024Y-112666524D01*
X184392834Y-112761762D01*
X184316643Y-112809381D01*
X184164262Y-112809381D01*
X184088072Y-112761762D01*
X184011881Y-112666524D01*
X183973786Y-112476048D01*
X183973786Y-112142714D01*
X184011881Y-111952238D01*
X184088072Y-111857000D01*
X184164262Y-111809381D01*
X185307119Y-112809381D02*
X185040452Y-112333190D01*
X184849976Y-112809381D02*
X184849976Y-111809381D01*
X185154738Y-111809381D01*
X185230929Y-111857000D01*
X185269024Y-111904619D01*
X185307119Y-111999857D01*
X185307119Y-112142714D01*
X185269024Y-112237952D01*
X185230929Y-112285571D01*
X185154738Y-112333190D01*
X184849976Y-112333190D01*
X184926167Y-114123667D02*
X185307119Y-114123667D01*
X184849976Y-114409381D02*
X185116643Y-113409381D01*
X185383310Y-114409381D01*
D12*
X191523905Y-95390832D02*
X190723905Y-95390832D01*
X190723905Y-95124166D01*
X190762000Y-95057499D01*
X190800095Y-95024166D01*
X190876286Y-94990832D01*
X190990571Y-94990832D01*
X191066762Y-95024166D01*
X191104857Y-95057499D01*
X191142952Y-95124166D01*
X191142952Y-95390832D01*
X190723905Y-94757499D02*
X191523905Y-94590832D01*
X190952476Y-94457499D01*
X191523905Y-94324166D01*
X190723905Y-94157499D01*
X191523905Y-93490832D02*
X191142952Y-93724166D01*
X191523905Y-93890832D02*
X190723905Y-93890832D01*
X190723905Y-93624166D01*
X190762000Y-93557499D01*
X190800095Y-93524166D01*
X190876286Y-93490832D01*
X190990571Y-93490832D01*
X191066762Y-93524166D01*
X191104857Y-93557499D01*
X191142952Y-93624166D01*
X191142952Y-93890832D01*
X191523905Y-92657499D02*
X190723905Y-92657499D01*
X191523905Y-92324166D02*
X190723905Y-92324166D01*
X191523905Y-91924166D01*
X190723905Y-91924166D01*
X192399857Y-95524166D02*
X192437952Y-95424166D01*
X192476048Y-95390833D01*
X192552238Y-95357499D01*
X192666524Y-95357499D01*
X192742714Y-95390833D01*
X192780810Y-95424166D01*
X192818905Y-95490833D01*
X192818905Y-95757499D01*
X192018905Y-95757499D01*
X192018905Y-95524166D01*
X192057000Y-95457499D01*
X192095095Y-95424166D01*
X192171286Y-95390833D01*
X192247476Y-95390833D01*
X192323667Y-95424166D01*
X192361762Y-95457499D01*
X192399857Y-95524166D01*
X192399857Y-95757499D01*
X192590333Y-95090833D02*
X192590333Y-94757499D01*
X192818905Y-95157499D02*
X192018905Y-94924166D01*
X192818905Y-94690833D01*
X192018905Y-94557499D02*
X192018905Y-94157499D01*
X192818905Y-94357499D02*
X192018905Y-94357499D01*
X192018905Y-94024166D02*
X192018905Y-93624166D01*
X192818905Y-93824166D02*
X192018905Y-93824166D01*
X192018905Y-92924167D02*
X192018905Y-92490834D01*
X192323667Y-92724167D01*
X192323667Y-92624167D01*
X192361762Y-92557500D01*
X192399857Y-92524167D01*
X192476048Y-92490834D01*
X192666524Y-92490834D01*
X192742714Y-92524167D01*
X192780810Y-92557500D01*
X192818905Y-92624167D01*
X192818905Y-92824167D01*
X192780810Y-92890834D01*
X192742714Y-92924167D01*
X192018905Y-92290833D02*
X192818905Y-92057500D01*
X192018905Y-91824167D01*
D13*
X194167000Y-102171404D02*
X194119381Y-102266642D01*
X194119381Y-102409499D01*
X194167000Y-102552357D01*
X194262238Y-102647595D01*
X194357476Y-102695214D01*
X194547952Y-102742833D01*
X194690810Y-102742833D01*
X194881286Y-102695214D01*
X194976524Y-102647595D01*
X195071762Y-102552357D01*
X195119381Y-102409499D01*
X195119381Y-102314261D01*
X195071762Y-102171404D01*
X195024143Y-102123785D01*
X194690810Y-102123785D01*
X194690810Y-102314261D01*
X195119381Y-101695214D02*
X194119381Y-101695214D01*
X195119381Y-101123785D01*
X194119381Y-101123785D01*
X195119381Y-100647595D02*
X194119381Y-100647595D01*
X194119381Y-100409500D01*
X194167000Y-100266642D01*
X194262238Y-100171404D01*
X194357476Y-100123785D01*
X194547952Y-100076166D01*
X194690810Y-100076166D01*
X194881286Y-100123785D01*
X194976524Y-100171404D01*
X195071762Y-100266642D01*
X195119381Y-100409500D01*
X195119381Y-100647595D01*
D12*
X169983119Y-93267668D02*
X170983119Y-93267668D01*
X170268833Y-93501001D01*
X170983119Y-93734334D01*
X169983119Y-93734334D01*
X170983119Y-94201001D02*
X170983119Y-94334334D01*
X170935500Y-94401001D01*
X170840262Y-94467668D01*
X170649786Y-94501001D01*
X170316452Y-94501001D01*
X170125976Y-94467668D01*
X170030738Y-94401001D01*
X169983119Y-94334334D01*
X169983119Y-94201001D01*
X170030738Y-94134334D01*
X170125976Y-94067668D01*
X170316452Y-94034334D01*
X170649786Y-94034334D01*
X170840262Y-94067668D01*
X170935500Y-94134334D01*
X170983119Y-94201001D01*
X170983119Y-94701001D02*
X170983119Y-95101001D01*
X169983119Y-94901001D02*
X170983119Y-94901001D01*
X170983119Y-95467667D02*
X170983119Y-95601000D01*
X170935500Y-95667667D01*
X170840262Y-95734334D01*
X170649786Y-95767667D01*
X170316452Y-95767667D01*
X170125976Y-95734334D01*
X170030738Y-95667667D01*
X169983119Y-95601000D01*
X169983119Y-95467667D01*
X170030738Y-95401000D01*
X170125976Y-95334334D01*
X170316452Y-95301000D01*
X170649786Y-95301000D01*
X170840262Y-95334334D01*
X170935500Y-95401000D01*
X170983119Y-95467667D01*
X169983119Y-96467667D02*
X170459310Y-96234333D01*
X169983119Y-96067667D02*
X170983119Y-96067667D01*
X170983119Y-96334333D01*
X170935500Y-96401000D01*
X170887881Y-96434333D01*
X170792643Y-96467667D01*
X170649786Y-96467667D01*
X170554548Y-96434333D01*
X170506929Y-96401000D01*
X170459310Y-96334333D01*
X170459310Y-96067667D01*
X169983119Y-97301000D02*
X170983119Y-97301000D01*
X170983119Y-97567666D01*
X170935500Y-97634333D01*
X170887881Y-97667666D01*
X170792643Y-97701000D01*
X170649786Y-97701000D01*
X170554548Y-97667666D01*
X170506929Y-97634333D01*
X170459310Y-97567666D01*
X170459310Y-97301000D01*
X170983119Y-98134333D02*
X170983119Y-98267666D01*
X170935500Y-98334333D01*
X170840262Y-98401000D01*
X170649786Y-98434333D01*
X170316452Y-98434333D01*
X170125976Y-98401000D01*
X170030738Y-98334333D01*
X169983119Y-98267666D01*
X169983119Y-98134333D01*
X170030738Y-98067666D01*
X170125976Y-98001000D01*
X170316452Y-97967666D01*
X170649786Y-97967666D01*
X170840262Y-98001000D01*
X170935500Y-98067666D01*
X170983119Y-98134333D01*
X170983119Y-98667666D02*
X169983119Y-98834333D01*
X170697405Y-98967666D01*
X169983119Y-99100999D01*
X170983119Y-99267666D01*
X170506929Y-99534333D02*
X170506929Y-99767666D01*
X169983119Y-99867666D02*
X169983119Y-99534333D01*
X170983119Y-99534333D01*
X170983119Y-99867666D01*
X169983119Y-100567666D02*
X170459310Y-100334332D01*
X169983119Y-100167666D02*
X170983119Y-100167666D01*
X170983119Y-100434332D01*
X170935500Y-100500999D01*
X170887881Y-100534332D01*
X170792643Y-100567666D01*
X170649786Y-100567666D01*
X170554548Y-100534332D01*
X170506929Y-100500999D01*
X170459310Y-100434332D01*
X170459310Y-100167666D01*
X169408119Y-91717668D02*
X169408119Y-92151001D01*
X169027167Y-91917668D01*
X169027167Y-92017668D01*
X168979548Y-92084335D01*
X168931929Y-92117668D01*
X168836690Y-92151001D01*
X168598595Y-92151001D01*
X168503357Y-92117668D01*
X168455738Y-92084335D01*
X168408119Y-92017668D01*
X168408119Y-91817668D01*
X168455738Y-91751001D01*
X168503357Y-91717668D01*
X168503357Y-92451002D02*
X168455738Y-92484335D01*
X168408119Y-92451002D01*
X168455738Y-92417668D01*
X168503357Y-92451002D01*
X168408119Y-92451002D01*
X169408119Y-92717668D02*
X169408119Y-93151001D01*
X169027167Y-92917668D01*
X169027167Y-93017668D01*
X168979548Y-93084335D01*
X168931929Y-93117668D01*
X168836690Y-93151001D01*
X168598595Y-93151001D01*
X168503357Y-93117668D01*
X168455738Y-93084335D01*
X168408119Y-93017668D01*
X168408119Y-92817668D01*
X168455738Y-92751001D01*
X168503357Y-92717668D01*
X169408119Y-93351002D02*
X168408119Y-93584335D01*
X169408119Y-93817668D01*
X168931929Y-94817668D02*
X168884310Y-94917668D01*
X168836690Y-94951001D01*
X168741452Y-94984335D01*
X168598595Y-94984335D01*
X168503357Y-94951001D01*
X168455738Y-94917668D01*
X168408119Y-94851001D01*
X168408119Y-94584335D01*
X169408119Y-94584335D01*
X169408119Y-94817668D01*
X169360500Y-94884335D01*
X169312881Y-94917668D01*
X169217643Y-94951001D01*
X169122405Y-94951001D01*
X169027167Y-94917668D01*
X168979548Y-94884335D01*
X168931929Y-94817668D01*
X168931929Y-94584335D01*
X168693833Y-95251001D02*
X168693833Y-95584335D01*
X168408119Y-95184335D02*
X169408119Y-95417668D01*
X168408119Y-95651001D01*
X169408119Y-95784335D02*
X169408119Y-96184335D01*
X168408119Y-95984335D02*
X169408119Y-95984335D01*
X169408119Y-96317668D02*
X169408119Y-96717668D01*
X168408119Y-96517668D02*
X169408119Y-96517668D01*
X168408119Y-97484334D02*
X169408119Y-97484334D01*
X168693833Y-97717667D01*
X169408119Y-97951000D01*
X168408119Y-97951000D01*
X169408119Y-98417667D02*
X169408119Y-98551000D01*
X169360500Y-98617667D01*
X169265262Y-98684334D01*
X169074786Y-98717667D01*
X168741452Y-98717667D01*
X168550976Y-98684334D01*
X168455738Y-98617667D01*
X168408119Y-98551000D01*
X168408119Y-98417667D01*
X168455738Y-98351000D01*
X168550976Y-98284334D01*
X168741452Y-98251000D01*
X169074786Y-98251000D01*
X169265262Y-98284334D01*
X169360500Y-98351000D01*
X169408119Y-98417667D01*
X169408119Y-98917667D02*
X169408119Y-99317667D01*
X168408119Y-99117667D02*
X169408119Y-99117667D01*
X169408119Y-100017666D02*
X169408119Y-100450999D01*
X169027167Y-100217666D01*
X169027167Y-100317666D01*
X168979548Y-100384333D01*
X168931929Y-100417666D01*
X168836690Y-100450999D01*
X168598595Y-100450999D01*
X168503357Y-100417666D01*
X168455738Y-100384333D01*
X168408119Y-100317666D01*
X168408119Y-100117666D01*
X168455738Y-100050999D01*
X168503357Y-100017666D01*
X168503357Y-100751000D02*
X168455738Y-100784333D01*
X168408119Y-100751000D01*
X168455738Y-100717666D01*
X168503357Y-100751000D01*
X168408119Y-100751000D01*
X169408119Y-101017666D02*
X169408119Y-101450999D01*
X169027167Y-101217666D01*
X169027167Y-101317666D01*
X168979548Y-101384333D01*
X168931929Y-101417666D01*
X168836690Y-101450999D01*
X168598595Y-101450999D01*
X168503357Y-101417666D01*
X168455738Y-101384333D01*
X168408119Y-101317666D01*
X168408119Y-101117666D01*
X168455738Y-101050999D01*
X168503357Y-101017666D01*
X169408119Y-101651000D02*
X168408119Y-101884333D01*
X169408119Y-102117666D01*
D13*
X192023881Y-113061453D02*
X192023881Y-112870976D01*
X192071500Y-112775738D01*
X192166738Y-112680500D01*
X192357214Y-112632881D01*
X192690548Y-112632881D01*
X192881024Y-112680500D01*
X192976262Y-112775738D01*
X193023881Y-112870976D01*
X193023881Y-113061453D01*
X192976262Y-113156691D01*
X192881024Y-113251929D01*
X192690548Y-113299548D01*
X192357214Y-113299548D01*
X192166738Y-113251929D01*
X192071500Y-113156691D01*
X192023881Y-113061453D01*
X192500071Y-111870976D02*
X192500071Y-112204310D01*
X193023881Y-112204310D02*
X192023881Y-112204310D01*
X192023881Y-111728119D01*
X192500071Y-111013833D02*
X192500071Y-111347167D01*
X193023881Y-111347167D02*
X192023881Y-111347167D01*
X192023881Y-110870976D01*
X192023881Y-109537643D02*
X192023881Y-109347166D01*
X192071500Y-109251928D01*
X192166738Y-109156690D01*
X192357214Y-109109071D01*
X192690548Y-109109071D01*
X192881024Y-109156690D01*
X192976262Y-109251928D01*
X193023881Y-109347166D01*
X193023881Y-109537643D01*
X192976262Y-109632881D01*
X192881024Y-109728119D01*
X192690548Y-109775738D01*
X192357214Y-109775738D01*
X192166738Y-109728119D01*
X192071500Y-109632881D01*
X192023881Y-109537643D01*
X193023881Y-108680500D02*
X192023881Y-108680500D01*
X193023881Y-108109071D01*
X192023881Y-108109071D01*
X184054691Y-52966881D02*
X184054691Y-52204976D01*
X184007072Y-52919262D02*
X184007072Y-52252595D01*
X183959453Y-52919262D02*
X183959453Y-52252595D01*
X183911834Y-52871643D02*
X183911834Y-52300214D01*
X183864215Y-52871643D02*
X183864215Y-52300214D01*
X183816596Y-52824024D02*
X183816596Y-52347833D01*
X183768977Y-52824024D02*
X183768977Y-52347833D01*
X183721358Y-52776405D02*
X183721358Y-52395452D01*
X183673739Y-52728786D02*
X183673739Y-52443071D01*
X183626120Y-52728786D02*
X183626120Y-52443071D01*
X183578500Y-52681167D02*
X183578500Y-52490690D01*
X183530881Y-52681167D02*
X183530881Y-52490690D01*
X183483262Y-52585929D02*
X183435643Y-52585929D01*
X183483262Y-52633548D02*
X183483262Y-52538310D01*
X184102310Y-52966881D02*
X183388024Y-52585929D01*
X184102310Y-52204976D01*
X183340405Y-52585929D02*
X184102310Y-52157357D01*
X184102310Y-53014500D01*
X183340405Y-52585929D01*
X185149929Y-52966881D02*
X184816595Y-52490690D01*
X184578500Y-52966881D02*
X184578500Y-51966881D01*
X184959453Y-51966881D01*
X185054691Y-52014500D01*
X185102310Y-52062119D01*
X185149929Y-52157357D01*
X185149929Y-52300214D01*
X185102310Y-52395452D01*
X185054691Y-52443071D01*
X184959453Y-52490690D01*
X184578500Y-52490690D01*
X185530881Y-52919262D02*
X185673738Y-52966881D01*
X185911834Y-52966881D01*
X186007072Y-52919262D01*
X186054691Y-52871643D01*
X186102310Y-52776405D01*
X186102310Y-52681167D01*
X186054691Y-52585929D01*
X186007072Y-52538310D01*
X185911834Y-52490690D01*
X185721357Y-52443071D01*
X185626119Y-52395452D01*
X185578500Y-52347833D01*
X185530881Y-52252595D01*
X185530881Y-52157357D01*
X185578500Y-52062119D01*
X185626119Y-52014500D01*
X185721357Y-51966881D01*
X185959453Y-51966881D01*
X186102310Y-52014500D01*
X186388024Y-51966881D02*
X186959453Y-51966881D01*
X186673738Y-52966881D02*
X186673738Y-51966881D01*
X173259667Y-51903381D02*
X173259667Y-52617667D01*
X173212047Y-52760524D01*
X173116809Y-52855762D01*
X172973952Y-52903381D01*
X172878714Y-52903381D01*
X173735857Y-52903381D02*
X173735857Y-51903381D01*
X174116810Y-51903381D01*
X174212048Y-51951000D01*
X174259667Y-51998619D01*
X174307286Y-52093857D01*
X174307286Y-52236714D01*
X174259667Y-52331952D01*
X174212048Y-52379571D01*
X174116810Y-52427190D01*
X173735857Y-52427190D01*
X174640619Y-51903381D02*
X175259667Y-51903381D01*
X174926333Y-52284333D01*
X175069191Y-52284333D01*
X175164429Y-52331952D01*
X175212048Y-52379571D01*
X175259667Y-52474810D01*
X175259667Y-52712905D01*
X175212048Y-52808143D01*
X175164429Y-52855762D01*
X175069191Y-52903381D01*
X174783476Y-52903381D01*
X174688238Y-52855762D01*
X174640619Y-52808143D01*
D14*
X169330572Y-52177143D02*
X170473429Y-52177143D01*
X169902000Y-52748571D02*
X169902000Y-51605714D01*
D11*
X135370000Y-99060000D02*
X135370000Y-91440000D01*
X132830000Y-99060000D02*
X132830000Y-91440000D01*
X132550000Y-101880000D02*
X132550000Y-100330000D01*
X135370000Y-91440000D02*
X132830000Y-91440000D01*
X132830000Y-99060000D02*
X135370000Y-99060000D01*
X135650000Y-100330000D02*
X135650000Y-101880000D01*
X135650000Y-101880000D02*
X132550000Y-101880000D01*
X152905000Y-108950000D02*
X152905000Y-106950000D01*
X150855000Y-106950000D02*
X150855000Y-108950000D01*
X137665000Y-108950000D02*
X137665000Y-106950000D01*
X135615000Y-106950000D02*
X135615000Y-108950000D01*
X157840000Y-98060000D02*
X157840000Y-100060000D01*
X159890000Y-100060000D02*
X159890000Y-98060000D01*
X146435000Y-103260000D02*
X148435000Y-103260000D01*
X148435000Y-101210000D02*
X146435000Y-101210000D01*
X145504000Y-99750000D02*
X139206000Y-99750000D01*
X145498000Y-99890000D02*
X139212000Y-99890000D01*
X145485000Y-100030000D02*
X142801000Y-100030000D01*
X141909000Y-100030000D02*
X139225000Y-100030000D01*
X145466000Y-100170000D02*
X143011000Y-100170000D01*
X141699000Y-100170000D02*
X139244000Y-100170000D01*
X145440000Y-100310000D02*
X143144000Y-100310000D01*
X141566000Y-100310000D02*
X139270000Y-100310000D01*
X145408000Y-100450000D02*
X143235000Y-100450000D01*
X141475000Y-100450000D02*
X139302000Y-100450000D01*
X145369000Y-100590000D02*
X143297000Y-100590000D01*
X141413000Y-100590000D02*
X139341000Y-100590000D01*
X145323000Y-100730000D02*
X143336000Y-100730000D01*
X141374000Y-100730000D02*
X139387000Y-100730000D01*
X145270000Y-100870000D02*
X143353000Y-100870000D01*
X141357000Y-100870000D02*
X139440000Y-100870000D01*
X145208000Y-101010000D02*
X143351000Y-101010000D01*
X141359000Y-101010000D02*
X139502000Y-101010000D01*
X145138000Y-101150000D02*
X143329000Y-101150000D01*
X141381000Y-101150000D02*
X139572000Y-101150000D01*
X145059000Y-101290000D02*
X143286000Y-101290000D01*
X141424000Y-101290000D02*
X139651000Y-101290000D01*
X144971000Y-101430000D02*
X143218000Y-101430000D01*
X141492000Y-101430000D02*
X139739000Y-101430000D01*
X144871000Y-101570000D02*
X143119000Y-101570000D01*
X141591000Y-101570000D02*
X139839000Y-101570000D01*
X144759000Y-101710000D02*
X142974000Y-101710000D01*
X141736000Y-101710000D02*
X139951000Y-101710000D01*
X144634000Y-101850000D02*
X142735000Y-101850000D01*
X141975000Y-101850000D02*
X140076000Y-101850000D01*
X144491000Y-101990000D02*
X140219000Y-101990000D01*
X144329000Y-102130000D02*
X140381000Y-102130000D01*
X144141000Y-102270000D02*
X140569000Y-102270000D01*
X143918000Y-102410000D02*
X140792000Y-102410000D01*
X143642000Y-102550000D02*
X141068000Y-102550000D01*
X143267000Y-102690000D02*
X141443000Y-102690000D01*
X143355000Y-100925000D02*
G75*
G03X143355000Y-100925000I-1000000J0D01*
G01*
X145542500Y-99675000D02*
G75*
G03X145542500Y-99675000I-3187500J0D01*
G01*
X133393000Y-54400000D02*
X133393000Y-54200000D01*
X133393000Y-51806000D02*
X133393000Y-51986000D01*
X136620744Y-52116357D02*
G75*
G03X133393000Y-51800000I-1727744J-1003643D01*
G01*
X135945006Y-51986932D02*
G75*
G03X133842000Y-51986000I-1052006J-1133068D01*
G01*
X133405780Y-54426726D02*
G75*
G03X136643000Y-54080000I1497220J1306726D01*
G01*
X133879111Y-54199253D02*
G75*
G03X135927000Y-54180000I1013889J1079253D01*
G01*
X149170000Y-114895000D02*
X149620000Y-114895000D01*
X151020000Y-112395000D02*
G75*
G03X151020000Y-112395000I-2950000J0D01*
G01*
X146970000Y-114895000D02*
X146520000Y-114895000D01*
X158230000Y-59690000D02*
X158230000Y-54610000D01*
X158230000Y-54610000D02*
X155690000Y-54610000D01*
X155690000Y-54610000D02*
X155690000Y-59690000D01*
X155410000Y-62510000D02*
X155410000Y-60960000D01*
X155690000Y-59690000D02*
X158230000Y-59690000D01*
X158510000Y-60960000D02*
X158510000Y-62510000D01*
X158510000Y-62510000D02*
X155410000Y-62510000D01*
X132500000Y-102060000D02*
X133150000Y-102060000D01*
X132500000Y-102810000D02*
X132500000Y-102060000D01*
X132500000Y-106910000D02*
X132500000Y-103910000D01*
X135700000Y-103910000D02*
X135700000Y-106910000D01*
X160770000Y-72390000D02*
X160770000Y-54610000D01*
X160770000Y-54610000D02*
X163310000Y-54610000D01*
X163310000Y-54610000D02*
X163310000Y-72390000D01*
X160490000Y-75210000D02*
X160490000Y-73660000D01*
X160770000Y-72390000D02*
X163310000Y-72390000D01*
X163590000Y-73660000D02*
X163590000Y-75210000D01*
X163590000Y-75210000D02*
X160490000Y-75210000D01*
X158510000Y-73660000D02*
X158510000Y-75210000D01*
X158510000Y-75210000D02*
X155410000Y-75210000D01*
X155410000Y-75210000D02*
X155410000Y-73660000D01*
X155690000Y-72390000D02*
X155690000Y-62230000D01*
X155690000Y-62230000D02*
X158230000Y-62230000D01*
X158230000Y-62230000D02*
X158230000Y-72390000D01*
X155690000Y-72390000D02*
X158230000Y-72390000D01*
X155690000Y-114300000D02*
X153150000Y-114300000D01*
X158510000Y-114580000D02*
X156960000Y-114580000D01*
X155690000Y-114300000D02*
X155690000Y-111760000D01*
X156960000Y-111480000D02*
X158510000Y-111480000D01*
X158510000Y-111480000D02*
X158510000Y-114580000D01*
X155690000Y-111760000D02*
X153150000Y-111760000D01*
X153150000Y-111760000D02*
X153150000Y-114300000D01*
X140450000Y-114300000D02*
X137910000Y-114300000D01*
X143270000Y-114580000D02*
X141720000Y-114580000D01*
X140450000Y-114300000D02*
X140450000Y-111760000D01*
X141720000Y-111480000D02*
X143270000Y-111480000D01*
X143270000Y-111480000D02*
X143270000Y-114580000D01*
X140450000Y-111760000D02*
X137910000Y-111760000D01*
X137910000Y-111760000D02*
X137910000Y-114300000D01*
X160770000Y-93980000D02*
X160770000Y-99060000D01*
X160770000Y-99060000D02*
X163310000Y-99060000D01*
X163310000Y-99060000D02*
X163310000Y-93980000D01*
X163590000Y-91160000D02*
X163590000Y-92710000D01*
X163310000Y-93980000D02*
X160770000Y-93980000D01*
X160490000Y-92710000D02*
X160490000Y-91160000D01*
X160490000Y-91160000D02*
X163590000Y-91160000D01*
X136116000Y-74735000D02*
X134116000Y-74735000D01*
X134116000Y-72585000D02*
X136116000Y-72585000D01*
X155241000Y-60976000D02*
X155241000Y-62976000D01*
X153091000Y-62976000D02*
X153091000Y-60976000D01*
X141780000Y-54728000D02*
X141780000Y-50428000D01*
X151820000Y-52578000D02*
X151820000Y-50428000D01*
X141780000Y-54728000D02*
X151820000Y-54728000D01*
X141780000Y-50428000D02*
X151820000Y-50428000D01*
X146800000Y-53218000D02*
X146800000Y-51938000D01*
X144770000Y-53218000D02*
X148830000Y-53218000D01*
X148830000Y-53218000D02*
X148830000Y-51938000D01*
X148830000Y-51938000D02*
X144770000Y-51938000D01*
X144770000Y-51938000D02*
X144770000Y-53218000D01*
X155690000Y-53975000D02*
X155690000Y-51435000D01*
X155690000Y-51435000D02*
X163310000Y-51435000D01*
X163310000Y-51435000D02*
X163310000Y-53975000D01*
X163310000Y-53975000D02*
X155690000Y-53975000D01*
X158230000Y-51435000D02*
X158230000Y-53975000D01*
X160770000Y-106680000D02*
X163310000Y-106680000D01*
X163310000Y-106680000D02*
X163310000Y-114300000D01*
X163310000Y-114300000D02*
X160770000Y-114300000D01*
X160770000Y-114300000D02*
X160770000Y-106680000D01*
X163310000Y-109220000D02*
X160770000Y-109220000D01*
X131822000Y-72754000D02*
X131822000Y-54754000D01*
X131822000Y-54754000D02*
X133222000Y-54754000D01*
X137622000Y-54754000D02*
X133222000Y-54754000D01*
X132022000Y-72754000D02*
X131822000Y-72754000D01*
X137722000Y-72754000D02*
X137722000Y-54754000D01*
X138022000Y-72754000D02*
X132022000Y-72754000D01*
X138022000Y-72754000D02*
X137622000Y-72754000D01*
X137622000Y-54754000D02*
X138022000Y-54754000D01*
X152022000Y-72754000D02*
X152022000Y-54754000D01*
X152022000Y-72754000D02*
X138022000Y-72754000D01*
X138022000Y-54754000D02*
X152022000Y-54754000D01*
X158865000Y-109601000D02*
X153785000Y-109601000D01*
X153785000Y-109601000D02*
X153785000Y-105029000D01*
X153785000Y-105029000D02*
X158865000Y-105029000D01*
X158865000Y-105029000D02*
X158865000Y-109601000D01*
X158865000Y-108077000D02*
X158357000Y-108077000D01*
X158357000Y-108077000D02*
X158357000Y-106807000D01*
X158357000Y-106807000D02*
X158865000Y-106807000D01*
X142990000Y-109601000D02*
X137910000Y-109601000D01*
X137910000Y-109601000D02*
X137910000Y-105029000D01*
X137910000Y-105029000D02*
X142990000Y-105029000D01*
X142990000Y-105029000D02*
X142990000Y-109601000D01*
X142990000Y-108077000D02*
X142482000Y-108077000D01*
X142482000Y-108077000D02*
X142482000Y-106807000D01*
X142482000Y-106807000D02*
X142990000Y-106807000D01*
X152896000Y-98552000D02*
X152896000Y-99695000D01*
X155944000Y-98552000D02*
X155944000Y-99695000D01*
X159754000Y-99695000D02*
X159754000Y-103378000D01*
X159754000Y-103378000D02*
X149086000Y-103378000D01*
X149086000Y-103378000D02*
X149086000Y-99695000D01*
X159754000Y-98552000D02*
X159754000Y-99695000D01*
X159754000Y-99695000D02*
X149086000Y-99695000D01*
X149086000Y-99695000D02*
X149086000Y-98552000D01*
X154420000Y-98552000D02*
X149086000Y-98552000D01*
X154420000Y-98552000D02*
X159754000Y-98552000D01*
X102870000Y-99060000D02*
X102870000Y-91440000D01*
X100330000Y-99060000D02*
X100330000Y-91440000D01*
X100050000Y-101880000D02*
X100050000Y-100330000D01*
X102870000Y-91440000D02*
X100330000Y-91440000D01*
X100330000Y-99060000D02*
X102870000Y-99060000D01*
X103150000Y-100330000D02*
X103150000Y-101880000D01*
X103150000Y-101880000D02*
X100050000Y-101880000D01*
X120405000Y-108950000D02*
X120405000Y-106950000D01*
X118355000Y-106950000D02*
X118355000Y-108950000D01*
X105165000Y-108950000D02*
X105165000Y-106950000D01*
X103115000Y-106950000D02*
X103115000Y-108950000D01*
X125340000Y-98060000D02*
X125340000Y-100060000D01*
X127390000Y-100060000D02*
X127390000Y-98060000D01*
X113935000Y-103260000D02*
X115935000Y-103260000D01*
X115935000Y-101210000D02*
X113935000Y-101210000D01*
X113004000Y-99750000D02*
X106706000Y-99750000D01*
X112998000Y-99890000D02*
X106712000Y-99890000D01*
X112985000Y-100030000D02*
X110301000Y-100030000D01*
X109409000Y-100030000D02*
X106725000Y-100030000D01*
X112966000Y-100170000D02*
X110511000Y-100170000D01*
X109199000Y-100170000D02*
X106744000Y-100170000D01*
X112940000Y-100310000D02*
X110644000Y-100310000D01*
X109066000Y-100310000D02*
X106770000Y-100310000D01*
X112908000Y-100450000D02*
X110735000Y-100450000D01*
X108975000Y-100450000D02*
X106802000Y-100450000D01*
X112869000Y-100590000D02*
X110797000Y-100590000D01*
X108913000Y-100590000D02*
X106841000Y-100590000D01*
X112823000Y-100730000D02*
X110836000Y-100730000D01*
X108874000Y-100730000D02*
X106887000Y-100730000D01*
X112770000Y-100870000D02*
X110853000Y-100870000D01*
X108857000Y-100870000D02*
X106940000Y-100870000D01*
X112708000Y-101010000D02*
X110851000Y-101010000D01*
X108859000Y-101010000D02*
X107002000Y-101010000D01*
X112638000Y-101150000D02*
X110829000Y-101150000D01*
X108881000Y-101150000D02*
X107072000Y-101150000D01*
X112559000Y-101290000D02*
X110786000Y-101290000D01*
X108924000Y-101290000D02*
X107151000Y-101290000D01*
X112471000Y-101430000D02*
X110718000Y-101430000D01*
X108992000Y-101430000D02*
X107239000Y-101430000D01*
X112371000Y-101570000D02*
X110619000Y-101570000D01*
X109091000Y-101570000D02*
X107339000Y-101570000D01*
X112259000Y-101710000D02*
X110474000Y-101710000D01*
X109236000Y-101710000D02*
X107451000Y-101710000D01*
X112134000Y-101850000D02*
X110235000Y-101850000D01*
X109475000Y-101850000D02*
X107576000Y-101850000D01*
X111991000Y-101990000D02*
X107719000Y-101990000D01*
X111829000Y-102130000D02*
X107881000Y-102130000D01*
X111641000Y-102270000D02*
X108069000Y-102270000D01*
X111418000Y-102410000D02*
X108292000Y-102410000D01*
X111142000Y-102550000D02*
X108568000Y-102550000D01*
X110767000Y-102690000D02*
X108943000Y-102690000D01*
X110855000Y-100925000D02*
G75*
G03X110855000Y-100925000I-1000000J0D01*
G01*
X113042500Y-99675000D02*
G75*
G03X113042500Y-99675000I-3187500J0D01*
G01*
X100893000Y-54400000D02*
X100893000Y-54200000D01*
X100893000Y-51806000D02*
X100893000Y-51986000D01*
X104120744Y-52116357D02*
G75*
G03X100893000Y-51800000I-1727744J-1003643D01*
G01*
X103445006Y-51986932D02*
G75*
G03X101342000Y-51986000I-1052006J-1133068D01*
G01*
X100905780Y-54426726D02*
G75*
G03X104143000Y-54080000I1497220J1306726D01*
G01*
X101379111Y-54199253D02*
G75*
G03X103427000Y-54180000I1013889J1079253D01*
G01*
X116670000Y-114895000D02*
X117120000Y-114895000D01*
X118520000Y-112395000D02*
G75*
G03X118520000Y-112395000I-2950000J0D01*
G01*
X114470000Y-114895000D02*
X114020000Y-114895000D01*
X125730000Y-59690000D02*
X125730000Y-54610000D01*
X125730000Y-54610000D02*
X123190000Y-54610000D01*
X123190000Y-54610000D02*
X123190000Y-59690000D01*
X122910000Y-62510000D02*
X122910000Y-60960000D01*
X123190000Y-59690000D02*
X125730000Y-59690000D01*
X126010000Y-60960000D02*
X126010000Y-62510000D01*
X126010000Y-62510000D02*
X122910000Y-62510000D01*
X100000000Y-102060000D02*
X100650000Y-102060000D01*
X100000000Y-102810000D02*
X100000000Y-102060000D01*
X100000000Y-106910000D02*
X100000000Y-103910000D01*
X103200000Y-103910000D02*
X103200000Y-106910000D01*
X128270000Y-72390000D02*
X128270000Y-54610000D01*
X128270000Y-54610000D02*
X130810000Y-54610000D01*
X130810000Y-54610000D02*
X130810000Y-72390000D01*
X127990000Y-75210000D02*
X127990000Y-73660000D01*
X128270000Y-72390000D02*
X130810000Y-72390000D01*
X131090000Y-73660000D02*
X131090000Y-75210000D01*
X131090000Y-75210000D02*
X127990000Y-75210000D01*
X126010000Y-73660000D02*
X126010000Y-75210000D01*
X126010000Y-75210000D02*
X122910000Y-75210000D01*
X122910000Y-75210000D02*
X122910000Y-73660000D01*
X123190000Y-72390000D02*
X123190000Y-62230000D01*
X123190000Y-62230000D02*
X125730000Y-62230000D01*
X125730000Y-62230000D02*
X125730000Y-72390000D01*
X123190000Y-72390000D02*
X125730000Y-72390000D01*
X123190000Y-114300000D02*
X120650000Y-114300000D01*
X126010000Y-114580000D02*
X124460000Y-114580000D01*
X123190000Y-114300000D02*
X123190000Y-111760000D01*
X124460000Y-111480000D02*
X126010000Y-111480000D01*
X126010000Y-111480000D02*
X126010000Y-114580000D01*
X123190000Y-111760000D02*
X120650000Y-111760000D01*
X120650000Y-111760000D02*
X120650000Y-114300000D01*
X107950000Y-114300000D02*
X105410000Y-114300000D01*
X110770000Y-114580000D02*
X109220000Y-114580000D01*
X107950000Y-114300000D02*
X107950000Y-111760000D01*
X109220000Y-111480000D02*
X110770000Y-111480000D01*
X110770000Y-111480000D02*
X110770000Y-114580000D01*
X107950000Y-111760000D02*
X105410000Y-111760000D01*
X105410000Y-111760000D02*
X105410000Y-114300000D01*
X128270000Y-93980000D02*
X128270000Y-99060000D01*
X128270000Y-99060000D02*
X130810000Y-99060000D01*
X130810000Y-99060000D02*
X130810000Y-93980000D01*
X131090000Y-91160000D02*
X131090000Y-92710000D01*
X130810000Y-93980000D02*
X128270000Y-93980000D01*
X127990000Y-92710000D02*
X127990000Y-91160000D01*
X127990000Y-91160000D02*
X131090000Y-91160000D01*
X103616000Y-74735000D02*
X101616000Y-74735000D01*
X101616000Y-72585000D02*
X103616000Y-72585000D01*
X122741000Y-60976000D02*
X122741000Y-62976000D01*
X120591000Y-62976000D02*
X120591000Y-60976000D01*
X109280000Y-54728000D02*
X109280000Y-50428000D01*
X119320000Y-52578000D02*
X119320000Y-50428000D01*
X109280000Y-54728000D02*
X119320000Y-54728000D01*
X109280000Y-50428000D02*
X119320000Y-50428000D01*
X114300000Y-53218000D02*
X114300000Y-51938000D01*
X112270000Y-53218000D02*
X116330000Y-53218000D01*
X116330000Y-53218000D02*
X116330000Y-51938000D01*
X116330000Y-51938000D02*
X112270000Y-51938000D01*
X112270000Y-51938000D02*
X112270000Y-53218000D01*
X123190000Y-53975000D02*
X123190000Y-51435000D01*
X123190000Y-51435000D02*
X130810000Y-51435000D01*
X130810000Y-51435000D02*
X130810000Y-53975000D01*
X130810000Y-53975000D02*
X123190000Y-53975000D01*
X125730000Y-51435000D02*
X125730000Y-53975000D01*
X128270000Y-106680000D02*
X130810000Y-106680000D01*
X130810000Y-106680000D02*
X130810000Y-114300000D01*
X130810000Y-114300000D02*
X128270000Y-114300000D01*
X128270000Y-114300000D02*
X128270000Y-106680000D01*
X130810000Y-109220000D02*
X128270000Y-109220000D01*
X99322000Y-72754000D02*
X99322000Y-54754000D01*
X99322000Y-54754000D02*
X100722000Y-54754000D01*
X105122000Y-54754000D02*
X100722000Y-54754000D01*
X99522000Y-72754000D02*
X99322000Y-72754000D01*
X105222000Y-72754000D02*
X105222000Y-54754000D01*
X105522000Y-72754000D02*
X99522000Y-72754000D01*
X105522000Y-72754000D02*
X105122000Y-72754000D01*
X105122000Y-54754000D02*
X105522000Y-54754000D01*
X119522000Y-72754000D02*
X119522000Y-54754000D01*
X119522000Y-72754000D02*
X105522000Y-72754000D01*
X105522000Y-54754000D02*
X119522000Y-54754000D01*
X126365000Y-109601000D02*
X121285000Y-109601000D01*
X121285000Y-109601000D02*
X121285000Y-105029000D01*
X121285000Y-105029000D02*
X126365000Y-105029000D01*
X126365000Y-105029000D02*
X126365000Y-109601000D01*
X126365000Y-108077000D02*
X125857000Y-108077000D01*
X125857000Y-108077000D02*
X125857000Y-106807000D01*
X125857000Y-106807000D02*
X126365000Y-106807000D01*
X110490000Y-109601000D02*
X105410000Y-109601000D01*
X105410000Y-109601000D02*
X105410000Y-105029000D01*
X105410000Y-105029000D02*
X110490000Y-105029000D01*
X110490000Y-105029000D02*
X110490000Y-109601000D01*
X110490000Y-108077000D02*
X109982000Y-108077000D01*
X109982000Y-108077000D02*
X109982000Y-106807000D01*
X109982000Y-106807000D02*
X110490000Y-106807000D01*
X120396000Y-98552000D02*
X120396000Y-99695000D01*
X123444000Y-98552000D02*
X123444000Y-99695000D01*
X127254000Y-99695000D02*
X127254000Y-103378000D01*
X127254000Y-103378000D02*
X116586000Y-103378000D01*
X116586000Y-103378000D02*
X116586000Y-99695000D01*
X127254000Y-98552000D02*
X127254000Y-99695000D01*
X127254000Y-99695000D02*
X116586000Y-99695000D01*
X116586000Y-99695000D02*
X116586000Y-98552000D01*
X121920000Y-98552000D02*
X116586000Y-98552000D01*
X121920000Y-98552000D02*
X127254000Y-98552000D01*
X167870000Y-99060000D02*
X167870000Y-91440000D01*
X165330000Y-99060000D02*
X165330000Y-91440000D01*
X165050000Y-101880000D02*
X165050000Y-100330000D01*
X167870000Y-91440000D02*
X165330000Y-91440000D01*
X165330000Y-99060000D02*
X167870000Y-99060000D01*
X168150000Y-100330000D02*
X168150000Y-101880000D01*
X168150000Y-101880000D02*
X165050000Y-101880000D01*
X185405000Y-108950000D02*
X185405000Y-106950000D01*
X183355000Y-106950000D02*
X183355000Y-108950000D01*
X170165000Y-108950000D02*
X170165000Y-106950000D01*
X168115000Y-106950000D02*
X168115000Y-108950000D01*
X190340000Y-98060000D02*
X190340000Y-100060000D01*
X192390000Y-100060000D02*
X192390000Y-98060000D01*
X178935000Y-103260000D02*
X180935000Y-103260000D01*
X180935000Y-101210000D02*
X178935000Y-101210000D01*
X178004000Y-99750000D02*
X171706000Y-99750000D01*
X177998000Y-99890000D02*
X171712000Y-99890000D01*
X177985000Y-100030000D02*
X175301000Y-100030000D01*
X174409000Y-100030000D02*
X171725000Y-100030000D01*
X177966000Y-100170000D02*
X175511000Y-100170000D01*
X174199000Y-100170000D02*
X171744000Y-100170000D01*
X177940000Y-100310000D02*
X175644000Y-100310000D01*
X174066000Y-100310000D02*
X171770000Y-100310000D01*
X177908000Y-100450000D02*
X175735000Y-100450000D01*
X173975000Y-100450000D02*
X171802000Y-100450000D01*
X177869000Y-100590000D02*
X175797000Y-100590000D01*
X173913000Y-100590000D02*
X171841000Y-100590000D01*
X177823000Y-100730000D02*
X175836000Y-100730000D01*
X173874000Y-100730000D02*
X171887000Y-100730000D01*
X177770000Y-100870000D02*
X175853000Y-100870000D01*
X173857000Y-100870000D02*
X171940000Y-100870000D01*
X177708000Y-101010000D02*
X175851000Y-101010000D01*
X173859000Y-101010000D02*
X172002000Y-101010000D01*
X177638000Y-101150000D02*
X175829000Y-101150000D01*
X173881000Y-101150000D02*
X172072000Y-101150000D01*
X177559000Y-101290000D02*
X175786000Y-101290000D01*
X173924000Y-101290000D02*
X172151000Y-101290000D01*
X177471000Y-101430000D02*
X175718000Y-101430000D01*
X173992000Y-101430000D02*
X172239000Y-101430000D01*
X177371000Y-101570000D02*
X175619000Y-101570000D01*
X174091000Y-101570000D02*
X172339000Y-101570000D01*
X177259000Y-101710000D02*
X175474000Y-101710000D01*
X174236000Y-101710000D02*
X172451000Y-101710000D01*
X177134000Y-101850000D02*
X175235000Y-101850000D01*
X174475000Y-101850000D02*
X172576000Y-101850000D01*
X176991000Y-101990000D02*
X172719000Y-101990000D01*
X176829000Y-102130000D02*
X172881000Y-102130000D01*
X176641000Y-102270000D02*
X173069000Y-102270000D01*
X176418000Y-102410000D02*
X173292000Y-102410000D01*
X176142000Y-102550000D02*
X173568000Y-102550000D01*
X175767000Y-102690000D02*
X173943000Y-102690000D01*
X175855000Y-100925000D02*
G75*
G03X175855000Y-100925000I-1000000J0D01*
G01*
X178042500Y-99675000D02*
G75*
G03X178042500Y-99675000I-3187500J0D01*
G01*
X165893000Y-54400000D02*
X165893000Y-54200000D01*
X165893000Y-51806000D02*
X165893000Y-51986000D01*
X169120744Y-52116357D02*
G75*
G03X165893000Y-51800000I-1727744J-1003643D01*
G01*
X168445006Y-51986932D02*
G75*
G03X166342000Y-51986000I-1052006J-1133068D01*
G01*
X165905780Y-54426726D02*
G75*
G03X169143000Y-54080000I1497220J1306726D01*
G01*
X166379111Y-54199253D02*
G75*
G03X168427000Y-54180000I1013889J1079253D01*
G01*
X181670000Y-114895000D02*
X182120000Y-114895000D01*
X183520000Y-112395000D02*
G75*
G03X183520000Y-112395000I-2950000J0D01*
G01*
X179470000Y-114895000D02*
X179020000Y-114895000D01*
X190730000Y-59690000D02*
X190730000Y-54610000D01*
X190730000Y-54610000D02*
X188190000Y-54610000D01*
X188190000Y-54610000D02*
X188190000Y-59690000D01*
X187910000Y-62510000D02*
X187910000Y-60960000D01*
X188190000Y-59690000D02*
X190730000Y-59690000D01*
X191010000Y-60960000D02*
X191010000Y-62510000D01*
X191010000Y-62510000D02*
X187910000Y-62510000D01*
X165000000Y-102060000D02*
X165650000Y-102060000D01*
X165000000Y-102810000D02*
X165000000Y-102060000D01*
X165000000Y-106910000D02*
X165000000Y-103910000D01*
X168200000Y-103910000D02*
X168200000Y-106910000D01*
X193270000Y-72390000D02*
X193270000Y-54610000D01*
X193270000Y-54610000D02*
X195810000Y-54610000D01*
X195810000Y-54610000D02*
X195810000Y-72390000D01*
X192990000Y-75210000D02*
X192990000Y-73660000D01*
X193270000Y-72390000D02*
X195810000Y-72390000D01*
X196090000Y-73660000D02*
X196090000Y-75210000D01*
X196090000Y-75210000D02*
X192990000Y-75210000D01*
X191010000Y-73660000D02*
X191010000Y-75210000D01*
X191010000Y-75210000D02*
X187910000Y-75210000D01*
X187910000Y-75210000D02*
X187910000Y-73660000D01*
X188190000Y-72390000D02*
X188190000Y-62230000D01*
X188190000Y-62230000D02*
X190730000Y-62230000D01*
X190730000Y-62230000D02*
X190730000Y-72390000D01*
X188190000Y-72390000D02*
X190730000Y-72390000D01*
X188190000Y-114300000D02*
X185650000Y-114300000D01*
X191010000Y-114580000D02*
X189460000Y-114580000D01*
X188190000Y-114300000D02*
X188190000Y-111760000D01*
X189460000Y-111480000D02*
X191010000Y-111480000D01*
X191010000Y-111480000D02*
X191010000Y-114580000D01*
X188190000Y-111760000D02*
X185650000Y-111760000D01*
X185650000Y-111760000D02*
X185650000Y-114300000D01*
X172950000Y-114300000D02*
X170410000Y-114300000D01*
X175770000Y-114580000D02*
X174220000Y-114580000D01*
X172950000Y-114300000D02*
X172950000Y-111760000D01*
X174220000Y-111480000D02*
X175770000Y-111480000D01*
X175770000Y-111480000D02*
X175770000Y-114580000D01*
X172950000Y-111760000D02*
X170410000Y-111760000D01*
X170410000Y-111760000D02*
X170410000Y-114300000D01*
X193270000Y-93980000D02*
X193270000Y-99060000D01*
X193270000Y-99060000D02*
X195810000Y-99060000D01*
X195810000Y-99060000D02*
X195810000Y-93980000D01*
X196090000Y-91160000D02*
X196090000Y-92710000D01*
X195810000Y-93980000D02*
X193270000Y-93980000D01*
X192990000Y-92710000D02*
X192990000Y-91160000D01*
X192990000Y-91160000D02*
X196090000Y-91160000D01*
X168616000Y-74735000D02*
X166616000Y-74735000D01*
X166616000Y-72585000D02*
X168616000Y-72585000D01*
X187741000Y-60976000D02*
X187741000Y-62976000D01*
X185591000Y-62976000D02*
X185591000Y-60976000D01*
X174280000Y-54728000D02*
X174280000Y-50428000D01*
X184320000Y-52578000D02*
X184320000Y-50428000D01*
X174280000Y-54728000D02*
X184320000Y-54728000D01*
X174280000Y-50428000D02*
X184320000Y-50428000D01*
X179300000Y-53218000D02*
X179300000Y-51938000D01*
X177270000Y-53218000D02*
X181330000Y-53218000D01*
X181330000Y-53218000D02*
X181330000Y-51938000D01*
X181330000Y-51938000D02*
X177270000Y-51938000D01*
X177270000Y-51938000D02*
X177270000Y-53218000D01*
X188190000Y-53975000D02*
X188190000Y-51435000D01*
X188190000Y-51435000D02*
X195810000Y-51435000D01*
X195810000Y-51435000D02*
X195810000Y-53975000D01*
X195810000Y-53975000D02*
X188190000Y-53975000D01*
X190730000Y-51435000D02*
X190730000Y-53975000D01*
X193270000Y-106680000D02*
X195810000Y-106680000D01*
X195810000Y-106680000D02*
X195810000Y-114300000D01*
X195810000Y-114300000D02*
X193270000Y-114300000D01*
X193270000Y-114300000D02*
X193270000Y-106680000D01*
X195810000Y-109220000D02*
X193270000Y-109220000D01*
X164322000Y-72754000D02*
X164322000Y-54754000D01*
X164322000Y-54754000D02*
X165722000Y-54754000D01*
X170122000Y-54754000D02*
X165722000Y-54754000D01*
X164522000Y-72754000D02*
X164322000Y-72754000D01*
X170222000Y-72754000D02*
X170222000Y-54754000D01*
X170522000Y-72754000D02*
X164522000Y-72754000D01*
X170522000Y-72754000D02*
X170122000Y-72754000D01*
X170122000Y-54754000D02*
X170522000Y-54754000D01*
X184522000Y-72754000D02*
X184522000Y-54754000D01*
X184522000Y-72754000D02*
X170522000Y-72754000D01*
X170522000Y-54754000D02*
X184522000Y-54754000D01*
X191365000Y-109601000D02*
X186285000Y-109601000D01*
X186285000Y-109601000D02*
X186285000Y-105029000D01*
X186285000Y-105029000D02*
X191365000Y-105029000D01*
X191365000Y-105029000D02*
X191365000Y-109601000D01*
X191365000Y-108077000D02*
X190857000Y-108077000D01*
X190857000Y-108077000D02*
X190857000Y-106807000D01*
X190857000Y-106807000D02*
X191365000Y-106807000D01*
X175490000Y-109601000D02*
X170410000Y-109601000D01*
X170410000Y-109601000D02*
X170410000Y-105029000D01*
X170410000Y-105029000D02*
X175490000Y-105029000D01*
X175490000Y-105029000D02*
X175490000Y-109601000D01*
X175490000Y-108077000D02*
X174982000Y-108077000D01*
X174982000Y-108077000D02*
X174982000Y-106807000D01*
X174982000Y-106807000D02*
X175490000Y-106807000D01*
X185396000Y-98552000D02*
X185396000Y-99695000D01*
X188444000Y-98552000D02*
X188444000Y-99695000D01*
X192254000Y-99695000D02*
X192254000Y-103378000D01*
X192254000Y-103378000D02*
X181586000Y-103378000D01*
X181586000Y-103378000D02*
X181586000Y-99695000D01*
X192254000Y-98552000D02*
X192254000Y-99695000D01*
X192254000Y-99695000D02*
X181586000Y-99695000D01*
X181586000Y-99695000D02*
X181586000Y-98552000D01*
X186920000Y-98552000D02*
X181586000Y-98552000D01*
X186920000Y-98552000D02*
X192254000Y-98552000D01*
X150459143Y-108116666D02*
X150506762Y-108164285D01*
X150554381Y-108307142D01*
X150554381Y-108402380D01*
X150506762Y-108545238D01*
X150411524Y-108640476D01*
X150316286Y-108688095D01*
X150125810Y-108735714D01*
X149982952Y-108735714D01*
X149792476Y-108688095D01*
X149697238Y-108640476D01*
X149602000Y-108545238D01*
X149554381Y-108402380D01*
X149554381Y-108307142D01*
X149602000Y-108164285D01*
X149649619Y-108116666D01*
X149554381Y-107783333D02*
X149554381Y-107164285D01*
X149935333Y-107497619D01*
X149935333Y-107354761D01*
X149982952Y-107259523D01*
X150030571Y-107211904D01*
X150125810Y-107164285D01*
X150363905Y-107164285D01*
X150459143Y-107211904D01*
X150506762Y-107259523D01*
X150554381Y-107354761D01*
X150554381Y-107640476D01*
X150506762Y-107735714D01*
X150459143Y-107783333D01*
X139297143Y-108116666D02*
X139344762Y-108164285D01*
X139392381Y-108307142D01*
X139392381Y-108402380D01*
X139344762Y-108545238D01*
X139249524Y-108640476D01*
X139154286Y-108688095D01*
X138963810Y-108735714D01*
X138820952Y-108735714D01*
X138630476Y-108688095D01*
X138535238Y-108640476D01*
X138440000Y-108545238D01*
X138392381Y-108402380D01*
X138392381Y-108307142D01*
X138440000Y-108164285D01*
X138487619Y-108116666D01*
X138725714Y-107259523D02*
X139392381Y-107259523D01*
X138344762Y-107497619D02*
X139059048Y-107735714D01*
X139059048Y-107116666D01*
X156999643Y-97702666D02*
X157047262Y-97750285D01*
X157094881Y-97893142D01*
X157094881Y-97988380D01*
X157047262Y-98131238D01*
X156952024Y-98226476D01*
X156856786Y-98274095D01*
X156666310Y-98321714D01*
X156523452Y-98321714D01*
X156332976Y-98274095D01*
X156237738Y-98226476D01*
X156142500Y-98131238D01*
X156094881Y-97988380D01*
X156094881Y-97893142D01*
X156142500Y-97750285D01*
X156190119Y-97702666D01*
X156094881Y-96797904D02*
X156094881Y-97274095D01*
X156571071Y-97321714D01*
X156523452Y-97274095D01*
X156475833Y-97178857D01*
X156475833Y-96940761D01*
X156523452Y-96845523D01*
X156571071Y-96797904D01*
X156666310Y-96750285D01*
X156904405Y-96750285D01*
X156999643Y-96797904D01*
X157047262Y-96845523D01*
X157094881Y-96940761D01*
X157094881Y-97178857D01*
X157047262Y-97274095D01*
X156999643Y-97321714D01*
X149300334Y-104878143D02*
X149252715Y-104925762D01*
X149109858Y-104973381D01*
X149014620Y-104973381D01*
X148871762Y-104925762D01*
X148776524Y-104830524D01*
X148728905Y-104735286D01*
X148681286Y-104544810D01*
X148681286Y-104401952D01*
X148728905Y-104211476D01*
X148776524Y-104116238D01*
X148871762Y-104021000D01*
X149014620Y-103973381D01*
X149109858Y-103973381D01*
X149252715Y-104021000D01*
X149300334Y-104068619D01*
X150157477Y-103973381D02*
X149967000Y-103973381D01*
X149871762Y-104021000D01*
X149824143Y-104068619D01*
X149728905Y-104211476D01*
X149681286Y-104401952D01*
X149681286Y-104782905D01*
X149728905Y-104878143D01*
X149776524Y-104925762D01*
X149871762Y-104973381D01*
X150062239Y-104973381D01*
X150157477Y-104925762D01*
X150205096Y-104878143D01*
X150252715Y-104782905D01*
X150252715Y-104544810D01*
X150205096Y-104449571D01*
X150157477Y-104401952D01*
X150062239Y-104354333D01*
X149871762Y-104354333D01*
X149776524Y-104401952D01*
X149728905Y-104449571D01*
X149681286Y-104544810D01*
X147112143Y-99841666D02*
X147159762Y-99889285D01*
X147207381Y-100032142D01*
X147207381Y-100127380D01*
X147159762Y-100270238D01*
X147064524Y-100365476D01*
X146969286Y-100413095D01*
X146778810Y-100460714D01*
X146635952Y-100460714D01*
X146445476Y-100413095D01*
X146350238Y-100365476D01*
X146255000Y-100270238D01*
X146207381Y-100127380D01*
X146207381Y-100032142D01*
X146255000Y-99889285D01*
X146302619Y-99841666D01*
X146207381Y-99508333D02*
X146207381Y-98841666D01*
X147207381Y-99270238D01*
X135441381Y-56808595D02*
X134441381Y-56808595D01*
X134441381Y-56570500D01*
X134489000Y-56427642D01*
X134584238Y-56332404D01*
X134679476Y-56284785D01*
X134869952Y-56237166D01*
X135012810Y-56237166D01*
X135203286Y-56284785D01*
X135298524Y-56332404D01*
X135393762Y-56427642D01*
X135441381Y-56570500D01*
X135441381Y-56808595D01*
X135441381Y-55284785D02*
X135441381Y-55856214D01*
X135441381Y-55570500D02*
X134441381Y-55570500D01*
X134584238Y-55665738D01*
X134679476Y-55760976D01*
X134727095Y-55856214D01*
X156126667Y-65512381D02*
X156126667Y-66226667D01*
X156079047Y-66369524D01*
X155983809Y-66464762D01*
X155840952Y-66512381D01*
X155745714Y-66512381D01*
X156602857Y-66512381D02*
X156602857Y-65512381D01*
X156983810Y-65512381D01*
X157079048Y-65560000D01*
X157126667Y-65607619D01*
X157174286Y-65702857D01*
X157174286Y-65845714D01*
X157126667Y-65940952D01*
X157079048Y-65988571D01*
X156983810Y-66036190D01*
X156602857Y-66036190D01*
X158126667Y-66512381D02*
X157555238Y-66512381D01*
X157840952Y-66512381D02*
X157840952Y-65512381D01*
X157745714Y-65655238D01*
X157650476Y-65750476D01*
X157555238Y-65798095D01*
X136663834Y-103703381D02*
X136187643Y-103703381D01*
X136187643Y-102703381D01*
X137520977Y-103703381D02*
X136949548Y-103703381D01*
X137235262Y-103703381D02*
X137235262Y-102703381D01*
X137140024Y-102846238D01*
X137044786Y-102941476D01*
X136949548Y-102989095D01*
X162512381Y-113768095D02*
X161512381Y-113768095D01*
X161512381Y-113387142D01*
X161560000Y-113291904D01*
X161607619Y-113244285D01*
X161702857Y-113196666D01*
X161845714Y-113196666D01*
X161940952Y-113244285D01*
X161988571Y-113291904D01*
X162036190Y-113387142D01*
X162036190Y-113768095D01*
X161845714Y-112339523D02*
X162512381Y-112339523D01*
X161464762Y-112577619D02*
X162179048Y-112815714D01*
X162179048Y-112196666D01*
X134949334Y-71812381D02*
X134616000Y-71336190D01*
X134377905Y-71812381D02*
X134377905Y-70812381D01*
X134758858Y-70812381D01*
X134854096Y-70860000D01*
X134901715Y-70907619D01*
X134949334Y-71002857D01*
X134949334Y-71145714D01*
X134901715Y-71240952D01*
X134854096Y-71288571D01*
X134758858Y-71336190D01*
X134377905Y-71336190D01*
X135282667Y-70812381D02*
X135901715Y-70812381D01*
X135568381Y-71193333D01*
X135711239Y-71193333D01*
X135806477Y-71240952D01*
X135854096Y-71288571D01*
X135901715Y-71383810D01*
X135901715Y-71621905D01*
X135854096Y-71717143D01*
X135806477Y-71764762D01*
X135711239Y-71812381D01*
X135425524Y-71812381D01*
X135330286Y-71764762D01*
X135282667Y-71717143D01*
X154101667Y-62092666D02*
X153768333Y-62326000D01*
X154101667Y-62492666D02*
X153401667Y-62492666D01*
X153401667Y-62226000D01*
X153435000Y-62159333D01*
X153468333Y-62126000D01*
X153535000Y-62092666D01*
X153635000Y-62092666D01*
X153701667Y-62126000D01*
X153735000Y-62159333D01*
X153768333Y-62226000D01*
X153768333Y-62492666D01*
X153401667Y-61459333D02*
X153401667Y-61792666D01*
X153735000Y-61826000D01*
X153701667Y-61792666D01*
X153668333Y-61726000D01*
X153668333Y-61559333D01*
X153701667Y-61492666D01*
X153735000Y-61459333D01*
X153801667Y-61426000D01*
X153968333Y-61426000D01*
X154035000Y-61459333D01*
X154068333Y-61492666D01*
X154101667Y-61559333D01*
X154101667Y-61726000D01*
X154068333Y-61792666D01*
X154035000Y-61826000D01*
X162508262Y-106425833D02*
X162555881Y-106282976D01*
X162555881Y-106044880D01*
X162508262Y-105949642D01*
X162460643Y-105902023D01*
X162365405Y-105854404D01*
X162270167Y-105854404D01*
X162174929Y-105902023D01*
X162127310Y-105949642D01*
X162079690Y-106044880D01*
X162032071Y-106235357D01*
X161984452Y-106330595D01*
X161936833Y-106378214D01*
X161841595Y-106425833D01*
X161746357Y-106425833D01*
X161651119Y-106378214D01*
X161603500Y-106330595D01*
X161555881Y-106235357D01*
X161555881Y-105997261D01*
X161603500Y-105854404D01*
X161555881Y-105521071D02*
X162555881Y-105282976D01*
X161841595Y-105092499D01*
X162555881Y-104902023D01*
X161555881Y-104663928D01*
X161555881Y-104378214D02*
X161555881Y-103759166D01*
X161936833Y-104092500D01*
X161936833Y-103949642D01*
X161984452Y-103854404D01*
X162032071Y-103806785D01*
X162127310Y-103759166D01*
X162365405Y-103759166D01*
X162460643Y-103806785D01*
X162508262Y-103854404D01*
X162555881Y-103949642D01*
X162555881Y-104235357D01*
X162508262Y-104330595D01*
X162460643Y-104378214D01*
X147095357Y-62445786D02*
X148066786Y-62445786D01*
X148181071Y-62388643D01*
X148238214Y-62331500D01*
X148295357Y-62217214D01*
X148295357Y-61988643D01*
X148238214Y-61874357D01*
X148181071Y-61817214D01*
X148066786Y-61760071D01*
X147095357Y-61760071D01*
X148295357Y-60560071D02*
X148295357Y-61245786D01*
X148295357Y-60902928D02*
X147095357Y-60902928D01*
X147266786Y-61017214D01*
X147381071Y-61131500D01*
X147438214Y-61245786D01*
X155563095Y-108037381D02*
X155563095Y-108846905D01*
X155610714Y-108942143D01*
X155658333Y-108989762D01*
X155753571Y-109037381D01*
X155944048Y-109037381D01*
X156039286Y-108989762D01*
X156086905Y-108942143D01*
X156134524Y-108846905D01*
X156134524Y-108037381D01*
X156563095Y-108132619D02*
X156610714Y-108085000D01*
X156705952Y-108037381D01*
X156944048Y-108037381D01*
X157039286Y-108085000D01*
X157086905Y-108132619D01*
X157134524Y-108227857D01*
X157134524Y-108323095D01*
X157086905Y-108465952D01*
X156515476Y-109037381D01*
X157134524Y-109037381D01*
X139688095Y-108037381D02*
X139688095Y-108846905D01*
X139735714Y-108942143D01*
X139783333Y-108989762D01*
X139878571Y-109037381D01*
X140069048Y-109037381D01*
X140164286Y-108989762D01*
X140211905Y-108942143D01*
X140259524Y-108846905D01*
X140259524Y-108037381D01*
X140640476Y-108037381D02*
X141259524Y-108037381D01*
X140926190Y-108418333D01*
X141069048Y-108418333D01*
X141164286Y-108465952D01*
X141211905Y-108513571D01*
X141259524Y-108608810D01*
X141259524Y-108846905D01*
X141211905Y-108942143D01*
X141164286Y-108989762D01*
X141069048Y-109037381D01*
X140783333Y-109037381D01*
X140688095Y-108989762D01*
X140640476Y-108942143D01*
X153785095Y-98639381D02*
X153785095Y-99448905D01*
X153832714Y-99544143D01*
X153880333Y-99591762D01*
X153975571Y-99639381D01*
X154166048Y-99639381D01*
X154261286Y-99591762D01*
X154308905Y-99544143D01*
X154356524Y-99448905D01*
X154356524Y-98639381D01*
X155261286Y-98972714D02*
X155261286Y-99639381D01*
X155023190Y-98591762D02*
X154785095Y-99306048D01*
X155404143Y-99306048D01*
X149742857Y-87245714D02*
X148542857Y-87245714D01*
X148542857Y-86788571D01*
X148600000Y-86674285D01*
X148657143Y-86617142D01*
X148771429Y-86559999D01*
X148942857Y-86559999D01*
X149057143Y-86617142D01*
X149114286Y-86674285D01*
X149171429Y-86788571D01*
X149171429Y-87245714D01*
X148542857Y-85531428D02*
X148542857Y-85759999D01*
X148600000Y-85874285D01*
X148657143Y-85931428D01*
X148828571Y-86045714D01*
X149057143Y-86102857D01*
X149514286Y-86102857D01*
X149628571Y-86045714D01*
X149685714Y-85988571D01*
X149742857Y-85874285D01*
X149742857Y-85645714D01*
X149685714Y-85531428D01*
X149628571Y-85474285D01*
X149514286Y-85417142D01*
X149228571Y-85417142D01*
X149114286Y-85474285D01*
X149057143Y-85531428D01*
X149000000Y-85645714D01*
X149000000Y-85874285D01*
X149057143Y-85988571D01*
X149114286Y-86045714D01*
X149228571Y-86102857D01*
X152282857Y-87245714D02*
X151082857Y-87245714D01*
X151082857Y-86788571D01*
X151140000Y-86674285D01*
X151197143Y-86617142D01*
X151311429Y-86559999D01*
X151482857Y-86559999D01*
X151597143Y-86617142D01*
X151654286Y-86674285D01*
X151711429Y-86788571D01*
X151711429Y-87245714D01*
X151082857Y-86159999D02*
X151082857Y-85359999D01*
X152282857Y-85874285D01*
X117959143Y-108116666D02*
X118006762Y-108164285D01*
X118054381Y-108307142D01*
X118054381Y-108402380D01*
X118006762Y-108545238D01*
X117911524Y-108640476D01*
X117816286Y-108688095D01*
X117625810Y-108735714D01*
X117482952Y-108735714D01*
X117292476Y-108688095D01*
X117197238Y-108640476D01*
X117102000Y-108545238D01*
X117054381Y-108402380D01*
X117054381Y-108307142D01*
X117102000Y-108164285D01*
X117149619Y-108116666D01*
X117054381Y-107783333D02*
X117054381Y-107164285D01*
X117435333Y-107497619D01*
X117435333Y-107354761D01*
X117482952Y-107259523D01*
X117530571Y-107211904D01*
X117625810Y-107164285D01*
X117863905Y-107164285D01*
X117959143Y-107211904D01*
X118006762Y-107259523D01*
X118054381Y-107354761D01*
X118054381Y-107640476D01*
X118006762Y-107735714D01*
X117959143Y-107783333D01*
X106797143Y-108116666D02*
X106844762Y-108164285D01*
X106892381Y-108307142D01*
X106892381Y-108402380D01*
X106844762Y-108545238D01*
X106749524Y-108640476D01*
X106654286Y-108688095D01*
X106463810Y-108735714D01*
X106320952Y-108735714D01*
X106130476Y-108688095D01*
X106035238Y-108640476D01*
X105940000Y-108545238D01*
X105892381Y-108402380D01*
X105892381Y-108307142D01*
X105940000Y-108164285D01*
X105987619Y-108116666D01*
X106225714Y-107259523D02*
X106892381Y-107259523D01*
X105844762Y-107497619D02*
X106559048Y-107735714D01*
X106559048Y-107116666D01*
X124499643Y-97702666D02*
X124547262Y-97750285D01*
X124594881Y-97893142D01*
X124594881Y-97988380D01*
X124547262Y-98131238D01*
X124452024Y-98226476D01*
X124356786Y-98274095D01*
X124166310Y-98321714D01*
X124023452Y-98321714D01*
X123832976Y-98274095D01*
X123737738Y-98226476D01*
X123642500Y-98131238D01*
X123594881Y-97988380D01*
X123594881Y-97893142D01*
X123642500Y-97750285D01*
X123690119Y-97702666D01*
X123594881Y-96797904D02*
X123594881Y-97274095D01*
X124071071Y-97321714D01*
X124023452Y-97274095D01*
X123975833Y-97178857D01*
X123975833Y-96940761D01*
X124023452Y-96845523D01*
X124071071Y-96797904D01*
X124166310Y-96750285D01*
X124404405Y-96750285D01*
X124499643Y-96797904D01*
X124547262Y-96845523D01*
X124594881Y-96940761D01*
X124594881Y-97178857D01*
X124547262Y-97274095D01*
X124499643Y-97321714D01*
X116800334Y-104878143D02*
X116752715Y-104925762D01*
X116609858Y-104973381D01*
X116514620Y-104973381D01*
X116371762Y-104925762D01*
X116276524Y-104830524D01*
X116228905Y-104735286D01*
X116181286Y-104544810D01*
X116181286Y-104401952D01*
X116228905Y-104211476D01*
X116276524Y-104116238D01*
X116371762Y-104021000D01*
X116514620Y-103973381D01*
X116609858Y-103973381D01*
X116752715Y-104021000D01*
X116800334Y-104068619D01*
X117657477Y-103973381D02*
X117467000Y-103973381D01*
X117371762Y-104021000D01*
X117324143Y-104068619D01*
X117228905Y-104211476D01*
X117181286Y-104401952D01*
X117181286Y-104782905D01*
X117228905Y-104878143D01*
X117276524Y-104925762D01*
X117371762Y-104973381D01*
X117562239Y-104973381D01*
X117657477Y-104925762D01*
X117705096Y-104878143D01*
X117752715Y-104782905D01*
X117752715Y-104544810D01*
X117705096Y-104449571D01*
X117657477Y-104401952D01*
X117562239Y-104354333D01*
X117371762Y-104354333D01*
X117276524Y-104401952D01*
X117228905Y-104449571D01*
X117181286Y-104544810D01*
X114612143Y-99841666D02*
X114659762Y-99889285D01*
X114707381Y-100032142D01*
X114707381Y-100127380D01*
X114659762Y-100270238D01*
X114564524Y-100365476D01*
X114469286Y-100413095D01*
X114278810Y-100460714D01*
X114135952Y-100460714D01*
X113945476Y-100413095D01*
X113850238Y-100365476D01*
X113755000Y-100270238D01*
X113707381Y-100127380D01*
X113707381Y-100032142D01*
X113755000Y-99889285D01*
X113802619Y-99841666D01*
X113707381Y-99508333D02*
X113707381Y-98841666D01*
X114707381Y-99270238D01*
X102941381Y-56808595D02*
X101941381Y-56808595D01*
X101941381Y-56570500D01*
X101989000Y-56427642D01*
X102084238Y-56332404D01*
X102179476Y-56284785D01*
X102369952Y-56237166D01*
X102512810Y-56237166D01*
X102703286Y-56284785D01*
X102798524Y-56332404D01*
X102893762Y-56427642D01*
X102941381Y-56570500D01*
X102941381Y-56808595D01*
X102941381Y-55284785D02*
X102941381Y-55856214D01*
X102941381Y-55570500D02*
X101941381Y-55570500D01*
X102084238Y-55665738D01*
X102179476Y-55760976D01*
X102227095Y-55856214D01*
X123626667Y-65512381D02*
X123626667Y-66226667D01*
X123579047Y-66369524D01*
X123483809Y-66464762D01*
X123340952Y-66512381D01*
X123245714Y-66512381D01*
X124102857Y-66512381D02*
X124102857Y-65512381D01*
X124483810Y-65512381D01*
X124579048Y-65560000D01*
X124626667Y-65607619D01*
X124674286Y-65702857D01*
X124674286Y-65845714D01*
X124626667Y-65940952D01*
X124579048Y-65988571D01*
X124483810Y-66036190D01*
X124102857Y-66036190D01*
X125626667Y-66512381D02*
X125055238Y-66512381D01*
X125340952Y-66512381D02*
X125340952Y-65512381D01*
X125245714Y-65655238D01*
X125150476Y-65750476D01*
X125055238Y-65798095D01*
X104163834Y-103703381D02*
X103687643Y-103703381D01*
X103687643Y-102703381D01*
X105020977Y-103703381D02*
X104449548Y-103703381D01*
X104735262Y-103703381D02*
X104735262Y-102703381D01*
X104640024Y-102846238D01*
X104544786Y-102941476D01*
X104449548Y-102989095D01*
X130012381Y-113768095D02*
X129012381Y-113768095D01*
X129012381Y-113387142D01*
X129060000Y-113291904D01*
X129107619Y-113244285D01*
X129202857Y-113196666D01*
X129345714Y-113196666D01*
X129440952Y-113244285D01*
X129488571Y-113291904D01*
X129536190Y-113387142D01*
X129536190Y-113768095D01*
X129345714Y-112339523D02*
X130012381Y-112339523D01*
X128964762Y-112577619D02*
X129679048Y-112815714D01*
X129679048Y-112196666D01*
X102449334Y-71812381D02*
X102116000Y-71336190D01*
X101877905Y-71812381D02*
X101877905Y-70812381D01*
X102258858Y-70812381D01*
X102354096Y-70860000D01*
X102401715Y-70907619D01*
X102449334Y-71002857D01*
X102449334Y-71145714D01*
X102401715Y-71240952D01*
X102354096Y-71288571D01*
X102258858Y-71336190D01*
X101877905Y-71336190D01*
X102782667Y-70812381D02*
X103401715Y-70812381D01*
X103068381Y-71193333D01*
X103211239Y-71193333D01*
X103306477Y-71240952D01*
X103354096Y-71288571D01*
X103401715Y-71383810D01*
X103401715Y-71621905D01*
X103354096Y-71717143D01*
X103306477Y-71764762D01*
X103211239Y-71812381D01*
X102925524Y-71812381D01*
X102830286Y-71764762D01*
X102782667Y-71717143D01*
X121601667Y-62092666D02*
X121268333Y-62326000D01*
X121601667Y-62492666D02*
X120901667Y-62492666D01*
X120901667Y-62226000D01*
X120935000Y-62159333D01*
X120968333Y-62126000D01*
X121035000Y-62092666D01*
X121135000Y-62092666D01*
X121201667Y-62126000D01*
X121235000Y-62159333D01*
X121268333Y-62226000D01*
X121268333Y-62492666D01*
X120901667Y-61459333D02*
X120901667Y-61792666D01*
X121235000Y-61826000D01*
X121201667Y-61792666D01*
X121168333Y-61726000D01*
X121168333Y-61559333D01*
X121201667Y-61492666D01*
X121235000Y-61459333D01*
X121301667Y-61426000D01*
X121468333Y-61426000D01*
X121535000Y-61459333D01*
X121568333Y-61492666D01*
X121601667Y-61559333D01*
X121601667Y-61726000D01*
X121568333Y-61792666D01*
X121535000Y-61826000D01*
X130008262Y-106425833D02*
X130055881Y-106282976D01*
X130055881Y-106044880D01*
X130008262Y-105949642D01*
X129960643Y-105902023D01*
X129865405Y-105854404D01*
X129770167Y-105854404D01*
X129674929Y-105902023D01*
X129627310Y-105949642D01*
X129579690Y-106044880D01*
X129532071Y-106235357D01*
X129484452Y-106330595D01*
X129436833Y-106378214D01*
X129341595Y-106425833D01*
X129246357Y-106425833D01*
X129151119Y-106378214D01*
X129103500Y-106330595D01*
X129055881Y-106235357D01*
X129055881Y-105997261D01*
X129103500Y-105854404D01*
X129055881Y-105521071D02*
X130055881Y-105282976D01*
X129341595Y-105092499D01*
X130055881Y-104902023D01*
X129055881Y-104663928D01*
X129055881Y-104378214D02*
X129055881Y-103759166D01*
X129436833Y-104092500D01*
X129436833Y-103949642D01*
X129484452Y-103854404D01*
X129532071Y-103806785D01*
X129627310Y-103759166D01*
X129865405Y-103759166D01*
X129960643Y-103806785D01*
X130008262Y-103854404D01*
X130055881Y-103949642D01*
X130055881Y-104235357D01*
X130008262Y-104330595D01*
X129960643Y-104378214D01*
X114595357Y-62445786D02*
X115566786Y-62445786D01*
X115681071Y-62388643D01*
X115738214Y-62331500D01*
X115795357Y-62217214D01*
X115795357Y-61988643D01*
X115738214Y-61874357D01*
X115681071Y-61817214D01*
X115566786Y-61760071D01*
X114595357Y-61760071D01*
X115795357Y-60560071D02*
X115795357Y-61245786D01*
X115795357Y-60902928D02*
X114595357Y-60902928D01*
X114766786Y-61017214D01*
X114881071Y-61131500D01*
X114938214Y-61245786D01*
X123063095Y-108037381D02*
X123063095Y-108846905D01*
X123110714Y-108942143D01*
X123158333Y-108989762D01*
X123253571Y-109037381D01*
X123444048Y-109037381D01*
X123539286Y-108989762D01*
X123586905Y-108942143D01*
X123634524Y-108846905D01*
X123634524Y-108037381D01*
X124063095Y-108132619D02*
X124110714Y-108085000D01*
X124205952Y-108037381D01*
X124444048Y-108037381D01*
X124539286Y-108085000D01*
X124586905Y-108132619D01*
X124634524Y-108227857D01*
X124634524Y-108323095D01*
X124586905Y-108465952D01*
X124015476Y-109037381D01*
X124634524Y-109037381D01*
X107188095Y-108037381D02*
X107188095Y-108846905D01*
X107235714Y-108942143D01*
X107283333Y-108989762D01*
X107378571Y-109037381D01*
X107569048Y-109037381D01*
X107664286Y-108989762D01*
X107711905Y-108942143D01*
X107759524Y-108846905D01*
X107759524Y-108037381D01*
X108140476Y-108037381D02*
X108759524Y-108037381D01*
X108426190Y-108418333D01*
X108569048Y-108418333D01*
X108664286Y-108465952D01*
X108711905Y-108513571D01*
X108759524Y-108608810D01*
X108759524Y-108846905D01*
X108711905Y-108942143D01*
X108664286Y-108989762D01*
X108569048Y-109037381D01*
X108283333Y-109037381D01*
X108188095Y-108989762D01*
X108140476Y-108942143D01*
X121285095Y-98639381D02*
X121285095Y-99448905D01*
X121332714Y-99544143D01*
X121380333Y-99591762D01*
X121475571Y-99639381D01*
X121666048Y-99639381D01*
X121761286Y-99591762D01*
X121808905Y-99544143D01*
X121856524Y-99448905D01*
X121856524Y-98639381D01*
X122761286Y-98972714D02*
X122761286Y-99639381D01*
X122523190Y-98591762D02*
X122285095Y-99306048D01*
X122904143Y-99306048D01*
X117242857Y-87245714D02*
X116042857Y-87245714D01*
X116042857Y-86788571D01*
X116100000Y-86674285D01*
X116157143Y-86617142D01*
X116271429Y-86559999D01*
X116442857Y-86559999D01*
X116557143Y-86617142D01*
X116614286Y-86674285D01*
X116671429Y-86788571D01*
X116671429Y-87245714D01*
X116042857Y-85531428D02*
X116042857Y-85759999D01*
X116100000Y-85874285D01*
X116157143Y-85931428D01*
X116328571Y-86045714D01*
X116557143Y-86102857D01*
X117014286Y-86102857D01*
X117128571Y-86045714D01*
X117185714Y-85988571D01*
X117242857Y-85874285D01*
X117242857Y-85645714D01*
X117185714Y-85531428D01*
X117128571Y-85474285D01*
X117014286Y-85417142D01*
X116728571Y-85417142D01*
X116614286Y-85474285D01*
X116557143Y-85531428D01*
X116500000Y-85645714D01*
X116500000Y-85874285D01*
X116557143Y-85988571D01*
X116614286Y-86045714D01*
X116728571Y-86102857D01*
X119782857Y-87245714D02*
X118582857Y-87245714D01*
X118582857Y-86788571D01*
X118640000Y-86674285D01*
X118697143Y-86617142D01*
X118811429Y-86559999D01*
X118982857Y-86559999D01*
X119097143Y-86617142D01*
X119154286Y-86674285D01*
X119211429Y-86788571D01*
X119211429Y-87245714D01*
X118582857Y-86159999D02*
X118582857Y-85359999D01*
X119782857Y-85874285D01*
X182959143Y-108116666D02*
X183006762Y-108164285D01*
X183054381Y-108307142D01*
X183054381Y-108402380D01*
X183006762Y-108545238D01*
X182911524Y-108640476D01*
X182816286Y-108688095D01*
X182625810Y-108735714D01*
X182482952Y-108735714D01*
X182292476Y-108688095D01*
X182197238Y-108640476D01*
X182102000Y-108545238D01*
X182054381Y-108402380D01*
X182054381Y-108307142D01*
X182102000Y-108164285D01*
X182149619Y-108116666D01*
X182054381Y-107783333D02*
X182054381Y-107164285D01*
X182435333Y-107497619D01*
X182435333Y-107354761D01*
X182482952Y-107259523D01*
X182530571Y-107211904D01*
X182625810Y-107164285D01*
X182863905Y-107164285D01*
X182959143Y-107211904D01*
X183006762Y-107259523D01*
X183054381Y-107354761D01*
X183054381Y-107640476D01*
X183006762Y-107735714D01*
X182959143Y-107783333D01*
X171797143Y-108116666D02*
X171844762Y-108164285D01*
X171892381Y-108307142D01*
X171892381Y-108402380D01*
X171844762Y-108545238D01*
X171749524Y-108640476D01*
X171654286Y-108688095D01*
X171463810Y-108735714D01*
X171320952Y-108735714D01*
X171130476Y-108688095D01*
X171035238Y-108640476D01*
X170940000Y-108545238D01*
X170892381Y-108402380D01*
X170892381Y-108307142D01*
X170940000Y-108164285D01*
X170987619Y-108116666D01*
X171225714Y-107259523D02*
X171892381Y-107259523D01*
X170844762Y-107497619D02*
X171559048Y-107735714D01*
X171559048Y-107116666D01*
X189499643Y-97702666D02*
X189547262Y-97750285D01*
X189594881Y-97893142D01*
X189594881Y-97988380D01*
X189547262Y-98131238D01*
X189452024Y-98226476D01*
X189356786Y-98274095D01*
X189166310Y-98321714D01*
X189023452Y-98321714D01*
X188832976Y-98274095D01*
X188737738Y-98226476D01*
X188642500Y-98131238D01*
X188594881Y-97988380D01*
X188594881Y-97893142D01*
X188642500Y-97750285D01*
X188690119Y-97702666D01*
X188594881Y-96797904D02*
X188594881Y-97274095D01*
X189071071Y-97321714D01*
X189023452Y-97274095D01*
X188975833Y-97178857D01*
X188975833Y-96940761D01*
X189023452Y-96845523D01*
X189071071Y-96797904D01*
X189166310Y-96750285D01*
X189404405Y-96750285D01*
X189499643Y-96797904D01*
X189547262Y-96845523D01*
X189594881Y-96940761D01*
X189594881Y-97178857D01*
X189547262Y-97274095D01*
X189499643Y-97321714D01*
X181800334Y-104878143D02*
X181752715Y-104925762D01*
X181609858Y-104973381D01*
X181514620Y-104973381D01*
X181371762Y-104925762D01*
X181276524Y-104830524D01*
X181228905Y-104735286D01*
X181181286Y-104544810D01*
X181181286Y-104401952D01*
X181228905Y-104211476D01*
X181276524Y-104116238D01*
X181371762Y-104021000D01*
X181514620Y-103973381D01*
X181609858Y-103973381D01*
X181752715Y-104021000D01*
X181800334Y-104068619D01*
X182657477Y-103973381D02*
X182467000Y-103973381D01*
X182371762Y-104021000D01*
X182324143Y-104068619D01*
X182228905Y-104211476D01*
X182181286Y-104401952D01*
X182181286Y-104782905D01*
X182228905Y-104878143D01*
X182276524Y-104925762D01*
X182371762Y-104973381D01*
X182562239Y-104973381D01*
X182657477Y-104925762D01*
X182705096Y-104878143D01*
X182752715Y-104782905D01*
X182752715Y-104544810D01*
X182705096Y-104449571D01*
X182657477Y-104401952D01*
X182562239Y-104354333D01*
X182371762Y-104354333D01*
X182276524Y-104401952D01*
X182228905Y-104449571D01*
X182181286Y-104544810D01*
X179612143Y-99841666D02*
X179659762Y-99889285D01*
X179707381Y-100032142D01*
X179707381Y-100127380D01*
X179659762Y-100270238D01*
X179564524Y-100365476D01*
X179469286Y-100413095D01*
X179278810Y-100460714D01*
X179135952Y-100460714D01*
X178945476Y-100413095D01*
X178850238Y-100365476D01*
X178755000Y-100270238D01*
X178707381Y-100127380D01*
X178707381Y-100032142D01*
X178755000Y-99889285D01*
X178802619Y-99841666D01*
X178707381Y-99508333D02*
X178707381Y-98841666D01*
X179707381Y-99270238D01*
X167941381Y-56808595D02*
X166941381Y-56808595D01*
X166941381Y-56570500D01*
X166989000Y-56427642D01*
X167084238Y-56332404D01*
X167179476Y-56284785D01*
X167369952Y-56237166D01*
X167512810Y-56237166D01*
X167703286Y-56284785D01*
X167798524Y-56332404D01*
X167893762Y-56427642D01*
X167941381Y-56570500D01*
X167941381Y-56808595D01*
X167941381Y-55284785D02*
X167941381Y-55856214D01*
X167941381Y-55570500D02*
X166941381Y-55570500D01*
X167084238Y-55665738D01*
X167179476Y-55760976D01*
X167227095Y-55856214D01*
X188626667Y-65512381D02*
X188626667Y-66226667D01*
X188579047Y-66369524D01*
X188483809Y-66464762D01*
X188340952Y-66512381D01*
X188245714Y-66512381D01*
X189102857Y-66512381D02*
X189102857Y-65512381D01*
X189483810Y-65512381D01*
X189579048Y-65560000D01*
X189626667Y-65607619D01*
X189674286Y-65702857D01*
X189674286Y-65845714D01*
X189626667Y-65940952D01*
X189579048Y-65988571D01*
X189483810Y-66036190D01*
X189102857Y-66036190D01*
X190626667Y-66512381D02*
X190055238Y-66512381D01*
X190340952Y-66512381D02*
X190340952Y-65512381D01*
X190245714Y-65655238D01*
X190150476Y-65750476D01*
X190055238Y-65798095D01*
X169163834Y-103703381D02*
X168687643Y-103703381D01*
X168687643Y-102703381D01*
X170020977Y-103703381D02*
X169449548Y-103703381D01*
X169735262Y-103703381D02*
X169735262Y-102703381D01*
X169640024Y-102846238D01*
X169544786Y-102941476D01*
X169449548Y-102989095D01*
X195012381Y-113768095D02*
X194012381Y-113768095D01*
X194012381Y-113387142D01*
X194060000Y-113291904D01*
X194107619Y-113244285D01*
X194202857Y-113196666D01*
X194345714Y-113196666D01*
X194440952Y-113244285D01*
X194488571Y-113291904D01*
X194536190Y-113387142D01*
X194536190Y-113768095D01*
X194345714Y-112339523D02*
X195012381Y-112339523D01*
X193964762Y-112577619D02*
X194679048Y-112815714D01*
X194679048Y-112196666D01*
X167449334Y-71812381D02*
X167116000Y-71336190D01*
X166877905Y-71812381D02*
X166877905Y-70812381D01*
X167258858Y-70812381D01*
X167354096Y-70860000D01*
X167401715Y-70907619D01*
X167449334Y-71002857D01*
X167449334Y-71145714D01*
X167401715Y-71240952D01*
X167354096Y-71288571D01*
X167258858Y-71336190D01*
X166877905Y-71336190D01*
X167782667Y-70812381D02*
X168401715Y-70812381D01*
X168068381Y-71193333D01*
X168211239Y-71193333D01*
X168306477Y-71240952D01*
X168354096Y-71288571D01*
X168401715Y-71383810D01*
X168401715Y-71621905D01*
X168354096Y-71717143D01*
X168306477Y-71764762D01*
X168211239Y-71812381D01*
X167925524Y-71812381D01*
X167830286Y-71764762D01*
X167782667Y-71717143D01*
X186601667Y-62092666D02*
X186268333Y-62326000D01*
X186601667Y-62492666D02*
X185901667Y-62492666D01*
X185901667Y-62226000D01*
X185935000Y-62159333D01*
X185968333Y-62126000D01*
X186035000Y-62092666D01*
X186135000Y-62092666D01*
X186201667Y-62126000D01*
X186235000Y-62159333D01*
X186268333Y-62226000D01*
X186268333Y-62492666D01*
X185901667Y-61459333D02*
X185901667Y-61792666D01*
X186235000Y-61826000D01*
X186201667Y-61792666D01*
X186168333Y-61726000D01*
X186168333Y-61559333D01*
X186201667Y-61492666D01*
X186235000Y-61459333D01*
X186301667Y-61426000D01*
X186468333Y-61426000D01*
X186535000Y-61459333D01*
X186568333Y-61492666D01*
X186601667Y-61559333D01*
X186601667Y-61726000D01*
X186568333Y-61792666D01*
X186535000Y-61826000D01*
X195008262Y-106425833D02*
X195055881Y-106282976D01*
X195055881Y-106044880D01*
X195008262Y-105949642D01*
X194960643Y-105902023D01*
X194865405Y-105854404D01*
X194770167Y-105854404D01*
X194674929Y-105902023D01*
X194627310Y-105949642D01*
X194579690Y-106044880D01*
X194532071Y-106235357D01*
X194484452Y-106330595D01*
X194436833Y-106378214D01*
X194341595Y-106425833D01*
X194246357Y-106425833D01*
X194151119Y-106378214D01*
X194103500Y-106330595D01*
X194055881Y-106235357D01*
X194055881Y-105997261D01*
X194103500Y-105854404D01*
X194055881Y-105521071D02*
X195055881Y-105282976D01*
X194341595Y-105092499D01*
X195055881Y-104902023D01*
X194055881Y-104663928D01*
X194055881Y-104378214D02*
X194055881Y-103759166D01*
X194436833Y-104092500D01*
X194436833Y-103949642D01*
X194484452Y-103854404D01*
X194532071Y-103806785D01*
X194627310Y-103759166D01*
X194865405Y-103759166D01*
X194960643Y-103806785D01*
X195008262Y-103854404D01*
X195055881Y-103949642D01*
X195055881Y-104235357D01*
X195008262Y-104330595D01*
X194960643Y-104378214D01*
X179595357Y-62445786D02*
X180566786Y-62445786D01*
X180681071Y-62388643D01*
X180738214Y-62331500D01*
X180795357Y-62217214D01*
X180795357Y-61988643D01*
X180738214Y-61874357D01*
X180681071Y-61817214D01*
X180566786Y-61760071D01*
X179595357Y-61760071D01*
X180795357Y-60560071D02*
X180795357Y-61245786D01*
X180795357Y-60902928D02*
X179595357Y-60902928D01*
X179766786Y-61017214D01*
X179881071Y-61131500D01*
X179938214Y-61245786D01*
X188063095Y-108037381D02*
X188063095Y-108846905D01*
X188110714Y-108942143D01*
X188158333Y-108989762D01*
X188253571Y-109037381D01*
X188444048Y-109037381D01*
X188539286Y-108989762D01*
X188586905Y-108942143D01*
X188634524Y-108846905D01*
X188634524Y-108037381D01*
X189063095Y-108132619D02*
X189110714Y-108085000D01*
X189205952Y-108037381D01*
X189444048Y-108037381D01*
X189539286Y-108085000D01*
X189586905Y-108132619D01*
X189634524Y-108227857D01*
X189634524Y-108323095D01*
X189586905Y-108465952D01*
X189015476Y-109037381D01*
X189634524Y-109037381D01*
X172188095Y-108037381D02*
X172188095Y-108846905D01*
X172235714Y-108942143D01*
X172283333Y-108989762D01*
X172378571Y-109037381D01*
X172569048Y-109037381D01*
X172664286Y-108989762D01*
X172711905Y-108942143D01*
X172759524Y-108846905D01*
X172759524Y-108037381D01*
X173140476Y-108037381D02*
X173759524Y-108037381D01*
X173426190Y-108418333D01*
X173569048Y-108418333D01*
X173664286Y-108465952D01*
X173711905Y-108513571D01*
X173759524Y-108608810D01*
X173759524Y-108846905D01*
X173711905Y-108942143D01*
X173664286Y-108989762D01*
X173569048Y-109037381D01*
X173283333Y-109037381D01*
X173188095Y-108989762D01*
X173140476Y-108942143D01*
X186285095Y-98639381D02*
X186285095Y-99448905D01*
X186332714Y-99544143D01*
X186380333Y-99591762D01*
X186475571Y-99639381D01*
X186666048Y-99639381D01*
X186761286Y-99591762D01*
X186808905Y-99544143D01*
X186856524Y-99448905D01*
X186856524Y-98639381D01*
X187761286Y-98972714D02*
X187761286Y-99639381D01*
X187523190Y-98591762D02*
X187285095Y-99306048D01*
X187904143Y-99306048D01*
X182242857Y-87245714D02*
X181042857Y-87245714D01*
X181042857Y-86788571D01*
X181100000Y-86674285D01*
X181157143Y-86617142D01*
X181271429Y-86559999D01*
X181442857Y-86559999D01*
X181557143Y-86617142D01*
X181614286Y-86674285D01*
X181671429Y-86788571D01*
X181671429Y-87245714D01*
X181042857Y-85531428D02*
X181042857Y-85759999D01*
X181100000Y-85874285D01*
X181157143Y-85931428D01*
X181328571Y-86045714D01*
X181557143Y-86102857D01*
X182014286Y-86102857D01*
X182128571Y-86045714D01*
X182185714Y-85988571D01*
X182242857Y-85874285D01*
X182242857Y-85645714D01*
X182185714Y-85531428D01*
X182128571Y-85474285D01*
X182014286Y-85417142D01*
X181728571Y-85417142D01*
X181614286Y-85474285D01*
X181557143Y-85531428D01*
X181500000Y-85645714D01*
X181500000Y-85874285D01*
X181557143Y-85988571D01*
X181614286Y-86045714D01*
X181728571Y-86102857D01*
X184782857Y-87245714D02*
X183582857Y-87245714D01*
X183582857Y-86788571D01*
X183640000Y-86674285D01*
X183697143Y-86617142D01*
X183811429Y-86559999D01*
X183982857Y-86559999D01*
X184097143Y-86617142D01*
X184154286Y-86674285D01*
X184211429Y-86788571D01*
X184211429Y-87245714D01*
X183582857Y-86159999D02*
X183582857Y-85359999D01*
X184782857Y-85874285D01*
M02*
