M48
;DRILL file {KiCad 4.0.2-4+6225~38~ubuntu15.04.1-stable} date 2016年04月15日 16時15分50秒
;FORMAT={-:-/ absolute / inch / decimal}
FMAT,2
INCH,TZ
T1C0.016
T2C0.024
T3C0.030
T4C0.031
T5C0.032
T6C0.039
T7C0.040
%
G90
G05
M72
T1
X3.96Y-2.9
X4.12Y-4.25
X4.15Y-2.56
X4.15Y-2.85
X4.2Y-2.47
X4.27Y-2.18
X4.28Y-2.37
X4.32Y-2.88
X4.3275Y-2.6
X4.33Y-2.7025
X4.3313Y-2.76
X4.3575Y-2.545
X4.37Y-2.86
X4.385Y-3.9125
X4.4025Y-2.535
X4.41Y-2.21
X4.4275Y-3.8875
X4.43Y-2.86
X4.435Y-2.805
X4.435Y-4.08
X4.445Y-4.115
X4.46Y-2.47
X4.49Y-2.7275
X4.49Y-2.87
X4.4962Y-2.63
X4.525Y-4.125
X4.545Y-2.5875
X4.545Y-4.2825
X4.55Y-3.9
X4.62Y-2.8
X4.625Y-4.37
X4.67Y-2.165
X4.685Y-2.345
X4.7Y-3.85
X4.7125Y-2.7025
X4.7275Y-2.105
X4.755Y-4.1
X4.7925Y-2.51
X4.8125Y-4.1425
X4.815Y-2.09
X4.8325Y-3.9375
X4.865Y-3.925
X4.865Y-4.1375
X4.98Y-4.25
X5.0075Y-2.155
X5.015Y-2.1975
X5.04Y-2.745
X5.045Y-2.36
X5.045Y-2.64
X5.05Y-2.555
X5.0625Y-2.135
X5.0675Y-2.25
X5.1Y-4.25
X5.2395Y-2.9
X5.3995Y-4.25
X5.4295Y-2.56
X5.4295Y-2.85
X5.4795Y-2.47
X5.5495Y-2.18
X5.5595Y-2.37
X5.5995Y-2.88
X5.607Y-2.6
X5.6095Y-2.7025
X5.6108Y-2.76
X5.637Y-2.545
X5.6495Y-2.86
X5.6645Y-3.9125
X5.682Y-2.535
X5.6895Y-2.21
X5.707Y-3.8875
X5.7095Y-2.86
X5.7145Y-2.805
X5.7145Y-4.08
X5.7245Y-4.115
X5.7395Y-2.47
X5.7695Y-2.7275
X5.7695Y-2.87
X5.7758Y-2.63
X5.8045Y-4.125
X5.8245Y-2.5875
X5.8245Y-4.2825
X5.8295Y-3.9
X5.8995Y-2.8
X5.9045Y-4.37
X5.9495Y-2.165
X5.9645Y-2.345
X5.9795Y-3.85
X5.992Y-2.7025
X6.007Y-2.105
X6.0345Y-4.1
X6.072Y-2.51
X6.092Y-4.1425
X6.0945Y-2.09
X6.112Y-3.9375
X6.1445Y-3.925
X6.1445Y-4.1375
X6.2595Y-4.25
X6.287Y-2.155
X6.2945Y-2.1975
X6.3195Y-2.745
X6.3245Y-2.36
X6.3245Y-2.64
X6.3295Y-2.555
X6.342Y-2.135
X6.347Y-2.25
X6.3795Y-4.25
X6.5191Y-2.9
X6.6791Y-4.25
X6.7091Y-2.56
X6.7091Y-2.85
X6.7591Y-2.47
X6.8291Y-2.18
X6.8391Y-2.37
X6.8791Y-2.88
X6.8866Y-2.6
X6.8891Y-2.7025
X6.8903Y-2.76
X6.9166Y-2.545
X6.9291Y-2.86
X6.9441Y-3.9125
X6.9616Y-2.535
X6.9691Y-2.21
X6.9866Y-3.8875
X6.9891Y-2.86
X6.9941Y-2.805
X6.9941Y-4.08
X7.0041Y-4.115
X7.0191Y-2.47
X7.0491Y-2.7275
X7.0491Y-2.87
X7.0553Y-2.63
X7.0841Y-4.125
X7.1041Y-2.5875
X7.1041Y-4.2825
X7.1091Y-3.9
X7.1791Y-2.8
X7.1841Y-4.37
X7.2291Y-2.165
X7.2441Y-2.345
X7.2591Y-3.85
X7.2716Y-2.7025
X7.2866Y-2.105
X7.3141Y-4.1
X7.3516Y-2.51
X7.3716Y-4.1425
X7.3741Y-2.09
X7.3916Y-3.9375
X7.4241Y-3.925
X7.4241Y-4.1375
X7.5391Y-4.25
X7.5666Y-2.155
X7.5741Y-2.1975
X7.5991Y-2.745
X7.6041Y-2.36
X7.6041Y-2.64
X7.6091Y-2.555
X7.6216Y-2.135
X7.6266Y-2.25
X7.6591Y-4.25
T2
X4.2337Y-2.2252
X4.777Y-2.2252
X5.5132Y-2.2252
X6.0565Y-2.2252
X6.7927Y-2.2252
X7.336Y-2.2252
T3
X4.4Y-2.075
X4.55Y-4.35
X4.55Y-4.4
X4.55Y-4.45
X4.55Y-4.5
X4.6Y-2.075
X5.6795Y-2.075
X5.8295Y-4.35
X5.8295Y-4.4
X5.8295Y-4.45
X5.8295Y-4.5
X5.8795Y-2.075
X6.9591Y-2.075
X7.1091Y-4.35
X7.1091Y-4.4
X7.1091Y-4.45
X7.1091Y-4.5
X7.1591Y-2.075
T4
X4.2Y-3.75
X4.3Y-3.05
X4.3Y-3.15
X4.3Y-3.25
X4.3Y-3.35
X4.3Y-3.45
X4.3Y-3.55
X4.3Y-3.65
X4.3Y-3.75
X4.3Y-3.75
X4.325Y-3.875
X4.325Y-3.9734
X4.4Y-3.05
X4.4Y-3.15
X4.4Y-3.25
X4.4Y-3.35
X4.4Y-3.45
X4.4Y-3.55
X4.4Y-3.65
X4.4Y-3.75
X4.5Y-2.95
X4.5Y-3.05
X4.5Y-3.15
X4.5Y-3.25
X4.5Y-3.35
X4.5Y-3.45
X4.5Y-3.55
X4.5Y-3.65
X4.5Y-3.75
X4.5Y-3.85
X4.6Y-2.95
X4.6Y-3.05
X4.6Y-3.15
X4.6Y-3.25
X4.6Y-3.35
X4.6Y-3.45
X4.6Y-3.55
X4.6Y-3.65
X4.6Y-3.75
X4.6Y-3.85
X4.7Y-3.05
X4.7Y-3.15
X4.7Y-3.25
X4.7Y-3.35
X4.7Y-3.45
X4.7Y-3.55
X4.7Y-3.65
X4.7Y-3.75
X4.8Y-3.05
X4.8Y-3.15
X4.8Y-3.25
X4.8Y-3.35
X4.8Y-3.45
X4.8Y-3.55
X4.8Y-3.65
X4.8Y-3.75
X4.8Y-3.75
X4.9Y-3.75
X5.4795Y-3.75
X5.5795Y-3.05
X5.5795Y-3.15
X5.5795Y-3.25
X5.5795Y-3.35
X5.5795Y-3.45
X5.5795Y-3.55
X5.5795Y-3.65
X5.5795Y-3.75
X5.5795Y-3.75
X5.6045Y-3.875
X5.6045Y-3.9734
X5.6795Y-3.05
X5.6795Y-3.15
X5.6795Y-3.25
X5.6795Y-3.35
X5.6795Y-3.45
X5.6795Y-3.55
X5.6795Y-3.65
X5.6795Y-3.75
X5.7795Y-2.95
X5.7795Y-3.05
X5.7795Y-3.15
X5.7795Y-3.25
X5.7795Y-3.35
X5.7795Y-3.45
X5.7795Y-3.55
X5.7795Y-3.65
X5.7795Y-3.75
X5.7795Y-3.85
X5.8795Y-2.95
X5.8795Y-3.05
X5.8795Y-3.15
X5.8795Y-3.25
X5.8795Y-3.35
X5.8795Y-3.45
X5.8795Y-3.55
X5.8795Y-3.65
X5.8795Y-3.75
X5.8795Y-3.85
X5.9795Y-3.05
X5.9795Y-3.15
X5.9795Y-3.25
X5.9795Y-3.35
X5.9795Y-3.45
X5.9795Y-3.55
X5.9795Y-3.65
X5.9795Y-3.75
X6.0795Y-3.05
X6.0795Y-3.15
X6.0795Y-3.25
X6.0795Y-3.35
X6.0795Y-3.45
X6.0795Y-3.55
X6.0795Y-3.65
X6.0795Y-3.75
X6.0795Y-3.75
X6.1795Y-3.75
X6.7591Y-3.75
X6.8591Y-3.05
X6.8591Y-3.15
X6.8591Y-3.25
X6.8591Y-3.35
X6.8591Y-3.45
X6.8591Y-3.55
X6.8591Y-3.65
X6.8591Y-3.75
X6.8591Y-3.75
X6.8841Y-3.875
X6.8841Y-3.9734
X6.9591Y-3.05
X6.9591Y-3.15
X6.9591Y-3.25
X6.9591Y-3.35
X6.9591Y-3.45
X6.9591Y-3.55
X6.9591Y-3.65
X6.9591Y-3.75
X7.0591Y-2.95
X7.0591Y-3.05
X7.0591Y-3.15
X7.0591Y-3.25
X7.0591Y-3.35
X7.0591Y-3.45
X7.0591Y-3.55
X7.0591Y-3.65
X7.0591Y-3.75
X7.0591Y-3.85
X7.1591Y-2.95
X7.1591Y-3.05
X7.1591Y-3.15
X7.1591Y-3.25
X7.1591Y-3.35
X7.1591Y-3.45
X7.1591Y-3.55
X7.1591Y-3.65
X7.1591Y-3.75
X7.1591Y-3.85
X7.2591Y-3.05
X7.2591Y-3.15
X7.2591Y-3.25
X7.2591Y-3.35
X7.2591Y-3.45
X7.2591Y-3.55
X7.2591Y-3.65
X7.2591Y-3.75
X7.3591Y-3.05
X7.3591Y-3.15
X7.3591Y-3.25
X7.3591Y-3.35
X7.3591Y-3.45
X7.3591Y-3.55
X7.3591Y-3.65
X7.3591Y-3.75
X7.3591Y-3.75
X7.4591Y-3.75
T5
X4.9Y-2.075
X5.Y-2.075
X5.1Y-2.075
X5.1Y-4.25
X5.1Y-4.35
X5.1Y-4.45
X6.1795Y-2.075
X6.2795Y-2.075
X6.3795Y-2.075
X6.3795Y-4.25
X6.3795Y-4.35
X6.3795Y-4.45
X7.4591Y-2.075
X7.5591Y-2.075
X7.6591Y-2.075
X7.6591Y-4.25
X7.6591Y-4.35
X7.6591Y-4.45
T6
X3.98Y-2.09
X4.08Y-2.09
X4.7Y-4.
X4.8Y-4.
X4.9Y-4.
X5.2595Y-2.09
X5.3595Y-2.09
X5.9795Y-4.
X6.0795Y-4.
X6.1795Y-4.
X6.5391Y-2.09
X6.6391Y-2.09
X7.2591Y-4.
X7.3591Y-4.
X7.4591Y-4.
T7
X4.Y-3.65
X4.Y-3.75
X4.Y-3.85
X4.Y-3.95
X4.2Y-4.45
X4.3Y-4.45
X4.8Y-4.45
X4.9Y-2.2
X4.9Y-2.3
X4.9Y-2.4
X4.9Y-2.5
X4.9Y-2.6
X4.9Y-2.7
X4.9Y-2.8
X4.9Y-2.9
X4.9Y-4.45
X5.1Y-2.2
X5.1Y-2.3
X5.1Y-2.4
X5.1Y-2.5
X5.1Y-2.6
X5.1Y-2.7
X5.1Y-2.8
X5.1Y-2.9
X5.1Y-3.65
X5.1Y-3.75
X5.1Y-3.85
X5.2795Y-3.65
X5.2795Y-3.75
X5.2795Y-3.85
X5.2795Y-3.95
X5.4795Y-4.45
X5.5795Y-4.45
X6.0795Y-4.45
X6.1795Y-2.2
X6.1795Y-2.3
X6.1795Y-2.4
X6.1795Y-2.5
X6.1795Y-2.6
X6.1795Y-2.7
X6.1795Y-2.8
X6.1795Y-2.9
X6.1795Y-4.45
X6.3795Y-2.2
X6.3795Y-2.3
X6.3795Y-2.4
X6.3795Y-2.5
X6.3795Y-2.6
X6.3795Y-2.7
X6.3795Y-2.8
X6.3795Y-2.9
X6.3795Y-3.65
X6.3795Y-3.75
X6.3795Y-3.85
X6.5591Y-3.65
X6.5591Y-3.75
X6.5591Y-3.85
X6.5591Y-3.95
X6.7591Y-4.45
X6.8591Y-4.45
X7.3591Y-4.45
X7.4591Y-2.2
X7.4591Y-2.3
X7.4591Y-2.4
X7.4591Y-2.5
X7.4591Y-2.6
X7.4591Y-2.7
X7.4591Y-2.8
X7.4591Y-2.9
X7.4591Y-4.45
X7.6591Y-2.2
X7.6591Y-2.3
X7.6591Y-2.4
X7.6591Y-2.5
X7.6591Y-2.6
X7.6591Y-2.7
X7.6591Y-2.8
X7.6591Y-2.9
X7.6591Y-3.65
X7.6591Y-3.75
X7.6591Y-3.85
T0
M30
