G04 #@! TF.FileFunction,Profile,NP*
%FSLAX46Y46*%
G04 Gerber Fmt 4.6, Leading zero omitted, Abs format (unit mm)*
G04 Created by KiCad (PCBNEW 4.0.2-4+6225~38~ubuntu15.04.1-stable) date 2016年04月15日 16時13分23秒*
%MOMM*%
G01*
G04 APERTURE LIST*
%ADD10C,0.100000*%
%ADD11C,0.150000*%
G04 APERTURE END LIST*
D10*
D11*
X131000000Y-91500000D02*
X131900000Y-91500000D01*
X131000000Y-115100000D02*
X131900000Y-115100000D01*
X163500000Y-115100000D02*
X164400000Y-115100000D01*
X164400000Y-91500000D02*
X164400000Y-91600000D01*
X163500000Y-91500000D02*
X164400000Y-91500000D01*
X155500000Y-75800000D02*
X155500000Y-90900000D01*
X140900000Y-75700000D02*
X140900000Y-90900000D01*
X155500000Y-90900000D02*
G75*
G03X155500000Y-91500000I0J-300000D01*
G01*
X140900000Y-91500000D02*
G75*
G03X140900000Y-90900000I0J300000D01*
G01*
X155500000Y-75100000D02*
G75*
G03X155500000Y-75700000I0J-300000D01*
G01*
X140900000Y-75700000D02*
G75*
G03X140900000Y-75100000I0J300000D01*
G01*
X155500000Y-75108000D02*
X163500000Y-75108000D01*
X163500000Y-91508000D02*
X155500000Y-91508000D01*
X131900000Y-115108000D02*
X163500000Y-115108000D01*
X140900000Y-91508000D02*
X131900000Y-91508000D01*
X131900000Y-75108000D02*
X140900000Y-75108000D01*
X163500000Y-51508000D02*
X131900000Y-51508000D01*
X123000000Y-75800000D02*
X123000000Y-90900000D01*
X108400000Y-75700000D02*
X108400000Y-90900000D01*
X123000000Y-90900000D02*
G75*
G03X123000000Y-91500000I0J-300000D01*
G01*
X108400000Y-91500000D02*
G75*
G03X108400000Y-90900000I0J300000D01*
G01*
X123000000Y-75100000D02*
G75*
G03X123000000Y-75700000I0J-300000D01*
G01*
X108400000Y-75700000D02*
G75*
G03X108400000Y-75100000I0J300000D01*
G01*
X123000000Y-75108000D02*
X131000000Y-75108000D01*
X131000000Y-91508000D02*
X123000000Y-91508000D01*
X99400000Y-115108000D02*
X131000000Y-115108000D01*
X99400000Y-91508000D02*
X99400000Y-115108000D01*
X108400000Y-91508000D02*
X99400000Y-91508000D01*
X99400000Y-75108000D02*
X108400000Y-75108000D01*
X99400000Y-51508000D02*
X99400000Y-75108000D01*
X131000000Y-51508000D02*
X99400000Y-51508000D01*
X188000000Y-75800000D02*
X188000000Y-90900000D01*
X173400000Y-75700000D02*
X173400000Y-90900000D01*
X188000000Y-90900000D02*
G75*
G03X188000000Y-91500000I0J-300000D01*
G01*
X173400000Y-91500000D02*
G75*
G03X173400000Y-90900000I0J300000D01*
G01*
X188000000Y-75100000D02*
G75*
G03X188000000Y-75700000I0J-300000D01*
G01*
X173400000Y-75700000D02*
G75*
G03X173400000Y-75100000I0J300000D01*
G01*
X196000000Y-75108000D02*
X196000000Y-51508000D01*
X188000000Y-75108000D02*
X196000000Y-75108000D01*
X196000000Y-91508000D02*
X188000000Y-91508000D01*
X196000000Y-115108000D02*
X196000000Y-91508000D01*
X164400000Y-115108000D02*
X196000000Y-115108000D01*
X173400000Y-91508000D02*
X164400000Y-91508000D01*
X164400000Y-75108000D02*
X173400000Y-75108000D01*
X196000000Y-51508000D02*
X164400000Y-51508000D01*
M02*
