G04 #@! TF.FileFunction,Legend,Bot*
%FSLAX46Y46*%
G04 Gerber Fmt 4.6, Leading zero omitted, Abs format (unit mm)*
G04 Created by KiCad (PCBNEW 4.0.2-4+6225~38~ubuntu15.04.1-stable) date 2016年04月15日 16時13分23秒*
%MOMM*%
G01*
G04 APERTURE LIST*
%ADD10C,0.100000*%
%ADD11C,0.200000*%
%ADD12C,0.150000*%
%ADD13C,0.304800*%
G04 APERTURE END LIST*
D10*
D11*
X136346381Y-69961357D02*
X136346381Y-70580405D01*
X136727333Y-70247071D01*
X136727333Y-70389929D01*
X136774952Y-70485167D01*
X136822571Y-70532786D01*
X136917810Y-70580405D01*
X137155905Y-70580405D01*
X137251143Y-70532786D01*
X137298762Y-70485167D01*
X137346381Y-70389929D01*
X137346381Y-70104214D01*
X137298762Y-70008976D01*
X137251143Y-69961357D01*
X136346381Y-70913738D02*
X136346381Y-71532786D01*
X136727333Y-71199452D01*
X136727333Y-71342310D01*
X136774952Y-71437548D01*
X136822571Y-71485167D01*
X136917810Y-71532786D01*
X137155905Y-71532786D01*
X137251143Y-71485167D01*
X137298762Y-71437548D01*
X137346381Y-71342310D01*
X137346381Y-71056595D01*
X137298762Y-70961357D01*
X137251143Y-70913738D01*
X136346381Y-72151833D02*
X136346381Y-72247072D01*
X136394000Y-72342310D01*
X136441619Y-72389929D01*
X136536857Y-72437548D01*
X136727333Y-72485167D01*
X136965429Y-72485167D01*
X137155905Y-72437548D01*
X137251143Y-72389929D01*
X137298762Y-72342310D01*
X137346381Y-72247072D01*
X137346381Y-72151833D01*
X137298762Y-72056595D01*
X137251143Y-72008976D01*
X137155905Y-71961357D01*
X136965429Y-71913738D01*
X136727333Y-71913738D01*
X136536857Y-71961357D01*
X136441619Y-72008976D01*
X136394000Y-72056595D01*
X136346381Y-72151833D01*
X137346381Y-72866119D02*
X137346381Y-73104214D01*
X137155905Y-73104214D01*
X137108286Y-73008976D01*
X137013048Y-72913738D01*
X136870190Y-72866119D01*
X136632095Y-72866119D01*
X136489238Y-72913738D01*
X136394000Y-73008976D01*
X136346381Y-73151833D01*
X136346381Y-73342310D01*
X136394000Y-73485167D01*
X136489238Y-73580405D01*
X136632095Y-73628024D01*
X136870190Y-73628024D01*
X137013048Y-73580405D01*
X137108286Y-73485167D01*
X137155905Y-73389929D01*
X137346381Y-73389929D01*
X137346381Y-73628024D01*
X153038643Y-109751881D02*
X152419595Y-109751881D01*
X152752929Y-110132833D01*
X152610071Y-110132833D01*
X152514833Y-110180452D01*
X152467214Y-110228071D01*
X152419595Y-110323310D01*
X152419595Y-110561405D01*
X152467214Y-110656643D01*
X152514833Y-110704262D01*
X152610071Y-110751881D01*
X152895786Y-110751881D01*
X152991024Y-110704262D01*
X153038643Y-110656643D01*
X152086262Y-109751881D02*
X151467214Y-109751881D01*
X151800548Y-110132833D01*
X151657690Y-110132833D01*
X151562452Y-110180452D01*
X151514833Y-110228071D01*
X151467214Y-110323310D01*
X151467214Y-110561405D01*
X151514833Y-110656643D01*
X151562452Y-110704262D01*
X151657690Y-110751881D01*
X151943405Y-110751881D01*
X152038643Y-110704262D01*
X152086262Y-110656643D01*
X150848167Y-109751881D02*
X150752928Y-109751881D01*
X150657690Y-109799500D01*
X150610071Y-109847119D01*
X150562452Y-109942357D01*
X150514833Y-110132833D01*
X150514833Y-110370929D01*
X150562452Y-110561405D01*
X150610071Y-110656643D01*
X150657690Y-110704262D01*
X150752928Y-110751881D01*
X150848167Y-110751881D01*
X150943405Y-110704262D01*
X150991024Y-110656643D01*
X151038643Y-110561405D01*
X151086262Y-110370929D01*
X151086262Y-110132833D01*
X151038643Y-109942357D01*
X150991024Y-109847119D01*
X150943405Y-109799500D01*
X150848167Y-109751881D01*
X150133881Y-110751881D02*
X149895786Y-110751881D01*
X149895786Y-110561405D01*
X149991024Y-110513786D01*
X150086262Y-110418548D01*
X150133881Y-110275690D01*
X150133881Y-110037595D01*
X150086262Y-109894738D01*
X149991024Y-109799500D01*
X149848167Y-109751881D01*
X149657690Y-109751881D01*
X149514833Y-109799500D01*
X149419595Y-109894738D01*
X149371976Y-110037595D01*
X149371976Y-110275690D01*
X149419595Y-110418548D01*
X149514833Y-110513786D01*
X149610071Y-110561405D01*
X149610071Y-110751881D01*
X149371976Y-110751881D01*
X140338643Y-110577381D02*
X139719595Y-110577381D01*
X140052929Y-110958333D01*
X139910071Y-110958333D01*
X139814833Y-111005952D01*
X139767214Y-111053571D01*
X139719595Y-111148810D01*
X139719595Y-111386905D01*
X139767214Y-111482143D01*
X139814833Y-111529762D01*
X139910071Y-111577381D01*
X140195786Y-111577381D01*
X140291024Y-111529762D01*
X140338643Y-111482143D01*
X139386262Y-110577381D02*
X138767214Y-110577381D01*
X139100548Y-110958333D01*
X138957690Y-110958333D01*
X138862452Y-111005952D01*
X138814833Y-111053571D01*
X138767214Y-111148810D01*
X138767214Y-111386905D01*
X138814833Y-111482143D01*
X138862452Y-111529762D01*
X138957690Y-111577381D01*
X139243405Y-111577381D01*
X139338643Y-111529762D01*
X139386262Y-111482143D01*
X138148167Y-110577381D02*
X138052928Y-110577381D01*
X137957690Y-110625000D01*
X137910071Y-110672619D01*
X137862452Y-110767857D01*
X137814833Y-110958333D01*
X137814833Y-111196429D01*
X137862452Y-111386905D01*
X137910071Y-111482143D01*
X137957690Y-111529762D01*
X138052928Y-111577381D01*
X138148167Y-111577381D01*
X138243405Y-111529762D01*
X138291024Y-111482143D01*
X138338643Y-111386905D01*
X138386262Y-111196429D01*
X138386262Y-110958333D01*
X138338643Y-110767857D01*
X138291024Y-110672619D01*
X138243405Y-110625000D01*
X138148167Y-110577381D01*
X137433881Y-111577381D02*
X137195786Y-111577381D01*
X137195786Y-111386905D01*
X137291024Y-111339286D01*
X137386262Y-111244048D01*
X137433881Y-111101190D01*
X137433881Y-110863095D01*
X137386262Y-110720238D01*
X137291024Y-110625000D01*
X137148167Y-110577381D01*
X136957690Y-110577381D01*
X136814833Y-110625000D01*
X136719595Y-110720238D01*
X136671976Y-110863095D01*
X136671976Y-111101190D01*
X136719595Y-111244048D01*
X136814833Y-111339286D01*
X136910071Y-111386905D01*
X136910071Y-111577381D01*
X136671976Y-111577381D01*
X140402143Y-103909881D02*
X139783095Y-103909881D01*
X140116429Y-104290833D01*
X139973571Y-104290833D01*
X139878333Y-104338452D01*
X139830714Y-104386071D01*
X139783095Y-104481310D01*
X139783095Y-104719405D01*
X139830714Y-104814643D01*
X139878333Y-104862262D01*
X139973571Y-104909881D01*
X140259286Y-104909881D01*
X140354524Y-104862262D01*
X140402143Y-104814643D01*
X139449762Y-103909881D02*
X138830714Y-103909881D01*
X139164048Y-104290833D01*
X139021190Y-104290833D01*
X138925952Y-104338452D01*
X138878333Y-104386071D01*
X138830714Y-104481310D01*
X138830714Y-104719405D01*
X138878333Y-104814643D01*
X138925952Y-104862262D01*
X139021190Y-104909881D01*
X139306905Y-104909881D01*
X139402143Y-104862262D01*
X139449762Y-104814643D01*
X138211667Y-103909881D02*
X138116428Y-103909881D01*
X138021190Y-103957500D01*
X137973571Y-104005119D01*
X137925952Y-104100357D01*
X137878333Y-104290833D01*
X137878333Y-104528929D01*
X137925952Y-104719405D01*
X137973571Y-104814643D01*
X138021190Y-104862262D01*
X138116428Y-104909881D01*
X138211667Y-104909881D01*
X138306905Y-104862262D01*
X138354524Y-104814643D01*
X138402143Y-104719405D01*
X138449762Y-104528929D01*
X138449762Y-104290833D01*
X138402143Y-104100357D01*
X138354524Y-104005119D01*
X138306905Y-103957500D01*
X138211667Y-103909881D01*
X137497381Y-104909881D02*
X137259286Y-104909881D01*
X137259286Y-104719405D01*
X137354524Y-104671786D01*
X137449762Y-104576548D01*
X137497381Y-104433690D01*
X137497381Y-104195595D01*
X137449762Y-104052738D01*
X137354524Y-103957500D01*
X137211667Y-103909881D01*
X137021190Y-103909881D01*
X136878333Y-103957500D01*
X136783095Y-104052738D01*
X136735476Y-104195595D01*
X136735476Y-104433690D01*
X136783095Y-104576548D01*
X136878333Y-104671786D01*
X136973571Y-104719405D01*
X136973571Y-104909881D01*
X136735476Y-104909881D01*
X155197642Y-53093881D02*
X155197642Y-52331976D01*
X155245261Y-53046262D02*
X155245261Y-52379595D01*
X155292880Y-53046262D02*
X155292880Y-52379595D01*
X155340499Y-52998643D02*
X155340499Y-52427214D01*
X155388118Y-52998643D02*
X155388118Y-52427214D01*
X155435737Y-52951024D02*
X155435737Y-52474833D01*
X155483356Y-52951024D02*
X155483356Y-52474833D01*
X155530975Y-52903405D02*
X155530975Y-52522452D01*
X155578594Y-52855786D02*
X155578594Y-52570071D01*
X155626213Y-52855786D02*
X155626213Y-52570071D01*
X155673833Y-52808167D02*
X155673833Y-52617690D01*
X155721452Y-52808167D02*
X155721452Y-52617690D01*
X155769071Y-52712929D02*
X155816690Y-52712929D01*
X155769071Y-52760548D02*
X155769071Y-52665310D01*
X155150023Y-53093881D02*
X155864309Y-52712929D01*
X155150023Y-52331976D01*
X155911928Y-52712929D02*
X155150023Y-52284357D01*
X155150023Y-53141500D01*
X155911928Y-52712929D01*
X154721452Y-53046262D02*
X154578595Y-53093881D01*
X154340499Y-53093881D01*
X154245261Y-53046262D01*
X154197642Y-52998643D01*
X154150023Y-52903405D01*
X154150023Y-52808167D01*
X154197642Y-52712929D01*
X154245261Y-52665310D01*
X154340499Y-52617690D01*
X154530976Y-52570071D01*
X154626214Y-52522452D01*
X154673833Y-52474833D01*
X154721452Y-52379595D01*
X154721452Y-52284357D01*
X154673833Y-52189119D01*
X154626214Y-52141500D01*
X154530976Y-52093881D01*
X154292880Y-52093881D01*
X154150023Y-52141500D01*
X153816690Y-52093881D02*
X153578595Y-53093881D01*
X153388118Y-52379595D01*
X153197642Y-53093881D01*
X152959547Y-52093881D01*
X152816690Y-53189119D02*
X152054785Y-53189119D01*
X151816690Y-53093881D02*
X151816690Y-52093881D01*
X151340500Y-53093881D02*
X151340500Y-52093881D01*
X150769071Y-53093881D01*
X150769071Y-52093881D01*
X142616833Y-51903381D02*
X142616833Y-52617667D01*
X142664453Y-52760524D01*
X142759691Y-52855762D01*
X142902548Y-52903381D01*
X142997786Y-52903381D01*
X142140643Y-52903381D02*
X142140643Y-51903381D01*
X141759690Y-51903381D01*
X141664452Y-51951000D01*
X141616833Y-51998619D01*
X141569214Y-52093857D01*
X141569214Y-52236714D01*
X141616833Y-52331952D01*
X141664452Y-52379571D01*
X141759690Y-52427190D01*
X142140643Y-52427190D01*
X141188262Y-51998619D02*
X141140643Y-51951000D01*
X141045405Y-51903381D01*
X140807309Y-51903381D01*
X140712071Y-51951000D01*
X140664452Y-51998619D01*
X140616833Y-52093857D01*
X140616833Y-52189095D01*
X140664452Y-52331952D01*
X141235881Y-52903381D01*
X140616833Y-52903381D01*
X103846381Y-69961357D02*
X103846381Y-70580405D01*
X104227333Y-70247071D01*
X104227333Y-70389929D01*
X104274952Y-70485167D01*
X104322571Y-70532786D01*
X104417810Y-70580405D01*
X104655905Y-70580405D01*
X104751143Y-70532786D01*
X104798762Y-70485167D01*
X104846381Y-70389929D01*
X104846381Y-70104214D01*
X104798762Y-70008976D01*
X104751143Y-69961357D01*
X103846381Y-70913738D02*
X103846381Y-71532786D01*
X104227333Y-71199452D01*
X104227333Y-71342310D01*
X104274952Y-71437548D01*
X104322571Y-71485167D01*
X104417810Y-71532786D01*
X104655905Y-71532786D01*
X104751143Y-71485167D01*
X104798762Y-71437548D01*
X104846381Y-71342310D01*
X104846381Y-71056595D01*
X104798762Y-70961357D01*
X104751143Y-70913738D01*
X103846381Y-72151833D02*
X103846381Y-72247072D01*
X103894000Y-72342310D01*
X103941619Y-72389929D01*
X104036857Y-72437548D01*
X104227333Y-72485167D01*
X104465429Y-72485167D01*
X104655905Y-72437548D01*
X104751143Y-72389929D01*
X104798762Y-72342310D01*
X104846381Y-72247072D01*
X104846381Y-72151833D01*
X104798762Y-72056595D01*
X104751143Y-72008976D01*
X104655905Y-71961357D01*
X104465429Y-71913738D01*
X104227333Y-71913738D01*
X104036857Y-71961357D01*
X103941619Y-72008976D01*
X103894000Y-72056595D01*
X103846381Y-72151833D01*
X104846381Y-72866119D02*
X104846381Y-73104214D01*
X104655905Y-73104214D01*
X104608286Y-73008976D01*
X104513048Y-72913738D01*
X104370190Y-72866119D01*
X104132095Y-72866119D01*
X103989238Y-72913738D01*
X103894000Y-73008976D01*
X103846381Y-73151833D01*
X103846381Y-73342310D01*
X103894000Y-73485167D01*
X103989238Y-73580405D01*
X104132095Y-73628024D01*
X104370190Y-73628024D01*
X104513048Y-73580405D01*
X104608286Y-73485167D01*
X104655905Y-73389929D01*
X104846381Y-73389929D01*
X104846381Y-73628024D01*
X120538643Y-109751881D02*
X119919595Y-109751881D01*
X120252929Y-110132833D01*
X120110071Y-110132833D01*
X120014833Y-110180452D01*
X119967214Y-110228071D01*
X119919595Y-110323310D01*
X119919595Y-110561405D01*
X119967214Y-110656643D01*
X120014833Y-110704262D01*
X120110071Y-110751881D01*
X120395786Y-110751881D01*
X120491024Y-110704262D01*
X120538643Y-110656643D01*
X119586262Y-109751881D02*
X118967214Y-109751881D01*
X119300548Y-110132833D01*
X119157690Y-110132833D01*
X119062452Y-110180452D01*
X119014833Y-110228071D01*
X118967214Y-110323310D01*
X118967214Y-110561405D01*
X119014833Y-110656643D01*
X119062452Y-110704262D01*
X119157690Y-110751881D01*
X119443405Y-110751881D01*
X119538643Y-110704262D01*
X119586262Y-110656643D01*
X118348167Y-109751881D02*
X118252928Y-109751881D01*
X118157690Y-109799500D01*
X118110071Y-109847119D01*
X118062452Y-109942357D01*
X118014833Y-110132833D01*
X118014833Y-110370929D01*
X118062452Y-110561405D01*
X118110071Y-110656643D01*
X118157690Y-110704262D01*
X118252928Y-110751881D01*
X118348167Y-110751881D01*
X118443405Y-110704262D01*
X118491024Y-110656643D01*
X118538643Y-110561405D01*
X118586262Y-110370929D01*
X118586262Y-110132833D01*
X118538643Y-109942357D01*
X118491024Y-109847119D01*
X118443405Y-109799500D01*
X118348167Y-109751881D01*
X117633881Y-110751881D02*
X117395786Y-110751881D01*
X117395786Y-110561405D01*
X117491024Y-110513786D01*
X117586262Y-110418548D01*
X117633881Y-110275690D01*
X117633881Y-110037595D01*
X117586262Y-109894738D01*
X117491024Y-109799500D01*
X117348167Y-109751881D01*
X117157690Y-109751881D01*
X117014833Y-109799500D01*
X116919595Y-109894738D01*
X116871976Y-110037595D01*
X116871976Y-110275690D01*
X116919595Y-110418548D01*
X117014833Y-110513786D01*
X117110071Y-110561405D01*
X117110071Y-110751881D01*
X116871976Y-110751881D01*
X107838643Y-110577381D02*
X107219595Y-110577381D01*
X107552929Y-110958333D01*
X107410071Y-110958333D01*
X107314833Y-111005952D01*
X107267214Y-111053571D01*
X107219595Y-111148810D01*
X107219595Y-111386905D01*
X107267214Y-111482143D01*
X107314833Y-111529762D01*
X107410071Y-111577381D01*
X107695786Y-111577381D01*
X107791024Y-111529762D01*
X107838643Y-111482143D01*
X106886262Y-110577381D02*
X106267214Y-110577381D01*
X106600548Y-110958333D01*
X106457690Y-110958333D01*
X106362452Y-111005952D01*
X106314833Y-111053571D01*
X106267214Y-111148810D01*
X106267214Y-111386905D01*
X106314833Y-111482143D01*
X106362452Y-111529762D01*
X106457690Y-111577381D01*
X106743405Y-111577381D01*
X106838643Y-111529762D01*
X106886262Y-111482143D01*
X105648167Y-110577381D02*
X105552928Y-110577381D01*
X105457690Y-110625000D01*
X105410071Y-110672619D01*
X105362452Y-110767857D01*
X105314833Y-110958333D01*
X105314833Y-111196429D01*
X105362452Y-111386905D01*
X105410071Y-111482143D01*
X105457690Y-111529762D01*
X105552928Y-111577381D01*
X105648167Y-111577381D01*
X105743405Y-111529762D01*
X105791024Y-111482143D01*
X105838643Y-111386905D01*
X105886262Y-111196429D01*
X105886262Y-110958333D01*
X105838643Y-110767857D01*
X105791024Y-110672619D01*
X105743405Y-110625000D01*
X105648167Y-110577381D01*
X104933881Y-111577381D02*
X104695786Y-111577381D01*
X104695786Y-111386905D01*
X104791024Y-111339286D01*
X104886262Y-111244048D01*
X104933881Y-111101190D01*
X104933881Y-110863095D01*
X104886262Y-110720238D01*
X104791024Y-110625000D01*
X104648167Y-110577381D01*
X104457690Y-110577381D01*
X104314833Y-110625000D01*
X104219595Y-110720238D01*
X104171976Y-110863095D01*
X104171976Y-111101190D01*
X104219595Y-111244048D01*
X104314833Y-111339286D01*
X104410071Y-111386905D01*
X104410071Y-111577381D01*
X104171976Y-111577381D01*
X107902143Y-103909881D02*
X107283095Y-103909881D01*
X107616429Y-104290833D01*
X107473571Y-104290833D01*
X107378333Y-104338452D01*
X107330714Y-104386071D01*
X107283095Y-104481310D01*
X107283095Y-104719405D01*
X107330714Y-104814643D01*
X107378333Y-104862262D01*
X107473571Y-104909881D01*
X107759286Y-104909881D01*
X107854524Y-104862262D01*
X107902143Y-104814643D01*
X106949762Y-103909881D02*
X106330714Y-103909881D01*
X106664048Y-104290833D01*
X106521190Y-104290833D01*
X106425952Y-104338452D01*
X106378333Y-104386071D01*
X106330714Y-104481310D01*
X106330714Y-104719405D01*
X106378333Y-104814643D01*
X106425952Y-104862262D01*
X106521190Y-104909881D01*
X106806905Y-104909881D01*
X106902143Y-104862262D01*
X106949762Y-104814643D01*
X105711667Y-103909881D02*
X105616428Y-103909881D01*
X105521190Y-103957500D01*
X105473571Y-104005119D01*
X105425952Y-104100357D01*
X105378333Y-104290833D01*
X105378333Y-104528929D01*
X105425952Y-104719405D01*
X105473571Y-104814643D01*
X105521190Y-104862262D01*
X105616428Y-104909881D01*
X105711667Y-104909881D01*
X105806905Y-104862262D01*
X105854524Y-104814643D01*
X105902143Y-104719405D01*
X105949762Y-104528929D01*
X105949762Y-104290833D01*
X105902143Y-104100357D01*
X105854524Y-104005119D01*
X105806905Y-103957500D01*
X105711667Y-103909881D01*
X104997381Y-104909881D02*
X104759286Y-104909881D01*
X104759286Y-104719405D01*
X104854524Y-104671786D01*
X104949762Y-104576548D01*
X104997381Y-104433690D01*
X104997381Y-104195595D01*
X104949762Y-104052738D01*
X104854524Y-103957500D01*
X104711667Y-103909881D01*
X104521190Y-103909881D01*
X104378333Y-103957500D01*
X104283095Y-104052738D01*
X104235476Y-104195595D01*
X104235476Y-104433690D01*
X104283095Y-104576548D01*
X104378333Y-104671786D01*
X104473571Y-104719405D01*
X104473571Y-104909881D01*
X104235476Y-104909881D01*
X122697642Y-53093881D02*
X122697642Y-52331976D01*
X122745261Y-53046262D02*
X122745261Y-52379595D01*
X122792880Y-53046262D02*
X122792880Y-52379595D01*
X122840499Y-52998643D02*
X122840499Y-52427214D01*
X122888118Y-52998643D02*
X122888118Y-52427214D01*
X122935737Y-52951024D02*
X122935737Y-52474833D01*
X122983356Y-52951024D02*
X122983356Y-52474833D01*
X123030975Y-52903405D02*
X123030975Y-52522452D01*
X123078594Y-52855786D02*
X123078594Y-52570071D01*
X123126213Y-52855786D02*
X123126213Y-52570071D01*
X123173833Y-52808167D02*
X123173833Y-52617690D01*
X123221452Y-52808167D02*
X123221452Y-52617690D01*
X123269071Y-52712929D02*
X123316690Y-52712929D01*
X123269071Y-52760548D02*
X123269071Y-52665310D01*
X122650023Y-53093881D02*
X123364309Y-52712929D01*
X122650023Y-52331976D01*
X123411928Y-52712929D02*
X122650023Y-52284357D01*
X122650023Y-53141500D01*
X123411928Y-52712929D01*
X122221452Y-53046262D02*
X122078595Y-53093881D01*
X121840499Y-53093881D01*
X121745261Y-53046262D01*
X121697642Y-52998643D01*
X121650023Y-52903405D01*
X121650023Y-52808167D01*
X121697642Y-52712929D01*
X121745261Y-52665310D01*
X121840499Y-52617690D01*
X122030976Y-52570071D01*
X122126214Y-52522452D01*
X122173833Y-52474833D01*
X122221452Y-52379595D01*
X122221452Y-52284357D01*
X122173833Y-52189119D01*
X122126214Y-52141500D01*
X122030976Y-52093881D01*
X121792880Y-52093881D01*
X121650023Y-52141500D01*
X121316690Y-52093881D02*
X121078595Y-53093881D01*
X120888118Y-52379595D01*
X120697642Y-53093881D01*
X120459547Y-52093881D01*
X120316690Y-53189119D02*
X119554785Y-53189119D01*
X119316690Y-53093881D02*
X119316690Y-52093881D01*
X118840500Y-53093881D02*
X118840500Y-52093881D01*
X118269071Y-53093881D01*
X118269071Y-52093881D01*
X110116833Y-51903381D02*
X110116833Y-52617667D01*
X110164453Y-52760524D01*
X110259691Y-52855762D01*
X110402548Y-52903381D01*
X110497786Y-52903381D01*
X109640643Y-52903381D02*
X109640643Y-51903381D01*
X109259690Y-51903381D01*
X109164452Y-51951000D01*
X109116833Y-51998619D01*
X109069214Y-52093857D01*
X109069214Y-52236714D01*
X109116833Y-52331952D01*
X109164452Y-52379571D01*
X109259690Y-52427190D01*
X109640643Y-52427190D01*
X108688262Y-51998619D02*
X108640643Y-51951000D01*
X108545405Y-51903381D01*
X108307309Y-51903381D01*
X108212071Y-51951000D01*
X108164452Y-51998619D01*
X108116833Y-52093857D01*
X108116833Y-52189095D01*
X108164452Y-52331952D01*
X108735881Y-52903381D01*
X108116833Y-52903381D01*
X168846381Y-69961357D02*
X168846381Y-70580405D01*
X169227333Y-70247071D01*
X169227333Y-70389929D01*
X169274952Y-70485167D01*
X169322571Y-70532786D01*
X169417810Y-70580405D01*
X169655905Y-70580405D01*
X169751143Y-70532786D01*
X169798762Y-70485167D01*
X169846381Y-70389929D01*
X169846381Y-70104214D01*
X169798762Y-70008976D01*
X169751143Y-69961357D01*
X168846381Y-70913738D02*
X168846381Y-71532786D01*
X169227333Y-71199452D01*
X169227333Y-71342310D01*
X169274952Y-71437548D01*
X169322571Y-71485167D01*
X169417810Y-71532786D01*
X169655905Y-71532786D01*
X169751143Y-71485167D01*
X169798762Y-71437548D01*
X169846381Y-71342310D01*
X169846381Y-71056595D01*
X169798762Y-70961357D01*
X169751143Y-70913738D01*
X168846381Y-72151833D02*
X168846381Y-72247072D01*
X168894000Y-72342310D01*
X168941619Y-72389929D01*
X169036857Y-72437548D01*
X169227333Y-72485167D01*
X169465429Y-72485167D01*
X169655905Y-72437548D01*
X169751143Y-72389929D01*
X169798762Y-72342310D01*
X169846381Y-72247072D01*
X169846381Y-72151833D01*
X169798762Y-72056595D01*
X169751143Y-72008976D01*
X169655905Y-71961357D01*
X169465429Y-71913738D01*
X169227333Y-71913738D01*
X169036857Y-71961357D01*
X168941619Y-72008976D01*
X168894000Y-72056595D01*
X168846381Y-72151833D01*
X169846381Y-72866119D02*
X169846381Y-73104214D01*
X169655905Y-73104214D01*
X169608286Y-73008976D01*
X169513048Y-72913738D01*
X169370190Y-72866119D01*
X169132095Y-72866119D01*
X168989238Y-72913738D01*
X168894000Y-73008976D01*
X168846381Y-73151833D01*
X168846381Y-73342310D01*
X168894000Y-73485167D01*
X168989238Y-73580405D01*
X169132095Y-73628024D01*
X169370190Y-73628024D01*
X169513048Y-73580405D01*
X169608286Y-73485167D01*
X169655905Y-73389929D01*
X169846381Y-73389929D01*
X169846381Y-73628024D01*
X185538643Y-109751881D02*
X184919595Y-109751881D01*
X185252929Y-110132833D01*
X185110071Y-110132833D01*
X185014833Y-110180452D01*
X184967214Y-110228071D01*
X184919595Y-110323310D01*
X184919595Y-110561405D01*
X184967214Y-110656643D01*
X185014833Y-110704262D01*
X185110071Y-110751881D01*
X185395786Y-110751881D01*
X185491024Y-110704262D01*
X185538643Y-110656643D01*
X184586262Y-109751881D02*
X183967214Y-109751881D01*
X184300548Y-110132833D01*
X184157690Y-110132833D01*
X184062452Y-110180452D01*
X184014833Y-110228071D01*
X183967214Y-110323310D01*
X183967214Y-110561405D01*
X184014833Y-110656643D01*
X184062452Y-110704262D01*
X184157690Y-110751881D01*
X184443405Y-110751881D01*
X184538643Y-110704262D01*
X184586262Y-110656643D01*
X183348167Y-109751881D02*
X183252928Y-109751881D01*
X183157690Y-109799500D01*
X183110071Y-109847119D01*
X183062452Y-109942357D01*
X183014833Y-110132833D01*
X183014833Y-110370929D01*
X183062452Y-110561405D01*
X183110071Y-110656643D01*
X183157690Y-110704262D01*
X183252928Y-110751881D01*
X183348167Y-110751881D01*
X183443405Y-110704262D01*
X183491024Y-110656643D01*
X183538643Y-110561405D01*
X183586262Y-110370929D01*
X183586262Y-110132833D01*
X183538643Y-109942357D01*
X183491024Y-109847119D01*
X183443405Y-109799500D01*
X183348167Y-109751881D01*
X182633881Y-110751881D02*
X182395786Y-110751881D01*
X182395786Y-110561405D01*
X182491024Y-110513786D01*
X182586262Y-110418548D01*
X182633881Y-110275690D01*
X182633881Y-110037595D01*
X182586262Y-109894738D01*
X182491024Y-109799500D01*
X182348167Y-109751881D01*
X182157690Y-109751881D01*
X182014833Y-109799500D01*
X181919595Y-109894738D01*
X181871976Y-110037595D01*
X181871976Y-110275690D01*
X181919595Y-110418548D01*
X182014833Y-110513786D01*
X182110071Y-110561405D01*
X182110071Y-110751881D01*
X181871976Y-110751881D01*
X172838643Y-110577381D02*
X172219595Y-110577381D01*
X172552929Y-110958333D01*
X172410071Y-110958333D01*
X172314833Y-111005952D01*
X172267214Y-111053571D01*
X172219595Y-111148810D01*
X172219595Y-111386905D01*
X172267214Y-111482143D01*
X172314833Y-111529762D01*
X172410071Y-111577381D01*
X172695786Y-111577381D01*
X172791024Y-111529762D01*
X172838643Y-111482143D01*
X171886262Y-110577381D02*
X171267214Y-110577381D01*
X171600548Y-110958333D01*
X171457690Y-110958333D01*
X171362452Y-111005952D01*
X171314833Y-111053571D01*
X171267214Y-111148810D01*
X171267214Y-111386905D01*
X171314833Y-111482143D01*
X171362452Y-111529762D01*
X171457690Y-111577381D01*
X171743405Y-111577381D01*
X171838643Y-111529762D01*
X171886262Y-111482143D01*
X170648167Y-110577381D02*
X170552928Y-110577381D01*
X170457690Y-110625000D01*
X170410071Y-110672619D01*
X170362452Y-110767857D01*
X170314833Y-110958333D01*
X170314833Y-111196429D01*
X170362452Y-111386905D01*
X170410071Y-111482143D01*
X170457690Y-111529762D01*
X170552928Y-111577381D01*
X170648167Y-111577381D01*
X170743405Y-111529762D01*
X170791024Y-111482143D01*
X170838643Y-111386905D01*
X170886262Y-111196429D01*
X170886262Y-110958333D01*
X170838643Y-110767857D01*
X170791024Y-110672619D01*
X170743405Y-110625000D01*
X170648167Y-110577381D01*
X169933881Y-111577381D02*
X169695786Y-111577381D01*
X169695786Y-111386905D01*
X169791024Y-111339286D01*
X169886262Y-111244048D01*
X169933881Y-111101190D01*
X169933881Y-110863095D01*
X169886262Y-110720238D01*
X169791024Y-110625000D01*
X169648167Y-110577381D01*
X169457690Y-110577381D01*
X169314833Y-110625000D01*
X169219595Y-110720238D01*
X169171976Y-110863095D01*
X169171976Y-111101190D01*
X169219595Y-111244048D01*
X169314833Y-111339286D01*
X169410071Y-111386905D01*
X169410071Y-111577381D01*
X169171976Y-111577381D01*
X172902143Y-103909881D02*
X172283095Y-103909881D01*
X172616429Y-104290833D01*
X172473571Y-104290833D01*
X172378333Y-104338452D01*
X172330714Y-104386071D01*
X172283095Y-104481310D01*
X172283095Y-104719405D01*
X172330714Y-104814643D01*
X172378333Y-104862262D01*
X172473571Y-104909881D01*
X172759286Y-104909881D01*
X172854524Y-104862262D01*
X172902143Y-104814643D01*
X171949762Y-103909881D02*
X171330714Y-103909881D01*
X171664048Y-104290833D01*
X171521190Y-104290833D01*
X171425952Y-104338452D01*
X171378333Y-104386071D01*
X171330714Y-104481310D01*
X171330714Y-104719405D01*
X171378333Y-104814643D01*
X171425952Y-104862262D01*
X171521190Y-104909881D01*
X171806905Y-104909881D01*
X171902143Y-104862262D01*
X171949762Y-104814643D01*
X170711667Y-103909881D02*
X170616428Y-103909881D01*
X170521190Y-103957500D01*
X170473571Y-104005119D01*
X170425952Y-104100357D01*
X170378333Y-104290833D01*
X170378333Y-104528929D01*
X170425952Y-104719405D01*
X170473571Y-104814643D01*
X170521190Y-104862262D01*
X170616428Y-104909881D01*
X170711667Y-104909881D01*
X170806905Y-104862262D01*
X170854524Y-104814643D01*
X170902143Y-104719405D01*
X170949762Y-104528929D01*
X170949762Y-104290833D01*
X170902143Y-104100357D01*
X170854524Y-104005119D01*
X170806905Y-103957500D01*
X170711667Y-103909881D01*
X169997381Y-104909881D02*
X169759286Y-104909881D01*
X169759286Y-104719405D01*
X169854524Y-104671786D01*
X169949762Y-104576548D01*
X169997381Y-104433690D01*
X169997381Y-104195595D01*
X169949762Y-104052738D01*
X169854524Y-103957500D01*
X169711667Y-103909881D01*
X169521190Y-103909881D01*
X169378333Y-103957500D01*
X169283095Y-104052738D01*
X169235476Y-104195595D01*
X169235476Y-104433690D01*
X169283095Y-104576548D01*
X169378333Y-104671786D01*
X169473571Y-104719405D01*
X169473571Y-104909881D01*
X169235476Y-104909881D01*
X187697642Y-53093881D02*
X187697642Y-52331976D01*
X187745261Y-53046262D02*
X187745261Y-52379595D01*
X187792880Y-53046262D02*
X187792880Y-52379595D01*
X187840499Y-52998643D02*
X187840499Y-52427214D01*
X187888118Y-52998643D02*
X187888118Y-52427214D01*
X187935737Y-52951024D02*
X187935737Y-52474833D01*
X187983356Y-52951024D02*
X187983356Y-52474833D01*
X188030975Y-52903405D02*
X188030975Y-52522452D01*
X188078594Y-52855786D02*
X188078594Y-52570071D01*
X188126213Y-52855786D02*
X188126213Y-52570071D01*
X188173833Y-52808167D02*
X188173833Y-52617690D01*
X188221452Y-52808167D02*
X188221452Y-52617690D01*
X188269071Y-52712929D02*
X188316690Y-52712929D01*
X188269071Y-52760548D02*
X188269071Y-52665310D01*
X187650023Y-53093881D02*
X188364309Y-52712929D01*
X187650023Y-52331976D01*
X188411928Y-52712929D02*
X187650023Y-52284357D01*
X187650023Y-53141500D01*
X188411928Y-52712929D01*
X187221452Y-53046262D02*
X187078595Y-53093881D01*
X186840499Y-53093881D01*
X186745261Y-53046262D01*
X186697642Y-52998643D01*
X186650023Y-52903405D01*
X186650023Y-52808167D01*
X186697642Y-52712929D01*
X186745261Y-52665310D01*
X186840499Y-52617690D01*
X187030976Y-52570071D01*
X187126214Y-52522452D01*
X187173833Y-52474833D01*
X187221452Y-52379595D01*
X187221452Y-52284357D01*
X187173833Y-52189119D01*
X187126214Y-52141500D01*
X187030976Y-52093881D01*
X186792880Y-52093881D01*
X186650023Y-52141500D01*
X186316690Y-52093881D02*
X186078595Y-53093881D01*
X185888118Y-52379595D01*
X185697642Y-53093881D01*
X185459547Y-52093881D01*
X185316690Y-53189119D02*
X184554785Y-53189119D01*
X184316690Y-53093881D02*
X184316690Y-52093881D01*
X183840500Y-53093881D02*
X183840500Y-52093881D01*
X183269071Y-53093881D01*
X183269071Y-52093881D01*
X175116833Y-51903381D02*
X175116833Y-52617667D01*
X175164453Y-52760524D01*
X175259691Y-52855762D01*
X175402548Y-52903381D01*
X175497786Y-52903381D01*
X174640643Y-52903381D02*
X174640643Y-51903381D01*
X174259690Y-51903381D01*
X174164452Y-51951000D01*
X174116833Y-51998619D01*
X174069214Y-52093857D01*
X174069214Y-52236714D01*
X174116833Y-52331952D01*
X174164452Y-52379571D01*
X174259690Y-52427190D01*
X174640643Y-52427190D01*
X173688262Y-51998619D02*
X173640643Y-51951000D01*
X173545405Y-51903381D01*
X173307309Y-51903381D01*
X173212071Y-51951000D01*
X173164452Y-51998619D01*
X173116833Y-52093857D01*
X173116833Y-52189095D01*
X173164452Y-52331952D01*
X173735881Y-52903381D01*
X173116833Y-52903381D01*
D12*
X141535000Y-57320000D02*
X142335000Y-56520000D01*
X141535000Y-58120000D02*
X143135000Y-56520000D01*
X141535000Y-58920000D02*
X143935000Y-56520000D01*
X141535000Y-59720000D02*
X144735000Y-56520000D01*
X141635000Y-60420000D02*
X145535000Y-56520000D01*
X142435000Y-60420000D02*
X146335000Y-56520000D01*
X143235000Y-60420000D02*
X147135000Y-56520000D01*
X144035000Y-60420000D02*
X147935000Y-56520000D01*
X144835000Y-60420000D02*
X148735000Y-56520000D01*
X145635000Y-60420000D02*
X149535000Y-56520000D01*
X146435000Y-60420000D02*
X150335000Y-56520000D01*
X147235000Y-60420000D02*
X150435000Y-57220000D01*
X148035000Y-60420000D02*
X150435000Y-58020000D01*
X148835000Y-60420000D02*
X150435000Y-58820000D01*
X149635000Y-60420000D02*
X150435000Y-59620000D01*
X141535000Y-56520000D02*
X150435000Y-56520000D01*
X150435000Y-56520000D02*
X150435000Y-60420000D01*
X150435000Y-60420000D02*
X141535000Y-60420000D01*
X141535000Y-60420000D02*
X141535000Y-56520000D01*
X140035000Y-63920000D02*
X140035000Y-51420000D01*
X140035000Y-51420000D02*
X153835000Y-51420000D01*
X153835000Y-51420000D02*
X153835000Y-63920000D01*
X153835000Y-63920000D02*
X140035000Y-63920000D01*
X143450500Y-66031000D02*
X145450500Y-66031000D01*
X145450500Y-68081000D02*
X143450500Y-68081000D01*
X145514000Y-71129000D02*
X143514000Y-71129000D01*
X143514000Y-69079000D02*
X145514000Y-69079000D01*
X150880000Y-68385000D02*
X152880000Y-68385000D01*
X152880000Y-66235000D02*
X150880000Y-66235000D01*
X152880000Y-69029000D02*
X150880000Y-69029000D01*
X150880000Y-71179000D02*
X152880000Y-71179000D01*
X140255000Y-61960000D02*
X140255000Y-59960000D01*
X138105000Y-59960000D02*
X138105000Y-61960000D01*
X140255000Y-69580000D02*
X140255000Y-67580000D01*
X138105000Y-67580000D02*
X138105000Y-69580000D01*
X155420000Y-106875000D02*
X153420000Y-106875000D01*
X153420000Y-109025000D02*
X155420000Y-109025000D01*
X140720000Y-107755000D02*
X142720000Y-107755000D01*
X142720000Y-105605000D02*
X140720000Y-105605000D01*
X140720000Y-110295000D02*
X142720000Y-110295000D01*
X142720000Y-108145000D02*
X140720000Y-108145000D01*
X109035000Y-57320000D02*
X109835000Y-56520000D01*
X109035000Y-58120000D02*
X110635000Y-56520000D01*
X109035000Y-58920000D02*
X111435000Y-56520000D01*
X109035000Y-59720000D02*
X112235000Y-56520000D01*
X109135000Y-60420000D02*
X113035000Y-56520000D01*
X109935000Y-60420000D02*
X113835000Y-56520000D01*
X110735000Y-60420000D02*
X114635000Y-56520000D01*
X111535000Y-60420000D02*
X115435000Y-56520000D01*
X112335000Y-60420000D02*
X116235000Y-56520000D01*
X113135000Y-60420000D02*
X117035000Y-56520000D01*
X113935000Y-60420000D02*
X117835000Y-56520000D01*
X114735000Y-60420000D02*
X117935000Y-57220000D01*
X115535000Y-60420000D02*
X117935000Y-58020000D01*
X116335000Y-60420000D02*
X117935000Y-58820000D01*
X117135000Y-60420000D02*
X117935000Y-59620000D01*
X109035000Y-56520000D02*
X117935000Y-56520000D01*
X117935000Y-56520000D02*
X117935000Y-60420000D01*
X117935000Y-60420000D02*
X109035000Y-60420000D01*
X109035000Y-60420000D02*
X109035000Y-56520000D01*
X107535000Y-63920000D02*
X107535000Y-51420000D01*
X107535000Y-51420000D02*
X121335000Y-51420000D01*
X121335000Y-51420000D02*
X121335000Y-63920000D01*
X121335000Y-63920000D02*
X107535000Y-63920000D01*
X110950500Y-66031000D02*
X112950500Y-66031000D01*
X112950500Y-68081000D02*
X110950500Y-68081000D01*
X113014000Y-71129000D02*
X111014000Y-71129000D01*
X111014000Y-69079000D02*
X113014000Y-69079000D01*
X118380000Y-68385000D02*
X120380000Y-68385000D01*
X120380000Y-66235000D02*
X118380000Y-66235000D01*
X120380000Y-69029000D02*
X118380000Y-69029000D01*
X118380000Y-71179000D02*
X120380000Y-71179000D01*
X107755000Y-61960000D02*
X107755000Y-59960000D01*
X105605000Y-59960000D02*
X105605000Y-61960000D01*
X107755000Y-69580000D02*
X107755000Y-67580000D01*
X105605000Y-67580000D02*
X105605000Y-69580000D01*
X122920000Y-106875000D02*
X120920000Y-106875000D01*
X120920000Y-109025000D02*
X122920000Y-109025000D01*
X108220000Y-107755000D02*
X110220000Y-107755000D01*
X110220000Y-105605000D02*
X108220000Y-105605000D01*
X108220000Y-110295000D02*
X110220000Y-110295000D01*
X110220000Y-108145000D02*
X108220000Y-108145000D01*
X174035000Y-57320000D02*
X174835000Y-56520000D01*
X174035000Y-58120000D02*
X175635000Y-56520000D01*
X174035000Y-58920000D02*
X176435000Y-56520000D01*
X174035000Y-59720000D02*
X177235000Y-56520000D01*
X174135000Y-60420000D02*
X178035000Y-56520000D01*
X174935000Y-60420000D02*
X178835000Y-56520000D01*
X175735000Y-60420000D02*
X179635000Y-56520000D01*
X176535000Y-60420000D02*
X180435000Y-56520000D01*
X177335000Y-60420000D02*
X181235000Y-56520000D01*
X178135000Y-60420000D02*
X182035000Y-56520000D01*
X178935000Y-60420000D02*
X182835000Y-56520000D01*
X179735000Y-60420000D02*
X182935000Y-57220000D01*
X180535000Y-60420000D02*
X182935000Y-58020000D01*
X181335000Y-60420000D02*
X182935000Y-58820000D01*
X182135000Y-60420000D02*
X182935000Y-59620000D01*
X174035000Y-56520000D02*
X182935000Y-56520000D01*
X182935000Y-56520000D02*
X182935000Y-60420000D01*
X182935000Y-60420000D02*
X174035000Y-60420000D01*
X174035000Y-60420000D02*
X174035000Y-56520000D01*
X172535000Y-63920000D02*
X172535000Y-51420000D01*
X172535000Y-51420000D02*
X186335000Y-51420000D01*
X186335000Y-51420000D02*
X186335000Y-63920000D01*
X186335000Y-63920000D02*
X172535000Y-63920000D01*
X175950500Y-66031000D02*
X177950500Y-66031000D01*
X177950500Y-68081000D02*
X175950500Y-68081000D01*
X178014000Y-71129000D02*
X176014000Y-71129000D01*
X176014000Y-69079000D02*
X178014000Y-69079000D01*
X183380000Y-68385000D02*
X185380000Y-68385000D01*
X185380000Y-66235000D02*
X183380000Y-66235000D01*
X185380000Y-69029000D02*
X183380000Y-69029000D01*
X183380000Y-71179000D02*
X185380000Y-71179000D01*
X172755000Y-61960000D02*
X172755000Y-59960000D01*
X170605000Y-59960000D02*
X170605000Y-61960000D01*
X172755000Y-69580000D02*
X172755000Y-67580000D01*
X170605000Y-67580000D02*
X170605000Y-69580000D01*
X187920000Y-106875000D02*
X185920000Y-106875000D01*
X185920000Y-109025000D02*
X187920000Y-109025000D01*
X173220000Y-107755000D02*
X175220000Y-107755000D01*
X175220000Y-105605000D02*
X173220000Y-105605000D01*
X173220000Y-110295000D02*
X175220000Y-110295000D01*
X175220000Y-108145000D02*
X173220000Y-108145000D01*
D13*
X147859857Y-67409429D02*
X147859857Y-65885429D01*
X147279285Y-65885429D01*
X147134143Y-65958000D01*
X147061571Y-66030571D01*
X146989000Y-66175714D01*
X146989000Y-66393429D01*
X147061571Y-66538571D01*
X147134143Y-66611143D01*
X147279285Y-66683714D01*
X147859857Y-66683714D01*
X145537571Y-67409429D02*
X146408428Y-67409429D01*
X145973000Y-67409429D02*
X145973000Y-65885429D01*
X146118143Y-66103143D01*
X146263285Y-66248286D01*
X146408428Y-66320857D01*
D12*
X144617166Y-65113143D02*
X144664785Y-65160762D01*
X144807642Y-65208381D01*
X144902880Y-65208381D01*
X145045738Y-65160762D01*
X145140976Y-65065524D01*
X145188595Y-64970286D01*
X145236214Y-64779810D01*
X145236214Y-64636952D01*
X145188595Y-64446476D01*
X145140976Y-64351238D01*
X145045738Y-64256000D01*
X144902880Y-64208381D01*
X144807642Y-64208381D01*
X144664785Y-64256000D01*
X144617166Y-64303619D01*
X143664785Y-65208381D02*
X144236214Y-65208381D01*
X143950500Y-65208381D02*
X143950500Y-64208381D01*
X144045738Y-64351238D01*
X144140976Y-64446476D01*
X144236214Y-64494095D01*
X144680666Y-72761143D02*
X144728285Y-72808762D01*
X144871142Y-72856381D01*
X144966380Y-72856381D01*
X145109238Y-72808762D01*
X145204476Y-72713524D01*
X145252095Y-72618286D01*
X145299714Y-72427810D01*
X145299714Y-72284952D01*
X145252095Y-72094476D01*
X145204476Y-71999238D01*
X145109238Y-71904000D01*
X144966380Y-71856381D01*
X144871142Y-71856381D01*
X144728285Y-71904000D01*
X144680666Y-71951619D01*
X144299714Y-71951619D02*
X144252095Y-71904000D01*
X144156857Y-71856381D01*
X143918761Y-71856381D01*
X143823523Y-71904000D01*
X143775904Y-71951619D01*
X143728285Y-72046857D01*
X143728285Y-72142095D01*
X143775904Y-72284952D01*
X144347333Y-72856381D01*
X143728285Y-72856381D01*
X152046666Y-65462381D02*
X152380000Y-64986190D01*
X152618095Y-65462381D02*
X152618095Y-64462381D01*
X152237142Y-64462381D01*
X152141904Y-64510000D01*
X152094285Y-64557619D01*
X152046666Y-64652857D01*
X152046666Y-64795714D01*
X152094285Y-64890952D01*
X152141904Y-64938571D01*
X152237142Y-64986190D01*
X152618095Y-64986190D01*
X151094285Y-65462381D02*
X151665714Y-65462381D01*
X151380000Y-65462381D02*
X151380000Y-64462381D01*
X151475238Y-64605238D01*
X151570476Y-64700476D01*
X151665714Y-64748095D01*
X152046666Y-72856381D02*
X152380000Y-72380190D01*
X152618095Y-72856381D02*
X152618095Y-71856381D01*
X152237142Y-71856381D01*
X152141904Y-71904000D01*
X152094285Y-71951619D01*
X152046666Y-72046857D01*
X152046666Y-72189714D01*
X152094285Y-72284952D01*
X152141904Y-72332571D01*
X152237142Y-72380190D01*
X152618095Y-72380190D01*
X151665714Y-71951619D02*
X151618095Y-71904000D01*
X151522857Y-71856381D01*
X151284761Y-71856381D01*
X151189523Y-71904000D01*
X151141904Y-71951619D01*
X151094285Y-72046857D01*
X151094285Y-72142095D01*
X151141904Y-72284952D01*
X151713333Y-72856381D01*
X151094285Y-72856381D01*
X137332381Y-60793334D02*
X136856190Y-60460000D01*
X137332381Y-60221905D02*
X136332381Y-60221905D01*
X136332381Y-60602858D01*
X136380000Y-60698096D01*
X136427619Y-60745715D01*
X136522857Y-60793334D01*
X136665714Y-60793334D01*
X136760952Y-60745715D01*
X136808571Y-60698096D01*
X136856190Y-60602858D01*
X136856190Y-60221905D01*
X136665714Y-61650477D02*
X137332381Y-61650477D01*
X136284762Y-61412381D02*
X136999048Y-61174286D01*
X136999048Y-61793334D01*
X137332381Y-68413334D02*
X136856190Y-68080000D01*
X137332381Y-67841905D02*
X136332381Y-67841905D01*
X136332381Y-68222858D01*
X136380000Y-68318096D01*
X136427619Y-68365715D01*
X136522857Y-68413334D01*
X136665714Y-68413334D01*
X136760952Y-68365715D01*
X136808571Y-68318096D01*
X136856190Y-68222858D01*
X136856190Y-67841905D01*
X136332381Y-69270477D02*
X136332381Y-69080000D01*
X136380000Y-68984762D01*
X136427619Y-68937143D01*
X136570476Y-68841905D01*
X136760952Y-68794286D01*
X137141905Y-68794286D01*
X137237143Y-68841905D01*
X137284762Y-68889524D01*
X137332381Y-68984762D01*
X137332381Y-69175239D01*
X137284762Y-69270477D01*
X137237143Y-69318096D01*
X137141905Y-69365715D01*
X136903810Y-69365715D01*
X136808571Y-69318096D01*
X136760952Y-69270477D01*
X136713333Y-69175239D01*
X136713333Y-68984762D01*
X136760952Y-68889524D01*
X136808571Y-68841905D01*
X136903810Y-68794286D01*
X154586666Y-110702381D02*
X154920000Y-110226190D01*
X155158095Y-110702381D02*
X155158095Y-109702381D01*
X154777142Y-109702381D01*
X154681904Y-109750000D01*
X154634285Y-109797619D01*
X154586666Y-109892857D01*
X154586666Y-110035714D01*
X154634285Y-110130952D01*
X154681904Y-110178571D01*
X154777142Y-110226190D01*
X155158095Y-110226190D01*
X154253333Y-109702381D02*
X153586666Y-109702381D01*
X154015238Y-110702381D01*
X141886666Y-104832381D02*
X142220000Y-104356190D01*
X142458095Y-104832381D02*
X142458095Y-103832381D01*
X142077142Y-103832381D01*
X141981904Y-103880000D01*
X141934285Y-103927619D01*
X141886666Y-104022857D01*
X141886666Y-104165714D01*
X141934285Y-104260952D01*
X141981904Y-104308571D01*
X142077142Y-104356190D01*
X142458095Y-104356190D01*
X141315238Y-104260952D02*
X141410476Y-104213333D01*
X141458095Y-104165714D01*
X141505714Y-104070476D01*
X141505714Y-104022857D01*
X141458095Y-103927619D01*
X141410476Y-103880000D01*
X141315238Y-103832381D01*
X141124761Y-103832381D01*
X141029523Y-103880000D01*
X140981904Y-103927619D01*
X140934285Y-104022857D01*
X140934285Y-104070476D01*
X140981904Y-104165714D01*
X141029523Y-104213333D01*
X141124761Y-104260952D01*
X141315238Y-104260952D01*
X141410476Y-104308571D01*
X141458095Y-104356190D01*
X141505714Y-104451429D01*
X141505714Y-104641905D01*
X141458095Y-104737143D01*
X141410476Y-104784762D01*
X141315238Y-104832381D01*
X141124761Y-104832381D01*
X141029523Y-104784762D01*
X140981904Y-104737143D01*
X140934285Y-104641905D01*
X140934285Y-104451429D01*
X140981904Y-104356190D01*
X141029523Y-104308571D01*
X141124761Y-104260952D01*
X141823166Y-111640881D02*
X142156500Y-111164690D01*
X142394595Y-111640881D02*
X142394595Y-110640881D01*
X142013642Y-110640881D01*
X141918404Y-110688500D01*
X141870785Y-110736119D01*
X141823166Y-110831357D01*
X141823166Y-110974214D01*
X141870785Y-111069452D01*
X141918404Y-111117071D01*
X142013642Y-111164690D01*
X142394595Y-111164690D01*
X141346976Y-111640881D02*
X141156500Y-111640881D01*
X141061261Y-111593262D01*
X141013642Y-111545643D01*
X140918404Y-111402786D01*
X140870785Y-111212310D01*
X140870785Y-110831357D01*
X140918404Y-110736119D01*
X140966023Y-110688500D01*
X141061261Y-110640881D01*
X141251738Y-110640881D01*
X141346976Y-110688500D01*
X141394595Y-110736119D01*
X141442214Y-110831357D01*
X141442214Y-111069452D01*
X141394595Y-111164690D01*
X141346976Y-111212310D01*
X141251738Y-111259929D01*
X141061261Y-111259929D01*
X140966023Y-111212310D01*
X140918404Y-111164690D01*
X140870785Y-111069452D01*
D13*
X115359857Y-67409429D02*
X115359857Y-65885429D01*
X114779285Y-65885429D01*
X114634143Y-65958000D01*
X114561571Y-66030571D01*
X114489000Y-66175714D01*
X114489000Y-66393429D01*
X114561571Y-66538571D01*
X114634143Y-66611143D01*
X114779285Y-66683714D01*
X115359857Y-66683714D01*
X113037571Y-67409429D02*
X113908428Y-67409429D01*
X113473000Y-67409429D02*
X113473000Y-65885429D01*
X113618143Y-66103143D01*
X113763285Y-66248286D01*
X113908428Y-66320857D01*
D12*
X112117166Y-65113143D02*
X112164785Y-65160762D01*
X112307642Y-65208381D01*
X112402880Y-65208381D01*
X112545738Y-65160762D01*
X112640976Y-65065524D01*
X112688595Y-64970286D01*
X112736214Y-64779810D01*
X112736214Y-64636952D01*
X112688595Y-64446476D01*
X112640976Y-64351238D01*
X112545738Y-64256000D01*
X112402880Y-64208381D01*
X112307642Y-64208381D01*
X112164785Y-64256000D01*
X112117166Y-64303619D01*
X111164785Y-65208381D02*
X111736214Y-65208381D01*
X111450500Y-65208381D02*
X111450500Y-64208381D01*
X111545738Y-64351238D01*
X111640976Y-64446476D01*
X111736214Y-64494095D01*
X112180666Y-72761143D02*
X112228285Y-72808762D01*
X112371142Y-72856381D01*
X112466380Y-72856381D01*
X112609238Y-72808762D01*
X112704476Y-72713524D01*
X112752095Y-72618286D01*
X112799714Y-72427810D01*
X112799714Y-72284952D01*
X112752095Y-72094476D01*
X112704476Y-71999238D01*
X112609238Y-71904000D01*
X112466380Y-71856381D01*
X112371142Y-71856381D01*
X112228285Y-71904000D01*
X112180666Y-71951619D01*
X111799714Y-71951619D02*
X111752095Y-71904000D01*
X111656857Y-71856381D01*
X111418761Y-71856381D01*
X111323523Y-71904000D01*
X111275904Y-71951619D01*
X111228285Y-72046857D01*
X111228285Y-72142095D01*
X111275904Y-72284952D01*
X111847333Y-72856381D01*
X111228285Y-72856381D01*
X119546666Y-65462381D02*
X119880000Y-64986190D01*
X120118095Y-65462381D02*
X120118095Y-64462381D01*
X119737142Y-64462381D01*
X119641904Y-64510000D01*
X119594285Y-64557619D01*
X119546666Y-64652857D01*
X119546666Y-64795714D01*
X119594285Y-64890952D01*
X119641904Y-64938571D01*
X119737142Y-64986190D01*
X120118095Y-64986190D01*
X118594285Y-65462381D02*
X119165714Y-65462381D01*
X118880000Y-65462381D02*
X118880000Y-64462381D01*
X118975238Y-64605238D01*
X119070476Y-64700476D01*
X119165714Y-64748095D01*
X119546666Y-72856381D02*
X119880000Y-72380190D01*
X120118095Y-72856381D02*
X120118095Y-71856381D01*
X119737142Y-71856381D01*
X119641904Y-71904000D01*
X119594285Y-71951619D01*
X119546666Y-72046857D01*
X119546666Y-72189714D01*
X119594285Y-72284952D01*
X119641904Y-72332571D01*
X119737142Y-72380190D01*
X120118095Y-72380190D01*
X119165714Y-71951619D02*
X119118095Y-71904000D01*
X119022857Y-71856381D01*
X118784761Y-71856381D01*
X118689523Y-71904000D01*
X118641904Y-71951619D01*
X118594285Y-72046857D01*
X118594285Y-72142095D01*
X118641904Y-72284952D01*
X119213333Y-72856381D01*
X118594285Y-72856381D01*
X104832381Y-60793334D02*
X104356190Y-60460000D01*
X104832381Y-60221905D02*
X103832381Y-60221905D01*
X103832381Y-60602858D01*
X103880000Y-60698096D01*
X103927619Y-60745715D01*
X104022857Y-60793334D01*
X104165714Y-60793334D01*
X104260952Y-60745715D01*
X104308571Y-60698096D01*
X104356190Y-60602858D01*
X104356190Y-60221905D01*
X104165714Y-61650477D02*
X104832381Y-61650477D01*
X103784762Y-61412381D02*
X104499048Y-61174286D01*
X104499048Y-61793334D01*
X104832381Y-68413334D02*
X104356190Y-68080000D01*
X104832381Y-67841905D02*
X103832381Y-67841905D01*
X103832381Y-68222858D01*
X103880000Y-68318096D01*
X103927619Y-68365715D01*
X104022857Y-68413334D01*
X104165714Y-68413334D01*
X104260952Y-68365715D01*
X104308571Y-68318096D01*
X104356190Y-68222858D01*
X104356190Y-67841905D01*
X103832381Y-69270477D02*
X103832381Y-69080000D01*
X103880000Y-68984762D01*
X103927619Y-68937143D01*
X104070476Y-68841905D01*
X104260952Y-68794286D01*
X104641905Y-68794286D01*
X104737143Y-68841905D01*
X104784762Y-68889524D01*
X104832381Y-68984762D01*
X104832381Y-69175239D01*
X104784762Y-69270477D01*
X104737143Y-69318096D01*
X104641905Y-69365715D01*
X104403810Y-69365715D01*
X104308571Y-69318096D01*
X104260952Y-69270477D01*
X104213333Y-69175239D01*
X104213333Y-68984762D01*
X104260952Y-68889524D01*
X104308571Y-68841905D01*
X104403810Y-68794286D01*
X122086666Y-110702381D02*
X122420000Y-110226190D01*
X122658095Y-110702381D02*
X122658095Y-109702381D01*
X122277142Y-109702381D01*
X122181904Y-109750000D01*
X122134285Y-109797619D01*
X122086666Y-109892857D01*
X122086666Y-110035714D01*
X122134285Y-110130952D01*
X122181904Y-110178571D01*
X122277142Y-110226190D01*
X122658095Y-110226190D01*
X121753333Y-109702381D02*
X121086666Y-109702381D01*
X121515238Y-110702381D01*
X109386666Y-104832381D02*
X109720000Y-104356190D01*
X109958095Y-104832381D02*
X109958095Y-103832381D01*
X109577142Y-103832381D01*
X109481904Y-103880000D01*
X109434285Y-103927619D01*
X109386666Y-104022857D01*
X109386666Y-104165714D01*
X109434285Y-104260952D01*
X109481904Y-104308571D01*
X109577142Y-104356190D01*
X109958095Y-104356190D01*
X108815238Y-104260952D02*
X108910476Y-104213333D01*
X108958095Y-104165714D01*
X109005714Y-104070476D01*
X109005714Y-104022857D01*
X108958095Y-103927619D01*
X108910476Y-103880000D01*
X108815238Y-103832381D01*
X108624761Y-103832381D01*
X108529523Y-103880000D01*
X108481904Y-103927619D01*
X108434285Y-104022857D01*
X108434285Y-104070476D01*
X108481904Y-104165714D01*
X108529523Y-104213333D01*
X108624761Y-104260952D01*
X108815238Y-104260952D01*
X108910476Y-104308571D01*
X108958095Y-104356190D01*
X109005714Y-104451429D01*
X109005714Y-104641905D01*
X108958095Y-104737143D01*
X108910476Y-104784762D01*
X108815238Y-104832381D01*
X108624761Y-104832381D01*
X108529523Y-104784762D01*
X108481904Y-104737143D01*
X108434285Y-104641905D01*
X108434285Y-104451429D01*
X108481904Y-104356190D01*
X108529523Y-104308571D01*
X108624761Y-104260952D01*
X109323166Y-111640881D02*
X109656500Y-111164690D01*
X109894595Y-111640881D02*
X109894595Y-110640881D01*
X109513642Y-110640881D01*
X109418404Y-110688500D01*
X109370785Y-110736119D01*
X109323166Y-110831357D01*
X109323166Y-110974214D01*
X109370785Y-111069452D01*
X109418404Y-111117071D01*
X109513642Y-111164690D01*
X109894595Y-111164690D01*
X108846976Y-111640881D02*
X108656500Y-111640881D01*
X108561261Y-111593262D01*
X108513642Y-111545643D01*
X108418404Y-111402786D01*
X108370785Y-111212310D01*
X108370785Y-110831357D01*
X108418404Y-110736119D01*
X108466023Y-110688500D01*
X108561261Y-110640881D01*
X108751738Y-110640881D01*
X108846976Y-110688500D01*
X108894595Y-110736119D01*
X108942214Y-110831357D01*
X108942214Y-111069452D01*
X108894595Y-111164690D01*
X108846976Y-111212310D01*
X108751738Y-111259929D01*
X108561261Y-111259929D01*
X108466023Y-111212310D01*
X108418404Y-111164690D01*
X108370785Y-111069452D01*
D13*
X180359857Y-67409429D02*
X180359857Y-65885429D01*
X179779285Y-65885429D01*
X179634143Y-65958000D01*
X179561571Y-66030571D01*
X179489000Y-66175714D01*
X179489000Y-66393429D01*
X179561571Y-66538571D01*
X179634143Y-66611143D01*
X179779285Y-66683714D01*
X180359857Y-66683714D01*
X178037571Y-67409429D02*
X178908428Y-67409429D01*
X178473000Y-67409429D02*
X178473000Y-65885429D01*
X178618143Y-66103143D01*
X178763285Y-66248286D01*
X178908428Y-66320857D01*
D12*
X177117166Y-65113143D02*
X177164785Y-65160762D01*
X177307642Y-65208381D01*
X177402880Y-65208381D01*
X177545738Y-65160762D01*
X177640976Y-65065524D01*
X177688595Y-64970286D01*
X177736214Y-64779810D01*
X177736214Y-64636952D01*
X177688595Y-64446476D01*
X177640976Y-64351238D01*
X177545738Y-64256000D01*
X177402880Y-64208381D01*
X177307642Y-64208381D01*
X177164785Y-64256000D01*
X177117166Y-64303619D01*
X176164785Y-65208381D02*
X176736214Y-65208381D01*
X176450500Y-65208381D02*
X176450500Y-64208381D01*
X176545738Y-64351238D01*
X176640976Y-64446476D01*
X176736214Y-64494095D01*
X177180666Y-72761143D02*
X177228285Y-72808762D01*
X177371142Y-72856381D01*
X177466380Y-72856381D01*
X177609238Y-72808762D01*
X177704476Y-72713524D01*
X177752095Y-72618286D01*
X177799714Y-72427810D01*
X177799714Y-72284952D01*
X177752095Y-72094476D01*
X177704476Y-71999238D01*
X177609238Y-71904000D01*
X177466380Y-71856381D01*
X177371142Y-71856381D01*
X177228285Y-71904000D01*
X177180666Y-71951619D01*
X176799714Y-71951619D02*
X176752095Y-71904000D01*
X176656857Y-71856381D01*
X176418761Y-71856381D01*
X176323523Y-71904000D01*
X176275904Y-71951619D01*
X176228285Y-72046857D01*
X176228285Y-72142095D01*
X176275904Y-72284952D01*
X176847333Y-72856381D01*
X176228285Y-72856381D01*
X184546666Y-65462381D02*
X184880000Y-64986190D01*
X185118095Y-65462381D02*
X185118095Y-64462381D01*
X184737142Y-64462381D01*
X184641904Y-64510000D01*
X184594285Y-64557619D01*
X184546666Y-64652857D01*
X184546666Y-64795714D01*
X184594285Y-64890952D01*
X184641904Y-64938571D01*
X184737142Y-64986190D01*
X185118095Y-64986190D01*
X183594285Y-65462381D02*
X184165714Y-65462381D01*
X183880000Y-65462381D02*
X183880000Y-64462381D01*
X183975238Y-64605238D01*
X184070476Y-64700476D01*
X184165714Y-64748095D01*
X184546666Y-72856381D02*
X184880000Y-72380190D01*
X185118095Y-72856381D02*
X185118095Y-71856381D01*
X184737142Y-71856381D01*
X184641904Y-71904000D01*
X184594285Y-71951619D01*
X184546666Y-72046857D01*
X184546666Y-72189714D01*
X184594285Y-72284952D01*
X184641904Y-72332571D01*
X184737142Y-72380190D01*
X185118095Y-72380190D01*
X184165714Y-71951619D02*
X184118095Y-71904000D01*
X184022857Y-71856381D01*
X183784761Y-71856381D01*
X183689523Y-71904000D01*
X183641904Y-71951619D01*
X183594285Y-72046857D01*
X183594285Y-72142095D01*
X183641904Y-72284952D01*
X184213333Y-72856381D01*
X183594285Y-72856381D01*
X169832381Y-60793334D02*
X169356190Y-60460000D01*
X169832381Y-60221905D02*
X168832381Y-60221905D01*
X168832381Y-60602858D01*
X168880000Y-60698096D01*
X168927619Y-60745715D01*
X169022857Y-60793334D01*
X169165714Y-60793334D01*
X169260952Y-60745715D01*
X169308571Y-60698096D01*
X169356190Y-60602858D01*
X169356190Y-60221905D01*
X169165714Y-61650477D02*
X169832381Y-61650477D01*
X168784762Y-61412381D02*
X169499048Y-61174286D01*
X169499048Y-61793334D01*
X169832381Y-68413334D02*
X169356190Y-68080000D01*
X169832381Y-67841905D02*
X168832381Y-67841905D01*
X168832381Y-68222858D01*
X168880000Y-68318096D01*
X168927619Y-68365715D01*
X169022857Y-68413334D01*
X169165714Y-68413334D01*
X169260952Y-68365715D01*
X169308571Y-68318096D01*
X169356190Y-68222858D01*
X169356190Y-67841905D01*
X168832381Y-69270477D02*
X168832381Y-69080000D01*
X168880000Y-68984762D01*
X168927619Y-68937143D01*
X169070476Y-68841905D01*
X169260952Y-68794286D01*
X169641905Y-68794286D01*
X169737143Y-68841905D01*
X169784762Y-68889524D01*
X169832381Y-68984762D01*
X169832381Y-69175239D01*
X169784762Y-69270477D01*
X169737143Y-69318096D01*
X169641905Y-69365715D01*
X169403810Y-69365715D01*
X169308571Y-69318096D01*
X169260952Y-69270477D01*
X169213333Y-69175239D01*
X169213333Y-68984762D01*
X169260952Y-68889524D01*
X169308571Y-68841905D01*
X169403810Y-68794286D01*
X187086666Y-110702381D02*
X187420000Y-110226190D01*
X187658095Y-110702381D02*
X187658095Y-109702381D01*
X187277142Y-109702381D01*
X187181904Y-109750000D01*
X187134285Y-109797619D01*
X187086666Y-109892857D01*
X187086666Y-110035714D01*
X187134285Y-110130952D01*
X187181904Y-110178571D01*
X187277142Y-110226190D01*
X187658095Y-110226190D01*
X186753333Y-109702381D02*
X186086666Y-109702381D01*
X186515238Y-110702381D01*
X174386666Y-104832381D02*
X174720000Y-104356190D01*
X174958095Y-104832381D02*
X174958095Y-103832381D01*
X174577142Y-103832381D01*
X174481904Y-103880000D01*
X174434285Y-103927619D01*
X174386666Y-104022857D01*
X174386666Y-104165714D01*
X174434285Y-104260952D01*
X174481904Y-104308571D01*
X174577142Y-104356190D01*
X174958095Y-104356190D01*
X173815238Y-104260952D02*
X173910476Y-104213333D01*
X173958095Y-104165714D01*
X174005714Y-104070476D01*
X174005714Y-104022857D01*
X173958095Y-103927619D01*
X173910476Y-103880000D01*
X173815238Y-103832381D01*
X173624761Y-103832381D01*
X173529523Y-103880000D01*
X173481904Y-103927619D01*
X173434285Y-104022857D01*
X173434285Y-104070476D01*
X173481904Y-104165714D01*
X173529523Y-104213333D01*
X173624761Y-104260952D01*
X173815238Y-104260952D01*
X173910476Y-104308571D01*
X173958095Y-104356190D01*
X174005714Y-104451429D01*
X174005714Y-104641905D01*
X173958095Y-104737143D01*
X173910476Y-104784762D01*
X173815238Y-104832381D01*
X173624761Y-104832381D01*
X173529523Y-104784762D01*
X173481904Y-104737143D01*
X173434285Y-104641905D01*
X173434285Y-104451429D01*
X173481904Y-104356190D01*
X173529523Y-104308571D01*
X173624761Y-104260952D01*
X174323166Y-111640881D02*
X174656500Y-111164690D01*
X174894595Y-111640881D02*
X174894595Y-110640881D01*
X174513642Y-110640881D01*
X174418404Y-110688500D01*
X174370785Y-110736119D01*
X174323166Y-110831357D01*
X174323166Y-110974214D01*
X174370785Y-111069452D01*
X174418404Y-111117071D01*
X174513642Y-111164690D01*
X174894595Y-111164690D01*
X173846976Y-111640881D02*
X173656500Y-111640881D01*
X173561261Y-111593262D01*
X173513642Y-111545643D01*
X173418404Y-111402786D01*
X173370785Y-111212310D01*
X173370785Y-110831357D01*
X173418404Y-110736119D01*
X173466023Y-110688500D01*
X173561261Y-110640881D01*
X173751738Y-110640881D01*
X173846976Y-110688500D01*
X173894595Y-110736119D01*
X173942214Y-110831357D01*
X173942214Y-111069452D01*
X173894595Y-111164690D01*
X173846976Y-111212310D01*
X173751738Y-111259929D01*
X173561261Y-111259929D01*
X173466023Y-111212310D01*
X173418404Y-111164690D01*
X173370785Y-111069452D01*
M02*
