G04 #@! TF.FileFunction,Legend,Bot*
%FSLAX46Y46*%
G04 Gerber Fmt 4.6, Leading zero omitted, Abs format (unit mm)*
G04 Created by KiCad (PCBNEW 4.0.2-4+6225~38~ubuntu15.04.1-stable) date 2016年04月18日 00時15分29秒*
%MOMM*%
G01*
G04 APERTURE LIST*
%ADD10C,0.100000*%
%ADD11C,0.222000*%
%ADD12C,0.200000*%
%ADD13C,0.175000*%
%ADD14C,0.150000*%
%ADD15C,0.304800*%
G04 APERTURE END LIST*
D10*
D11*
X119200000Y-81100000D02*
X119200000Y-57500000D01*
X119200000Y-121100000D02*
X119200000Y-97500000D01*
X151200000Y-97500000D02*
X151200000Y-121100000D01*
X151200000Y-57500000D02*
X151200000Y-81100000D01*
D12*
X90673105Y-62464819D02*
X89873105Y-62464819D01*
X90444533Y-62731486D01*
X89873105Y-62998153D01*
X90673105Y-62998153D01*
X90673105Y-63379105D02*
X90139771Y-63379105D01*
X89873105Y-63379105D02*
X89911200Y-63341010D01*
X89949295Y-63379105D01*
X89911200Y-63417200D01*
X89873105Y-63379105D01*
X89949295Y-63379105D01*
X90635010Y-64102914D02*
X90673105Y-64026724D01*
X90673105Y-63874343D01*
X90635010Y-63798152D01*
X90596914Y-63760057D01*
X90520724Y-63721962D01*
X90292152Y-63721962D01*
X90215962Y-63760057D01*
X90177867Y-63798152D01*
X90139771Y-63874343D01*
X90139771Y-64026724D01*
X90177867Y-64102914D01*
X90673105Y-64445771D02*
X90139771Y-64445771D01*
X90292152Y-64445771D02*
X90215962Y-64483866D01*
X90177867Y-64521962D01*
X90139771Y-64598152D01*
X90139771Y-64674343D01*
X90673105Y-65055295D02*
X90635010Y-64979104D01*
X90596914Y-64941009D01*
X90520724Y-64902914D01*
X90292152Y-64902914D01*
X90215962Y-64941009D01*
X90177867Y-64979104D01*
X90139771Y-65055295D01*
X90139771Y-65169581D01*
X90177867Y-65245771D01*
X90215962Y-65283866D01*
X90292152Y-65321962D01*
X90520724Y-65321962D01*
X90596914Y-65283866D01*
X90635010Y-65245771D01*
X90673105Y-65169581D01*
X90673105Y-65055295D01*
X90749295Y-65474343D02*
X90749295Y-66083867D01*
X90635010Y-66236248D02*
X90673105Y-66350534D01*
X90673105Y-66541010D01*
X90635010Y-66617200D01*
X90596914Y-66655296D01*
X90520724Y-66693391D01*
X90444533Y-66693391D01*
X90368343Y-66655296D01*
X90330248Y-66617200D01*
X90292152Y-66541010D01*
X90254057Y-66388629D01*
X90215962Y-66312438D01*
X90177867Y-66274343D01*
X90101676Y-66236248D01*
X90025486Y-66236248D01*
X89949295Y-66274343D01*
X89911200Y-66312438D01*
X89873105Y-66388629D01*
X89873105Y-66579105D01*
X89911200Y-66693391D01*
X90673105Y-67036248D02*
X89873105Y-67036248D01*
X89873105Y-67226724D01*
X89911200Y-67341010D01*
X89987390Y-67417201D01*
X90063581Y-67455296D01*
X90215962Y-67493391D01*
X90330248Y-67493391D01*
X90482629Y-67455296D01*
X90558819Y-67417201D01*
X90635010Y-67341010D01*
X90673105Y-67226724D01*
X90673105Y-67036248D01*
X90596914Y-67836248D02*
X90635010Y-67874343D01*
X90673105Y-67836248D01*
X90635010Y-67798153D01*
X90596914Y-67836248D01*
X90673105Y-67836248D01*
X90177867Y-67836248D02*
X90215962Y-67874343D01*
X90254057Y-67836248D01*
X90215962Y-67798153D01*
X90177867Y-67836248D01*
X90254057Y-67836248D01*
X90596914Y-68674343D02*
X90635010Y-68636248D01*
X90673105Y-68521962D01*
X90673105Y-68445772D01*
X90635010Y-68331486D01*
X90558819Y-68255295D01*
X90482629Y-68217200D01*
X90330248Y-68179105D01*
X90215962Y-68179105D01*
X90063581Y-68217200D01*
X89987390Y-68255295D01*
X89911200Y-68331486D01*
X89873105Y-68445772D01*
X89873105Y-68521962D01*
X89911200Y-68636248D01*
X89949295Y-68674343D01*
X90635010Y-68979105D02*
X90673105Y-69093391D01*
X90673105Y-69283867D01*
X90635010Y-69360057D01*
X90596914Y-69398153D01*
X90520724Y-69436248D01*
X90444533Y-69436248D01*
X90368343Y-69398153D01*
X90330248Y-69360057D01*
X90292152Y-69283867D01*
X90254057Y-69131486D01*
X90215962Y-69055295D01*
X90177867Y-69017200D01*
X90101676Y-68979105D01*
X90025486Y-68979105D01*
X89949295Y-69017200D01*
X89911200Y-69055295D01*
X89873105Y-69131486D01*
X89873105Y-69321962D01*
X89911200Y-69436248D01*
X90254057Y-69779105D02*
X90254057Y-70388629D01*
X90482629Y-70388629D02*
X90482629Y-69779105D01*
X90673105Y-70769581D02*
X89873105Y-70769581D01*
X89873105Y-71302914D02*
X89873105Y-71455295D01*
X89911200Y-71531486D01*
X89987390Y-71607676D01*
X90139771Y-71645771D01*
X90406438Y-71645771D01*
X90558819Y-71607676D01*
X90635010Y-71531486D01*
X90673105Y-71455295D01*
X90673105Y-71302914D01*
X90635010Y-71226724D01*
X90558819Y-71150533D01*
X90406438Y-71112438D01*
X90139771Y-71112438D01*
X89987390Y-71150533D01*
X89911200Y-71226724D01*
X89873105Y-71302914D01*
X89873105Y-72369581D02*
X89873105Y-71988628D01*
X90254057Y-71950533D01*
X90215962Y-71988628D01*
X90177867Y-72064819D01*
X90177867Y-72255295D01*
X90215962Y-72331485D01*
X90254057Y-72369581D01*
X90330248Y-72407676D01*
X90520724Y-72407676D01*
X90596914Y-72369581D01*
X90635010Y-72331485D01*
X90673105Y-72255295D01*
X90673105Y-72064819D01*
X90635010Y-71988628D01*
X90596914Y-71950533D01*
D13*
X115995200Y-69218267D02*
X115561867Y-69218267D01*
X115795200Y-69484933D01*
X115695200Y-69484933D01*
X115628533Y-69518267D01*
X115595200Y-69551600D01*
X115561867Y-69618267D01*
X115561867Y-69784933D01*
X115595200Y-69851600D01*
X115628533Y-69884933D01*
X115695200Y-69918267D01*
X115895200Y-69918267D01*
X115961867Y-69884933D01*
X115995200Y-69851600D01*
X115328533Y-69218267D02*
X114895200Y-69218267D01*
X115128533Y-69484933D01*
X115028533Y-69484933D01*
X114961866Y-69518267D01*
X114928533Y-69551600D01*
X114895200Y-69618267D01*
X114895200Y-69784933D01*
X114928533Y-69851600D01*
X114961866Y-69884933D01*
X115028533Y-69918267D01*
X115228533Y-69918267D01*
X115295200Y-69884933D01*
X115328533Y-69851600D01*
X114461866Y-69218267D02*
X114395199Y-69218267D01*
X114328533Y-69251600D01*
X114295199Y-69284933D01*
X114261866Y-69351600D01*
X114228533Y-69484933D01*
X114228533Y-69651600D01*
X114261866Y-69784933D01*
X114295199Y-69851600D01*
X114328533Y-69884933D01*
X114395199Y-69918267D01*
X114461866Y-69918267D01*
X114528533Y-69884933D01*
X114561866Y-69851600D01*
X114595199Y-69784933D01*
X114628533Y-69651600D01*
X114628533Y-69484933D01*
X114595199Y-69351600D01*
X114561866Y-69284933D01*
X114528533Y-69251600D01*
X114461866Y-69218267D01*
X113961866Y-69918267D02*
X113795199Y-69918267D01*
X113795199Y-69784933D01*
X113861866Y-69751600D01*
X113928532Y-69684933D01*
X113961866Y-69584933D01*
X113961866Y-69418267D01*
X113928532Y-69318267D01*
X113861866Y-69251600D01*
X113761866Y-69218267D01*
X113628532Y-69218267D01*
X113528532Y-69251600D01*
X113461866Y-69318267D01*
X113428532Y-69418267D01*
X113428532Y-69584933D01*
X113461866Y-69684933D01*
X113528532Y-69751600D01*
X113595199Y-69784933D01*
X113595199Y-69918267D01*
X113428532Y-69918267D01*
X115944400Y-76939867D02*
X115511067Y-76939867D01*
X115744400Y-77206533D01*
X115644400Y-77206533D01*
X115577733Y-77239867D01*
X115544400Y-77273200D01*
X115511067Y-77339867D01*
X115511067Y-77506533D01*
X115544400Y-77573200D01*
X115577733Y-77606533D01*
X115644400Y-77639867D01*
X115844400Y-77639867D01*
X115911067Y-77606533D01*
X115944400Y-77573200D01*
X115277733Y-76939867D02*
X114844400Y-76939867D01*
X115077733Y-77206533D01*
X114977733Y-77206533D01*
X114911066Y-77239867D01*
X114877733Y-77273200D01*
X114844400Y-77339867D01*
X114844400Y-77506533D01*
X114877733Y-77573200D01*
X114911066Y-77606533D01*
X114977733Y-77639867D01*
X115177733Y-77639867D01*
X115244400Y-77606533D01*
X115277733Y-77573200D01*
X114411066Y-76939867D02*
X114344399Y-76939867D01*
X114277733Y-76973200D01*
X114244399Y-77006533D01*
X114211066Y-77073200D01*
X114177733Y-77206533D01*
X114177733Y-77373200D01*
X114211066Y-77506533D01*
X114244399Y-77573200D01*
X114277733Y-77606533D01*
X114344399Y-77639867D01*
X114411066Y-77639867D01*
X114477733Y-77606533D01*
X114511066Y-77573200D01*
X114544399Y-77506533D01*
X114577733Y-77373200D01*
X114577733Y-77206533D01*
X114544399Y-77073200D01*
X114511066Y-77006533D01*
X114477733Y-76973200D01*
X114411066Y-76939867D01*
X113911066Y-77639867D02*
X113744399Y-77639867D01*
X113744399Y-77506533D01*
X113811066Y-77473200D01*
X113877732Y-77406533D01*
X113911066Y-77306533D01*
X113911066Y-77139867D01*
X113877732Y-77039867D01*
X113811066Y-76973200D01*
X113711066Y-76939867D01*
X113577732Y-76939867D01*
X113477732Y-76973200D01*
X113411066Y-77039867D01*
X113377732Y-77139867D01*
X113377732Y-77306533D01*
X113411066Y-77406533D01*
X113477732Y-77473200D01*
X113544399Y-77506533D01*
X113544399Y-77639867D01*
X113377732Y-77639867D01*
X118196800Y-59956000D02*
X118263466Y-59917905D01*
X118363466Y-59917905D01*
X118463466Y-59956000D01*
X118530133Y-60032190D01*
X118563466Y-60108381D01*
X118596800Y-60260762D01*
X118596800Y-60375048D01*
X118563466Y-60527429D01*
X118530133Y-60603619D01*
X118463466Y-60679810D01*
X118363466Y-60717905D01*
X118296800Y-60717905D01*
X118196800Y-60679810D01*
X118163466Y-60641714D01*
X118163466Y-60375048D01*
X118296800Y-60375048D01*
X117863466Y-60717905D02*
X117863466Y-59917905D01*
X117463466Y-60717905D01*
X117463466Y-59917905D01*
X117130133Y-60717905D02*
X117130133Y-59917905D01*
X116963467Y-59917905D01*
X116863467Y-59956000D01*
X116796800Y-60032190D01*
X116763467Y-60108381D01*
X116730133Y-60260762D01*
X116730133Y-60375048D01*
X116763467Y-60527429D01*
X116796800Y-60603619D01*
X116863467Y-60679810D01*
X116963467Y-60717905D01*
X117130133Y-60717905D01*
X115896800Y-60717905D02*
X115896800Y-59917905D01*
X115430134Y-59917905D02*
X115296801Y-59917905D01*
X115230134Y-59956000D01*
X115163467Y-60032190D01*
X115130134Y-60184571D01*
X115130134Y-60451238D01*
X115163467Y-60603619D01*
X115230134Y-60679810D01*
X115296801Y-60717905D01*
X115430134Y-60717905D01*
X115496801Y-60679810D01*
X115563467Y-60603619D01*
X115596801Y-60451238D01*
X115596801Y-60184571D01*
X115563467Y-60032190D01*
X115496801Y-59956000D01*
X115430134Y-59917905D01*
X114463468Y-60717905D02*
X114863468Y-60717905D01*
X114663468Y-60717905D02*
X114663468Y-59917905D01*
X114730134Y-60032190D01*
X114796801Y-60108381D01*
X114863468Y-60146476D01*
X113863467Y-59917905D02*
X113996801Y-59917905D01*
X114063467Y-59956000D01*
X114096801Y-59994095D01*
X114163467Y-60108381D01*
X114196801Y-60260762D01*
X114196801Y-60565524D01*
X114163467Y-60641714D01*
X114130134Y-60679810D01*
X114063467Y-60717905D01*
X113930134Y-60717905D01*
X113863467Y-60679810D01*
X113830134Y-60641714D01*
X113796801Y-60565524D01*
X113796801Y-60375048D01*
X113830134Y-60298857D01*
X113863467Y-60260762D01*
X113930134Y-60222667D01*
X114063467Y-60222667D01*
X114130134Y-60260762D01*
X114163467Y-60298857D01*
X114196801Y-60375048D01*
X113030134Y-59917905D02*
X112596801Y-59917905D01*
X112830134Y-60222667D01*
X112730134Y-60222667D01*
X112663467Y-60260762D01*
X112630134Y-60298857D01*
X112596801Y-60375048D01*
X112596801Y-60565524D01*
X112630134Y-60641714D01*
X112663467Y-60679810D01*
X112730134Y-60717905D01*
X112930134Y-60717905D01*
X112996801Y-60679810D01*
X113030134Y-60641714D01*
X112296800Y-60641714D02*
X112263467Y-60679810D01*
X112296800Y-60717905D01*
X112330134Y-60679810D01*
X112296800Y-60641714D01*
X112296800Y-60717905D01*
X112030134Y-59917905D02*
X111596801Y-59917905D01*
X111830134Y-60222667D01*
X111730134Y-60222667D01*
X111663467Y-60260762D01*
X111630134Y-60298857D01*
X111596801Y-60375048D01*
X111596801Y-60565524D01*
X111630134Y-60641714D01*
X111663467Y-60679810D01*
X111730134Y-60717905D01*
X111930134Y-60717905D01*
X111996801Y-60679810D01*
X112030134Y-60641714D01*
X111396800Y-59917905D02*
X111163467Y-60717905D01*
X110930134Y-59917905D01*
D12*
X94552591Y-61454552D02*
X94552591Y-61835505D01*
X94819258Y-61035505D02*
X94552591Y-61454552D01*
X94285924Y-61035505D01*
X94019258Y-61416457D02*
X93752591Y-61416457D01*
X93638305Y-61835505D02*
X94019258Y-61835505D01*
X94019258Y-61035505D01*
X93638305Y-61035505D01*
X92914495Y-61835505D02*
X93295448Y-61835505D01*
X93295448Y-61035505D01*
X92266876Y-61835505D02*
X92647829Y-61835505D01*
X92647829Y-61035505D01*
X91847829Y-61035505D02*
X91695448Y-61035505D01*
X91619257Y-61073600D01*
X91543067Y-61149790D01*
X91504972Y-61302171D01*
X91504972Y-61568838D01*
X91543067Y-61721219D01*
X91619257Y-61797410D01*
X91695448Y-61835505D01*
X91847829Y-61835505D01*
X91924019Y-61797410D01*
X92000210Y-61721219D01*
X92038305Y-61568838D01*
X92038305Y-61302171D01*
X92000210Y-61149790D01*
X91924019Y-61073600D01*
X91847829Y-61035505D01*
X91238305Y-61035505D02*
X91047829Y-61835505D01*
X90895448Y-61264076D01*
X90743067Y-61835505D01*
X90552591Y-61035505D01*
X90438305Y-61911695D02*
X89828781Y-61911695D01*
X89257352Y-61835505D02*
X89638305Y-61835505D01*
X89638305Y-61035505D01*
X88990686Y-61416457D02*
X88724019Y-61416457D01*
X88609733Y-61835505D02*
X88990686Y-61835505D01*
X88990686Y-61035505D01*
X88609733Y-61035505D01*
X88266876Y-61835505D02*
X88266876Y-61035505D01*
X88076400Y-61035505D01*
X87962114Y-61073600D01*
X87885923Y-61149790D01*
X87847828Y-61225981D01*
X87809733Y-61378362D01*
X87809733Y-61492648D01*
X87847828Y-61645029D01*
X87885923Y-61721219D01*
X87962114Y-61797410D01*
X88076400Y-61835505D01*
X88266876Y-61835505D01*
X91846381Y-75961357D02*
X91846381Y-76580405D01*
X92227333Y-76247071D01*
X92227333Y-76389929D01*
X92274952Y-76485167D01*
X92322571Y-76532786D01*
X92417810Y-76580405D01*
X92655905Y-76580405D01*
X92751143Y-76532786D01*
X92798762Y-76485167D01*
X92846381Y-76389929D01*
X92846381Y-76104214D01*
X92798762Y-76008976D01*
X92751143Y-75961357D01*
X91846381Y-76913738D02*
X91846381Y-77532786D01*
X92227333Y-77199452D01*
X92227333Y-77342310D01*
X92274952Y-77437548D01*
X92322571Y-77485167D01*
X92417810Y-77532786D01*
X92655905Y-77532786D01*
X92751143Y-77485167D01*
X92798762Y-77437548D01*
X92846381Y-77342310D01*
X92846381Y-77056595D01*
X92798762Y-76961357D01*
X92751143Y-76913738D01*
X91846381Y-78151833D02*
X91846381Y-78247072D01*
X91894000Y-78342310D01*
X91941619Y-78389929D01*
X92036857Y-78437548D01*
X92227333Y-78485167D01*
X92465429Y-78485167D01*
X92655905Y-78437548D01*
X92751143Y-78389929D01*
X92798762Y-78342310D01*
X92846381Y-78247072D01*
X92846381Y-78151833D01*
X92798762Y-78056595D01*
X92751143Y-78008976D01*
X92655905Y-77961357D01*
X92465429Y-77913738D01*
X92227333Y-77913738D01*
X92036857Y-77961357D01*
X91941619Y-78008976D01*
X91894000Y-78056595D01*
X91846381Y-78151833D01*
X92846381Y-78866119D02*
X92846381Y-79104214D01*
X92655905Y-79104214D01*
X92608286Y-79008976D01*
X92513048Y-78913738D01*
X92370190Y-78866119D01*
X92132095Y-78866119D01*
X91989238Y-78913738D01*
X91894000Y-79008976D01*
X91846381Y-79151833D01*
X91846381Y-79342310D01*
X91894000Y-79485167D01*
X91989238Y-79580405D01*
X92132095Y-79628024D01*
X92370190Y-79628024D01*
X92513048Y-79580405D01*
X92608286Y-79485167D01*
X92655905Y-79389929D01*
X92846381Y-79389929D01*
X92846381Y-79628024D01*
X105054381Y-104980857D02*
X105054381Y-105599905D01*
X105435333Y-105266571D01*
X105435333Y-105409429D01*
X105482952Y-105504667D01*
X105530571Y-105552286D01*
X105625810Y-105599905D01*
X105863905Y-105599905D01*
X105959143Y-105552286D01*
X106006762Y-105504667D01*
X106054381Y-105409429D01*
X106054381Y-105123714D01*
X106006762Y-105028476D01*
X105959143Y-104980857D01*
X105054381Y-105933238D02*
X105054381Y-106552286D01*
X105435333Y-106218952D01*
X105435333Y-106361810D01*
X105482952Y-106457048D01*
X105530571Y-106504667D01*
X105625810Y-106552286D01*
X105863905Y-106552286D01*
X105959143Y-106504667D01*
X106006762Y-106457048D01*
X106054381Y-106361810D01*
X106054381Y-106076095D01*
X106006762Y-105980857D01*
X105959143Y-105933238D01*
X105054381Y-107171333D02*
X105054381Y-107266572D01*
X105102000Y-107361810D01*
X105149619Y-107409429D01*
X105244857Y-107457048D01*
X105435333Y-107504667D01*
X105673429Y-107504667D01*
X105863905Y-107457048D01*
X105959143Y-107409429D01*
X106006762Y-107361810D01*
X106054381Y-107266572D01*
X106054381Y-107171333D01*
X106006762Y-107076095D01*
X105959143Y-107028476D01*
X105863905Y-106980857D01*
X105673429Y-106933238D01*
X105435333Y-106933238D01*
X105244857Y-106980857D01*
X105149619Y-107028476D01*
X105102000Y-107076095D01*
X105054381Y-107171333D01*
X106054381Y-107885619D02*
X106054381Y-108123714D01*
X105863905Y-108123714D01*
X105816286Y-108028476D01*
X105721048Y-107933238D01*
X105578190Y-107885619D01*
X105340095Y-107885619D01*
X105197238Y-107933238D01*
X105102000Y-108028476D01*
X105054381Y-108171333D01*
X105054381Y-108361810D01*
X105102000Y-108504667D01*
X105197238Y-108599905D01*
X105340095Y-108647524D01*
X105578190Y-108647524D01*
X105721048Y-108599905D01*
X105816286Y-108504667D01*
X105863905Y-108409429D01*
X106054381Y-108409429D01*
X106054381Y-108647524D01*
X102514381Y-104980857D02*
X102514381Y-105599905D01*
X102895333Y-105266571D01*
X102895333Y-105409429D01*
X102942952Y-105504667D01*
X102990571Y-105552286D01*
X103085810Y-105599905D01*
X103323905Y-105599905D01*
X103419143Y-105552286D01*
X103466762Y-105504667D01*
X103514381Y-105409429D01*
X103514381Y-105123714D01*
X103466762Y-105028476D01*
X103419143Y-104980857D01*
X102514381Y-105933238D02*
X102514381Y-106552286D01*
X102895333Y-106218952D01*
X102895333Y-106361810D01*
X102942952Y-106457048D01*
X102990571Y-106504667D01*
X103085810Y-106552286D01*
X103323905Y-106552286D01*
X103419143Y-106504667D01*
X103466762Y-106457048D01*
X103514381Y-106361810D01*
X103514381Y-106076095D01*
X103466762Y-105980857D01*
X103419143Y-105933238D01*
X102514381Y-107171333D02*
X102514381Y-107266572D01*
X102562000Y-107361810D01*
X102609619Y-107409429D01*
X102704857Y-107457048D01*
X102895333Y-107504667D01*
X103133429Y-107504667D01*
X103323905Y-107457048D01*
X103419143Y-107409429D01*
X103466762Y-107361810D01*
X103514381Y-107266572D01*
X103514381Y-107171333D01*
X103466762Y-107076095D01*
X103419143Y-107028476D01*
X103323905Y-106980857D01*
X103133429Y-106933238D01*
X102895333Y-106933238D01*
X102704857Y-106980857D01*
X102609619Y-107028476D01*
X102562000Y-107076095D01*
X102514381Y-107171333D01*
X103514381Y-107885619D02*
X103514381Y-108123714D01*
X103323905Y-108123714D01*
X103276286Y-108028476D01*
X103181048Y-107933238D01*
X103038190Y-107885619D01*
X102800095Y-107885619D01*
X102657238Y-107933238D01*
X102562000Y-108028476D01*
X102514381Y-108171333D01*
X102514381Y-108361810D01*
X102562000Y-108504667D01*
X102657238Y-108599905D01*
X102800095Y-108647524D01*
X103038190Y-108647524D01*
X103181048Y-108599905D01*
X103276286Y-108504667D01*
X103323905Y-108409429D01*
X103514381Y-108409429D01*
X103514381Y-108647524D01*
X99974381Y-104980857D02*
X99974381Y-105599905D01*
X100355333Y-105266571D01*
X100355333Y-105409429D01*
X100402952Y-105504667D01*
X100450571Y-105552286D01*
X100545810Y-105599905D01*
X100783905Y-105599905D01*
X100879143Y-105552286D01*
X100926762Y-105504667D01*
X100974381Y-105409429D01*
X100974381Y-105123714D01*
X100926762Y-105028476D01*
X100879143Y-104980857D01*
X99974381Y-105933238D02*
X99974381Y-106552286D01*
X100355333Y-106218952D01*
X100355333Y-106361810D01*
X100402952Y-106457048D01*
X100450571Y-106504667D01*
X100545810Y-106552286D01*
X100783905Y-106552286D01*
X100879143Y-106504667D01*
X100926762Y-106457048D01*
X100974381Y-106361810D01*
X100974381Y-106076095D01*
X100926762Y-105980857D01*
X100879143Y-105933238D01*
X99974381Y-107171333D02*
X99974381Y-107266572D01*
X100022000Y-107361810D01*
X100069619Y-107409429D01*
X100164857Y-107457048D01*
X100355333Y-107504667D01*
X100593429Y-107504667D01*
X100783905Y-107457048D01*
X100879143Y-107409429D01*
X100926762Y-107361810D01*
X100974381Y-107266572D01*
X100974381Y-107171333D01*
X100926762Y-107076095D01*
X100879143Y-107028476D01*
X100783905Y-106980857D01*
X100593429Y-106933238D01*
X100355333Y-106933238D01*
X100164857Y-106980857D01*
X100069619Y-107028476D01*
X100022000Y-107076095D01*
X99974381Y-107171333D01*
X100974381Y-107885619D02*
X100974381Y-108123714D01*
X100783905Y-108123714D01*
X100736286Y-108028476D01*
X100641048Y-107933238D01*
X100498190Y-107885619D01*
X100260095Y-107885619D01*
X100117238Y-107933238D01*
X100022000Y-108028476D01*
X99974381Y-108171333D01*
X99974381Y-108361810D01*
X100022000Y-108504667D01*
X100117238Y-108599905D01*
X100260095Y-108647524D01*
X100498190Y-108647524D01*
X100641048Y-108599905D01*
X100736286Y-108504667D01*
X100783905Y-108409429D01*
X100974381Y-108409429D01*
X100974381Y-108647524D01*
X110697642Y-59093881D02*
X110697642Y-58331976D01*
X110745261Y-59046262D02*
X110745261Y-58379595D01*
X110792880Y-59046262D02*
X110792880Y-58379595D01*
X110840499Y-58998643D02*
X110840499Y-58427214D01*
X110888118Y-58998643D02*
X110888118Y-58427214D01*
X110935737Y-58951024D02*
X110935737Y-58474833D01*
X110983356Y-58951024D02*
X110983356Y-58474833D01*
X111030975Y-58903405D02*
X111030975Y-58522452D01*
X111078594Y-58855786D02*
X111078594Y-58570071D01*
X111126213Y-58855786D02*
X111126213Y-58570071D01*
X111173833Y-58808167D02*
X111173833Y-58617690D01*
X111221452Y-58808167D02*
X111221452Y-58617690D01*
X111269071Y-58712929D02*
X111316690Y-58712929D01*
X111269071Y-58760548D02*
X111269071Y-58665310D01*
X110650023Y-59093881D02*
X111364309Y-58712929D01*
X110650023Y-58331976D01*
X111411928Y-58712929D02*
X110650023Y-58284357D01*
X110650023Y-59141500D01*
X111411928Y-58712929D01*
X110221452Y-59046262D02*
X110078595Y-59093881D01*
X109840499Y-59093881D01*
X109745261Y-59046262D01*
X109697642Y-58998643D01*
X109650023Y-58903405D01*
X109650023Y-58808167D01*
X109697642Y-58712929D01*
X109745261Y-58665310D01*
X109840499Y-58617690D01*
X110030976Y-58570071D01*
X110126214Y-58522452D01*
X110173833Y-58474833D01*
X110221452Y-58379595D01*
X110221452Y-58284357D01*
X110173833Y-58189119D01*
X110126214Y-58141500D01*
X110030976Y-58093881D01*
X109792880Y-58093881D01*
X109650023Y-58141500D01*
X109316690Y-58093881D02*
X109078595Y-59093881D01*
X108888118Y-58379595D01*
X108697642Y-59093881D01*
X108459547Y-58093881D01*
X108316690Y-59189119D02*
X107554785Y-59189119D01*
X107316690Y-59093881D02*
X107316690Y-58093881D01*
X106840500Y-59093881D02*
X106840500Y-58093881D01*
X106269071Y-59093881D01*
X106269071Y-58093881D01*
X94787866Y-59917905D02*
X94787866Y-60489333D01*
X94825962Y-60603619D01*
X94902152Y-60679810D01*
X95016438Y-60717905D01*
X95092628Y-60717905D01*
X94406914Y-60717905D02*
X94406914Y-59917905D01*
X94102152Y-59917905D01*
X94025961Y-59956000D01*
X93987866Y-59994095D01*
X93949771Y-60070286D01*
X93949771Y-60184571D01*
X93987866Y-60260762D01*
X94025961Y-60298857D01*
X94102152Y-60336952D01*
X94406914Y-60336952D01*
X93645009Y-59994095D02*
X93606914Y-59956000D01*
X93530723Y-59917905D01*
X93340247Y-59917905D01*
X93264057Y-59956000D01*
X93225961Y-59994095D01*
X93187866Y-60070286D01*
X93187866Y-60146476D01*
X93225961Y-60260762D01*
X93683104Y-60717905D01*
X93187866Y-60717905D01*
X122673105Y-62464819D02*
X121873105Y-62464819D01*
X122444533Y-62731486D01*
X121873105Y-62998153D01*
X122673105Y-62998153D01*
X122673105Y-63379105D02*
X122139771Y-63379105D01*
X121873105Y-63379105D02*
X121911200Y-63341010D01*
X121949295Y-63379105D01*
X121911200Y-63417200D01*
X121873105Y-63379105D01*
X121949295Y-63379105D01*
X122635010Y-64102914D02*
X122673105Y-64026724D01*
X122673105Y-63874343D01*
X122635010Y-63798152D01*
X122596914Y-63760057D01*
X122520724Y-63721962D01*
X122292152Y-63721962D01*
X122215962Y-63760057D01*
X122177867Y-63798152D01*
X122139771Y-63874343D01*
X122139771Y-64026724D01*
X122177867Y-64102914D01*
X122673105Y-64445771D02*
X122139771Y-64445771D01*
X122292152Y-64445771D02*
X122215962Y-64483866D01*
X122177867Y-64521962D01*
X122139771Y-64598152D01*
X122139771Y-64674343D01*
X122673105Y-65055295D02*
X122635010Y-64979104D01*
X122596914Y-64941009D01*
X122520724Y-64902914D01*
X122292152Y-64902914D01*
X122215962Y-64941009D01*
X122177867Y-64979104D01*
X122139771Y-65055295D01*
X122139771Y-65169581D01*
X122177867Y-65245771D01*
X122215962Y-65283866D01*
X122292152Y-65321962D01*
X122520724Y-65321962D01*
X122596914Y-65283866D01*
X122635010Y-65245771D01*
X122673105Y-65169581D01*
X122673105Y-65055295D01*
X122749295Y-65474343D02*
X122749295Y-66083867D01*
X122635010Y-66236248D02*
X122673105Y-66350534D01*
X122673105Y-66541010D01*
X122635010Y-66617200D01*
X122596914Y-66655296D01*
X122520724Y-66693391D01*
X122444533Y-66693391D01*
X122368343Y-66655296D01*
X122330248Y-66617200D01*
X122292152Y-66541010D01*
X122254057Y-66388629D01*
X122215962Y-66312438D01*
X122177867Y-66274343D01*
X122101676Y-66236248D01*
X122025486Y-66236248D01*
X121949295Y-66274343D01*
X121911200Y-66312438D01*
X121873105Y-66388629D01*
X121873105Y-66579105D01*
X121911200Y-66693391D01*
X122673105Y-67036248D02*
X121873105Y-67036248D01*
X121873105Y-67226724D01*
X121911200Y-67341010D01*
X121987390Y-67417201D01*
X122063581Y-67455296D01*
X122215962Y-67493391D01*
X122330248Y-67493391D01*
X122482629Y-67455296D01*
X122558819Y-67417201D01*
X122635010Y-67341010D01*
X122673105Y-67226724D01*
X122673105Y-67036248D01*
X122596914Y-67836248D02*
X122635010Y-67874343D01*
X122673105Y-67836248D01*
X122635010Y-67798153D01*
X122596914Y-67836248D01*
X122673105Y-67836248D01*
X122177867Y-67836248D02*
X122215962Y-67874343D01*
X122254057Y-67836248D01*
X122215962Y-67798153D01*
X122177867Y-67836248D01*
X122254057Y-67836248D01*
X122596914Y-68674343D02*
X122635010Y-68636248D01*
X122673105Y-68521962D01*
X122673105Y-68445772D01*
X122635010Y-68331486D01*
X122558819Y-68255295D01*
X122482629Y-68217200D01*
X122330248Y-68179105D01*
X122215962Y-68179105D01*
X122063581Y-68217200D01*
X121987390Y-68255295D01*
X121911200Y-68331486D01*
X121873105Y-68445772D01*
X121873105Y-68521962D01*
X121911200Y-68636248D01*
X121949295Y-68674343D01*
X122635010Y-68979105D02*
X122673105Y-69093391D01*
X122673105Y-69283867D01*
X122635010Y-69360057D01*
X122596914Y-69398153D01*
X122520724Y-69436248D01*
X122444533Y-69436248D01*
X122368343Y-69398153D01*
X122330248Y-69360057D01*
X122292152Y-69283867D01*
X122254057Y-69131486D01*
X122215962Y-69055295D01*
X122177867Y-69017200D01*
X122101676Y-68979105D01*
X122025486Y-68979105D01*
X121949295Y-69017200D01*
X121911200Y-69055295D01*
X121873105Y-69131486D01*
X121873105Y-69321962D01*
X121911200Y-69436248D01*
X122254057Y-69779105D02*
X122254057Y-70388629D01*
X122482629Y-70388629D02*
X122482629Y-69779105D01*
X122673105Y-70769581D02*
X121873105Y-70769581D01*
X121873105Y-71302914D02*
X121873105Y-71455295D01*
X121911200Y-71531486D01*
X121987390Y-71607676D01*
X122139771Y-71645771D01*
X122406438Y-71645771D01*
X122558819Y-71607676D01*
X122635010Y-71531486D01*
X122673105Y-71455295D01*
X122673105Y-71302914D01*
X122635010Y-71226724D01*
X122558819Y-71150533D01*
X122406438Y-71112438D01*
X122139771Y-71112438D01*
X121987390Y-71150533D01*
X121911200Y-71226724D01*
X121873105Y-71302914D01*
X121873105Y-72369581D02*
X121873105Y-71988628D01*
X122254057Y-71950533D01*
X122215962Y-71988628D01*
X122177867Y-72064819D01*
X122177867Y-72255295D01*
X122215962Y-72331485D01*
X122254057Y-72369581D01*
X122330248Y-72407676D01*
X122520724Y-72407676D01*
X122596914Y-72369581D01*
X122635010Y-72331485D01*
X122673105Y-72255295D01*
X122673105Y-72064819D01*
X122635010Y-71988628D01*
X122596914Y-71950533D01*
D13*
X147995200Y-69218267D02*
X147561867Y-69218267D01*
X147795200Y-69484933D01*
X147695200Y-69484933D01*
X147628533Y-69518267D01*
X147595200Y-69551600D01*
X147561867Y-69618267D01*
X147561867Y-69784933D01*
X147595200Y-69851600D01*
X147628533Y-69884933D01*
X147695200Y-69918267D01*
X147895200Y-69918267D01*
X147961867Y-69884933D01*
X147995200Y-69851600D01*
X147328533Y-69218267D02*
X146895200Y-69218267D01*
X147128533Y-69484933D01*
X147028533Y-69484933D01*
X146961866Y-69518267D01*
X146928533Y-69551600D01*
X146895200Y-69618267D01*
X146895200Y-69784933D01*
X146928533Y-69851600D01*
X146961866Y-69884933D01*
X147028533Y-69918267D01*
X147228533Y-69918267D01*
X147295200Y-69884933D01*
X147328533Y-69851600D01*
X146461866Y-69218267D02*
X146395199Y-69218267D01*
X146328533Y-69251600D01*
X146295199Y-69284933D01*
X146261866Y-69351600D01*
X146228533Y-69484933D01*
X146228533Y-69651600D01*
X146261866Y-69784933D01*
X146295199Y-69851600D01*
X146328533Y-69884933D01*
X146395199Y-69918267D01*
X146461866Y-69918267D01*
X146528533Y-69884933D01*
X146561866Y-69851600D01*
X146595199Y-69784933D01*
X146628533Y-69651600D01*
X146628533Y-69484933D01*
X146595199Y-69351600D01*
X146561866Y-69284933D01*
X146528533Y-69251600D01*
X146461866Y-69218267D01*
X145961866Y-69918267D02*
X145795199Y-69918267D01*
X145795199Y-69784933D01*
X145861866Y-69751600D01*
X145928532Y-69684933D01*
X145961866Y-69584933D01*
X145961866Y-69418267D01*
X145928532Y-69318267D01*
X145861866Y-69251600D01*
X145761866Y-69218267D01*
X145628532Y-69218267D01*
X145528532Y-69251600D01*
X145461866Y-69318267D01*
X145428532Y-69418267D01*
X145428532Y-69584933D01*
X145461866Y-69684933D01*
X145528532Y-69751600D01*
X145595199Y-69784933D01*
X145595199Y-69918267D01*
X145428532Y-69918267D01*
X147944400Y-76939867D02*
X147511067Y-76939867D01*
X147744400Y-77206533D01*
X147644400Y-77206533D01*
X147577733Y-77239867D01*
X147544400Y-77273200D01*
X147511067Y-77339867D01*
X147511067Y-77506533D01*
X147544400Y-77573200D01*
X147577733Y-77606533D01*
X147644400Y-77639867D01*
X147844400Y-77639867D01*
X147911067Y-77606533D01*
X147944400Y-77573200D01*
X147277733Y-76939867D02*
X146844400Y-76939867D01*
X147077733Y-77206533D01*
X146977733Y-77206533D01*
X146911066Y-77239867D01*
X146877733Y-77273200D01*
X146844400Y-77339867D01*
X146844400Y-77506533D01*
X146877733Y-77573200D01*
X146911066Y-77606533D01*
X146977733Y-77639867D01*
X147177733Y-77639867D01*
X147244400Y-77606533D01*
X147277733Y-77573200D01*
X146411066Y-76939867D02*
X146344399Y-76939867D01*
X146277733Y-76973200D01*
X146244399Y-77006533D01*
X146211066Y-77073200D01*
X146177733Y-77206533D01*
X146177733Y-77373200D01*
X146211066Y-77506533D01*
X146244399Y-77573200D01*
X146277733Y-77606533D01*
X146344399Y-77639867D01*
X146411066Y-77639867D01*
X146477733Y-77606533D01*
X146511066Y-77573200D01*
X146544399Y-77506533D01*
X146577733Y-77373200D01*
X146577733Y-77206533D01*
X146544399Y-77073200D01*
X146511066Y-77006533D01*
X146477733Y-76973200D01*
X146411066Y-76939867D01*
X145911066Y-77639867D02*
X145744399Y-77639867D01*
X145744399Y-77506533D01*
X145811066Y-77473200D01*
X145877732Y-77406533D01*
X145911066Y-77306533D01*
X145911066Y-77139867D01*
X145877732Y-77039867D01*
X145811066Y-76973200D01*
X145711066Y-76939867D01*
X145577732Y-76939867D01*
X145477732Y-76973200D01*
X145411066Y-77039867D01*
X145377732Y-77139867D01*
X145377732Y-77306533D01*
X145411066Y-77406533D01*
X145477732Y-77473200D01*
X145544399Y-77506533D01*
X145544399Y-77639867D01*
X145377732Y-77639867D01*
X150196800Y-59956000D02*
X150263466Y-59917905D01*
X150363466Y-59917905D01*
X150463466Y-59956000D01*
X150530133Y-60032190D01*
X150563466Y-60108381D01*
X150596800Y-60260762D01*
X150596800Y-60375048D01*
X150563466Y-60527429D01*
X150530133Y-60603619D01*
X150463466Y-60679810D01*
X150363466Y-60717905D01*
X150296800Y-60717905D01*
X150196800Y-60679810D01*
X150163466Y-60641714D01*
X150163466Y-60375048D01*
X150296800Y-60375048D01*
X149863466Y-60717905D02*
X149863466Y-59917905D01*
X149463466Y-60717905D01*
X149463466Y-59917905D01*
X149130133Y-60717905D02*
X149130133Y-59917905D01*
X148963467Y-59917905D01*
X148863467Y-59956000D01*
X148796800Y-60032190D01*
X148763467Y-60108381D01*
X148730133Y-60260762D01*
X148730133Y-60375048D01*
X148763467Y-60527429D01*
X148796800Y-60603619D01*
X148863467Y-60679810D01*
X148963467Y-60717905D01*
X149130133Y-60717905D01*
X147896800Y-60717905D02*
X147896800Y-59917905D01*
X147430134Y-59917905D02*
X147296801Y-59917905D01*
X147230134Y-59956000D01*
X147163467Y-60032190D01*
X147130134Y-60184571D01*
X147130134Y-60451238D01*
X147163467Y-60603619D01*
X147230134Y-60679810D01*
X147296801Y-60717905D01*
X147430134Y-60717905D01*
X147496801Y-60679810D01*
X147563467Y-60603619D01*
X147596801Y-60451238D01*
X147596801Y-60184571D01*
X147563467Y-60032190D01*
X147496801Y-59956000D01*
X147430134Y-59917905D01*
X146463468Y-60717905D02*
X146863468Y-60717905D01*
X146663468Y-60717905D02*
X146663468Y-59917905D01*
X146730134Y-60032190D01*
X146796801Y-60108381D01*
X146863468Y-60146476D01*
X145863467Y-59917905D02*
X145996801Y-59917905D01*
X146063467Y-59956000D01*
X146096801Y-59994095D01*
X146163467Y-60108381D01*
X146196801Y-60260762D01*
X146196801Y-60565524D01*
X146163467Y-60641714D01*
X146130134Y-60679810D01*
X146063467Y-60717905D01*
X145930134Y-60717905D01*
X145863467Y-60679810D01*
X145830134Y-60641714D01*
X145796801Y-60565524D01*
X145796801Y-60375048D01*
X145830134Y-60298857D01*
X145863467Y-60260762D01*
X145930134Y-60222667D01*
X146063467Y-60222667D01*
X146130134Y-60260762D01*
X146163467Y-60298857D01*
X146196801Y-60375048D01*
X145030134Y-59917905D02*
X144596801Y-59917905D01*
X144830134Y-60222667D01*
X144730134Y-60222667D01*
X144663467Y-60260762D01*
X144630134Y-60298857D01*
X144596801Y-60375048D01*
X144596801Y-60565524D01*
X144630134Y-60641714D01*
X144663467Y-60679810D01*
X144730134Y-60717905D01*
X144930134Y-60717905D01*
X144996801Y-60679810D01*
X145030134Y-60641714D01*
X144296800Y-60641714D02*
X144263467Y-60679810D01*
X144296800Y-60717905D01*
X144330134Y-60679810D01*
X144296800Y-60641714D01*
X144296800Y-60717905D01*
X144030134Y-59917905D02*
X143596801Y-59917905D01*
X143830134Y-60222667D01*
X143730134Y-60222667D01*
X143663467Y-60260762D01*
X143630134Y-60298857D01*
X143596801Y-60375048D01*
X143596801Y-60565524D01*
X143630134Y-60641714D01*
X143663467Y-60679810D01*
X143730134Y-60717905D01*
X143930134Y-60717905D01*
X143996801Y-60679810D01*
X144030134Y-60641714D01*
X143396800Y-59917905D02*
X143163467Y-60717905D01*
X142930134Y-59917905D01*
D12*
X126552591Y-61454552D02*
X126552591Y-61835505D01*
X126819258Y-61035505D02*
X126552591Y-61454552D01*
X126285924Y-61035505D01*
X126019258Y-61416457D02*
X125752591Y-61416457D01*
X125638305Y-61835505D02*
X126019258Y-61835505D01*
X126019258Y-61035505D01*
X125638305Y-61035505D01*
X124914495Y-61835505D02*
X125295448Y-61835505D01*
X125295448Y-61035505D01*
X124266876Y-61835505D02*
X124647829Y-61835505D01*
X124647829Y-61035505D01*
X123847829Y-61035505D02*
X123695448Y-61035505D01*
X123619257Y-61073600D01*
X123543067Y-61149790D01*
X123504972Y-61302171D01*
X123504972Y-61568838D01*
X123543067Y-61721219D01*
X123619257Y-61797410D01*
X123695448Y-61835505D01*
X123847829Y-61835505D01*
X123924019Y-61797410D01*
X124000210Y-61721219D01*
X124038305Y-61568838D01*
X124038305Y-61302171D01*
X124000210Y-61149790D01*
X123924019Y-61073600D01*
X123847829Y-61035505D01*
X123238305Y-61035505D02*
X123047829Y-61835505D01*
X122895448Y-61264076D01*
X122743067Y-61835505D01*
X122552591Y-61035505D01*
X122438305Y-61911695D02*
X121828781Y-61911695D01*
X121257352Y-61835505D02*
X121638305Y-61835505D01*
X121638305Y-61035505D01*
X120990686Y-61416457D02*
X120724019Y-61416457D01*
X120609733Y-61835505D02*
X120990686Y-61835505D01*
X120990686Y-61035505D01*
X120609733Y-61035505D01*
X120266876Y-61835505D02*
X120266876Y-61035505D01*
X120076400Y-61035505D01*
X119962114Y-61073600D01*
X119885923Y-61149790D01*
X119847828Y-61225981D01*
X119809733Y-61378362D01*
X119809733Y-61492648D01*
X119847828Y-61645029D01*
X119885923Y-61721219D01*
X119962114Y-61797410D01*
X120076400Y-61835505D01*
X120266876Y-61835505D01*
X123846381Y-75961357D02*
X123846381Y-76580405D01*
X124227333Y-76247071D01*
X124227333Y-76389929D01*
X124274952Y-76485167D01*
X124322571Y-76532786D01*
X124417810Y-76580405D01*
X124655905Y-76580405D01*
X124751143Y-76532786D01*
X124798762Y-76485167D01*
X124846381Y-76389929D01*
X124846381Y-76104214D01*
X124798762Y-76008976D01*
X124751143Y-75961357D01*
X123846381Y-76913738D02*
X123846381Y-77532786D01*
X124227333Y-77199452D01*
X124227333Y-77342310D01*
X124274952Y-77437548D01*
X124322571Y-77485167D01*
X124417810Y-77532786D01*
X124655905Y-77532786D01*
X124751143Y-77485167D01*
X124798762Y-77437548D01*
X124846381Y-77342310D01*
X124846381Y-77056595D01*
X124798762Y-76961357D01*
X124751143Y-76913738D01*
X123846381Y-78151833D02*
X123846381Y-78247072D01*
X123894000Y-78342310D01*
X123941619Y-78389929D01*
X124036857Y-78437548D01*
X124227333Y-78485167D01*
X124465429Y-78485167D01*
X124655905Y-78437548D01*
X124751143Y-78389929D01*
X124798762Y-78342310D01*
X124846381Y-78247072D01*
X124846381Y-78151833D01*
X124798762Y-78056595D01*
X124751143Y-78008976D01*
X124655905Y-77961357D01*
X124465429Y-77913738D01*
X124227333Y-77913738D01*
X124036857Y-77961357D01*
X123941619Y-78008976D01*
X123894000Y-78056595D01*
X123846381Y-78151833D01*
X124846381Y-78866119D02*
X124846381Y-79104214D01*
X124655905Y-79104214D01*
X124608286Y-79008976D01*
X124513048Y-78913738D01*
X124370190Y-78866119D01*
X124132095Y-78866119D01*
X123989238Y-78913738D01*
X123894000Y-79008976D01*
X123846381Y-79151833D01*
X123846381Y-79342310D01*
X123894000Y-79485167D01*
X123989238Y-79580405D01*
X124132095Y-79628024D01*
X124370190Y-79628024D01*
X124513048Y-79580405D01*
X124608286Y-79485167D01*
X124655905Y-79389929D01*
X124846381Y-79389929D01*
X124846381Y-79628024D01*
X137054381Y-104980857D02*
X137054381Y-105599905D01*
X137435333Y-105266571D01*
X137435333Y-105409429D01*
X137482952Y-105504667D01*
X137530571Y-105552286D01*
X137625810Y-105599905D01*
X137863905Y-105599905D01*
X137959143Y-105552286D01*
X138006762Y-105504667D01*
X138054381Y-105409429D01*
X138054381Y-105123714D01*
X138006762Y-105028476D01*
X137959143Y-104980857D01*
X137054381Y-105933238D02*
X137054381Y-106552286D01*
X137435333Y-106218952D01*
X137435333Y-106361810D01*
X137482952Y-106457048D01*
X137530571Y-106504667D01*
X137625810Y-106552286D01*
X137863905Y-106552286D01*
X137959143Y-106504667D01*
X138006762Y-106457048D01*
X138054381Y-106361810D01*
X138054381Y-106076095D01*
X138006762Y-105980857D01*
X137959143Y-105933238D01*
X137054381Y-107171333D02*
X137054381Y-107266572D01*
X137102000Y-107361810D01*
X137149619Y-107409429D01*
X137244857Y-107457048D01*
X137435333Y-107504667D01*
X137673429Y-107504667D01*
X137863905Y-107457048D01*
X137959143Y-107409429D01*
X138006762Y-107361810D01*
X138054381Y-107266572D01*
X138054381Y-107171333D01*
X138006762Y-107076095D01*
X137959143Y-107028476D01*
X137863905Y-106980857D01*
X137673429Y-106933238D01*
X137435333Y-106933238D01*
X137244857Y-106980857D01*
X137149619Y-107028476D01*
X137102000Y-107076095D01*
X137054381Y-107171333D01*
X138054381Y-107885619D02*
X138054381Y-108123714D01*
X137863905Y-108123714D01*
X137816286Y-108028476D01*
X137721048Y-107933238D01*
X137578190Y-107885619D01*
X137340095Y-107885619D01*
X137197238Y-107933238D01*
X137102000Y-108028476D01*
X137054381Y-108171333D01*
X137054381Y-108361810D01*
X137102000Y-108504667D01*
X137197238Y-108599905D01*
X137340095Y-108647524D01*
X137578190Y-108647524D01*
X137721048Y-108599905D01*
X137816286Y-108504667D01*
X137863905Y-108409429D01*
X138054381Y-108409429D01*
X138054381Y-108647524D01*
X134514381Y-104980857D02*
X134514381Y-105599905D01*
X134895333Y-105266571D01*
X134895333Y-105409429D01*
X134942952Y-105504667D01*
X134990571Y-105552286D01*
X135085810Y-105599905D01*
X135323905Y-105599905D01*
X135419143Y-105552286D01*
X135466762Y-105504667D01*
X135514381Y-105409429D01*
X135514381Y-105123714D01*
X135466762Y-105028476D01*
X135419143Y-104980857D01*
X134514381Y-105933238D02*
X134514381Y-106552286D01*
X134895333Y-106218952D01*
X134895333Y-106361810D01*
X134942952Y-106457048D01*
X134990571Y-106504667D01*
X135085810Y-106552286D01*
X135323905Y-106552286D01*
X135419143Y-106504667D01*
X135466762Y-106457048D01*
X135514381Y-106361810D01*
X135514381Y-106076095D01*
X135466762Y-105980857D01*
X135419143Y-105933238D01*
X134514381Y-107171333D02*
X134514381Y-107266572D01*
X134562000Y-107361810D01*
X134609619Y-107409429D01*
X134704857Y-107457048D01*
X134895333Y-107504667D01*
X135133429Y-107504667D01*
X135323905Y-107457048D01*
X135419143Y-107409429D01*
X135466762Y-107361810D01*
X135514381Y-107266572D01*
X135514381Y-107171333D01*
X135466762Y-107076095D01*
X135419143Y-107028476D01*
X135323905Y-106980857D01*
X135133429Y-106933238D01*
X134895333Y-106933238D01*
X134704857Y-106980857D01*
X134609619Y-107028476D01*
X134562000Y-107076095D01*
X134514381Y-107171333D01*
X135514381Y-107885619D02*
X135514381Y-108123714D01*
X135323905Y-108123714D01*
X135276286Y-108028476D01*
X135181048Y-107933238D01*
X135038190Y-107885619D01*
X134800095Y-107885619D01*
X134657238Y-107933238D01*
X134562000Y-108028476D01*
X134514381Y-108171333D01*
X134514381Y-108361810D01*
X134562000Y-108504667D01*
X134657238Y-108599905D01*
X134800095Y-108647524D01*
X135038190Y-108647524D01*
X135181048Y-108599905D01*
X135276286Y-108504667D01*
X135323905Y-108409429D01*
X135514381Y-108409429D01*
X135514381Y-108647524D01*
X131974381Y-104980857D02*
X131974381Y-105599905D01*
X132355333Y-105266571D01*
X132355333Y-105409429D01*
X132402952Y-105504667D01*
X132450571Y-105552286D01*
X132545810Y-105599905D01*
X132783905Y-105599905D01*
X132879143Y-105552286D01*
X132926762Y-105504667D01*
X132974381Y-105409429D01*
X132974381Y-105123714D01*
X132926762Y-105028476D01*
X132879143Y-104980857D01*
X131974381Y-105933238D02*
X131974381Y-106552286D01*
X132355333Y-106218952D01*
X132355333Y-106361810D01*
X132402952Y-106457048D01*
X132450571Y-106504667D01*
X132545810Y-106552286D01*
X132783905Y-106552286D01*
X132879143Y-106504667D01*
X132926762Y-106457048D01*
X132974381Y-106361810D01*
X132974381Y-106076095D01*
X132926762Y-105980857D01*
X132879143Y-105933238D01*
X131974381Y-107171333D02*
X131974381Y-107266572D01*
X132022000Y-107361810D01*
X132069619Y-107409429D01*
X132164857Y-107457048D01*
X132355333Y-107504667D01*
X132593429Y-107504667D01*
X132783905Y-107457048D01*
X132879143Y-107409429D01*
X132926762Y-107361810D01*
X132974381Y-107266572D01*
X132974381Y-107171333D01*
X132926762Y-107076095D01*
X132879143Y-107028476D01*
X132783905Y-106980857D01*
X132593429Y-106933238D01*
X132355333Y-106933238D01*
X132164857Y-106980857D01*
X132069619Y-107028476D01*
X132022000Y-107076095D01*
X131974381Y-107171333D01*
X132974381Y-107885619D02*
X132974381Y-108123714D01*
X132783905Y-108123714D01*
X132736286Y-108028476D01*
X132641048Y-107933238D01*
X132498190Y-107885619D01*
X132260095Y-107885619D01*
X132117238Y-107933238D01*
X132022000Y-108028476D01*
X131974381Y-108171333D01*
X131974381Y-108361810D01*
X132022000Y-108504667D01*
X132117238Y-108599905D01*
X132260095Y-108647524D01*
X132498190Y-108647524D01*
X132641048Y-108599905D01*
X132736286Y-108504667D01*
X132783905Y-108409429D01*
X132974381Y-108409429D01*
X132974381Y-108647524D01*
X142697642Y-59093881D02*
X142697642Y-58331976D01*
X142745261Y-59046262D02*
X142745261Y-58379595D01*
X142792880Y-59046262D02*
X142792880Y-58379595D01*
X142840499Y-58998643D02*
X142840499Y-58427214D01*
X142888118Y-58998643D02*
X142888118Y-58427214D01*
X142935737Y-58951024D02*
X142935737Y-58474833D01*
X142983356Y-58951024D02*
X142983356Y-58474833D01*
X143030975Y-58903405D02*
X143030975Y-58522452D01*
X143078594Y-58855786D02*
X143078594Y-58570071D01*
X143126213Y-58855786D02*
X143126213Y-58570071D01*
X143173833Y-58808167D02*
X143173833Y-58617690D01*
X143221452Y-58808167D02*
X143221452Y-58617690D01*
X143269071Y-58712929D02*
X143316690Y-58712929D01*
X143269071Y-58760548D02*
X143269071Y-58665310D01*
X142650023Y-59093881D02*
X143364309Y-58712929D01*
X142650023Y-58331976D01*
X143411928Y-58712929D02*
X142650023Y-58284357D01*
X142650023Y-59141500D01*
X143411928Y-58712929D01*
X142221452Y-59046262D02*
X142078595Y-59093881D01*
X141840499Y-59093881D01*
X141745261Y-59046262D01*
X141697642Y-58998643D01*
X141650023Y-58903405D01*
X141650023Y-58808167D01*
X141697642Y-58712929D01*
X141745261Y-58665310D01*
X141840499Y-58617690D01*
X142030976Y-58570071D01*
X142126214Y-58522452D01*
X142173833Y-58474833D01*
X142221452Y-58379595D01*
X142221452Y-58284357D01*
X142173833Y-58189119D01*
X142126214Y-58141500D01*
X142030976Y-58093881D01*
X141792880Y-58093881D01*
X141650023Y-58141500D01*
X141316690Y-58093881D02*
X141078595Y-59093881D01*
X140888118Y-58379595D01*
X140697642Y-59093881D01*
X140459547Y-58093881D01*
X140316690Y-59189119D02*
X139554785Y-59189119D01*
X139316690Y-59093881D02*
X139316690Y-58093881D01*
X138840500Y-59093881D02*
X138840500Y-58093881D01*
X138269071Y-59093881D01*
X138269071Y-58093881D01*
X126787866Y-59917905D02*
X126787866Y-60489333D01*
X126825962Y-60603619D01*
X126902152Y-60679810D01*
X127016438Y-60717905D01*
X127092628Y-60717905D01*
X126406914Y-60717905D02*
X126406914Y-59917905D01*
X126102152Y-59917905D01*
X126025961Y-59956000D01*
X125987866Y-59994095D01*
X125949771Y-60070286D01*
X125949771Y-60184571D01*
X125987866Y-60260762D01*
X126025961Y-60298857D01*
X126102152Y-60336952D01*
X126406914Y-60336952D01*
X125645009Y-59994095D02*
X125606914Y-59956000D01*
X125530723Y-59917905D01*
X125340247Y-59917905D01*
X125264057Y-59956000D01*
X125225961Y-59994095D01*
X125187866Y-60070286D01*
X125187866Y-60146476D01*
X125225961Y-60260762D01*
X125683104Y-60717905D01*
X125187866Y-60717905D01*
X154673105Y-62464819D02*
X153873105Y-62464819D01*
X154444533Y-62731486D01*
X153873105Y-62998153D01*
X154673105Y-62998153D01*
X154673105Y-63379105D02*
X154139771Y-63379105D01*
X153873105Y-63379105D02*
X153911200Y-63341010D01*
X153949295Y-63379105D01*
X153911200Y-63417200D01*
X153873105Y-63379105D01*
X153949295Y-63379105D01*
X154635010Y-64102914D02*
X154673105Y-64026724D01*
X154673105Y-63874343D01*
X154635010Y-63798152D01*
X154596914Y-63760057D01*
X154520724Y-63721962D01*
X154292152Y-63721962D01*
X154215962Y-63760057D01*
X154177867Y-63798152D01*
X154139771Y-63874343D01*
X154139771Y-64026724D01*
X154177867Y-64102914D01*
X154673105Y-64445771D02*
X154139771Y-64445771D01*
X154292152Y-64445771D02*
X154215962Y-64483866D01*
X154177867Y-64521962D01*
X154139771Y-64598152D01*
X154139771Y-64674343D01*
X154673105Y-65055295D02*
X154635010Y-64979104D01*
X154596914Y-64941009D01*
X154520724Y-64902914D01*
X154292152Y-64902914D01*
X154215962Y-64941009D01*
X154177867Y-64979104D01*
X154139771Y-65055295D01*
X154139771Y-65169581D01*
X154177867Y-65245771D01*
X154215962Y-65283866D01*
X154292152Y-65321962D01*
X154520724Y-65321962D01*
X154596914Y-65283866D01*
X154635010Y-65245771D01*
X154673105Y-65169581D01*
X154673105Y-65055295D01*
X154749295Y-65474343D02*
X154749295Y-66083867D01*
X154635010Y-66236248D02*
X154673105Y-66350534D01*
X154673105Y-66541010D01*
X154635010Y-66617200D01*
X154596914Y-66655296D01*
X154520724Y-66693391D01*
X154444533Y-66693391D01*
X154368343Y-66655296D01*
X154330248Y-66617200D01*
X154292152Y-66541010D01*
X154254057Y-66388629D01*
X154215962Y-66312438D01*
X154177867Y-66274343D01*
X154101676Y-66236248D01*
X154025486Y-66236248D01*
X153949295Y-66274343D01*
X153911200Y-66312438D01*
X153873105Y-66388629D01*
X153873105Y-66579105D01*
X153911200Y-66693391D01*
X154673105Y-67036248D02*
X153873105Y-67036248D01*
X153873105Y-67226724D01*
X153911200Y-67341010D01*
X153987390Y-67417201D01*
X154063581Y-67455296D01*
X154215962Y-67493391D01*
X154330248Y-67493391D01*
X154482629Y-67455296D01*
X154558819Y-67417201D01*
X154635010Y-67341010D01*
X154673105Y-67226724D01*
X154673105Y-67036248D01*
X154596914Y-67836248D02*
X154635010Y-67874343D01*
X154673105Y-67836248D01*
X154635010Y-67798153D01*
X154596914Y-67836248D01*
X154673105Y-67836248D01*
X154177867Y-67836248D02*
X154215962Y-67874343D01*
X154254057Y-67836248D01*
X154215962Y-67798153D01*
X154177867Y-67836248D01*
X154254057Y-67836248D01*
X154596914Y-68674343D02*
X154635010Y-68636248D01*
X154673105Y-68521962D01*
X154673105Y-68445772D01*
X154635010Y-68331486D01*
X154558819Y-68255295D01*
X154482629Y-68217200D01*
X154330248Y-68179105D01*
X154215962Y-68179105D01*
X154063581Y-68217200D01*
X153987390Y-68255295D01*
X153911200Y-68331486D01*
X153873105Y-68445772D01*
X153873105Y-68521962D01*
X153911200Y-68636248D01*
X153949295Y-68674343D01*
X154635010Y-68979105D02*
X154673105Y-69093391D01*
X154673105Y-69283867D01*
X154635010Y-69360057D01*
X154596914Y-69398153D01*
X154520724Y-69436248D01*
X154444533Y-69436248D01*
X154368343Y-69398153D01*
X154330248Y-69360057D01*
X154292152Y-69283867D01*
X154254057Y-69131486D01*
X154215962Y-69055295D01*
X154177867Y-69017200D01*
X154101676Y-68979105D01*
X154025486Y-68979105D01*
X153949295Y-69017200D01*
X153911200Y-69055295D01*
X153873105Y-69131486D01*
X153873105Y-69321962D01*
X153911200Y-69436248D01*
X154254057Y-69779105D02*
X154254057Y-70388629D01*
X154482629Y-70388629D02*
X154482629Y-69779105D01*
X154673105Y-70769581D02*
X153873105Y-70769581D01*
X153873105Y-71302914D02*
X153873105Y-71455295D01*
X153911200Y-71531486D01*
X153987390Y-71607676D01*
X154139771Y-71645771D01*
X154406438Y-71645771D01*
X154558819Y-71607676D01*
X154635010Y-71531486D01*
X154673105Y-71455295D01*
X154673105Y-71302914D01*
X154635010Y-71226724D01*
X154558819Y-71150533D01*
X154406438Y-71112438D01*
X154139771Y-71112438D01*
X153987390Y-71150533D01*
X153911200Y-71226724D01*
X153873105Y-71302914D01*
X153873105Y-72369581D02*
X153873105Y-71988628D01*
X154254057Y-71950533D01*
X154215962Y-71988628D01*
X154177867Y-72064819D01*
X154177867Y-72255295D01*
X154215962Y-72331485D01*
X154254057Y-72369581D01*
X154330248Y-72407676D01*
X154520724Y-72407676D01*
X154596914Y-72369581D01*
X154635010Y-72331485D01*
X154673105Y-72255295D01*
X154673105Y-72064819D01*
X154635010Y-71988628D01*
X154596914Y-71950533D01*
D13*
X179995200Y-69218267D02*
X179561867Y-69218267D01*
X179795200Y-69484933D01*
X179695200Y-69484933D01*
X179628533Y-69518267D01*
X179595200Y-69551600D01*
X179561867Y-69618267D01*
X179561867Y-69784933D01*
X179595200Y-69851600D01*
X179628533Y-69884933D01*
X179695200Y-69918267D01*
X179895200Y-69918267D01*
X179961867Y-69884933D01*
X179995200Y-69851600D01*
X179328533Y-69218267D02*
X178895200Y-69218267D01*
X179128533Y-69484933D01*
X179028533Y-69484933D01*
X178961866Y-69518267D01*
X178928533Y-69551600D01*
X178895200Y-69618267D01*
X178895200Y-69784933D01*
X178928533Y-69851600D01*
X178961866Y-69884933D01*
X179028533Y-69918267D01*
X179228533Y-69918267D01*
X179295200Y-69884933D01*
X179328533Y-69851600D01*
X178461866Y-69218267D02*
X178395199Y-69218267D01*
X178328533Y-69251600D01*
X178295199Y-69284933D01*
X178261866Y-69351600D01*
X178228533Y-69484933D01*
X178228533Y-69651600D01*
X178261866Y-69784933D01*
X178295199Y-69851600D01*
X178328533Y-69884933D01*
X178395199Y-69918267D01*
X178461866Y-69918267D01*
X178528533Y-69884933D01*
X178561866Y-69851600D01*
X178595199Y-69784933D01*
X178628533Y-69651600D01*
X178628533Y-69484933D01*
X178595199Y-69351600D01*
X178561866Y-69284933D01*
X178528533Y-69251600D01*
X178461866Y-69218267D01*
X177961866Y-69918267D02*
X177795199Y-69918267D01*
X177795199Y-69784933D01*
X177861866Y-69751600D01*
X177928532Y-69684933D01*
X177961866Y-69584933D01*
X177961866Y-69418267D01*
X177928532Y-69318267D01*
X177861866Y-69251600D01*
X177761866Y-69218267D01*
X177628532Y-69218267D01*
X177528532Y-69251600D01*
X177461866Y-69318267D01*
X177428532Y-69418267D01*
X177428532Y-69584933D01*
X177461866Y-69684933D01*
X177528532Y-69751600D01*
X177595199Y-69784933D01*
X177595199Y-69918267D01*
X177428532Y-69918267D01*
X179944400Y-76939867D02*
X179511067Y-76939867D01*
X179744400Y-77206533D01*
X179644400Y-77206533D01*
X179577733Y-77239867D01*
X179544400Y-77273200D01*
X179511067Y-77339867D01*
X179511067Y-77506533D01*
X179544400Y-77573200D01*
X179577733Y-77606533D01*
X179644400Y-77639867D01*
X179844400Y-77639867D01*
X179911067Y-77606533D01*
X179944400Y-77573200D01*
X179277733Y-76939867D02*
X178844400Y-76939867D01*
X179077733Y-77206533D01*
X178977733Y-77206533D01*
X178911066Y-77239867D01*
X178877733Y-77273200D01*
X178844400Y-77339867D01*
X178844400Y-77506533D01*
X178877733Y-77573200D01*
X178911066Y-77606533D01*
X178977733Y-77639867D01*
X179177733Y-77639867D01*
X179244400Y-77606533D01*
X179277733Y-77573200D01*
X178411066Y-76939867D02*
X178344399Y-76939867D01*
X178277733Y-76973200D01*
X178244399Y-77006533D01*
X178211066Y-77073200D01*
X178177733Y-77206533D01*
X178177733Y-77373200D01*
X178211066Y-77506533D01*
X178244399Y-77573200D01*
X178277733Y-77606533D01*
X178344399Y-77639867D01*
X178411066Y-77639867D01*
X178477733Y-77606533D01*
X178511066Y-77573200D01*
X178544399Y-77506533D01*
X178577733Y-77373200D01*
X178577733Y-77206533D01*
X178544399Y-77073200D01*
X178511066Y-77006533D01*
X178477733Y-76973200D01*
X178411066Y-76939867D01*
X177911066Y-77639867D02*
X177744399Y-77639867D01*
X177744399Y-77506533D01*
X177811066Y-77473200D01*
X177877732Y-77406533D01*
X177911066Y-77306533D01*
X177911066Y-77139867D01*
X177877732Y-77039867D01*
X177811066Y-76973200D01*
X177711066Y-76939867D01*
X177577732Y-76939867D01*
X177477732Y-76973200D01*
X177411066Y-77039867D01*
X177377732Y-77139867D01*
X177377732Y-77306533D01*
X177411066Y-77406533D01*
X177477732Y-77473200D01*
X177544399Y-77506533D01*
X177544399Y-77639867D01*
X177377732Y-77639867D01*
X182196800Y-59956000D02*
X182263466Y-59917905D01*
X182363466Y-59917905D01*
X182463466Y-59956000D01*
X182530133Y-60032190D01*
X182563466Y-60108381D01*
X182596800Y-60260762D01*
X182596800Y-60375048D01*
X182563466Y-60527429D01*
X182530133Y-60603619D01*
X182463466Y-60679810D01*
X182363466Y-60717905D01*
X182296800Y-60717905D01*
X182196800Y-60679810D01*
X182163466Y-60641714D01*
X182163466Y-60375048D01*
X182296800Y-60375048D01*
X181863466Y-60717905D02*
X181863466Y-59917905D01*
X181463466Y-60717905D01*
X181463466Y-59917905D01*
X181130133Y-60717905D02*
X181130133Y-59917905D01*
X180963467Y-59917905D01*
X180863467Y-59956000D01*
X180796800Y-60032190D01*
X180763467Y-60108381D01*
X180730133Y-60260762D01*
X180730133Y-60375048D01*
X180763467Y-60527429D01*
X180796800Y-60603619D01*
X180863467Y-60679810D01*
X180963467Y-60717905D01*
X181130133Y-60717905D01*
X179896800Y-60717905D02*
X179896800Y-59917905D01*
X179430134Y-59917905D02*
X179296801Y-59917905D01*
X179230134Y-59956000D01*
X179163467Y-60032190D01*
X179130134Y-60184571D01*
X179130134Y-60451238D01*
X179163467Y-60603619D01*
X179230134Y-60679810D01*
X179296801Y-60717905D01*
X179430134Y-60717905D01*
X179496801Y-60679810D01*
X179563467Y-60603619D01*
X179596801Y-60451238D01*
X179596801Y-60184571D01*
X179563467Y-60032190D01*
X179496801Y-59956000D01*
X179430134Y-59917905D01*
X178463468Y-60717905D02*
X178863468Y-60717905D01*
X178663468Y-60717905D02*
X178663468Y-59917905D01*
X178730134Y-60032190D01*
X178796801Y-60108381D01*
X178863468Y-60146476D01*
X177863467Y-59917905D02*
X177996801Y-59917905D01*
X178063467Y-59956000D01*
X178096801Y-59994095D01*
X178163467Y-60108381D01*
X178196801Y-60260762D01*
X178196801Y-60565524D01*
X178163467Y-60641714D01*
X178130134Y-60679810D01*
X178063467Y-60717905D01*
X177930134Y-60717905D01*
X177863467Y-60679810D01*
X177830134Y-60641714D01*
X177796801Y-60565524D01*
X177796801Y-60375048D01*
X177830134Y-60298857D01*
X177863467Y-60260762D01*
X177930134Y-60222667D01*
X178063467Y-60222667D01*
X178130134Y-60260762D01*
X178163467Y-60298857D01*
X178196801Y-60375048D01*
X177030134Y-59917905D02*
X176596801Y-59917905D01*
X176830134Y-60222667D01*
X176730134Y-60222667D01*
X176663467Y-60260762D01*
X176630134Y-60298857D01*
X176596801Y-60375048D01*
X176596801Y-60565524D01*
X176630134Y-60641714D01*
X176663467Y-60679810D01*
X176730134Y-60717905D01*
X176930134Y-60717905D01*
X176996801Y-60679810D01*
X177030134Y-60641714D01*
X176296800Y-60641714D02*
X176263467Y-60679810D01*
X176296800Y-60717905D01*
X176330134Y-60679810D01*
X176296800Y-60641714D01*
X176296800Y-60717905D01*
X176030134Y-59917905D02*
X175596801Y-59917905D01*
X175830134Y-60222667D01*
X175730134Y-60222667D01*
X175663467Y-60260762D01*
X175630134Y-60298857D01*
X175596801Y-60375048D01*
X175596801Y-60565524D01*
X175630134Y-60641714D01*
X175663467Y-60679810D01*
X175730134Y-60717905D01*
X175930134Y-60717905D01*
X175996801Y-60679810D01*
X176030134Y-60641714D01*
X175396800Y-59917905D02*
X175163467Y-60717905D01*
X174930134Y-59917905D01*
D12*
X158552591Y-61454552D02*
X158552591Y-61835505D01*
X158819258Y-61035505D02*
X158552591Y-61454552D01*
X158285924Y-61035505D01*
X158019258Y-61416457D02*
X157752591Y-61416457D01*
X157638305Y-61835505D02*
X158019258Y-61835505D01*
X158019258Y-61035505D01*
X157638305Y-61035505D01*
X156914495Y-61835505D02*
X157295448Y-61835505D01*
X157295448Y-61035505D01*
X156266876Y-61835505D02*
X156647829Y-61835505D01*
X156647829Y-61035505D01*
X155847829Y-61035505D02*
X155695448Y-61035505D01*
X155619257Y-61073600D01*
X155543067Y-61149790D01*
X155504972Y-61302171D01*
X155504972Y-61568838D01*
X155543067Y-61721219D01*
X155619257Y-61797410D01*
X155695448Y-61835505D01*
X155847829Y-61835505D01*
X155924019Y-61797410D01*
X156000210Y-61721219D01*
X156038305Y-61568838D01*
X156038305Y-61302171D01*
X156000210Y-61149790D01*
X155924019Y-61073600D01*
X155847829Y-61035505D01*
X155238305Y-61035505D02*
X155047829Y-61835505D01*
X154895448Y-61264076D01*
X154743067Y-61835505D01*
X154552591Y-61035505D01*
X154438305Y-61911695D02*
X153828781Y-61911695D01*
X153257352Y-61835505D02*
X153638305Y-61835505D01*
X153638305Y-61035505D01*
X152990686Y-61416457D02*
X152724019Y-61416457D01*
X152609733Y-61835505D02*
X152990686Y-61835505D01*
X152990686Y-61035505D01*
X152609733Y-61035505D01*
X152266876Y-61835505D02*
X152266876Y-61035505D01*
X152076400Y-61035505D01*
X151962114Y-61073600D01*
X151885923Y-61149790D01*
X151847828Y-61225981D01*
X151809733Y-61378362D01*
X151809733Y-61492648D01*
X151847828Y-61645029D01*
X151885923Y-61721219D01*
X151962114Y-61797410D01*
X152076400Y-61835505D01*
X152266876Y-61835505D01*
X155846381Y-75961357D02*
X155846381Y-76580405D01*
X156227333Y-76247071D01*
X156227333Y-76389929D01*
X156274952Y-76485167D01*
X156322571Y-76532786D01*
X156417810Y-76580405D01*
X156655905Y-76580405D01*
X156751143Y-76532786D01*
X156798762Y-76485167D01*
X156846381Y-76389929D01*
X156846381Y-76104214D01*
X156798762Y-76008976D01*
X156751143Y-75961357D01*
X155846381Y-76913738D02*
X155846381Y-77532786D01*
X156227333Y-77199452D01*
X156227333Y-77342310D01*
X156274952Y-77437548D01*
X156322571Y-77485167D01*
X156417810Y-77532786D01*
X156655905Y-77532786D01*
X156751143Y-77485167D01*
X156798762Y-77437548D01*
X156846381Y-77342310D01*
X156846381Y-77056595D01*
X156798762Y-76961357D01*
X156751143Y-76913738D01*
X155846381Y-78151833D02*
X155846381Y-78247072D01*
X155894000Y-78342310D01*
X155941619Y-78389929D01*
X156036857Y-78437548D01*
X156227333Y-78485167D01*
X156465429Y-78485167D01*
X156655905Y-78437548D01*
X156751143Y-78389929D01*
X156798762Y-78342310D01*
X156846381Y-78247072D01*
X156846381Y-78151833D01*
X156798762Y-78056595D01*
X156751143Y-78008976D01*
X156655905Y-77961357D01*
X156465429Y-77913738D01*
X156227333Y-77913738D01*
X156036857Y-77961357D01*
X155941619Y-78008976D01*
X155894000Y-78056595D01*
X155846381Y-78151833D01*
X156846381Y-78866119D02*
X156846381Y-79104214D01*
X156655905Y-79104214D01*
X156608286Y-79008976D01*
X156513048Y-78913738D01*
X156370190Y-78866119D01*
X156132095Y-78866119D01*
X155989238Y-78913738D01*
X155894000Y-79008976D01*
X155846381Y-79151833D01*
X155846381Y-79342310D01*
X155894000Y-79485167D01*
X155989238Y-79580405D01*
X156132095Y-79628024D01*
X156370190Y-79628024D01*
X156513048Y-79580405D01*
X156608286Y-79485167D01*
X156655905Y-79389929D01*
X156846381Y-79389929D01*
X156846381Y-79628024D01*
X169054381Y-104980857D02*
X169054381Y-105599905D01*
X169435333Y-105266571D01*
X169435333Y-105409429D01*
X169482952Y-105504667D01*
X169530571Y-105552286D01*
X169625810Y-105599905D01*
X169863905Y-105599905D01*
X169959143Y-105552286D01*
X170006762Y-105504667D01*
X170054381Y-105409429D01*
X170054381Y-105123714D01*
X170006762Y-105028476D01*
X169959143Y-104980857D01*
X169054381Y-105933238D02*
X169054381Y-106552286D01*
X169435333Y-106218952D01*
X169435333Y-106361810D01*
X169482952Y-106457048D01*
X169530571Y-106504667D01*
X169625810Y-106552286D01*
X169863905Y-106552286D01*
X169959143Y-106504667D01*
X170006762Y-106457048D01*
X170054381Y-106361810D01*
X170054381Y-106076095D01*
X170006762Y-105980857D01*
X169959143Y-105933238D01*
X169054381Y-107171333D02*
X169054381Y-107266572D01*
X169102000Y-107361810D01*
X169149619Y-107409429D01*
X169244857Y-107457048D01*
X169435333Y-107504667D01*
X169673429Y-107504667D01*
X169863905Y-107457048D01*
X169959143Y-107409429D01*
X170006762Y-107361810D01*
X170054381Y-107266572D01*
X170054381Y-107171333D01*
X170006762Y-107076095D01*
X169959143Y-107028476D01*
X169863905Y-106980857D01*
X169673429Y-106933238D01*
X169435333Y-106933238D01*
X169244857Y-106980857D01*
X169149619Y-107028476D01*
X169102000Y-107076095D01*
X169054381Y-107171333D01*
X170054381Y-107885619D02*
X170054381Y-108123714D01*
X169863905Y-108123714D01*
X169816286Y-108028476D01*
X169721048Y-107933238D01*
X169578190Y-107885619D01*
X169340095Y-107885619D01*
X169197238Y-107933238D01*
X169102000Y-108028476D01*
X169054381Y-108171333D01*
X169054381Y-108361810D01*
X169102000Y-108504667D01*
X169197238Y-108599905D01*
X169340095Y-108647524D01*
X169578190Y-108647524D01*
X169721048Y-108599905D01*
X169816286Y-108504667D01*
X169863905Y-108409429D01*
X170054381Y-108409429D01*
X170054381Y-108647524D01*
X166514381Y-104980857D02*
X166514381Y-105599905D01*
X166895333Y-105266571D01*
X166895333Y-105409429D01*
X166942952Y-105504667D01*
X166990571Y-105552286D01*
X167085810Y-105599905D01*
X167323905Y-105599905D01*
X167419143Y-105552286D01*
X167466762Y-105504667D01*
X167514381Y-105409429D01*
X167514381Y-105123714D01*
X167466762Y-105028476D01*
X167419143Y-104980857D01*
X166514381Y-105933238D02*
X166514381Y-106552286D01*
X166895333Y-106218952D01*
X166895333Y-106361810D01*
X166942952Y-106457048D01*
X166990571Y-106504667D01*
X167085810Y-106552286D01*
X167323905Y-106552286D01*
X167419143Y-106504667D01*
X167466762Y-106457048D01*
X167514381Y-106361810D01*
X167514381Y-106076095D01*
X167466762Y-105980857D01*
X167419143Y-105933238D01*
X166514381Y-107171333D02*
X166514381Y-107266572D01*
X166562000Y-107361810D01*
X166609619Y-107409429D01*
X166704857Y-107457048D01*
X166895333Y-107504667D01*
X167133429Y-107504667D01*
X167323905Y-107457048D01*
X167419143Y-107409429D01*
X167466762Y-107361810D01*
X167514381Y-107266572D01*
X167514381Y-107171333D01*
X167466762Y-107076095D01*
X167419143Y-107028476D01*
X167323905Y-106980857D01*
X167133429Y-106933238D01*
X166895333Y-106933238D01*
X166704857Y-106980857D01*
X166609619Y-107028476D01*
X166562000Y-107076095D01*
X166514381Y-107171333D01*
X167514381Y-107885619D02*
X167514381Y-108123714D01*
X167323905Y-108123714D01*
X167276286Y-108028476D01*
X167181048Y-107933238D01*
X167038190Y-107885619D01*
X166800095Y-107885619D01*
X166657238Y-107933238D01*
X166562000Y-108028476D01*
X166514381Y-108171333D01*
X166514381Y-108361810D01*
X166562000Y-108504667D01*
X166657238Y-108599905D01*
X166800095Y-108647524D01*
X167038190Y-108647524D01*
X167181048Y-108599905D01*
X167276286Y-108504667D01*
X167323905Y-108409429D01*
X167514381Y-108409429D01*
X167514381Y-108647524D01*
X163974381Y-104980857D02*
X163974381Y-105599905D01*
X164355333Y-105266571D01*
X164355333Y-105409429D01*
X164402952Y-105504667D01*
X164450571Y-105552286D01*
X164545810Y-105599905D01*
X164783905Y-105599905D01*
X164879143Y-105552286D01*
X164926762Y-105504667D01*
X164974381Y-105409429D01*
X164974381Y-105123714D01*
X164926762Y-105028476D01*
X164879143Y-104980857D01*
X163974381Y-105933238D02*
X163974381Y-106552286D01*
X164355333Y-106218952D01*
X164355333Y-106361810D01*
X164402952Y-106457048D01*
X164450571Y-106504667D01*
X164545810Y-106552286D01*
X164783905Y-106552286D01*
X164879143Y-106504667D01*
X164926762Y-106457048D01*
X164974381Y-106361810D01*
X164974381Y-106076095D01*
X164926762Y-105980857D01*
X164879143Y-105933238D01*
X163974381Y-107171333D02*
X163974381Y-107266572D01*
X164022000Y-107361810D01*
X164069619Y-107409429D01*
X164164857Y-107457048D01*
X164355333Y-107504667D01*
X164593429Y-107504667D01*
X164783905Y-107457048D01*
X164879143Y-107409429D01*
X164926762Y-107361810D01*
X164974381Y-107266572D01*
X164974381Y-107171333D01*
X164926762Y-107076095D01*
X164879143Y-107028476D01*
X164783905Y-106980857D01*
X164593429Y-106933238D01*
X164355333Y-106933238D01*
X164164857Y-106980857D01*
X164069619Y-107028476D01*
X164022000Y-107076095D01*
X163974381Y-107171333D01*
X164974381Y-107885619D02*
X164974381Y-108123714D01*
X164783905Y-108123714D01*
X164736286Y-108028476D01*
X164641048Y-107933238D01*
X164498190Y-107885619D01*
X164260095Y-107885619D01*
X164117238Y-107933238D01*
X164022000Y-108028476D01*
X163974381Y-108171333D01*
X163974381Y-108361810D01*
X164022000Y-108504667D01*
X164117238Y-108599905D01*
X164260095Y-108647524D01*
X164498190Y-108647524D01*
X164641048Y-108599905D01*
X164736286Y-108504667D01*
X164783905Y-108409429D01*
X164974381Y-108409429D01*
X164974381Y-108647524D01*
X174697642Y-59093881D02*
X174697642Y-58331976D01*
X174745261Y-59046262D02*
X174745261Y-58379595D01*
X174792880Y-59046262D02*
X174792880Y-58379595D01*
X174840499Y-58998643D02*
X174840499Y-58427214D01*
X174888118Y-58998643D02*
X174888118Y-58427214D01*
X174935737Y-58951024D02*
X174935737Y-58474833D01*
X174983356Y-58951024D02*
X174983356Y-58474833D01*
X175030975Y-58903405D02*
X175030975Y-58522452D01*
X175078594Y-58855786D02*
X175078594Y-58570071D01*
X175126213Y-58855786D02*
X175126213Y-58570071D01*
X175173833Y-58808167D02*
X175173833Y-58617690D01*
X175221452Y-58808167D02*
X175221452Y-58617690D01*
X175269071Y-58712929D02*
X175316690Y-58712929D01*
X175269071Y-58760548D02*
X175269071Y-58665310D01*
X174650023Y-59093881D02*
X175364309Y-58712929D01*
X174650023Y-58331976D01*
X175411928Y-58712929D02*
X174650023Y-58284357D01*
X174650023Y-59141500D01*
X175411928Y-58712929D01*
X174221452Y-59046262D02*
X174078595Y-59093881D01*
X173840499Y-59093881D01*
X173745261Y-59046262D01*
X173697642Y-58998643D01*
X173650023Y-58903405D01*
X173650023Y-58808167D01*
X173697642Y-58712929D01*
X173745261Y-58665310D01*
X173840499Y-58617690D01*
X174030976Y-58570071D01*
X174126214Y-58522452D01*
X174173833Y-58474833D01*
X174221452Y-58379595D01*
X174221452Y-58284357D01*
X174173833Y-58189119D01*
X174126214Y-58141500D01*
X174030976Y-58093881D01*
X173792880Y-58093881D01*
X173650023Y-58141500D01*
X173316690Y-58093881D02*
X173078595Y-59093881D01*
X172888118Y-58379595D01*
X172697642Y-59093881D01*
X172459547Y-58093881D01*
X172316690Y-59189119D02*
X171554785Y-59189119D01*
X171316690Y-59093881D02*
X171316690Y-58093881D01*
X170840500Y-59093881D02*
X170840500Y-58093881D01*
X170269071Y-59093881D01*
X170269071Y-58093881D01*
X158787866Y-59917905D02*
X158787866Y-60489333D01*
X158825962Y-60603619D01*
X158902152Y-60679810D01*
X159016438Y-60717905D01*
X159092628Y-60717905D01*
X158406914Y-60717905D02*
X158406914Y-59917905D01*
X158102152Y-59917905D01*
X158025961Y-59956000D01*
X157987866Y-59994095D01*
X157949771Y-60070286D01*
X157949771Y-60184571D01*
X157987866Y-60260762D01*
X158025961Y-60298857D01*
X158102152Y-60336952D01*
X158406914Y-60336952D01*
X157645009Y-59994095D02*
X157606914Y-59956000D01*
X157530723Y-59917905D01*
X157340247Y-59917905D01*
X157264057Y-59956000D01*
X157225961Y-59994095D01*
X157187866Y-60070286D01*
X157187866Y-60146476D01*
X157225961Y-60260762D01*
X157683104Y-60717905D01*
X157187866Y-60717905D01*
D14*
X97035000Y-63320000D02*
X97835000Y-62520000D01*
X97035000Y-64120000D02*
X98635000Y-62520000D01*
X97035000Y-64920000D02*
X99435000Y-62520000D01*
X97035000Y-65720000D02*
X100235000Y-62520000D01*
X97135000Y-66420000D02*
X101035000Y-62520000D01*
X97935000Y-66420000D02*
X101835000Y-62520000D01*
X98735000Y-66420000D02*
X102635000Y-62520000D01*
X99535000Y-66420000D02*
X103435000Y-62520000D01*
X100335000Y-66420000D02*
X104235000Y-62520000D01*
X101135000Y-66420000D02*
X105035000Y-62520000D01*
X101935000Y-66420000D02*
X105835000Y-62520000D01*
X102735000Y-66420000D02*
X105935000Y-63220000D01*
X103535000Y-66420000D02*
X105935000Y-64020000D01*
X104335000Y-66420000D02*
X105935000Y-64820000D01*
X105135000Y-66420000D02*
X105935000Y-65620000D01*
X97035000Y-62520000D02*
X105935000Y-62520000D01*
X105935000Y-62520000D02*
X105935000Y-66420000D01*
X105935000Y-66420000D02*
X97035000Y-66420000D01*
X97035000Y-66420000D02*
X97035000Y-62520000D01*
X95535000Y-69920000D02*
X95535000Y-57420000D01*
X95535000Y-57420000D02*
X109335000Y-57420000D01*
X109335000Y-57420000D02*
X109335000Y-69920000D01*
X109335000Y-69920000D02*
X95535000Y-69920000D01*
X98950500Y-72031000D02*
X100950500Y-72031000D01*
X100950500Y-74081000D02*
X98950500Y-74081000D01*
X101014000Y-77129000D02*
X99014000Y-77129000D01*
X99014000Y-75079000D02*
X101014000Y-75079000D01*
X106380000Y-74385000D02*
X108380000Y-74385000D01*
X108380000Y-72235000D02*
X106380000Y-72235000D01*
X108380000Y-75029000D02*
X106380000Y-75029000D01*
X106380000Y-77179000D02*
X108380000Y-77179000D01*
X95755000Y-67960000D02*
X95755000Y-65960000D01*
X93605000Y-65960000D02*
X93605000Y-67960000D01*
X96110600Y-75580000D02*
X96110600Y-73580000D01*
X93960600Y-73580000D02*
X93960600Y-75580000D01*
X101225000Y-111045000D02*
X101225000Y-113045000D01*
X103375000Y-113045000D02*
X103375000Y-111045000D01*
X98685000Y-111045000D02*
X98685000Y-113045000D01*
X100835000Y-113045000D02*
X100835000Y-111045000D01*
X103765000Y-111045000D02*
X103765000Y-113045000D01*
X105915000Y-113045000D02*
X105915000Y-111045000D01*
X116125800Y-70620400D02*
X116125800Y-68620400D01*
X113975800Y-68620400D02*
X113975800Y-70620400D01*
X113925000Y-76120000D02*
X113925000Y-78120000D01*
X116075000Y-78120000D02*
X116075000Y-76120000D01*
X106415000Y-115395000D02*
X107065000Y-115395000D01*
X106415000Y-114645000D02*
X106415000Y-115395000D01*
X106415000Y-110545000D02*
X106415000Y-113545000D01*
X109615000Y-113545000D02*
X109615000Y-110545000D01*
X129035000Y-63320000D02*
X129835000Y-62520000D01*
X129035000Y-64120000D02*
X130635000Y-62520000D01*
X129035000Y-64920000D02*
X131435000Y-62520000D01*
X129035000Y-65720000D02*
X132235000Y-62520000D01*
X129135000Y-66420000D02*
X133035000Y-62520000D01*
X129935000Y-66420000D02*
X133835000Y-62520000D01*
X130735000Y-66420000D02*
X134635000Y-62520000D01*
X131535000Y-66420000D02*
X135435000Y-62520000D01*
X132335000Y-66420000D02*
X136235000Y-62520000D01*
X133135000Y-66420000D02*
X137035000Y-62520000D01*
X133935000Y-66420000D02*
X137835000Y-62520000D01*
X134735000Y-66420000D02*
X137935000Y-63220000D01*
X135535000Y-66420000D02*
X137935000Y-64020000D01*
X136335000Y-66420000D02*
X137935000Y-64820000D01*
X137135000Y-66420000D02*
X137935000Y-65620000D01*
X129035000Y-62520000D02*
X137935000Y-62520000D01*
X137935000Y-62520000D02*
X137935000Y-66420000D01*
X137935000Y-66420000D02*
X129035000Y-66420000D01*
X129035000Y-66420000D02*
X129035000Y-62520000D01*
X127535000Y-69920000D02*
X127535000Y-57420000D01*
X127535000Y-57420000D02*
X141335000Y-57420000D01*
X141335000Y-57420000D02*
X141335000Y-69920000D01*
X141335000Y-69920000D02*
X127535000Y-69920000D01*
X130950500Y-72031000D02*
X132950500Y-72031000D01*
X132950500Y-74081000D02*
X130950500Y-74081000D01*
X133014000Y-77129000D02*
X131014000Y-77129000D01*
X131014000Y-75079000D02*
X133014000Y-75079000D01*
X138380000Y-74385000D02*
X140380000Y-74385000D01*
X140380000Y-72235000D02*
X138380000Y-72235000D01*
X140380000Y-75029000D02*
X138380000Y-75029000D01*
X138380000Y-77179000D02*
X140380000Y-77179000D01*
X127755000Y-67960000D02*
X127755000Y-65960000D01*
X125605000Y-65960000D02*
X125605000Y-67960000D01*
X128110600Y-75580000D02*
X128110600Y-73580000D01*
X125960600Y-73580000D02*
X125960600Y-75580000D01*
X133225000Y-111045000D02*
X133225000Y-113045000D01*
X135375000Y-113045000D02*
X135375000Y-111045000D01*
X130685000Y-111045000D02*
X130685000Y-113045000D01*
X132835000Y-113045000D02*
X132835000Y-111045000D01*
X135765000Y-111045000D02*
X135765000Y-113045000D01*
X137915000Y-113045000D02*
X137915000Y-111045000D01*
X148125800Y-70620400D02*
X148125800Y-68620400D01*
X145975800Y-68620400D02*
X145975800Y-70620400D01*
X145925000Y-76120000D02*
X145925000Y-78120000D01*
X148075000Y-78120000D02*
X148075000Y-76120000D01*
X138415000Y-115395000D02*
X139065000Y-115395000D01*
X138415000Y-114645000D02*
X138415000Y-115395000D01*
X138415000Y-110545000D02*
X138415000Y-113545000D01*
X141615000Y-113545000D02*
X141615000Y-110545000D01*
X161035000Y-63320000D02*
X161835000Y-62520000D01*
X161035000Y-64120000D02*
X162635000Y-62520000D01*
X161035000Y-64920000D02*
X163435000Y-62520000D01*
X161035000Y-65720000D02*
X164235000Y-62520000D01*
X161135000Y-66420000D02*
X165035000Y-62520000D01*
X161935000Y-66420000D02*
X165835000Y-62520000D01*
X162735000Y-66420000D02*
X166635000Y-62520000D01*
X163535000Y-66420000D02*
X167435000Y-62520000D01*
X164335000Y-66420000D02*
X168235000Y-62520000D01*
X165135000Y-66420000D02*
X169035000Y-62520000D01*
X165935000Y-66420000D02*
X169835000Y-62520000D01*
X166735000Y-66420000D02*
X169935000Y-63220000D01*
X167535000Y-66420000D02*
X169935000Y-64020000D01*
X168335000Y-66420000D02*
X169935000Y-64820000D01*
X169135000Y-66420000D02*
X169935000Y-65620000D01*
X161035000Y-62520000D02*
X169935000Y-62520000D01*
X169935000Y-62520000D02*
X169935000Y-66420000D01*
X169935000Y-66420000D02*
X161035000Y-66420000D01*
X161035000Y-66420000D02*
X161035000Y-62520000D01*
X159535000Y-69920000D02*
X159535000Y-57420000D01*
X159535000Y-57420000D02*
X173335000Y-57420000D01*
X173335000Y-57420000D02*
X173335000Y-69920000D01*
X173335000Y-69920000D02*
X159535000Y-69920000D01*
X162950500Y-72031000D02*
X164950500Y-72031000D01*
X164950500Y-74081000D02*
X162950500Y-74081000D01*
X165014000Y-77129000D02*
X163014000Y-77129000D01*
X163014000Y-75079000D02*
X165014000Y-75079000D01*
X170380000Y-74385000D02*
X172380000Y-74385000D01*
X172380000Y-72235000D02*
X170380000Y-72235000D01*
X172380000Y-75029000D02*
X170380000Y-75029000D01*
X170380000Y-77179000D02*
X172380000Y-77179000D01*
X159755000Y-67960000D02*
X159755000Y-65960000D01*
X157605000Y-65960000D02*
X157605000Y-67960000D01*
X160110600Y-75580000D02*
X160110600Y-73580000D01*
X157960600Y-73580000D02*
X157960600Y-75580000D01*
X165225000Y-111045000D02*
X165225000Y-113045000D01*
X167375000Y-113045000D02*
X167375000Y-111045000D01*
X162685000Y-111045000D02*
X162685000Y-113045000D01*
X164835000Y-113045000D02*
X164835000Y-111045000D01*
X167765000Y-111045000D02*
X167765000Y-113045000D01*
X169915000Y-113045000D02*
X169915000Y-111045000D01*
X180125800Y-70620400D02*
X180125800Y-68620400D01*
X177975800Y-68620400D02*
X177975800Y-70620400D01*
X177925000Y-76120000D02*
X177925000Y-78120000D01*
X180075000Y-78120000D02*
X180075000Y-76120000D01*
X170415000Y-115395000D02*
X171065000Y-115395000D01*
X170415000Y-114645000D02*
X170415000Y-115395000D01*
X170415000Y-110545000D02*
X170415000Y-113545000D01*
X173615000Y-113545000D02*
X173615000Y-110545000D01*
D15*
X103359857Y-73409429D02*
X103359857Y-71885429D01*
X102779285Y-71885429D01*
X102634143Y-71958000D01*
X102561571Y-72030571D01*
X102489000Y-72175714D01*
X102489000Y-72393429D01*
X102561571Y-72538571D01*
X102634143Y-72611143D01*
X102779285Y-72683714D01*
X103359857Y-72683714D01*
X101037571Y-73409429D02*
X101908428Y-73409429D01*
X101473000Y-73409429D02*
X101473000Y-71885429D01*
X101618143Y-72103143D01*
X101763285Y-72248286D01*
X101908428Y-72320857D01*
D14*
X100117166Y-71113143D02*
X100164785Y-71160762D01*
X100307642Y-71208381D01*
X100402880Y-71208381D01*
X100545738Y-71160762D01*
X100640976Y-71065524D01*
X100688595Y-70970286D01*
X100736214Y-70779810D01*
X100736214Y-70636952D01*
X100688595Y-70446476D01*
X100640976Y-70351238D01*
X100545738Y-70256000D01*
X100402880Y-70208381D01*
X100307642Y-70208381D01*
X100164785Y-70256000D01*
X100117166Y-70303619D01*
X99164785Y-71208381D02*
X99736214Y-71208381D01*
X99450500Y-71208381D02*
X99450500Y-70208381D01*
X99545738Y-70351238D01*
X99640976Y-70446476D01*
X99736214Y-70494095D01*
X100180666Y-78761143D02*
X100228285Y-78808762D01*
X100371142Y-78856381D01*
X100466380Y-78856381D01*
X100609238Y-78808762D01*
X100704476Y-78713524D01*
X100752095Y-78618286D01*
X100799714Y-78427810D01*
X100799714Y-78284952D01*
X100752095Y-78094476D01*
X100704476Y-77999238D01*
X100609238Y-77904000D01*
X100466380Y-77856381D01*
X100371142Y-77856381D01*
X100228285Y-77904000D01*
X100180666Y-77951619D01*
X99799714Y-77951619D02*
X99752095Y-77904000D01*
X99656857Y-77856381D01*
X99418761Y-77856381D01*
X99323523Y-77904000D01*
X99275904Y-77951619D01*
X99228285Y-78046857D01*
X99228285Y-78142095D01*
X99275904Y-78284952D01*
X99847333Y-78856381D01*
X99228285Y-78856381D01*
X107546666Y-71462381D02*
X107880000Y-70986190D01*
X108118095Y-71462381D02*
X108118095Y-70462381D01*
X107737142Y-70462381D01*
X107641904Y-70510000D01*
X107594285Y-70557619D01*
X107546666Y-70652857D01*
X107546666Y-70795714D01*
X107594285Y-70890952D01*
X107641904Y-70938571D01*
X107737142Y-70986190D01*
X108118095Y-70986190D01*
X106594285Y-71462381D02*
X107165714Y-71462381D01*
X106880000Y-71462381D02*
X106880000Y-70462381D01*
X106975238Y-70605238D01*
X107070476Y-70700476D01*
X107165714Y-70748095D01*
X107546666Y-78856381D02*
X107880000Y-78380190D01*
X108118095Y-78856381D02*
X108118095Y-77856381D01*
X107737142Y-77856381D01*
X107641904Y-77904000D01*
X107594285Y-77951619D01*
X107546666Y-78046857D01*
X107546666Y-78189714D01*
X107594285Y-78284952D01*
X107641904Y-78332571D01*
X107737142Y-78380190D01*
X108118095Y-78380190D01*
X107165714Y-77951619D02*
X107118095Y-77904000D01*
X107022857Y-77856381D01*
X106784761Y-77856381D01*
X106689523Y-77904000D01*
X106641904Y-77951619D01*
X106594285Y-78046857D01*
X106594285Y-78142095D01*
X106641904Y-78284952D01*
X107213333Y-78856381D01*
X106594285Y-78856381D01*
X92832381Y-66793334D02*
X92356190Y-66460000D01*
X92832381Y-66221905D02*
X91832381Y-66221905D01*
X91832381Y-66602858D01*
X91880000Y-66698096D01*
X91927619Y-66745715D01*
X92022857Y-66793334D01*
X92165714Y-66793334D01*
X92260952Y-66745715D01*
X92308571Y-66698096D01*
X92356190Y-66602858D01*
X92356190Y-66221905D01*
X92165714Y-67650477D02*
X92832381Y-67650477D01*
X91784762Y-67412381D02*
X92499048Y-67174286D01*
X92499048Y-67793334D01*
X93187981Y-74413334D02*
X92711790Y-74080000D01*
X93187981Y-73841905D02*
X92187981Y-73841905D01*
X92187981Y-74222858D01*
X92235600Y-74318096D01*
X92283219Y-74365715D01*
X92378457Y-74413334D01*
X92521314Y-74413334D01*
X92616552Y-74365715D01*
X92664171Y-74318096D01*
X92711790Y-74222858D01*
X92711790Y-73841905D01*
X92187981Y-75270477D02*
X92187981Y-75080000D01*
X92235600Y-74984762D01*
X92283219Y-74937143D01*
X92426076Y-74841905D01*
X92616552Y-74794286D01*
X92997505Y-74794286D01*
X93092743Y-74841905D01*
X93140362Y-74889524D01*
X93187981Y-74984762D01*
X93187981Y-75175239D01*
X93140362Y-75270477D01*
X93092743Y-75318096D01*
X92997505Y-75365715D01*
X92759410Y-75365715D01*
X92664171Y-75318096D01*
X92616552Y-75270477D01*
X92568933Y-75175239D01*
X92568933Y-74984762D01*
X92616552Y-74889524D01*
X92664171Y-74841905D01*
X92759410Y-74794286D01*
X102498381Y-107687334D02*
X102022190Y-107354000D01*
X102498381Y-107115905D02*
X101498381Y-107115905D01*
X101498381Y-107496858D01*
X101546000Y-107592096D01*
X101593619Y-107639715D01*
X101688857Y-107687334D01*
X101831714Y-107687334D01*
X101926952Y-107639715D01*
X101974571Y-107592096D01*
X102022190Y-107496858D01*
X102022190Y-107115905D01*
X101498381Y-108020667D02*
X101498381Y-108687334D01*
X102498381Y-108258762D01*
X99704381Y-107687334D02*
X99228190Y-107354000D01*
X99704381Y-107115905D02*
X98704381Y-107115905D01*
X98704381Y-107496858D01*
X98752000Y-107592096D01*
X98799619Y-107639715D01*
X98894857Y-107687334D01*
X99037714Y-107687334D01*
X99132952Y-107639715D01*
X99180571Y-107592096D01*
X99228190Y-107496858D01*
X99228190Y-107115905D01*
X99132952Y-108258762D02*
X99085333Y-108163524D01*
X99037714Y-108115905D01*
X98942476Y-108068286D01*
X98894857Y-108068286D01*
X98799619Y-108115905D01*
X98752000Y-108163524D01*
X98704381Y-108258762D01*
X98704381Y-108449239D01*
X98752000Y-108544477D01*
X98799619Y-108592096D01*
X98894857Y-108639715D01*
X98942476Y-108639715D01*
X99037714Y-108592096D01*
X99085333Y-108544477D01*
X99132952Y-108449239D01*
X99132952Y-108258762D01*
X99180571Y-108163524D01*
X99228190Y-108115905D01*
X99323429Y-108068286D01*
X99513905Y-108068286D01*
X99609143Y-108115905D01*
X99656762Y-108163524D01*
X99704381Y-108258762D01*
X99704381Y-108449239D01*
X99656762Y-108544477D01*
X99609143Y-108592096D01*
X99513905Y-108639715D01*
X99323429Y-108639715D01*
X99228190Y-108592096D01*
X99180571Y-108544477D01*
X99132952Y-108449239D01*
X104784381Y-107687334D02*
X104308190Y-107354000D01*
X104784381Y-107115905D02*
X103784381Y-107115905D01*
X103784381Y-107496858D01*
X103832000Y-107592096D01*
X103879619Y-107639715D01*
X103974857Y-107687334D01*
X104117714Y-107687334D01*
X104212952Y-107639715D01*
X104260571Y-107592096D01*
X104308190Y-107496858D01*
X104308190Y-107115905D01*
X104784381Y-108163524D02*
X104784381Y-108354000D01*
X104736762Y-108449239D01*
X104689143Y-108496858D01*
X104546286Y-108592096D01*
X104355810Y-108639715D01*
X103974857Y-108639715D01*
X103879619Y-108592096D01*
X103832000Y-108544477D01*
X103784381Y-108449239D01*
X103784381Y-108258762D01*
X103832000Y-108163524D01*
X103879619Y-108115905D01*
X103974857Y-108068286D01*
X104212952Y-108068286D01*
X104308190Y-108115905D01*
X104355810Y-108163524D01*
X104403429Y-108258762D01*
X104403429Y-108449239D01*
X104355810Y-108544477D01*
X104308190Y-108592096D01*
X104212952Y-108639715D01*
X115450000Y-66260667D02*
X115683334Y-65927333D01*
X115850000Y-66260667D02*
X115850000Y-65560667D01*
X115583334Y-65560667D01*
X115516667Y-65594000D01*
X115483334Y-65627333D01*
X115450000Y-65694000D01*
X115450000Y-65794000D01*
X115483334Y-65860667D01*
X115516667Y-65894000D01*
X115583334Y-65927333D01*
X115850000Y-65927333D01*
X114783334Y-66260667D02*
X115183334Y-66260667D01*
X114983334Y-66260667D02*
X114983334Y-65560667D01*
X115050000Y-65660667D01*
X115116667Y-65727333D01*
X115183334Y-65760667D01*
X114350000Y-65560667D02*
X114283333Y-65560667D01*
X114216667Y-65594000D01*
X114183333Y-65627333D01*
X114150000Y-65694000D01*
X114116667Y-65827333D01*
X114116667Y-65994000D01*
X114150000Y-66127333D01*
X114183333Y-66194000D01*
X114216667Y-66227333D01*
X114283333Y-66260667D01*
X114350000Y-66260667D01*
X114416667Y-66227333D01*
X114450000Y-66194000D01*
X114483333Y-66127333D01*
X114516667Y-65994000D01*
X114516667Y-65827333D01*
X114483333Y-65694000D01*
X114450000Y-65627333D01*
X114416667Y-65594000D01*
X114350000Y-65560667D01*
X115399200Y-73626667D02*
X115632534Y-73293333D01*
X115799200Y-73626667D02*
X115799200Y-72926667D01*
X115532534Y-72926667D01*
X115465867Y-72960000D01*
X115432534Y-72993333D01*
X115399200Y-73060000D01*
X115399200Y-73160000D01*
X115432534Y-73226667D01*
X115465867Y-73260000D01*
X115532534Y-73293333D01*
X115799200Y-73293333D01*
X114732534Y-73626667D02*
X115132534Y-73626667D01*
X114932534Y-73626667D02*
X114932534Y-72926667D01*
X114999200Y-73026667D01*
X115065867Y-73093333D01*
X115132534Y-73126667D01*
X114065867Y-73626667D02*
X114465867Y-73626667D01*
X114265867Y-73626667D02*
X114265867Y-72926667D01*
X114332533Y-73026667D01*
X114399200Y-73093333D01*
X114465867Y-73126667D01*
X110626381Y-112513334D02*
X110626381Y-112037143D01*
X109626381Y-112037143D01*
X109721619Y-112799048D02*
X109674000Y-112846667D01*
X109626381Y-112941905D01*
X109626381Y-113180001D01*
X109674000Y-113275239D01*
X109721619Y-113322858D01*
X109816857Y-113370477D01*
X109912095Y-113370477D01*
X110054952Y-113322858D01*
X110626381Y-112751429D01*
X110626381Y-113370477D01*
D15*
X135359857Y-73409429D02*
X135359857Y-71885429D01*
X134779285Y-71885429D01*
X134634143Y-71958000D01*
X134561571Y-72030571D01*
X134489000Y-72175714D01*
X134489000Y-72393429D01*
X134561571Y-72538571D01*
X134634143Y-72611143D01*
X134779285Y-72683714D01*
X135359857Y-72683714D01*
X133037571Y-73409429D02*
X133908428Y-73409429D01*
X133473000Y-73409429D02*
X133473000Y-71885429D01*
X133618143Y-72103143D01*
X133763285Y-72248286D01*
X133908428Y-72320857D01*
D14*
X132117166Y-71113143D02*
X132164785Y-71160762D01*
X132307642Y-71208381D01*
X132402880Y-71208381D01*
X132545738Y-71160762D01*
X132640976Y-71065524D01*
X132688595Y-70970286D01*
X132736214Y-70779810D01*
X132736214Y-70636952D01*
X132688595Y-70446476D01*
X132640976Y-70351238D01*
X132545738Y-70256000D01*
X132402880Y-70208381D01*
X132307642Y-70208381D01*
X132164785Y-70256000D01*
X132117166Y-70303619D01*
X131164785Y-71208381D02*
X131736214Y-71208381D01*
X131450500Y-71208381D02*
X131450500Y-70208381D01*
X131545738Y-70351238D01*
X131640976Y-70446476D01*
X131736214Y-70494095D01*
X132180666Y-78761143D02*
X132228285Y-78808762D01*
X132371142Y-78856381D01*
X132466380Y-78856381D01*
X132609238Y-78808762D01*
X132704476Y-78713524D01*
X132752095Y-78618286D01*
X132799714Y-78427810D01*
X132799714Y-78284952D01*
X132752095Y-78094476D01*
X132704476Y-77999238D01*
X132609238Y-77904000D01*
X132466380Y-77856381D01*
X132371142Y-77856381D01*
X132228285Y-77904000D01*
X132180666Y-77951619D01*
X131799714Y-77951619D02*
X131752095Y-77904000D01*
X131656857Y-77856381D01*
X131418761Y-77856381D01*
X131323523Y-77904000D01*
X131275904Y-77951619D01*
X131228285Y-78046857D01*
X131228285Y-78142095D01*
X131275904Y-78284952D01*
X131847333Y-78856381D01*
X131228285Y-78856381D01*
X139546666Y-71462381D02*
X139880000Y-70986190D01*
X140118095Y-71462381D02*
X140118095Y-70462381D01*
X139737142Y-70462381D01*
X139641904Y-70510000D01*
X139594285Y-70557619D01*
X139546666Y-70652857D01*
X139546666Y-70795714D01*
X139594285Y-70890952D01*
X139641904Y-70938571D01*
X139737142Y-70986190D01*
X140118095Y-70986190D01*
X138594285Y-71462381D02*
X139165714Y-71462381D01*
X138880000Y-71462381D02*
X138880000Y-70462381D01*
X138975238Y-70605238D01*
X139070476Y-70700476D01*
X139165714Y-70748095D01*
X139546666Y-78856381D02*
X139880000Y-78380190D01*
X140118095Y-78856381D02*
X140118095Y-77856381D01*
X139737142Y-77856381D01*
X139641904Y-77904000D01*
X139594285Y-77951619D01*
X139546666Y-78046857D01*
X139546666Y-78189714D01*
X139594285Y-78284952D01*
X139641904Y-78332571D01*
X139737142Y-78380190D01*
X140118095Y-78380190D01*
X139165714Y-77951619D02*
X139118095Y-77904000D01*
X139022857Y-77856381D01*
X138784761Y-77856381D01*
X138689523Y-77904000D01*
X138641904Y-77951619D01*
X138594285Y-78046857D01*
X138594285Y-78142095D01*
X138641904Y-78284952D01*
X139213333Y-78856381D01*
X138594285Y-78856381D01*
X124832381Y-66793334D02*
X124356190Y-66460000D01*
X124832381Y-66221905D02*
X123832381Y-66221905D01*
X123832381Y-66602858D01*
X123880000Y-66698096D01*
X123927619Y-66745715D01*
X124022857Y-66793334D01*
X124165714Y-66793334D01*
X124260952Y-66745715D01*
X124308571Y-66698096D01*
X124356190Y-66602858D01*
X124356190Y-66221905D01*
X124165714Y-67650477D02*
X124832381Y-67650477D01*
X123784762Y-67412381D02*
X124499048Y-67174286D01*
X124499048Y-67793334D01*
X125187981Y-74413334D02*
X124711790Y-74080000D01*
X125187981Y-73841905D02*
X124187981Y-73841905D01*
X124187981Y-74222858D01*
X124235600Y-74318096D01*
X124283219Y-74365715D01*
X124378457Y-74413334D01*
X124521314Y-74413334D01*
X124616552Y-74365715D01*
X124664171Y-74318096D01*
X124711790Y-74222858D01*
X124711790Y-73841905D01*
X124187981Y-75270477D02*
X124187981Y-75080000D01*
X124235600Y-74984762D01*
X124283219Y-74937143D01*
X124426076Y-74841905D01*
X124616552Y-74794286D01*
X124997505Y-74794286D01*
X125092743Y-74841905D01*
X125140362Y-74889524D01*
X125187981Y-74984762D01*
X125187981Y-75175239D01*
X125140362Y-75270477D01*
X125092743Y-75318096D01*
X124997505Y-75365715D01*
X124759410Y-75365715D01*
X124664171Y-75318096D01*
X124616552Y-75270477D01*
X124568933Y-75175239D01*
X124568933Y-74984762D01*
X124616552Y-74889524D01*
X124664171Y-74841905D01*
X124759410Y-74794286D01*
X134498381Y-107687334D02*
X134022190Y-107354000D01*
X134498381Y-107115905D02*
X133498381Y-107115905D01*
X133498381Y-107496858D01*
X133546000Y-107592096D01*
X133593619Y-107639715D01*
X133688857Y-107687334D01*
X133831714Y-107687334D01*
X133926952Y-107639715D01*
X133974571Y-107592096D01*
X134022190Y-107496858D01*
X134022190Y-107115905D01*
X133498381Y-108020667D02*
X133498381Y-108687334D01*
X134498381Y-108258762D01*
X131704381Y-107687334D02*
X131228190Y-107354000D01*
X131704381Y-107115905D02*
X130704381Y-107115905D01*
X130704381Y-107496858D01*
X130752000Y-107592096D01*
X130799619Y-107639715D01*
X130894857Y-107687334D01*
X131037714Y-107687334D01*
X131132952Y-107639715D01*
X131180571Y-107592096D01*
X131228190Y-107496858D01*
X131228190Y-107115905D01*
X131132952Y-108258762D02*
X131085333Y-108163524D01*
X131037714Y-108115905D01*
X130942476Y-108068286D01*
X130894857Y-108068286D01*
X130799619Y-108115905D01*
X130752000Y-108163524D01*
X130704381Y-108258762D01*
X130704381Y-108449239D01*
X130752000Y-108544477D01*
X130799619Y-108592096D01*
X130894857Y-108639715D01*
X130942476Y-108639715D01*
X131037714Y-108592096D01*
X131085333Y-108544477D01*
X131132952Y-108449239D01*
X131132952Y-108258762D01*
X131180571Y-108163524D01*
X131228190Y-108115905D01*
X131323429Y-108068286D01*
X131513905Y-108068286D01*
X131609143Y-108115905D01*
X131656762Y-108163524D01*
X131704381Y-108258762D01*
X131704381Y-108449239D01*
X131656762Y-108544477D01*
X131609143Y-108592096D01*
X131513905Y-108639715D01*
X131323429Y-108639715D01*
X131228190Y-108592096D01*
X131180571Y-108544477D01*
X131132952Y-108449239D01*
X136784381Y-107687334D02*
X136308190Y-107354000D01*
X136784381Y-107115905D02*
X135784381Y-107115905D01*
X135784381Y-107496858D01*
X135832000Y-107592096D01*
X135879619Y-107639715D01*
X135974857Y-107687334D01*
X136117714Y-107687334D01*
X136212952Y-107639715D01*
X136260571Y-107592096D01*
X136308190Y-107496858D01*
X136308190Y-107115905D01*
X136784381Y-108163524D02*
X136784381Y-108354000D01*
X136736762Y-108449239D01*
X136689143Y-108496858D01*
X136546286Y-108592096D01*
X136355810Y-108639715D01*
X135974857Y-108639715D01*
X135879619Y-108592096D01*
X135832000Y-108544477D01*
X135784381Y-108449239D01*
X135784381Y-108258762D01*
X135832000Y-108163524D01*
X135879619Y-108115905D01*
X135974857Y-108068286D01*
X136212952Y-108068286D01*
X136308190Y-108115905D01*
X136355810Y-108163524D01*
X136403429Y-108258762D01*
X136403429Y-108449239D01*
X136355810Y-108544477D01*
X136308190Y-108592096D01*
X136212952Y-108639715D01*
X147450000Y-66260667D02*
X147683334Y-65927333D01*
X147850000Y-66260667D02*
X147850000Y-65560667D01*
X147583334Y-65560667D01*
X147516667Y-65594000D01*
X147483334Y-65627333D01*
X147450000Y-65694000D01*
X147450000Y-65794000D01*
X147483334Y-65860667D01*
X147516667Y-65894000D01*
X147583334Y-65927333D01*
X147850000Y-65927333D01*
X146783334Y-66260667D02*
X147183334Y-66260667D01*
X146983334Y-66260667D02*
X146983334Y-65560667D01*
X147050000Y-65660667D01*
X147116667Y-65727333D01*
X147183334Y-65760667D01*
X146350000Y-65560667D02*
X146283333Y-65560667D01*
X146216667Y-65594000D01*
X146183333Y-65627333D01*
X146150000Y-65694000D01*
X146116667Y-65827333D01*
X146116667Y-65994000D01*
X146150000Y-66127333D01*
X146183333Y-66194000D01*
X146216667Y-66227333D01*
X146283333Y-66260667D01*
X146350000Y-66260667D01*
X146416667Y-66227333D01*
X146450000Y-66194000D01*
X146483333Y-66127333D01*
X146516667Y-65994000D01*
X146516667Y-65827333D01*
X146483333Y-65694000D01*
X146450000Y-65627333D01*
X146416667Y-65594000D01*
X146350000Y-65560667D01*
X147399200Y-73626667D02*
X147632534Y-73293333D01*
X147799200Y-73626667D02*
X147799200Y-72926667D01*
X147532534Y-72926667D01*
X147465867Y-72960000D01*
X147432534Y-72993333D01*
X147399200Y-73060000D01*
X147399200Y-73160000D01*
X147432534Y-73226667D01*
X147465867Y-73260000D01*
X147532534Y-73293333D01*
X147799200Y-73293333D01*
X146732534Y-73626667D02*
X147132534Y-73626667D01*
X146932534Y-73626667D02*
X146932534Y-72926667D01*
X146999200Y-73026667D01*
X147065867Y-73093333D01*
X147132534Y-73126667D01*
X146065867Y-73626667D02*
X146465867Y-73626667D01*
X146265867Y-73626667D02*
X146265867Y-72926667D01*
X146332533Y-73026667D01*
X146399200Y-73093333D01*
X146465867Y-73126667D01*
X142626381Y-112513334D02*
X142626381Y-112037143D01*
X141626381Y-112037143D01*
X141721619Y-112799048D02*
X141674000Y-112846667D01*
X141626381Y-112941905D01*
X141626381Y-113180001D01*
X141674000Y-113275239D01*
X141721619Y-113322858D01*
X141816857Y-113370477D01*
X141912095Y-113370477D01*
X142054952Y-113322858D01*
X142626381Y-112751429D01*
X142626381Y-113370477D01*
D15*
X167359857Y-73409429D02*
X167359857Y-71885429D01*
X166779285Y-71885429D01*
X166634143Y-71958000D01*
X166561571Y-72030571D01*
X166489000Y-72175714D01*
X166489000Y-72393429D01*
X166561571Y-72538571D01*
X166634143Y-72611143D01*
X166779285Y-72683714D01*
X167359857Y-72683714D01*
X165037571Y-73409429D02*
X165908428Y-73409429D01*
X165473000Y-73409429D02*
X165473000Y-71885429D01*
X165618143Y-72103143D01*
X165763285Y-72248286D01*
X165908428Y-72320857D01*
D14*
X164117166Y-71113143D02*
X164164785Y-71160762D01*
X164307642Y-71208381D01*
X164402880Y-71208381D01*
X164545738Y-71160762D01*
X164640976Y-71065524D01*
X164688595Y-70970286D01*
X164736214Y-70779810D01*
X164736214Y-70636952D01*
X164688595Y-70446476D01*
X164640976Y-70351238D01*
X164545738Y-70256000D01*
X164402880Y-70208381D01*
X164307642Y-70208381D01*
X164164785Y-70256000D01*
X164117166Y-70303619D01*
X163164785Y-71208381D02*
X163736214Y-71208381D01*
X163450500Y-71208381D02*
X163450500Y-70208381D01*
X163545738Y-70351238D01*
X163640976Y-70446476D01*
X163736214Y-70494095D01*
X164180666Y-78761143D02*
X164228285Y-78808762D01*
X164371142Y-78856381D01*
X164466380Y-78856381D01*
X164609238Y-78808762D01*
X164704476Y-78713524D01*
X164752095Y-78618286D01*
X164799714Y-78427810D01*
X164799714Y-78284952D01*
X164752095Y-78094476D01*
X164704476Y-77999238D01*
X164609238Y-77904000D01*
X164466380Y-77856381D01*
X164371142Y-77856381D01*
X164228285Y-77904000D01*
X164180666Y-77951619D01*
X163799714Y-77951619D02*
X163752095Y-77904000D01*
X163656857Y-77856381D01*
X163418761Y-77856381D01*
X163323523Y-77904000D01*
X163275904Y-77951619D01*
X163228285Y-78046857D01*
X163228285Y-78142095D01*
X163275904Y-78284952D01*
X163847333Y-78856381D01*
X163228285Y-78856381D01*
X171546666Y-71462381D02*
X171880000Y-70986190D01*
X172118095Y-71462381D02*
X172118095Y-70462381D01*
X171737142Y-70462381D01*
X171641904Y-70510000D01*
X171594285Y-70557619D01*
X171546666Y-70652857D01*
X171546666Y-70795714D01*
X171594285Y-70890952D01*
X171641904Y-70938571D01*
X171737142Y-70986190D01*
X172118095Y-70986190D01*
X170594285Y-71462381D02*
X171165714Y-71462381D01*
X170880000Y-71462381D02*
X170880000Y-70462381D01*
X170975238Y-70605238D01*
X171070476Y-70700476D01*
X171165714Y-70748095D01*
X171546666Y-78856381D02*
X171880000Y-78380190D01*
X172118095Y-78856381D02*
X172118095Y-77856381D01*
X171737142Y-77856381D01*
X171641904Y-77904000D01*
X171594285Y-77951619D01*
X171546666Y-78046857D01*
X171546666Y-78189714D01*
X171594285Y-78284952D01*
X171641904Y-78332571D01*
X171737142Y-78380190D01*
X172118095Y-78380190D01*
X171165714Y-77951619D02*
X171118095Y-77904000D01*
X171022857Y-77856381D01*
X170784761Y-77856381D01*
X170689523Y-77904000D01*
X170641904Y-77951619D01*
X170594285Y-78046857D01*
X170594285Y-78142095D01*
X170641904Y-78284952D01*
X171213333Y-78856381D01*
X170594285Y-78856381D01*
X156832381Y-66793334D02*
X156356190Y-66460000D01*
X156832381Y-66221905D02*
X155832381Y-66221905D01*
X155832381Y-66602858D01*
X155880000Y-66698096D01*
X155927619Y-66745715D01*
X156022857Y-66793334D01*
X156165714Y-66793334D01*
X156260952Y-66745715D01*
X156308571Y-66698096D01*
X156356190Y-66602858D01*
X156356190Y-66221905D01*
X156165714Y-67650477D02*
X156832381Y-67650477D01*
X155784762Y-67412381D02*
X156499048Y-67174286D01*
X156499048Y-67793334D01*
X157187981Y-74413334D02*
X156711790Y-74080000D01*
X157187981Y-73841905D02*
X156187981Y-73841905D01*
X156187981Y-74222858D01*
X156235600Y-74318096D01*
X156283219Y-74365715D01*
X156378457Y-74413334D01*
X156521314Y-74413334D01*
X156616552Y-74365715D01*
X156664171Y-74318096D01*
X156711790Y-74222858D01*
X156711790Y-73841905D01*
X156187981Y-75270477D02*
X156187981Y-75080000D01*
X156235600Y-74984762D01*
X156283219Y-74937143D01*
X156426076Y-74841905D01*
X156616552Y-74794286D01*
X156997505Y-74794286D01*
X157092743Y-74841905D01*
X157140362Y-74889524D01*
X157187981Y-74984762D01*
X157187981Y-75175239D01*
X157140362Y-75270477D01*
X157092743Y-75318096D01*
X156997505Y-75365715D01*
X156759410Y-75365715D01*
X156664171Y-75318096D01*
X156616552Y-75270477D01*
X156568933Y-75175239D01*
X156568933Y-74984762D01*
X156616552Y-74889524D01*
X156664171Y-74841905D01*
X156759410Y-74794286D01*
X166498381Y-107687334D02*
X166022190Y-107354000D01*
X166498381Y-107115905D02*
X165498381Y-107115905D01*
X165498381Y-107496858D01*
X165546000Y-107592096D01*
X165593619Y-107639715D01*
X165688857Y-107687334D01*
X165831714Y-107687334D01*
X165926952Y-107639715D01*
X165974571Y-107592096D01*
X166022190Y-107496858D01*
X166022190Y-107115905D01*
X165498381Y-108020667D02*
X165498381Y-108687334D01*
X166498381Y-108258762D01*
X163704381Y-107687334D02*
X163228190Y-107354000D01*
X163704381Y-107115905D02*
X162704381Y-107115905D01*
X162704381Y-107496858D01*
X162752000Y-107592096D01*
X162799619Y-107639715D01*
X162894857Y-107687334D01*
X163037714Y-107687334D01*
X163132952Y-107639715D01*
X163180571Y-107592096D01*
X163228190Y-107496858D01*
X163228190Y-107115905D01*
X163132952Y-108258762D02*
X163085333Y-108163524D01*
X163037714Y-108115905D01*
X162942476Y-108068286D01*
X162894857Y-108068286D01*
X162799619Y-108115905D01*
X162752000Y-108163524D01*
X162704381Y-108258762D01*
X162704381Y-108449239D01*
X162752000Y-108544477D01*
X162799619Y-108592096D01*
X162894857Y-108639715D01*
X162942476Y-108639715D01*
X163037714Y-108592096D01*
X163085333Y-108544477D01*
X163132952Y-108449239D01*
X163132952Y-108258762D01*
X163180571Y-108163524D01*
X163228190Y-108115905D01*
X163323429Y-108068286D01*
X163513905Y-108068286D01*
X163609143Y-108115905D01*
X163656762Y-108163524D01*
X163704381Y-108258762D01*
X163704381Y-108449239D01*
X163656762Y-108544477D01*
X163609143Y-108592096D01*
X163513905Y-108639715D01*
X163323429Y-108639715D01*
X163228190Y-108592096D01*
X163180571Y-108544477D01*
X163132952Y-108449239D01*
X168784381Y-107687334D02*
X168308190Y-107354000D01*
X168784381Y-107115905D02*
X167784381Y-107115905D01*
X167784381Y-107496858D01*
X167832000Y-107592096D01*
X167879619Y-107639715D01*
X167974857Y-107687334D01*
X168117714Y-107687334D01*
X168212952Y-107639715D01*
X168260571Y-107592096D01*
X168308190Y-107496858D01*
X168308190Y-107115905D01*
X168784381Y-108163524D02*
X168784381Y-108354000D01*
X168736762Y-108449239D01*
X168689143Y-108496858D01*
X168546286Y-108592096D01*
X168355810Y-108639715D01*
X167974857Y-108639715D01*
X167879619Y-108592096D01*
X167832000Y-108544477D01*
X167784381Y-108449239D01*
X167784381Y-108258762D01*
X167832000Y-108163524D01*
X167879619Y-108115905D01*
X167974857Y-108068286D01*
X168212952Y-108068286D01*
X168308190Y-108115905D01*
X168355810Y-108163524D01*
X168403429Y-108258762D01*
X168403429Y-108449239D01*
X168355810Y-108544477D01*
X168308190Y-108592096D01*
X168212952Y-108639715D01*
X179450000Y-66260667D02*
X179683334Y-65927333D01*
X179850000Y-66260667D02*
X179850000Y-65560667D01*
X179583334Y-65560667D01*
X179516667Y-65594000D01*
X179483334Y-65627333D01*
X179450000Y-65694000D01*
X179450000Y-65794000D01*
X179483334Y-65860667D01*
X179516667Y-65894000D01*
X179583334Y-65927333D01*
X179850000Y-65927333D01*
X178783334Y-66260667D02*
X179183334Y-66260667D01*
X178983334Y-66260667D02*
X178983334Y-65560667D01*
X179050000Y-65660667D01*
X179116667Y-65727333D01*
X179183334Y-65760667D01*
X178350000Y-65560667D02*
X178283333Y-65560667D01*
X178216667Y-65594000D01*
X178183333Y-65627333D01*
X178150000Y-65694000D01*
X178116667Y-65827333D01*
X178116667Y-65994000D01*
X178150000Y-66127333D01*
X178183333Y-66194000D01*
X178216667Y-66227333D01*
X178283333Y-66260667D01*
X178350000Y-66260667D01*
X178416667Y-66227333D01*
X178450000Y-66194000D01*
X178483333Y-66127333D01*
X178516667Y-65994000D01*
X178516667Y-65827333D01*
X178483333Y-65694000D01*
X178450000Y-65627333D01*
X178416667Y-65594000D01*
X178350000Y-65560667D01*
X179399200Y-73626667D02*
X179632534Y-73293333D01*
X179799200Y-73626667D02*
X179799200Y-72926667D01*
X179532534Y-72926667D01*
X179465867Y-72960000D01*
X179432534Y-72993333D01*
X179399200Y-73060000D01*
X179399200Y-73160000D01*
X179432534Y-73226667D01*
X179465867Y-73260000D01*
X179532534Y-73293333D01*
X179799200Y-73293333D01*
X178732534Y-73626667D02*
X179132534Y-73626667D01*
X178932534Y-73626667D02*
X178932534Y-72926667D01*
X178999200Y-73026667D01*
X179065867Y-73093333D01*
X179132534Y-73126667D01*
X178065867Y-73626667D02*
X178465867Y-73626667D01*
X178265867Y-73626667D02*
X178265867Y-72926667D01*
X178332533Y-73026667D01*
X178399200Y-73093333D01*
X178465867Y-73126667D01*
X174626381Y-112513334D02*
X174626381Y-112037143D01*
X173626381Y-112037143D01*
X173721619Y-112799048D02*
X173674000Y-112846667D01*
X173626381Y-112941905D01*
X173626381Y-113180001D01*
X173674000Y-113275239D01*
X173721619Y-113322858D01*
X173816857Y-113370477D01*
X173912095Y-113370477D01*
X174054952Y-113322858D01*
X174626381Y-112751429D01*
X174626381Y-113370477D01*
M02*
