G04 #@! TF.FileFunction,Soldermask,Bot*
%FSLAX46Y46*%
G04 Gerber Fmt 4.6, Leading zero omitted, Abs format (unit mm)*
G04 Created by KiCad (PCBNEW 4.0.2-4+6225~38~ubuntu15.04.1-stable) date 2016年04月18日 00時15分29秒*
%MOMM*%
G01*
G04 APERTURE LIST*
%ADD10C,0.100000*%
%ADD11O,1.800000X2.400000*%
%ADD12O,1.800000X1.670000*%
%ADD13R,2.432000X2.127200*%
%ADD14O,2.432000X2.127200*%
%ADD15O,1.800000X1.924000*%
%ADD16R,2.000200X2.398980*%
%ADD17C,2.000000*%
%ADD18R,1.101040X2.000200*%
%ADD19R,2.200000X1.800000*%
%ADD20R,2.400000X2.000000*%
%ADD21C,1.700000*%
%ADD22R,1.700000X1.700000*%
%ADD23R,2.400000X2.400000*%
%ADD24C,2.400000*%
%ADD25O,1.517600X2.305000*%
%ADD26R,1.517600X2.305000*%
%ADD27R,2.127200X2.432000*%
%ADD28O,2.432000X1.924000*%
%ADD29R,1.200000X1.000000*%
%ADD30R,2.432000X2.432000*%
%ADD31O,2.432000X2.432000*%
%ADD32R,2.400000X2.100000*%
%ADD33R,2.100000X2.400000*%
%ADD34R,2.224000X1.924000*%
%ADD35O,2.224000X1.924000*%
%ADD36R,1.797000X1.797000*%
%ADD37C,1.797000*%
%ADD38O,2.899360X1.901140*%
%ADD39O,2.178000X2.178000*%
%ADD40R,2.900000X2.900000*%
G04 APERTURE END LIST*
D10*
D11*
X104840000Y-103790000D03*
X104840000Y-101250000D03*
X104840000Y-98710000D03*
X104840000Y-96170000D03*
X104840000Y-93630000D03*
X104840000Y-91090000D03*
X104840000Y-88550000D03*
X104840000Y-86010000D03*
X104840000Y-83470000D03*
D12*
X104840000Y-80930000D03*
D13*
X89600000Y-106330000D03*
D14*
X89600000Y-103790000D03*
X89600000Y-101250000D03*
X89600000Y-98710000D03*
D11*
X94680000Y-101250000D03*
X97220000Y-101250000D03*
X109920000Y-101250000D03*
D15*
X112460000Y-101250000D03*
D11*
X107380000Y-98710000D03*
X109920000Y-98710000D03*
X107380000Y-101250000D03*
X109920000Y-101250000D03*
X107380000Y-96170000D03*
X109920000Y-96170000D03*
X107380000Y-93630000D03*
X109920000Y-93630000D03*
X107380000Y-83470000D03*
X109920000Y-83470000D03*
X107380000Y-86010000D03*
X109920000Y-86010000D03*
X107380000Y-91090000D03*
X109920000Y-91090000D03*
X107380000Y-88550000D03*
X109920000Y-88550000D03*
X97220000Y-88550000D03*
X99760000Y-88550000D03*
X97220000Y-91090000D03*
X99760000Y-91090000D03*
X97220000Y-86010000D03*
X99760000Y-86010000D03*
X97220000Y-83470000D03*
X99760000Y-83470000D03*
X97220000Y-93630000D03*
X99760000Y-93630000D03*
X97220000Y-96170000D03*
X99760000Y-96170000D03*
X97220000Y-101250000D03*
X99760000Y-101250000D03*
D16*
X109335000Y-62520000D03*
D17*
X97435000Y-67420000D03*
D18*
X107533740Y-70320100D03*
X106433920Y-70320100D03*
D17*
X107435000Y-67420000D03*
D19*
X95535000Y-62520000D03*
D18*
X98734820Y-70320100D03*
X99834640Y-70320100D03*
X100934460Y-70320100D03*
X102034280Y-70320100D03*
X103134100Y-70320100D03*
X104233920Y-70320100D03*
X105333740Y-70320100D03*
X97635000Y-70320100D03*
D20*
X101950500Y-73056000D03*
X97950500Y-73056000D03*
X98014000Y-76104000D03*
X102014000Y-76104000D03*
D21*
X98653200Y-105618800D03*
D22*
X96153200Y-105618800D03*
D23*
X89092000Y-59086000D03*
D24*
X91632000Y-59086000D03*
D25*
X105475000Y-117760000D03*
D26*
X104205000Y-117760000D03*
D25*
X102935000Y-117760000D03*
X101665000Y-117760000D03*
D27*
X112460000Y-66960000D03*
D28*
X112460000Y-64420000D03*
X112460000Y-61880000D03*
D29*
X94180000Y-58324000D03*
X95180000Y-58324000D03*
D13*
X117540000Y-79660000D03*
D14*
X117540000Y-77120000D03*
X117540000Y-74580000D03*
X117540000Y-72040000D03*
X117540000Y-69500000D03*
X117540000Y-66960000D03*
X117540000Y-64420000D03*
X117540000Y-61880000D03*
D13*
X112460000Y-79660000D03*
D14*
X112460000Y-77120000D03*
X112460000Y-74580000D03*
X112460000Y-72040000D03*
X112460000Y-69500000D03*
D30*
X112460000Y-119030000D03*
D31*
X109920000Y-119030000D03*
D30*
X97220000Y-119030000D03*
D31*
X94680000Y-119030000D03*
D13*
X117540000Y-98710000D03*
D14*
X117540000Y-101250000D03*
X117540000Y-103790000D03*
D32*
X109380000Y-73310000D03*
X105380000Y-73310000D03*
X105380000Y-76104000D03*
X109380000Y-76104000D03*
D33*
X94680000Y-64960000D03*
X94680000Y-68960000D03*
X95035600Y-72580000D03*
X95035600Y-76580000D03*
X102300000Y-114045000D03*
X102300000Y-110045000D03*
X99760000Y-114045000D03*
X99760000Y-110045000D03*
X104840000Y-114045000D03*
X104840000Y-110045000D03*
D34*
X104840000Y-58705000D03*
D35*
X99760000Y-58705000D03*
D36*
X112460000Y-58705000D03*
D37*
X115000000Y-58705000D03*
X117540000Y-58705000D03*
D36*
X117540000Y-113950000D03*
D37*
X117540000Y-116490000D03*
X117540000Y-119030000D03*
D38*
X113984000Y-106076000D03*
D39*
X113984000Y-103536000D03*
D38*
X113984000Y-108616000D03*
D11*
X97220000Y-98710000D03*
X99760000Y-98710000D03*
X102300000Y-103790000D03*
X102300000Y-101250000D03*
X102300000Y-98710000D03*
X102300000Y-96170000D03*
X102300000Y-93630000D03*
X102300000Y-91090000D03*
X102300000Y-88550000D03*
X102300000Y-86010000D03*
X102300000Y-83470000D03*
D12*
X102300000Y-80930000D03*
D33*
X115050800Y-67620400D03*
X115050800Y-71620400D03*
X115000000Y-79120000D03*
X115000000Y-75120000D03*
D21*
X108396000Y-107052000D03*
D22*
X108396000Y-104552000D03*
D40*
X108015000Y-113795000D03*
X108015000Y-110295000D03*
D11*
X136840000Y-103790000D03*
X136840000Y-101250000D03*
X136840000Y-98710000D03*
X136840000Y-96170000D03*
X136840000Y-93630000D03*
X136840000Y-91090000D03*
X136840000Y-88550000D03*
X136840000Y-86010000D03*
X136840000Y-83470000D03*
D12*
X136840000Y-80930000D03*
D13*
X121600000Y-106330000D03*
D14*
X121600000Y-103790000D03*
X121600000Y-101250000D03*
X121600000Y-98710000D03*
D11*
X126680000Y-101250000D03*
X129220000Y-101250000D03*
X141920000Y-101250000D03*
D15*
X144460000Y-101250000D03*
D11*
X139380000Y-98710000D03*
X141920000Y-98710000D03*
X139380000Y-101250000D03*
X141920000Y-101250000D03*
X139380000Y-96170000D03*
X141920000Y-96170000D03*
X139380000Y-93630000D03*
X141920000Y-93630000D03*
X139380000Y-83470000D03*
X141920000Y-83470000D03*
X139380000Y-86010000D03*
X141920000Y-86010000D03*
X139380000Y-91090000D03*
X141920000Y-91090000D03*
X139380000Y-88550000D03*
X141920000Y-88550000D03*
X129220000Y-88550000D03*
X131760000Y-88550000D03*
X129220000Y-91090000D03*
X131760000Y-91090000D03*
X129220000Y-86010000D03*
X131760000Y-86010000D03*
X129220000Y-83470000D03*
X131760000Y-83470000D03*
X129220000Y-93630000D03*
X131760000Y-93630000D03*
X129220000Y-96170000D03*
X131760000Y-96170000D03*
X129220000Y-101250000D03*
X131760000Y-101250000D03*
D16*
X141335000Y-62520000D03*
D17*
X129435000Y-67420000D03*
D18*
X139533740Y-70320100D03*
X138433920Y-70320100D03*
D17*
X139435000Y-67420000D03*
D19*
X127535000Y-62520000D03*
D18*
X130734820Y-70320100D03*
X131834640Y-70320100D03*
X132934460Y-70320100D03*
X134034280Y-70320100D03*
X135134100Y-70320100D03*
X136233920Y-70320100D03*
X137333740Y-70320100D03*
X129635000Y-70320100D03*
D20*
X133950500Y-73056000D03*
X129950500Y-73056000D03*
X130014000Y-76104000D03*
X134014000Y-76104000D03*
D21*
X130653200Y-105618800D03*
D22*
X128153200Y-105618800D03*
D23*
X121092000Y-59086000D03*
D24*
X123632000Y-59086000D03*
D25*
X137475000Y-117760000D03*
D26*
X136205000Y-117760000D03*
D25*
X134935000Y-117760000D03*
X133665000Y-117760000D03*
D27*
X144460000Y-66960000D03*
D28*
X144460000Y-64420000D03*
X144460000Y-61880000D03*
D29*
X126180000Y-58324000D03*
X127180000Y-58324000D03*
D13*
X149540000Y-79660000D03*
D14*
X149540000Y-77120000D03*
X149540000Y-74580000D03*
X149540000Y-72040000D03*
X149540000Y-69500000D03*
X149540000Y-66960000D03*
X149540000Y-64420000D03*
X149540000Y-61880000D03*
D13*
X144460000Y-79660000D03*
D14*
X144460000Y-77120000D03*
X144460000Y-74580000D03*
X144460000Y-72040000D03*
X144460000Y-69500000D03*
D30*
X144460000Y-119030000D03*
D31*
X141920000Y-119030000D03*
D30*
X129220000Y-119030000D03*
D31*
X126680000Y-119030000D03*
D13*
X149540000Y-98710000D03*
D14*
X149540000Y-101250000D03*
X149540000Y-103790000D03*
D32*
X141380000Y-73310000D03*
X137380000Y-73310000D03*
X137380000Y-76104000D03*
X141380000Y-76104000D03*
D33*
X126680000Y-64960000D03*
X126680000Y-68960000D03*
X127035600Y-72580000D03*
X127035600Y-76580000D03*
X134300000Y-114045000D03*
X134300000Y-110045000D03*
X131760000Y-114045000D03*
X131760000Y-110045000D03*
X136840000Y-114045000D03*
X136840000Y-110045000D03*
D34*
X136840000Y-58705000D03*
D35*
X131760000Y-58705000D03*
D36*
X144460000Y-58705000D03*
D37*
X147000000Y-58705000D03*
X149540000Y-58705000D03*
D36*
X149540000Y-113950000D03*
D37*
X149540000Y-116490000D03*
X149540000Y-119030000D03*
D38*
X145984000Y-106076000D03*
D39*
X145984000Y-103536000D03*
D38*
X145984000Y-108616000D03*
D11*
X129220000Y-98710000D03*
X131760000Y-98710000D03*
X134300000Y-103790000D03*
X134300000Y-101250000D03*
X134300000Y-98710000D03*
X134300000Y-96170000D03*
X134300000Y-93630000D03*
X134300000Y-91090000D03*
X134300000Y-88550000D03*
X134300000Y-86010000D03*
X134300000Y-83470000D03*
D12*
X134300000Y-80930000D03*
D33*
X147050800Y-67620400D03*
X147050800Y-71620400D03*
X147000000Y-79120000D03*
X147000000Y-75120000D03*
D21*
X140396000Y-107052000D03*
D22*
X140396000Y-104552000D03*
D40*
X140015000Y-113795000D03*
X140015000Y-110295000D03*
D11*
X168840000Y-103790000D03*
X168840000Y-101250000D03*
X168840000Y-98710000D03*
X168840000Y-96170000D03*
X168840000Y-93630000D03*
X168840000Y-91090000D03*
X168840000Y-88550000D03*
X168840000Y-86010000D03*
X168840000Y-83470000D03*
D12*
X168840000Y-80930000D03*
D13*
X153600000Y-106330000D03*
D14*
X153600000Y-103790000D03*
X153600000Y-101250000D03*
X153600000Y-98710000D03*
D11*
X158680000Y-101250000D03*
X161220000Y-101250000D03*
X173920000Y-101250000D03*
D15*
X176460000Y-101250000D03*
D11*
X171380000Y-98710000D03*
X173920000Y-98710000D03*
X171380000Y-101250000D03*
X173920000Y-101250000D03*
X171380000Y-96170000D03*
X173920000Y-96170000D03*
X171380000Y-93630000D03*
X173920000Y-93630000D03*
X171380000Y-83470000D03*
X173920000Y-83470000D03*
X171380000Y-86010000D03*
X173920000Y-86010000D03*
X171380000Y-91090000D03*
X173920000Y-91090000D03*
X171380000Y-88550000D03*
X173920000Y-88550000D03*
X161220000Y-88550000D03*
X163760000Y-88550000D03*
X161220000Y-91090000D03*
X163760000Y-91090000D03*
X161220000Y-86010000D03*
X163760000Y-86010000D03*
X161220000Y-83470000D03*
X163760000Y-83470000D03*
X161220000Y-93630000D03*
X163760000Y-93630000D03*
X161220000Y-96170000D03*
X163760000Y-96170000D03*
X161220000Y-101250000D03*
X163760000Y-101250000D03*
D16*
X173335000Y-62520000D03*
D17*
X161435000Y-67420000D03*
D18*
X171533740Y-70320100D03*
X170433920Y-70320100D03*
D17*
X171435000Y-67420000D03*
D19*
X159535000Y-62520000D03*
D18*
X162734820Y-70320100D03*
X163834640Y-70320100D03*
X164934460Y-70320100D03*
X166034280Y-70320100D03*
X167134100Y-70320100D03*
X168233920Y-70320100D03*
X169333740Y-70320100D03*
X161635000Y-70320100D03*
D20*
X165950500Y-73056000D03*
X161950500Y-73056000D03*
X162014000Y-76104000D03*
X166014000Y-76104000D03*
D21*
X162653200Y-105618800D03*
D22*
X160153200Y-105618800D03*
D23*
X153092000Y-59086000D03*
D24*
X155632000Y-59086000D03*
D25*
X169475000Y-117760000D03*
D26*
X168205000Y-117760000D03*
D25*
X166935000Y-117760000D03*
X165665000Y-117760000D03*
D27*
X176460000Y-66960000D03*
D28*
X176460000Y-64420000D03*
X176460000Y-61880000D03*
D29*
X158180000Y-58324000D03*
X159180000Y-58324000D03*
D13*
X181540000Y-79660000D03*
D14*
X181540000Y-77120000D03*
X181540000Y-74580000D03*
X181540000Y-72040000D03*
X181540000Y-69500000D03*
X181540000Y-66960000D03*
X181540000Y-64420000D03*
X181540000Y-61880000D03*
D13*
X176460000Y-79660000D03*
D14*
X176460000Y-77120000D03*
X176460000Y-74580000D03*
X176460000Y-72040000D03*
X176460000Y-69500000D03*
D30*
X176460000Y-119030000D03*
D31*
X173920000Y-119030000D03*
D30*
X161220000Y-119030000D03*
D31*
X158680000Y-119030000D03*
D13*
X181540000Y-98710000D03*
D14*
X181540000Y-101250000D03*
X181540000Y-103790000D03*
D32*
X173380000Y-73310000D03*
X169380000Y-73310000D03*
X169380000Y-76104000D03*
X173380000Y-76104000D03*
D33*
X158680000Y-64960000D03*
X158680000Y-68960000D03*
X159035600Y-72580000D03*
X159035600Y-76580000D03*
X166300000Y-114045000D03*
X166300000Y-110045000D03*
X163760000Y-114045000D03*
X163760000Y-110045000D03*
X168840000Y-114045000D03*
X168840000Y-110045000D03*
D34*
X168840000Y-58705000D03*
D35*
X163760000Y-58705000D03*
D36*
X176460000Y-58705000D03*
D37*
X179000000Y-58705000D03*
X181540000Y-58705000D03*
D36*
X181540000Y-113950000D03*
D37*
X181540000Y-116490000D03*
X181540000Y-119030000D03*
D38*
X177984000Y-106076000D03*
D39*
X177984000Y-103536000D03*
D38*
X177984000Y-108616000D03*
D11*
X161220000Y-98710000D03*
X163760000Y-98710000D03*
X166300000Y-103790000D03*
X166300000Y-101250000D03*
X166300000Y-98710000D03*
X166300000Y-96170000D03*
X166300000Y-93630000D03*
X166300000Y-91090000D03*
X166300000Y-88550000D03*
X166300000Y-86010000D03*
X166300000Y-83470000D03*
D12*
X166300000Y-80930000D03*
D33*
X179050800Y-67620400D03*
X179050800Y-71620400D03*
X179000000Y-79120000D03*
X179000000Y-75120000D03*
D21*
X172396000Y-107052000D03*
D22*
X172396000Y-104552000D03*
D40*
X172015000Y-113795000D03*
X172015000Y-110295000D03*
M02*
