G04 #@! TF.FileFunction,Profile,NP*
%FSLAX46Y46*%
G04 Gerber Fmt 4.6, Leading zero omitted, Abs format (unit mm)*
G04 Created by KiCad (PCBNEW 4.0.2-4+6225~38~ubuntu15.04.1-stable) date 2016年04月18日 00時15分29秒*
%MOMM*%
G01*
G04 APERTURE LIST*
%ADD10C,0.100000*%
%ADD11C,0.150000*%
G04 APERTURE END LIST*
D10*
D11*
X119000000Y-121100000D02*
X119400000Y-121100000D01*
X151000000Y-121100000D02*
X151400000Y-121100000D01*
X151000000Y-97500000D02*
X151400000Y-97500000D01*
X119000000Y-97500000D02*
X119400000Y-97500000D01*
X119000000Y-81100000D02*
X119400000Y-81100000D01*
X151400000Y-81100000D02*
X119000000Y-81100000D01*
X151000000Y-81100000D02*
X151400000Y-81100000D01*
X151000000Y-57500000D02*
X151400000Y-57500000D01*
X119000000Y-57500000D02*
X119400000Y-57500000D01*
X111000000Y-81800000D02*
X111000000Y-96900000D01*
X96400000Y-81700000D02*
X96400000Y-96900000D01*
X111000000Y-96900000D02*
G75*
G03X111000000Y-97500000I0J-300000D01*
G01*
X96400000Y-97500000D02*
G75*
G03X96400000Y-96900000I0J300000D01*
G01*
X111000000Y-81100000D02*
G75*
G03X111000000Y-81700000I0J-300000D01*
G01*
X96400000Y-81700000D02*
G75*
G03X96400000Y-81100000I0J300000D01*
G01*
X111000000Y-81108000D02*
X119000000Y-81108000D01*
X119000000Y-97508000D02*
X111000000Y-97508000D01*
X87400000Y-121108000D02*
X119000000Y-121108000D01*
X87400000Y-97508000D02*
X87400000Y-121108000D01*
X96400000Y-97508000D02*
X87400000Y-97508000D01*
X87400000Y-81108000D02*
X96400000Y-81108000D01*
X87400000Y-57508000D02*
X87400000Y-81108000D01*
X119000000Y-57508000D02*
X87400000Y-57508000D01*
X143000000Y-81800000D02*
X143000000Y-96900000D01*
X128400000Y-81700000D02*
X128400000Y-96900000D01*
X143000000Y-96900000D02*
G75*
G03X143000000Y-97500000I0J-300000D01*
G01*
X128400000Y-97500000D02*
G75*
G03X128400000Y-96900000I0J300000D01*
G01*
X143000000Y-81100000D02*
G75*
G03X143000000Y-81700000I0J-300000D01*
G01*
X128400000Y-81700000D02*
G75*
G03X128400000Y-81100000I0J300000D01*
G01*
X143000000Y-81108000D02*
X151000000Y-81108000D01*
X151000000Y-97508000D02*
X143000000Y-97508000D01*
X119400000Y-121108000D02*
X151000000Y-121108000D01*
X128400000Y-97508000D02*
X119400000Y-97508000D01*
X119400000Y-81108000D02*
X128400000Y-81108000D01*
X151000000Y-57508000D02*
X119400000Y-57508000D01*
X175000000Y-81800000D02*
X175000000Y-96900000D01*
X160400000Y-81700000D02*
X160400000Y-96900000D01*
X175000000Y-96900000D02*
G75*
G03X175000000Y-97500000I0J-300000D01*
G01*
X160400000Y-97500000D02*
G75*
G03X160400000Y-96900000I0J300000D01*
G01*
X175000000Y-81100000D02*
G75*
G03X175000000Y-81700000I0J-300000D01*
G01*
X160400000Y-81700000D02*
G75*
G03X160400000Y-81100000I0J300000D01*
G01*
X183000000Y-81108000D02*
X183000000Y-57508000D01*
X175000000Y-81108000D02*
X183000000Y-81108000D01*
X183000000Y-97508000D02*
X175000000Y-97508000D01*
X183000000Y-121108000D02*
X183000000Y-97508000D01*
X151400000Y-121108000D02*
X183000000Y-121108000D01*
X160400000Y-97508000D02*
X151400000Y-97508000D01*
X151400000Y-81108000D02*
X160400000Y-81108000D01*
X183000000Y-57508000D02*
X151400000Y-57508000D01*
M02*
