G04 #@! TF.FileFunction,Soldermask,Top*
%FSLAX46Y46*%
G04 Gerber Fmt 4.6, Leading zero omitted, Abs format (unit mm)*
G04 Created by KiCad (PCBNEW 4.0.2-4+6225~38~ubuntu15.04.1-stable) date 2016年04月18日 00時15分29秒*
%MOMM*%
G01*
G04 APERTURE LIST*
%ADD10C,0.100000*%
%ADD11O,1.800000X2.400000*%
%ADD12O,1.800000X1.670000*%
%ADD13R,0.908000X1.543000*%
%ADD14R,2.432000X2.127200*%
%ADD15O,2.432000X2.127200*%
%ADD16O,1.800000X1.924000*%
%ADD17R,2.000200X2.398980*%
%ADD18C,2.000000*%
%ADD19R,2.200000X1.800000*%
%ADD20R,2.000000X2.400000*%
%ADD21C,1.700000*%
%ADD22R,1.700000X1.700000*%
%ADD23R,2.400000X2.400000*%
%ADD24C,2.400000*%
%ADD25O,1.517600X2.305000*%
%ADD26R,1.517600X2.305000*%
%ADD27R,2.127200X2.432000*%
%ADD28O,2.432000X1.924000*%
%ADD29R,1.200000X1.000000*%
%ADD30R,2.900000X2.900000*%
%ADD31R,2.432000X2.432000*%
%ADD32O,2.432000X2.432000*%
%ADD33R,2.400000X2.100000*%
%ADD34R,2.100000X2.400000*%
%ADD35R,2.224000X1.924000*%
%ADD36O,2.224000X1.924000*%
%ADD37R,1.797000X1.797000*%
%ADD38C,1.797000*%
%ADD39R,1.300000X2.100000*%
%ADD40O,2.899360X1.901140*%
%ADD41O,2.178000X2.178000*%
G04 APERTURE END LIST*
D10*
D11*
X104840000Y-103790000D03*
X104840000Y-101250000D03*
X104840000Y-98710000D03*
X104840000Y-96170000D03*
X104840000Y-93630000D03*
X104840000Y-91090000D03*
X104840000Y-88550000D03*
X104840000Y-86010000D03*
X104840000Y-83470000D03*
D12*
X104840000Y-80930000D03*
D13*
X97855000Y-116998000D03*
X96585000Y-116998000D03*
X95315000Y-116998000D03*
X94045000Y-116998000D03*
X94045000Y-110648000D03*
X95315000Y-110648000D03*
X96585000Y-110648000D03*
X97855000Y-110648000D03*
D14*
X89600000Y-106330000D03*
D15*
X89600000Y-103790000D03*
X89600000Y-101250000D03*
X89600000Y-98710000D03*
D11*
X94680000Y-101250000D03*
X97220000Y-101250000D03*
X109920000Y-101250000D03*
D16*
X112460000Y-101250000D03*
D11*
X107380000Y-98710000D03*
X109920000Y-98710000D03*
X107380000Y-101250000D03*
X109920000Y-101250000D03*
X107380000Y-96170000D03*
X109920000Y-96170000D03*
X107380000Y-93630000D03*
X109920000Y-93630000D03*
X107380000Y-83470000D03*
X109920000Y-83470000D03*
X107380000Y-86010000D03*
X109920000Y-86010000D03*
X107380000Y-91090000D03*
X109920000Y-91090000D03*
X107380000Y-88550000D03*
X109920000Y-88550000D03*
X97220000Y-88550000D03*
X99760000Y-88550000D03*
X97220000Y-91090000D03*
X99760000Y-91090000D03*
X97220000Y-86010000D03*
X99760000Y-86010000D03*
X97220000Y-83470000D03*
X99760000Y-83470000D03*
X97220000Y-93630000D03*
X99760000Y-93630000D03*
X97220000Y-96170000D03*
X99760000Y-96170000D03*
X97220000Y-101250000D03*
X99760000Y-101250000D03*
D17*
X109335000Y-62520000D03*
D18*
X97435000Y-67420000D03*
X107435000Y-67420000D03*
D19*
X95535000Y-62520000D03*
D20*
X107380000Y-112458000D03*
X107380000Y-116458000D03*
X92140000Y-111950000D03*
X92140000Y-115950000D03*
X117032000Y-110616000D03*
X117032000Y-106616000D03*
X111088400Y-107974400D03*
X111088400Y-103974400D03*
D21*
X98653200Y-105618800D03*
D22*
X96153200Y-105618800D03*
D23*
X89092000Y-59086000D03*
D24*
X91632000Y-59086000D03*
D25*
X105475000Y-117760000D03*
D26*
X104205000Y-117760000D03*
D25*
X102935000Y-117760000D03*
X101665000Y-117760000D03*
D27*
X112460000Y-66960000D03*
D28*
X112460000Y-64420000D03*
X112460000Y-61880000D03*
D29*
X94180000Y-58324000D03*
X95180000Y-58324000D03*
D30*
X89600000Y-109660000D03*
X89600000Y-113160000D03*
D14*
X117540000Y-79660000D03*
D15*
X117540000Y-77120000D03*
X117540000Y-74580000D03*
X117540000Y-72040000D03*
X117540000Y-69500000D03*
X117540000Y-66960000D03*
X117540000Y-64420000D03*
X117540000Y-61880000D03*
D14*
X112460000Y-79660000D03*
D15*
X112460000Y-77120000D03*
X112460000Y-74580000D03*
X112460000Y-72040000D03*
X112460000Y-69500000D03*
D31*
X112460000Y-119030000D03*
D32*
X109920000Y-119030000D03*
D31*
X97220000Y-119030000D03*
D32*
X94680000Y-119030000D03*
D14*
X117540000Y-98710000D03*
D15*
X117540000Y-101250000D03*
X117540000Y-103790000D03*
D33*
X88616000Y-79660000D03*
X92616000Y-79660000D03*
D34*
X109666000Y-69976000D03*
X109666000Y-65976000D03*
D35*
X104840000Y-58705000D03*
D36*
X99760000Y-58705000D03*
D37*
X112460000Y-58705000D03*
D38*
X115000000Y-58705000D03*
X117540000Y-58705000D03*
D37*
X117540000Y-113950000D03*
D38*
X117540000Y-116490000D03*
X117540000Y-119030000D03*
D39*
X94522000Y-60754000D03*
X94522000Y-78754000D03*
X96022000Y-60754000D03*
X96022000Y-78754000D03*
X97522000Y-60754000D03*
X97522000Y-78754000D03*
X99022000Y-60754000D03*
X99022000Y-78754000D03*
X100522000Y-60754000D03*
X100522000Y-78754000D03*
X102022000Y-60754000D03*
X102022000Y-78754000D03*
X103522000Y-60754000D03*
X103522000Y-78754000D03*
X105022000Y-60754000D03*
X105022000Y-78754000D03*
X106522000Y-60754000D03*
X106522000Y-78754000D03*
D13*
X113730000Y-116998000D03*
X112460000Y-116998000D03*
X111190000Y-116998000D03*
X109920000Y-116998000D03*
X109920000Y-110648000D03*
X111190000Y-110648000D03*
X112460000Y-110648000D03*
X113730000Y-110648000D03*
D40*
X113984000Y-106076000D03*
D41*
X113984000Y-103536000D03*
D40*
X113984000Y-108616000D03*
D11*
X97220000Y-98710000D03*
X99760000Y-98710000D03*
X102300000Y-103790000D03*
X102300000Y-101250000D03*
X102300000Y-98710000D03*
X102300000Y-96170000D03*
X102300000Y-93630000D03*
X102300000Y-91090000D03*
X102300000Y-88550000D03*
X102300000Y-86010000D03*
X102300000Y-83470000D03*
D12*
X102300000Y-80930000D03*
D21*
X108396000Y-107052000D03*
D22*
X108396000Y-104552000D03*
D11*
X136840000Y-103790000D03*
X136840000Y-101250000D03*
X136840000Y-98710000D03*
X136840000Y-96170000D03*
X136840000Y-93630000D03*
X136840000Y-91090000D03*
X136840000Y-88550000D03*
X136840000Y-86010000D03*
X136840000Y-83470000D03*
D12*
X136840000Y-80930000D03*
D13*
X129855000Y-116998000D03*
X128585000Y-116998000D03*
X127315000Y-116998000D03*
X126045000Y-116998000D03*
X126045000Y-110648000D03*
X127315000Y-110648000D03*
X128585000Y-110648000D03*
X129855000Y-110648000D03*
D14*
X121600000Y-106330000D03*
D15*
X121600000Y-103790000D03*
X121600000Y-101250000D03*
X121600000Y-98710000D03*
D11*
X126680000Y-101250000D03*
X129220000Y-101250000D03*
X141920000Y-101250000D03*
D16*
X144460000Y-101250000D03*
D11*
X139380000Y-98710000D03*
X141920000Y-98710000D03*
X139380000Y-101250000D03*
X141920000Y-101250000D03*
X139380000Y-96170000D03*
X141920000Y-96170000D03*
X139380000Y-93630000D03*
X141920000Y-93630000D03*
X139380000Y-83470000D03*
X141920000Y-83470000D03*
X139380000Y-86010000D03*
X141920000Y-86010000D03*
X139380000Y-91090000D03*
X141920000Y-91090000D03*
X139380000Y-88550000D03*
X141920000Y-88550000D03*
X129220000Y-88550000D03*
X131760000Y-88550000D03*
X129220000Y-91090000D03*
X131760000Y-91090000D03*
X129220000Y-86010000D03*
X131760000Y-86010000D03*
X129220000Y-83470000D03*
X131760000Y-83470000D03*
X129220000Y-93630000D03*
X131760000Y-93630000D03*
X129220000Y-96170000D03*
X131760000Y-96170000D03*
X129220000Y-101250000D03*
X131760000Y-101250000D03*
D17*
X141335000Y-62520000D03*
D18*
X129435000Y-67420000D03*
X139435000Y-67420000D03*
D19*
X127535000Y-62520000D03*
D20*
X139380000Y-112458000D03*
X139380000Y-116458000D03*
X124140000Y-111950000D03*
X124140000Y-115950000D03*
X149032000Y-110616000D03*
X149032000Y-106616000D03*
X143088400Y-107974400D03*
X143088400Y-103974400D03*
D21*
X130653200Y-105618800D03*
D22*
X128153200Y-105618800D03*
D23*
X121092000Y-59086000D03*
D24*
X123632000Y-59086000D03*
D25*
X137475000Y-117760000D03*
D26*
X136205000Y-117760000D03*
D25*
X134935000Y-117760000D03*
X133665000Y-117760000D03*
D27*
X144460000Y-66960000D03*
D28*
X144460000Y-64420000D03*
X144460000Y-61880000D03*
D29*
X126180000Y-58324000D03*
X127180000Y-58324000D03*
D30*
X121600000Y-109660000D03*
X121600000Y-113160000D03*
D14*
X149540000Y-79660000D03*
D15*
X149540000Y-77120000D03*
X149540000Y-74580000D03*
X149540000Y-72040000D03*
X149540000Y-69500000D03*
X149540000Y-66960000D03*
X149540000Y-64420000D03*
X149540000Y-61880000D03*
D14*
X144460000Y-79660000D03*
D15*
X144460000Y-77120000D03*
X144460000Y-74580000D03*
X144460000Y-72040000D03*
X144460000Y-69500000D03*
D31*
X144460000Y-119030000D03*
D32*
X141920000Y-119030000D03*
D31*
X129220000Y-119030000D03*
D32*
X126680000Y-119030000D03*
D14*
X149540000Y-98710000D03*
D15*
X149540000Y-101250000D03*
X149540000Y-103790000D03*
D33*
X120616000Y-79660000D03*
X124616000Y-79660000D03*
D34*
X141666000Y-69976000D03*
X141666000Y-65976000D03*
D35*
X136840000Y-58705000D03*
D36*
X131760000Y-58705000D03*
D37*
X144460000Y-58705000D03*
D38*
X147000000Y-58705000D03*
X149540000Y-58705000D03*
D37*
X149540000Y-113950000D03*
D38*
X149540000Y-116490000D03*
X149540000Y-119030000D03*
D39*
X126522000Y-60754000D03*
X126522000Y-78754000D03*
X128022000Y-60754000D03*
X128022000Y-78754000D03*
X129522000Y-60754000D03*
X129522000Y-78754000D03*
X131022000Y-60754000D03*
X131022000Y-78754000D03*
X132522000Y-60754000D03*
X132522000Y-78754000D03*
X134022000Y-60754000D03*
X134022000Y-78754000D03*
X135522000Y-60754000D03*
X135522000Y-78754000D03*
X137022000Y-60754000D03*
X137022000Y-78754000D03*
X138522000Y-60754000D03*
X138522000Y-78754000D03*
D13*
X145730000Y-116998000D03*
X144460000Y-116998000D03*
X143190000Y-116998000D03*
X141920000Y-116998000D03*
X141920000Y-110648000D03*
X143190000Y-110648000D03*
X144460000Y-110648000D03*
X145730000Y-110648000D03*
D40*
X145984000Y-106076000D03*
D41*
X145984000Y-103536000D03*
D40*
X145984000Y-108616000D03*
D11*
X129220000Y-98710000D03*
X131760000Y-98710000D03*
X134300000Y-103790000D03*
X134300000Y-101250000D03*
X134300000Y-98710000D03*
X134300000Y-96170000D03*
X134300000Y-93630000D03*
X134300000Y-91090000D03*
X134300000Y-88550000D03*
X134300000Y-86010000D03*
X134300000Y-83470000D03*
D12*
X134300000Y-80930000D03*
D21*
X140396000Y-107052000D03*
D22*
X140396000Y-104552000D03*
D11*
X168840000Y-103790000D03*
X168840000Y-101250000D03*
X168840000Y-98710000D03*
X168840000Y-96170000D03*
X168840000Y-93630000D03*
X168840000Y-91090000D03*
X168840000Y-88550000D03*
X168840000Y-86010000D03*
X168840000Y-83470000D03*
D12*
X168840000Y-80930000D03*
D13*
X161855000Y-116998000D03*
X160585000Y-116998000D03*
X159315000Y-116998000D03*
X158045000Y-116998000D03*
X158045000Y-110648000D03*
X159315000Y-110648000D03*
X160585000Y-110648000D03*
X161855000Y-110648000D03*
D14*
X153600000Y-106330000D03*
D15*
X153600000Y-103790000D03*
X153600000Y-101250000D03*
X153600000Y-98710000D03*
D11*
X158680000Y-101250000D03*
X161220000Y-101250000D03*
X173920000Y-101250000D03*
D16*
X176460000Y-101250000D03*
D11*
X171380000Y-98710000D03*
X173920000Y-98710000D03*
X171380000Y-101250000D03*
X173920000Y-101250000D03*
X171380000Y-96170000D03*
X173920000Y-96170000D03*
X171380000Y-93630000D03*
X173920000Y-93630000D03*
X171380000Y-83470000D03*
X173920000Y-83470000D03*
X171380000Y-86010000D03*
X173920000Y-86010000D03*
X171380000Y-91090000D03*
X173920000Y-91090000D03*
X171380000Y-88550000D03*
X173920000Y-88550000D03*
X161220000Y-88550000D03*
X163760000Y-88550000D03*
X161220000Y-91090000D03*
X163760000Y-91090000D03*
X161220000Y-86010000D03*
X163760000Y-86010000D03*
X161220000Y-83470000D03*
X163760000Y-83470000D03*
X161220000Y-93630000D03*
X163760000Y-93630000D03*
X161220000Y-96170000D03*
X163760000Y-96170000D03*
X161220000Y-101250000D03*
X163760000Y-101250000D03*
D17*
X173335000Y-62520000D03*
D18*
X161435000Y-67420000D03*
X171435000Y-67420000D03*
D19*
X159535000Y-62520000D03*
D20*
X171380000Y-112458000D03*
X171380000Y-116458000D03*
X156140000Y-111950000D03*
X156140000Y-115950000D03*
X181032000Y-110616000D03*
X181032000Y-106616000D03*
X175088400Y-107974400D03*
X175088400Y-103974400D03*
D21*
X162653200Y-105618800D03*
D22*
X160153200Y-105618800D03*
D23*
X153092000Y-59086000D03*
D24*
X155632000Y-59086000D03*
D25*
X169475000Y-117760000D03*
D26*
X168205000Y-117760000D03*
D25*
X166935000Y-117760000D03*
X165665000Y-117760000D03*
D27*
X176460000Y-66960000D03*
D28*
X176460000Y-64420000D03*
X176460000Y-61880000D03*
D29*
X158180000Y-58324000D03*
X159180000Y-58324000D03*
D30*
X153600000Y-109660000D03*
X153600000Y-113160000D03*
D14*
X181540000Y-79660000D03*
D15*
X181540000Y-77120000D03*
X181540000Y-74580000D03*
X181540000Y-72040000D03*
X181540000Y-69500000D03*
X181540000Y-66960000D03*
X181540000Y-64420000D03*
X181540000Y-61880000D03*
D14*
X176460000Y-79660000D03*
D15*
X176460000Y-77120000D03*
X176460000Y-74580000D03*
X176460000Y-72040000D03*
X176460000Y-69500000D03*
D31*
X176460000Y-119030000D03*
D32*
X173920000Y-119030000D03*
D31*
X161220000Y-119030000D03*
D32*
X158680000Y-119030000D03*
D14*
X181540000Y-98710000D03*
D15*
X181540000Y-101250000D03*
X181540000Y-103790000D03*
D33*
X152616000Y-79660000D03*
X156616000Y-79660000D03*
D34*
X173666000Y-69976000D03*
X173666000Y-65976000D03*
D35*
X168840000Y-58705000D03*
D36*
X163760000Y-58705000D03*
D37*
X176460000Y-58705000D03*
D38*
X179000000Y-58705000D03*
X181540000Y-58705000D03*
D37*
X181540000Y-113950000D03*
D38*
X181540000Y-116490000D03*
X181540000Y-119030000D03*
D39*
X158522000Y-60754000D03*
X158522000Y-78754000D03*
X160022000Y-60754000D03*
X160022000Y-78754000D03*
X161522000Y-60754000D03*
X161522000Y-78754000D03*
X163022000Y-60754000D03*
X163022000Y-78754000D03*
X164522000Y-60754000D03*
X164522000Y-78754000D03*
X166022000Y-60754000D03*
X166022000Y-78754000D03*
X167522000Y-60754000D03*
X167522000Y-78754000D03*
X169022000Y-60754000D03*
X169022000Y-78754000D03*
X170522000Y-60754000D03*
X170522000Y-78754000D03*
D13*
X177730000Y-116998000D03*
X176460000Y-116998000D03*
X175190000Y-116998000D03*
X173920000Y-116998000D03*
X173920000Y-110648000D03*
X175190000Y-110648000D03*
X176460000Y-110648000D03*
X177730000Y-110648000D03*
D40*
X177984000Y-106076000D03*
D41*
X177984000Y-103536000D03*
D40*
X177984000Y-108616000D03*
D11*
X161220000Y-98710000D03*
X163760000Y-98710000D03*
X166300000Y-103790000D03*
X166300000Y-101250000D03*
X166300000Y-98710000D03*
X166300000Y-96170000D03*
X166300000Y-93630000D03*
X166300000Y-91090000D03*
X166300000Y-88550000D03*
X166300000Y-86010000D03*
X166300000Y-83470000D03*
D12*
X166300000Y-80930000D03*
D21*
X172396000Y-107052000D03*
D22*
X172396000Y-104552000D03*
M02*
